M48
; DRILL file {KiCad 7.0.6} date Wed Feb  7 19:17:43 2024
; FORMAT={-:-/ absolute / inch / decimal}
; #@! TF.CreationDate,2024-02-07T19:17:43+08:00
; #@! TF.GenerationSoftware,Kicad,Pcbnew,7.0.6
; #@! TF.FileFunction,Plated,1,4,PTH
FMAT,2
INCH
; #@! TA.AperFunction,Plated,PTH,ViaDrill
T1C0.0118
; #@! TA.AperFunction,Plated,PTH,ComponentDrill
T2C0.0256
; #@! TA.AperFunction,Plated,PTH,ComponentDrill
T3C0.0394
%
G90
G05
T1
X1.6191Y-3.6955
X1.6191Y-3.722
X1.6299Y-3.848
X1.6299Y-3.8746
X1.6299Y-3.9012
X1.6358Y-2.2982
X1.6496Y-3.7929
X1.6516Y-2.7343
X1.6535Y-2.3386
X1.6565Y-3.5689
X1.6683Y-3.1906
X1.6703Y-2.377
X1.6821Y-3.0124
X1.6905Y-2.5817
X1.6919Y-3.1906
X1.6919Y-3.6817
X1.6929Y-3.7112
X1.6939Y-3.4593
X1.7106Y-3.0124
X1.7106Y-3.7358
X1.7175Y-3.1906
X1.7195Y-3.4898
X1.7333Y-3.4524
X1.7421Y-3.4799
X1.7441Y-2.3386
X1.7461Y-3.5685
X1.7687Y-2.2982
X1.7736Y-3.4524
X1.7785Y-3.6699
X1.7913Y-3.1994
X1.7933Y-2.9504
X1.7933Y-2.977
X1.7972Y-2.2982
X1.8022Y-3.6807
X1.8087Y-2.7744
X1.8106Y-2.5856
X1.8224Y-3.3827
X1.8287Y-3.3234
X1.8331Y-2.7746
X1.8335Y-3.4083
X1.8346Y-2.5854
X1.8351Y-3.7795
X1.8354Y-3.4378
X1.8382Y-3.7138
X1.8681Y-3.0577
X1.9039Y-2.7392
X1.9039Y-2.7677
X1.9228Y-3.4071
X1.9291Y-4.2136
X1.9291Y-4.3283
X1.9301Y-4.1865
X1.9382Y-3.7784
X1.9398Y-3.4244
X1.9528Y-3.8933
X1.9547Y-2.5226
X1.9547Y-2.5433
X1.9557Y-3.9715
X1.9596Y-2.501
X1.9675Y-2.9878
X1.9675Y-3.0173
X1.9695Y-2.29
X1.9739Y-3.8495
X1.9744Y-3.3209
X1.9744Y-3.8933
X1.9744Y-3.972
X1.9748Y-3.3807
X1.9783Y-3.1059
X1.9793Y-3.0783
X1.9882Y-3.7309
X1.9961Y-3.7713
X1.998Y-2.29
X1.998Y-2.9878
X1.998Y-3.0173
X2.0079Y-3.0783
X2.0079Y-3.1059
X2.0146Y-2.5508
X2.0187Y-4.0031
X2.0197Y-4.0896
X2.0266Y-2.29
X2.0278Y-4.0254
X2.0472Y-4.0896
X2.0689Y-3.9717
X2.072Y-2.6094
X2.0748Y-3.998
X2.0915Y-2.8524
X2.0925Y-2.8829
X2.1033Y-3.972
X2.1035Y-3.9996
X2.1201Y-2.8524
X2.1211Y-2.8829
X2.1299Y-2.6555
X2.1368Y-3.2604
X2.1368Y-3.288
X2.1368Y-3.3156
X2.1506Y-2.8533
X2.1516Y-2.8839
X2.1535Y-3.3982
X2.1575Y-2.6801
X2.1585Y-3.8039
X2.1663Y-4.0124
X2.1791Y-2.5236
X2.1791Y-2.8533
X2.1801Y-2.8839
X2.1821Y-3.3992
X2.1841Y-3.8146
X2.1939Y-3.4632
X2.1949Y-3.5262
X2.2008Y-2.5679
X2.2215Y-2.9602
X2.2215Y-2.9927
X2.2215Y-3.0252
X2.2323Y-4.0498
X2.2441Y-4.1181
X2.2441Y-4.1388
X2.249Y-4.0616
X2.252Y-2.5758
X2.2539Y-2.9602
X2.2549Y-2.9917
X2.2549Y-3.0242
X2.2618Y-3.4169
X2.2638Y-3.4406
X2.2677Y-3.7437
X2.2682Y-3.6817
X2.2687Y-3.4632
X2.3071Y-4.0547
X2.3472Y-3.7386
X2.3504Y-2.285
X2.3691Y-2.6437
X2.378Y-4.1187
X2.378Y-4.1472
X2.3799Y-2.285
X2.3858Y-4.0291
X2.3858Y-4.0587
X2.3967Y-4.3136
X2.3967Y-4.3421
X2.4045Y-2.6427
X2.4085Y-2.285
X2.437Y-2.285
X2.4518Y-4.3037
X2.4518Y-4.3323
X2.4724Y-2.285
X2.4833Y-4.3037
X2.4833Y-4.3323
X2.502Y-2.285
X2.5305Y-2.285
X2.5561Y-2.6388
X2.5581Y-2.8455
X2.5591Y-2.285
X2.5709Y-3.1398
X2.5831Y-3.1516
X2.5846Y-2.6388
X2.5866Y-2.8455
X2.5974Y-2.2841
X2.6152Y-2.6398
X2.6171Y-2.8465
X2.627Y-2.2841
X2.6289Y-4.1285
X2.6409Y-3.1454
X2.6425Y-2.9646
X2.6437Y-2.6398
X2.6457Y-2.8465
X2.6555Y-2.2841
X2.6585Y-4.1285
X2.6841Y-2.2841
X2.687Y-4.1285
X2.7024Y-3.1455
X2.7165Y-4.1295
X2.7213Y-2.9646
X2.7461Y-4.1295
X2.7634Y-3.1454
X2.7746Y-4.1295
X2.7886Y-3.5272
X2.7886Y-3.5819
X2.7894Y-3.5559
X2.8Y-2.9646
X2.813Y-3.5268
X2.813Y-3.5815
X2.8134Y-3.5567
X2.8248Y-3.1488
X2.8594Y-3.3075
X2.8594Y-3.4087
X2.8787Y-2.9646
X2.8866Y-3.1425
X2.8941Y-3.3835
X2.9033Y-3.29
X2.9354Y-3.7504
X2.9575Y-2.9646
X2.9969Y-3.7488
X3.2598Y-3.1866
X3.261Y-3.1323
X3.2648Y-3.2358
X3.265Y-3.2868
X3.265Y-3.3368
X3.265Y-3.3868
X3.265Y-3.4368
X3.265Y-3.4868
X3.265Y-3.5368
X3.265Y-3.5868
X3.265Y-3.6368
X3.265Y-3.7368
X3.265Y-3.7868
X3.2677Y-2.9012
X3.2677Y-2.9297
X3.2677Y-2.9583
X3.2677Y-2.9878
X3.2707Y-2.6354
X3.2707Y-2.664
X3.2795Y-2.4583
X3.315Y-3.8569
X3.3376Y-2.287
X3.3461Y-3.3594
X3.3461Y-3.388
X3.3461Y-3.4165
X3.3461Y-3.4461
X3.3494Y-3.6118
X3.3494Y-3.6404
X3.3494Y-3.6689
X3.3494Y-3.6984
X3.3671Y-2.287
X3.3776Y-3.3594
X3.3776Y-3.388
X3.3776Y-3.4165
X3.3776Y-3.4461
X3.3809Y-3.6118
X3.3809Y-3.6404
X3.3809Y-3.6689
X3.3809Y-3.6984
X3.3957Y-2.287
X3.4142Y-3.1673
X3.4144Y-2.5675
X3.4242Y-2.287
X3.4272Y-2.5301
X3.4281Y-2.4917
X3.4488Y-4.2585
X3.4488Y-4.287
X3.4488Y-4.3156
X3.4488Y-4.3451
X3.4596Y-2.287
X3.4642Y-3.1673
X3.4803Y-4.2585
X3.4803Y-4.287
X3.4803Y-4.3156
X3.4803Y-4.3451
X3.4892Y-2.287
X3.5148Y-2.8667
X3.5148Y-2.8963
X3.5148Y-2.9248
X3.5148Y-2.9533
X3.5177Y-2.287
X3.5463Y-2.287
X3.562Y-3.1713
X3.5713Y-2.8673
X3.5713Y-2.8969
X3.5713Y-2.9254
X3.5713Y-2.9539
X3.5846Y-2.286
X3.6112Y-3.1673
X3.6142Y-2.286
X3.624Y-2.6246
X3.6348Y-2.7033
X3.6427Y-2.286
X3.6634Y-2.6506
X3.6634Y-3.165
X3.6713Y-2.286
X3.7146Y-2.5882
X3.7146Y-3.1659
X3.7165Y-3.9031
X3.7197Y-2.8072
X3.7313Y-3.2417
X3.7642Y-3.8563
X3.7717Y-4.0478
X3.7726Y-2.5843
X3.8142Y-3.1673
X3.8142Y-3.8563
X3.8159Y-3.9711
X3.8374Y-2.7843
X3.8711Y-4.0429
X3.8866Y-2.5717
X3.8937Y-2.785
X3.8947Y-3.6226
X3.8947Y-3.6512
X3.8947Y-3.6797
X3.8947Y-3.7093
X3.8976Y-3.2467
X3.8976Y-3.2752
X3.8976Y-3.3037
X3.8976Y-3.3333
X3.9006Y-2.7575
X3.9124Y-2.8205
X3.9163Y-2.853
X3.9173Y-2.8874
X3.9173Y-2.9209
X3.9181Y-2.5577
X3.9181Y-2.5862
X3.9222Y-2.785
X3.9262Y-3.6226
X3.9262Y-3.6512
X3.9262Y-3.6797
X3.9262Y-3.7093
X3.9291Y-3.2467
X3.9291Y-3.2752
X3.9291Y-3.3037
X3.9291Y-3.3333
T3
X1.6752Y-4.2953
X1.7736Y-4.2953
X2.3047Y-2.3661
X2.4047Y-2.3661
X2.5047Y-2.3661
X2.6047Y-2.3661
X2.6657Y-4.2657
X2.7047Y-2.3661
X2.7657Y-4.2657
X2.8047Y-2.3661
X2.8657Y-4.2657
X2.9047Y-2.3661
X2.9657Y-4.2657
X3.0047Y-2.3661
X3.0657Y-4.2657
X3.1047Y-2.3661
X3.1646Y-4.1217
X3.1657Y-4.2657
X3.2047Y-2.3661
X3.2646Y-4.1217
X3.2657Y-4.2657
X3.3646Y-4.1217
X3.3654Y-2.3661
X3.3657Y-4.2657
X3.4654Y-2.3661
X3.5654Y-2.3661
X3.5661Y-4.1244
X3.5665Y-4.2657
X3.6654Y-2.3661
X3.6661Y-4.1244
X3.6665Y-4.2657
X3.7654Y-2.3661
X3.7661Y-4.1244
X3.7665Y-4.2657
X3.8654Y-2.3661
X3.8661Y-4.1244
X3.8665Y-4.2657
X3.9654Y-2.3661
X3.9661Y-4.1244
X3.9665Y-4.2657
X4.0654Y-2.3661
X4.0665Y-4.2657
T2
G00X1.636Y-2.5098
M15
G01X1.6065Y-2.5098
M16
G05
G00X1.636Y-2.8504
M15
G01X1.6065Y-2.8504
M16
G05
G00X1.8069Y-2.5098
M15
G01X1.7648Y-2.5098
M16
G05
G00X1.8069Y-2.8504
M15
G01X1.7648Y-2.8504
M16
G05
T0
M30
