%TF.GenerationSoftware,KiCad,Pcbnew,7.0.6*%
%TF.CreationDate,2024-02-07T19:17:42+08:00*%
%TF.ProjectId,PCB_Main_Board_ESP32S3_RFM95,5043425f-4d61-4696-9e5f-426f6172645f,rev?*%
%TF.SameCoordinates,Original*%
%TF.FileFunction,Soldermask,Top*%
%TF.FilePolarity,Negative*%
%FSLAX46Y46*%
G04 Gerber Fmt 4.6, Leading zero omitted, Abs format (unit mm)*
G04 Created by KiCad (PCBNEW 7.0.6) date 2024-02-07 19:17:42*
%MOMM*%
%LPD*%
G01*
G04 APERTURE LIST*
G04 Aperture macros list*
%AMRoundRect*
0 Rectangle with rounded corners*
0 $1 Rounding radius*
0 $2 $3 $4 $5 $6 $7 $8 $9 X,Y pos of 4 corners*
0 Add a 4 corners polygon primitive as box body*
4,1,4,$2,$3,$4,$5,$6,$7,$8,$9,$2,$3,0*
0 Add four circle primitives for the rounded corners*
1,1,$1+$1,$2,$3*
1,1,$1+$1,$4,$5*
1,1,$1+$1,$6,$7*
1,1,$1+$1,$8,$9*
0 Add four rect primitives between the rounded corners*
20,1,$1+$1,$2,$3,$4,$5,0*
20,1,$1+$1,$4,$5,$6,$7,0*
20,1,$1+$1,$6,$7,$8,$9,0*
20,1,$1+$1,$8,$9,$2,$3,0*%
G04 Aperture macros list end*
%ADD10RoundRect,0.237500X-0.287500X-0.237500X0.287500X-0.237500X0.287500X0.237500X-0.287500X0.237500X0*%
%ADD11C,3.200000*%
%ADD12RoundRect,0.250000X0.600000X0.750000X-0.600000X0.750000X-0.600000X-0.750000X0.600000X-0.750000X0*%
%ADD13O,1.700000X2.000000*%
%ADD14RoundRect,0.237500X-0.250000X-0.237500X0.250000X-0.237500X0.250000X0.237500X-0.250000X0.237500X0*%
%ADD15RoundRect,0.250000X-0.537500X-0.425000X0.537500X-0.425000X0.537500X0.425000X-0.537500X0.425000X0*%
%ADD16RoundRect,0.237500X-0.237500X0.250000X-0.237500X-0.250000X0.237500X-0.250000X0.237500X0.250000X0*%
%ADD17RoundRect,0.237500X0.237500X-0.300000X0.237500X0.300000X-0.237500X0.300000X-0.237500X-0.300000X0*%
%ADD18R,2.000000X1.500000*%
%ADD19R,2.000000X3.800000*%
%ADD20RoundRect,0.237500X0.250000X0.237500X-0.250000X0.237500X-0.250000X-0.237500X0.250000X-0.237500X0*%
%ADD21RoundRect,0.175000X0.175000X-0.425000X0.175000X0.425000X-0.175000X0.425000X-0.175000X-0.425000X0*%
%ADD22C,0.650000*%
%ADD23RoundRect,0.102000X-0.870000X0.150000X-0.870000X-0.150000X0.870000X-0.150000X0.870000X0.150000X0*%
%ADD24O,2.204000X1.204000*%
%ADD25O,2.004000X1.104000*%
%ADD26RoundRect,0.237500X-0.300000X-0.237500X0.300000X-0.237500X0.300000X0.237500X-0.300000X0.237500X0*%
%ADD27R,1.700000X1.700000*%
%ADD28O,1.700000X1.700000*%
%ADD29RoundRect,0.300000X0.300000X-0.600000X0.300000X0.600000X-0.300000X0.600000X-0.300000X-0.600000X0*%
%ADD30RoundRect,0.250000X0.425000X-0.450000X0.425000X0.450000X-0.425000X0.450000X-0.425000X-0.450000X0*%
%ADD31RoundRect,0.175000X-0.175000X0.425000X-0.175000X-0.425000X0.175000X-0.425000X0.175000X0.425000X0*%
%ADD32RoundRect,0.237500X0.237500X-0.250000X0.237500X0.250000X-0.237500X0.250000X-0.237500X-0.250000X0*%
%ADD33C,0.900000*%
%ADD34RoundRect,0.102000X-0.750000X0.350000X-0.750000X-0.350000X0.750000X-0.350000X0.750000X0.350000X0*%
%ADD35RoundRect,0.102000X-0.400000X0.500000X-0.400000X-0.500000X0.400000X-0.500000X0.400000X0.500000X0*%
%ADD36RoundRect,0.175000X0.425000X0.175000X-0.425000X0.175000X-0.425000X-0.175000X0.425000X-0.175000X0*%
%ADD37RoundRect,0.300000X-0.600000X-0.300000X0.600000X-0.300000X0.600000X0.300000X-0.600000X0.300000X0*%
%ADD38RoundRect,0.150000X-0.150000X0.587500X-0.150000X-0.587500X0.150000X-0.587500X0.150000X0.587500X0*%
%ADD39R,1.100000X2.250000*%
%ADD40R,1.050000X1.100000*%
%ADD41R,1.100000X0.510000*%
%ADD42R,0.355600X1.473200*%
%ADD43RoundRect,0.250000X0.400000X0.625000X-0.400000X0.625000X-0.400000X-0.625000X0.400000X-0.625000X0*%
%ADD44RoundRect,0.250000X-0.425000X0.450000X-0.425000X-0.450000X0.425000X-0.450000X0.425000X0.450000X0*%
%ADD45R,4.200000X2.400000*%
%ADD46RoundRect,0.150000X0.150000X-0.512500X0.150000X0.512500X-0.150000X0.512500X-0.150000X-0.512500X0*%
%ADD47RoundRect,0.250000X0.425000X-0.537500X0.425000X0.537500X-0.425000X0.537500X-0.425000X-0.537500X0*%
%ADD48RoundRect,0.300000X-0.300000X0.600000X-0.300000X-0.600000X0.300000X-0.600000X0.300000X0.600000X0*%
%ADD49R,2.000000X0.500000*%
%ADD50RoundRect,0.237500X-0.237500X0.300000X-0.237500X-0.300000X0.237500X-0.300000X0.237500X0.300000X0*%
%ADD51RoundRect,0.237500X-0.237500X0.287500X-0.237500X-0.287500X0.237500X-0.287500X0.237500X0.287500X0*%
%ADD52R,0.900000X1.500000*%
%ADD53R,1.500000X0.900000*%
%ADD54R,0.900000X0.900000*%
%ADD55R,0.650000X1.220000*%
%ADD56R,1.400000X3.000000*%
%ADD57R,1.000000X1.700000*%
G04 APERTURE END LIST*
D10*
%TO.C,D1*%
X56937500Y-98340000D03*
X58687500Y-98340000D03*
%TD*%
D11*
%TO.C,REF\u002A\u002A*%
X105816400Y-103276400D03*
%TD*%
%TO.C,REF\u002A\u002A*%
X53746400Y-108331000D03*
%TD*%
%TO.C,REF\u002A\u002A*%
X55016400Y-60071000D03*
%TD*%
D12*
%TO.C,J1*%
X45050000Y-109100000D03*
D13*
X42550000Y-109100000D03*
%TD*%
D10*
%TO.C,D3*%
X56937500Y-99965000D03*
X58687500Y-99965000D03*
%TD*%
D14*
%TO.C,R2*%
X53187500Y-96365000D03*
X55012500Y-96365000D03*
%TD*%
D15*
%TO.C,C1*%
X51612500Y-103815000D03*
X54487500Y-103815000D03*
%TD*%
D16*
%TO.C,R7*%
X76100000Y-93395000D03*
X76100000Y-95220000D03*
%TD*%
D17*
%TO.C,C7*%
X71470000Y-95200000D03*
X71470000Y-93475000D03*
%TD*%
D18*
%TO.C,U7*%
X50585000Y-73960000D03*
X50585000Y-76260000D03*
D19*
X56885000Y-76260000D03*
D18*
X50585000Y-78560000D03*
%TD*%
D20*
%TO.C,R4*%
X58700000Y-96740000D03*
X56875000Y-96740000D03*
%TD*%
D17*
%TO.C,C6*%
X73010000Y-95190000D03*
X73010000Y-93465000D03*
%TD*%
%TO.C,C8*%
X96260000Y-75972500D03*
X96260000Y-74247500D03*
%TD*%
D21*
%TO.C,D16*%
X41100000Y-94130000D03*
X41100000Y-96130000D03*
%TD*%
D22*
%TO.C,J2*%
X44880000Y-65185000D03*
X44880000Y-70965000D03*
D23*
X46250000Y-64725000D03*
X46250000Y-65525000D03*
X46250000Y-66825000D03*
X46250000Y-67825000D03*
X46250000Y-68325000D03*
X46250000Y-69325000D03*
X46250000Y-70625000D03*
X46250000Y-71425000D03*
X46250000Y-71125000D03*
X46250000Y-70325000D03*
X46250000Y-69825000D03*
X46250000Y-68825000D03*
X46250000Y-67325000D03*
X46250000Y-66325000D03*
X46250000Y-65825000D03*
X46250000Y-65025000D03*
D24*
X45360000Y-63750000D03*
X45360000Y-72400000D03*
D25*
X41180000Y-63750000D03*
X41180000Y-72400000D03*
%TD*%
D26*
%TO.C,C20*%
X52575000Y-82652500D03*
X54300000Y-82652500D03*
%TD*%
D14*
%TO.C,R20*%
X44787500Y-96000000D03*
X46612500Y-96000000D03*
%TD*%
D27*
%TO.C,J5*%
X90590000Y-108350000D03*
D28*
X93130000Y-108350000D03*
X95670000Y-108350000D03*
X98210000Y-108350000D03*
X100750000Y-108350000D03*
X103290000Y-108350000D03*
%TD*%
D29*
%TO.C,D8*%
X41162500Y-102190000D03*
X41162500Y-98290000D03*
%TD*%
D30*
%TO.C,C5*%
X60600000Y-102740000D03*
X60600000Y-100040000D03*
%TD*%
D16*
%TO.C,R29*%
X49250000Y-94127500D03*
X49250000Y-95952500D03*
%TD*%
D31*
%TO.C,D5*%
X51225000Y-70750000D03*
X51225000Y-68750000D03*
%TD*%
D21*
%TO.C,D6*%
X51225000Y-64350000D03*
X51225000Y-66350000D03*
%TD*%
D32*
%TO.C,R16*%
X95850000Y-67365000D03*
X95850000Y-65540000D03*
%TD*%
D33*
%TO.C,S1*%
X41300000Y-77290000D03*
X41300000Y-80290000D03*
D34*
X43050000Y-76540000D03*
X43050000Y-79540000D03*
X43050000Y-81040000D03*
D35*
X42350000Y-75140000D03*
X40250000Y-75140000D03*
X40250000Y-82440000D03*
X42350000Y-82440000D03*
%TD*%
D14*
%TO.C,R22*%
X44507500Y-84410000D03*
X46332500Y-84410000D03*
%TD*%
D27*
%TO.C,J10*%
X85460000Y-104690000D03*
D28*
X82920000Y-104690000D03*
X80380000Y-104690000D03*
%TD*%
D11*
%TO.C,REF\u002A\u002A*%
X105850000Y-75350000D03*
%TD*%
D20*
%TO.C,R30*%
X54350000Y-84202500D03*
X52525000Y-84202500D03*
%TD*%
D36*
%TO.C,D2*%
X44375000Y-62175000D03*
X46375000Y-62175000D03*
%TD*%
D20*
%TO.C,R24*%
X42837500Y-84390000D03*
X41012500Y-84390000D03*
%TD*%
D37*
%TO.C,D7*%
X41275000Y-105200000D03*
X45175000Y-105200000D03*
%TD*%
D14*
%TO.C,R21*%
X44807500Y-94390000D03*
X46632500Y-94390000D03*
%TD*%
D27*
%TO.C,J6*%
X67710000Y-108350000D03*
D28*
X70250000Y-108350000D03*
X72790000Y-108350000D03*
X75330000Y-108350000D03*
X77870000Y-108350000D03*
X80410000Y-108350000D03*
X82950000Y-108350000D03*
X85490000Y-108350000D03*
%TD*%
D38*
%TO.C,Q1*%
X49975000Y-104462500D03*
X48075000Y-104462500D03*
X49025000Y-106337500D03*
%TD*%
D26*
%TO.C,C21*%
X52575000Y-81090000D03*
X54300000Y-81090000D03*
%TD*%
D16*
%TO.C,R6*%
X74550000Y-93405000D03*
X74550000Y-95230000D03*
%TD*%
D39*
%TO.C,J4*%
X70785000Y-100770000D03*
X67835000Y-100770000D03*
D40*
X69310000Y-99220000D03*
%TD*%
D41*
%TO.C,U1*%
X54962500Y-101890000D03*
X54962500Y-100890000D03*
X54962500Y-99890000D03*
X54962500Y-98890000D03*
X54962500Y-97890000D03*
X49862500Y-97890000D03*
X49862500Y-98890000D03*
X49862500Y-99890000D03*
X49862500Y-100890000D03*
X49862500Y-101890000D03*
%TD*%
D42*
%TO.C,U6*%
X41144200Y-92101000D03*
X41804600Y-92101000D03*
X42439600Y-92101000D03*
X43100000Y-92101000D03*
X43760400Y-92101000D03*
X44395400Y-92101000D03*
X45055800Y-92101000D03*
X45055800Y-86259000D03*
X44395400Y-86259000D03*
X43760400Y-86259000D03*
X43100000Y-86259000D03*
X42439600Y-86259000D03*
X41804600Y-86259000D03*
X41144200Y-86259000D03*
%TD*%
D26*
%TO.C,C3*%
X56925000Y-103015000D03*
X58650000Y-103015000D03*
%TD*%
D36*
%TO.C,D19*%
X50150000Y-84350000D03*
X48150000Y-84350000D03*
%TD*%
D43*
%TO.C,R5*%
X60100000Y-105140000D03*
X57000000Y-105140000D03*
%TD*%
D32*
%TO.C,R28*%
X97470000Y-70770000D03*
X97470000Y-68945000D03*
%TD*%
D44*
%TO.C,C18*%
X48050000Y-79690000D03*
X48050000Y-82390000D03*
%TD*%
D45*
%TO.C,L1*%
X45075000Y-102625000D03*
X45075000Y-98125000D03*
%TD*%
D27*
%TO.C,J7*%
X85480000Y-60100000D03*
D28*
X88020000Y-60100000D03*
X90560000Y-60100000D03*
X93100000Y-60100000D03*
X95640000Y-60100000D03*
X98180000Y-60100000D03*
X100720000Y-60100000D03*
X103260000Y-60100000D03*
%TD*%
D14*
%TO.C,R3*%
X56887500Y-101490000D03*
X58712500Y-101490000D03*
%TD*%
D36*
%TO.C,D18*%
X48160000Y-85870000D03*
X50160000Y-85870000D03*
%TD*%
D46*
%TO.C,IC1*%
X45550000Y-77665000D03*
X46500000Y-77665000D03*
X47450000Y-77665000D03*
X47450000Y-75390000D03*
X45550000Y-75390000D03*
%TD*%
D26*
%TO.C,C15*%
X97767500Y-72450000D03*
X99492500Y-72450000D03*
%TD*%
D32*
%TO.C,R15*%
X94300000Y-67375000D03*
X94300000Y-65550000D03*
%TD*%
%TO.C,R23*%
X99480000Y-75962500D03*
X99480000Y-74137500D03*
%TD*%
D14*
%TO.C,R25*%
X97777500Y-77550000D03*
X99602500Y-77550000D03*
%TD*%
D47*
%TO.C,C2*%
X50675000Y-61737500D03*
X50675000Y-58862500D03*
%TD*%
D32*
%TO.C,R27*%
X45475000Y-81252500D03*
X45475000Y-79427500D03*
%TD*%
D48*
%TO.C,D4*%
X48300000Y-58500000D03*
X48300000Y-62400000D03*
%TD*%
D49*
%TO.C,J12*%
X41625000Y-58375000D03*
X44925000Y-58375000D03*
X41625000Y-59375000D03*
X44925000Y-59375000D03*
X41625000Y-60375000D03*
X44925000Y-60375000D03*
%TD*%
D50*
%TO.C,C22*%
X46775000Y-87257500D03*
X46775000Y-88982500D03*
%TD*%
D47*
%TO.C,C16*%
X99360000Y-70457500D03*
X99360000Y-67582500D03*
%TD*%
D17*
%TO.C,C19*%
X50085000Y-82502500D03*
X50085000Y-80777500D03*
%TD*%
D51*
%TO.C,D20*%
X97460000Y-65585000D03*
X97460000Y-67335000D03*
%TD*%
D52*
%TO.C,U5*%
X100690000Y-80450000D03*
X99420000Y-80450000D03*
X98150000Y-80450000D03*
X96880000Y-80450000D03*
X95610000Y-80450000D03*
X94340000Y-80450000D03*
X93070000Y-80450000D03*
X91800000Y-80450000D03*
X90530000Y-80450000D03*
X89260000Y-80450000D03*
X87990000Y-80450000D03*
X86720000Y-80450000D03*
X85450000Y-80450000D03*
X84180000Y-80450000D03*
D53*
X82930000Y-82215000D03*
X82930000Y-83485000D03*
X82930000Y-84755000D03*
X82930000Y-86025000D03*
X82930000Y-87295000D03*
X82930000Y-88565000D03*
X82930000Y-89835000D03*
X82930000Y-91105000D03*
X82930000Y-92375000D03*
X82930000Y-93645000D03*
X82930000Y-94915000D03*
X82930000Y-96185000D03*
D52*
X84180000Y-97950000D03*
X85450000Y-97950000D03*
X86720000Y-97950000D03*
X87990000Y-97950000D03*
X89260000Y-97950000D03*
X90530000Y-97950000D03*
X91800000Y-97950000D03*
X93070000Y-97950000D03*
X94340000Y-97950000D03*
X95610000Y-97950000D03*
X96880000Y-97950000D03*
X98150000Y-97950000D03*
X99420000Y-97950000D03*
X100690000Y-97950000D03*
D54*
X92970000Y-87700000D03*
X92970000Y-86300000D03*
X92970000Y-89100000D03*
X91570000Y-86300000D03*
X91570000Y-87700000D03*
X91570000Y-89100000D03*
X94370000Y-86300000D03*
X94370000Y-87700000D03*
X94370000Y-89100000D03*
%TD*%
D16*
%TO.C,R1*%
X48975000Y-108052500D03*
X48975000Y-109877500D03*
%TD*%
D50*
%TO.C,C4*%
X60425000Y-96477500D03*
X60425000Y-98202500D03*
%TD*%
D55*
%TO.C,Q2*%
X50375000Y-89705000D03*
X48475000Y-89705000D03*
X49425000Y-92325000D03*
%TD*%
D27*
%TO.C,J9*%
X58540000Y-60100000D03*
D28*
X61080000Y-60100000D03*
X63620000Y-60100000D03*
X66160000Y-60100000D03*
X68700000Y-60100000D03*
X71240000Y-60100000D03*
X73780000Y-60100000D03*
X76320000Y-60100000D03*
X78860000Y-60100000D03*
X81400000Y-60100000D03*
%TD*%
D27*
%TO.C,J11*%
X90580000Y-104760000D03*
D28*
X93120000Y-104760000D03*
X95660000Y-104760000D03*
X98200000Y-104760000D03*
X100740000Y-104760000D03*
%TD*%
D16*
%TO.C,R8*%
X77660000Y-93395000D03*
X77660000Y-95220000D03*
%TD*%
D50*
%TO.C,C17*%
X97900000Y-74197500D03*
X97900000Y-75922500D03*
%TD*%
D56*
%TO.C,U2*%
X77120000Y-75300000D03*
X75120000Y-75300000D03*
X73120000Y-75300000D03*
X71120000Y-75300000D03*
X69120000Y-75300000D03*
X67120000Y-75300000D03*
X65120000Y-75300000D03*
X63120000Y-75300000D03*
X63120000Y-90700000D03*
X65120000Y-90700000D03*
X67120000Y-90700000D03*
X69120000Y-90700000D03*
X71120000Y-90700000D03*
X73120000Y-90700000D03*
X75120000Y-90700000D03*
X77120000Y-90700000D03*
%TD*%
D57*
%TO.C,S2*%
X90680000Y-77602500D03*
X90680000Y-71302500D03*
X94480000Y-77602500D03*
X94480000Y-71302500D03*
%TD*%
D21*
%TO.C,D17*%
X46750000Y-90730000D03*
X46750000Y-92730000D03*
%TD*%
D33*
%TO.C,P1*%
X43080000Y-98320000D03*
X43080000Y-90320000D03*
%TD*%
M02*
