%TF.GenerationSoftware,KiCad,Pcbnew,7.0.6*%
%TF.CreationDate,2024-02-07T19:17:41+08:00*%
%TF.ProjectId,PCB_Main_Board_ESP32S3_RFM95,5043425f-4d61-4696-9e5f-426f6172645f,rev?*%
%TF.SameCoordinates,Original*%
%TF.FileFunction,Legend,Top*%
%TF.FilePolarity,Positive*%
%FSLAX46Y46*%
G04 Gerber Fmt 4.6, Leading zero omitted, Abs format (unit mm)*
G04 Created by KiCad (PCBNEW 7.0.6) date 2024-02-07 19:17:41*
%MOMM*%
%LPD*%
G01*
G04 APERTURE LIST*
%ADD10C,0.150000*%
%ADD11C,0.120000*%
%ADD12C,0.127000*%
%ADD13C,0.200000*%
%ADD14C,0.010000*%
%ADD15C,0.152400*%
G04 APERTURE END LIST*
D10*
X60552438Y-76041904D02*
X60504819Y-76137142D01*
X60504819Y-76137142D02*
X60504819Y-76279999D01*
X60504819Y-76279999D02*
X60552438Y-76422856D01*
X60552438Y-76422856D02*
X60647676Y-76518094D01*
X60647676Y-76518094D02*
X60742914Y-76565713D01*
X60742914Y-76565713D02*
X60933390Y-76613332D01*
X60933390Y-76613332D02*
X61076247Y-76613332D01*
X61076247Y-76613332D02*
X61266723Y-76565713D01*
X61266723Y-76565713D02*
X61361961Y-76518094D01*
X61361961Y-76518094D02*
X61457200Y-76422856D01*
X61457200Y-76422856D02*
X61504819Y-76279999D01*
X61504819Y-76279999D02*
X61504819Y-76184761D01*
X61504819Y-76184761D02*
X61457200Y-76041904D01*
X61457200Y-76041904D02*
X61409580Y-75994285D01*
X61409580Y-75994285D02*
X61076247Y-75994285D01*
X61076247Y-75994285D02*
X61076247Y-76184761D01*
X61504819Y-75565713D02*
X60504819Y-75565713D01*
X60504819Y-75565713D02*
X61504819Y-74994285D01*
X61504819Y-74994285D02*
X60504819Y-74994285D01*
X61504819Y-74518094D02*
X60504819Y-74518094D01*
X60504819Y-74518094D02*
X60504819Y-74279999D01*
X60504819Y-74279999D02*
X60552438Y-74137142D01*
X60552438Y-74137142D02*
X60647676Y-74041904D01*
X60647676Y-74041904D02*
X60742914Y-73994285D01*
X60742914Y-73994285D02*
X60933390Y-73946666D01*
X60933390Y-73946666D02*
X61076247Y-73946666D01*
X61076247Y-73946666D02*
X61266723Y-73994285D01*
X61266723Y-73994285D02*
X61361961Y-74041904D01*
X61361961Y-74041904D02*
X61457200Y-74137142D01*
X61457200Y-74137142D02*
X61504819Y-74279999D01*
X61504819Y-74279999D02*
X61504819Y-74518094D01*
X52534523Y-62704819D02*
X52058333Y-62704819D01*
X52058333Y-62704819D02*
X52010714Y-63181009D01*
X52010714Y-63181009D02*
X52058333Y-63133390D01*
X52058333Y-63133390D02*
X52153571Y-63085771D01*
X52153571Y-63085771D02*
X52391666Y-63085771D01*
X52391666Y-63085771D02*
X52486904Y-63133390D01*
X52486904Y-63133390D02*
X52534523Y-63181009D01*
X52534523Y-63181009D02*
X52582142Y-63276247D01*
X52582142Y-63276247D02*
X52582142Y-63514342D01*
X52582142Y-63514342D02*
X52534523Y-63609580D01*
X52534523Y-63609580D02*
X52486904Y-63657200D01*
X52486904Y-63657200D02*
X52391666Y-63704819D01*
X52391666Y-63704819D02*
X52153571Y-63704819D01*
X52153571Y-63704819D02*
X52058333Y-63657200D01*
X52058333Y-63657200D02*
X52010714Y-63609580D01*
X52867857Y-62704819D02*
X53201190Y-63704819D01*
X53201190Y-63704819D02*
X53534523Y-62704819D01*
X72979999Y-100319819D02*
X72979999Y-99319819D01*
X72979999Y-99319819D02*
X73218094Y-99319819D01*
X73218094Y-99319819D02*
X73360951Y-99367438D01*
X73360951Y-99367438D02*
X73456189Y-99462676D01*
X73456189Y-99462676D02*
X73503808Y-99557914D01*
X73503808Y-99557914D02*
X73551427Y-99748390D01*
X73551427Y-99748390D02*
X73551427Y-99891247D01*
X73551427Y-99891247D02*
X73503808Y-100081723D01*
X73503808Y-100081723D02*
X73456189Y-100176961D01*
X73456189Y-100176961D02*
X73360951Y-100272200D01*
X73360951Y-100272200D02*
X73218094Y-100319819D01*
X73218094Y-100319819D02*
X72979999Y-100319819D01*
X74360951Y-100272200D02*
X74265713Y-100319819D01*
X74265713Y-100319819D02*
X74075237Y-100319819D01*
X74075237Y-100319819D02*
X73979999Y-100272200D01*
X73979999Y-100272200D02*
X73932380Y-100176961D01*
X73932380Y-100176961D02*
X73932380Y-99796009D01*
X73932380Y-99796009D02*
X73979999Y-99700771D01*
X73979999Y-99700771D02*
X74075237Y-99653152D01*
X74075237Y-99653152D02*
X74265713Y-99653152D01*
X74265713Y-99653152D02*
X74360951Y-99700771D01*
X74360951Y-99700771D02*
X74408570Y-99796009D01*
X74408570Y-99796009D02*
X74408570Y-99891247D01*
X74408570Y-99891247D02*
X73932380Y-99986485D01*
X74741904Y-99653152D02*
X74979999Y-100319819D01*
X74979999Y-100319819D02*
X75218094Y-99653152D01*
X75979999Y-100272200D02*
X75884761Y-100319819D01*
X75884761Y-100319819D02*
X75694285Y-100319819D01*
X75694285Y-100319819D02*
X75599047Y-100272200D01*
X75599047Y-100272200D02*
X75551428Y-100176961D01*
X75551428Y-100176961D02*
X75551428Y-99796009D01*
X75551428Y-99796009D02*
X75599047Y-99700771D01*
X75599047Y-99700771D02*
X75694285Y-99653152D01*
X75694285Y-99653152D02*
X75884761Y-99653152D01*
X75884761Y-99653152D02*
X75979999Y-99700771D01*
X75979999Y-99700771D02*
X76027618Y-99796009D01*
X76027618Y-99796009D02*
X76027618Y-99891247D01*
X76027618Y-99891247D02*
X75551428Y-99986485D01*
X76599047Y-100319819D02*
X76503809Y-100272200D01*
X76503809Y-100272200D02*
X76456190Y-100176961D01*
X76456190Y-100176961D02*
X76456190Y-99319819D01*
X77122857Y-100319819D02*
X77027619Y-100272200D01*
X77027619Y-100272200D02*
X76980000Y-100224580D01*
X76980000Y-100224580D02*
X76932381Y-100129342D01*
X76932381Y-100129342D02*
X76932381Y-99843628D01*
X76932381Y-99843628D02*
X76980000Y-99748390D01*
X76980000Y-99748390D02*
X77027619Y-99700771D01*
X77027619Y-99700771D02*
X77122857Y-99653152D01*
X77122857Y-99653152D02*
X77265714Y-99653152D01*
X77265714Y-99653152D02*
X77360952Y-99700771D01*
X77360952Y-99700771D02*
X77408571Y-99748390D01*
X77408571Y-99748390D02*
X77456190Y-99843628D01*
X77456190Y-99843628D02*
X77456190Y-100129342D01*
X77456190Y-100129342D02*
X77408571Y-100224580D01*
X77408571Y-100224580D02*
X77360952Y-100272200D01*
X77360952Y-100272200D02*
X77265714Y-100319819D01*
X77265714Y-100319819D02*
X77122857Y-100319819D01*
X77884762Y-99653152D02*
X77884762Y-100653152D01*
X77884762Y-99700771D02*
X77980000Y-99653152D01*
X77980000Y-99653152D02*
X78170476Y-99653152D01*
X78170476Y-99653152D02*
X78265714Y-99700771D01*
X78265714Y-99700771D02*
X78313333Y-99748390D01*
X78313333Y-99748390D02*
X78360952Y-99843628D01*
X78360952Y-99843628D02*
X78360952Y-100129342D01*
X78360952Y-100129342D02*
X78313333Y-100224580D01*
X78313333Y-100224580D02*
X78265714Y-100272200D01*
X78265714Y-100272200D02*
X78170476Y-100319819D01*
X78170476Y-100319819D02*
X77980000Y-100319819D01*
X77980000Y-100319819D02*
X77884762Y-100272200D01*
X78789524Y-100319819D02*
X78789524Y-99653152D01*
X78789524Y-99748390D02*
X78837143Y-99700771D01*
X78837143Y-99700771D02*
X78932381Y-99653152D01*
X78932381Y-99653152D02*
X79075238Y-99653152D01*
X79075238Y-99653152D02*
X79170476Y-99700771D01*
X79170476Y-99700771D02*
X79218095Y-99796009D01*
X79218095Y-99796009D02*
X79218095Y-100319819D01*
X79218095Y-99796009D02*
X79265714Y-99700771D01*
X79265714Y-99700771D02*
X79360952Y-99653152D01*
X79360952Y-99653152D02*
X79503809Y-99653152D01*
X79503809Y-99653152D02*
X79599048Y-99700771D01*
X79599048Y-99700771D02*
X79646667Y-99796009D01*
X79646667Y-99796009D02*
X79646667Y-100319819D01*
X80503809Y-100272200D02*
X80408571Y-100319819D01*
X80408571Y-100319819D02*
X80218095Y-100319819D01*
X80218095Y-100319819D02*
X80122857Y-100272200D01*
X80122857Y-100272200D02*
X80075238Y-100176961D01*
X80075238Y-100176961D02*
X80075238Y-99796009D01*
X80075238Y-99796009D02*
X80122857Y-99700771D01*
X80122857Y-99700771D02*
X80218095Y-99653152D01*
X80218095Y-99653152D02*
X80408571Y-99653152D01*
X80408571Y-99653152D02*
X80503809Y-99700771D01*
X80503809Y-99700771D02*
X80551428Y-99796009D01*
X80551428Y-99796009D02*
X80551428Y-99891247D01*
X80551428Y-99891247D02*
X80075238Y-99986485D01*
X80980000Y-99653152D02*
X80980000Y-100319819D01*
X80980000Y-99748390D02*
X81027619Y-99700771D01*
X81027619Y-99700771D02*
X81122857Y-99653152D01*
X81122857Y-99653152D02*
X81265714Y-99653152D01*
X81265714Y-99653152D02*
X81360952Y-99700771D01*
X81360952Y-99700771D02*
X81408571Y-99796009D01*
X81408571Y-99796009D02*
X81408571Y-100319819D01*
X81741905Y-99653152D02*
X82122857Y-99653152D01*
X81884762Y-99319819D02*
X81884762Y-100176961D01*
X81884762Y-100176961D02*
X81932381Y-100272200D01*
X81932381Y-100272200D02*
X82027619Y-100319819D01*
X82027619Y-100319819D02*
X82122857Y-100319819D01*
X75884761Y-101406009D02*
X76027618Y-101453628D01*
X76027618Y-101453628D02*
X76075237Y-101501247D01*
X76075237Y-101501247D02*
X76122856Y-101596485D01*
X76122856Y-101596485D02*
X76122856Y-101739342D01*
X76122856Y-101739342D02*
X76075237Y-101834580D01*
X76075237Y-101834580D02*
X76027618Y-101882200D01*
X76027618Y-101882200D02*
X75932380Y-101929819D01*
X75932380Y-101929819D02*
X75551428Y-101929819D01*
X75551428Y-101929819D02*
X75551428Y-100929819D01*
X75551428Y-100929819D02*
X75884761Y-100929819D01*
X75884761Y-100929819D02*
X75979999Y-100977438D01*
X75979999Y-100977438D02*
X76027618Y-101025057D01*
X76027618Y-101025057D02*
X76075237Y-101120295D01*
X76075237Y-101120295D02*
X76075237Y-101215533D01*
X76075237Y-101215533D02*
X76027618Y-101310771D01*
X76027618Y-101310771D02*
X75979999Y-101358390D01*
X75979999Y-101358390D02*
X75884761Y-101406009D01*
X75884761Y-101406009D02*
X75551428Y-101406009D01*
X76694285Y-101929819D02*
X76599047Y-101882200D01*
X76599047Y-101882200D02*
X76551428Y-101834580D01*
X76551428Y-101834580D02*
X76503809Y-101739342D01*
X76503809Y-101739342D02*
X76503809Y-101453628D01*
X76503809Y-101453628D02*
X76551428Y-101358390D01*
X76551428Y-101358390D02*
X76599047Y-101310771D01*
X76599047Y-101310771D02*
X76694285Y-101263152D01*
X76694285Y-101263152D02*
X76837142Y-101263152D01*
X76837142Y-101263152D02*
X76932380Y-101310771D01*
X76932380Y-101310771D02*
X76979999Y-101358390D01*
X76979999Y-101358390D02*
X77027618Y-101453628D01*
X77027618Y-101453628D02*
X77027618Y-101739342D01*
X77027618Y-101739342D02*
X76979999Y-101834580D01*
X76979999Y-101834580D02*
X76932380Y-101882200D01*
X76932380Y-101882200D02*
X76837142Y-101929819D01*
X76837142Y-101929819D02*
X76694285Y-101929819D01*
X77884761Y-101929819D02*
X77884761Y-101406009D01*
X77884761Y-101406009D02*
X77837142Y-101310771D01*
X77837142Y-101310771D02*
X77741904Y-101263152D01*
X77741904Y-101263152D02*
X77551428Y-101263152D01*
X77551428Y-101263152D02*
X77456190Y-101310771D01*
X77884761Y-101882200D02*
X77789523Y-101929819D01*
X77789523Y-101929819D02*
X77551428Y-101929819D01*
X77551428Y-101929819D02*
X77456190Y-101882200D01*
X77456190Y-101882200D02*
X77408571Y-101786961D01*
X77408571Y-101786961D02*
X77408571Y-101691723D01*
X77408571Y-101691723D02*
X77456190Y-101596485D01*
X77456190Y-101596485D02*
X77551428Y-101548866D01*
X77551428Y-101548866D02*
X77789523Y-101548866D01*
X77789523Y-101548866D02*
X77884761Y-101501247D01*
X78360952Y-101929819D02*
X78360952Y-101263152D01*
X78360952Y-101453628D02*
X78408571Y-101358390D01*
X78408571Y-101358390D02*
X78456190Y-101310771D01*
X78456190Y-101310771D02*
X78551428Y-101263152D01*
X78551428Y-101263152D02*
X78646666Y-101263152D01*
X79408571Y-101929819D02*
X79408571Y-100929819D01*
X79408571Y-101882200D02*
X79313333Y-101929819D01*
X79313333Y-101929819D02*
X79122857Y-101929819D01*
X79122857Y-101929819D02*
X79027619Y-101882200D01*
X79027619Y-101882200D02*
X78980000Y-101834580D01*
X78980000Y-101834580D02*
X78932381Y-101739342D01*
X78932381Y-101739342D02*
X78932381Y-101453628D01*
X78932381Y-101453628D02*
X78980000Y-101358390D01*
X78980000Y-101358390D02*
X79027619Y-101310771D01*
X79027619Y-101310771D02*
X79122857Y-101263152D01*
X79122857Y-101263152D02*
X79313333Y-101263152D01*
X79313333Y-101263152D02*
X79408571Y-101310771D01*
X56961905Y-91694819D02*
X56961905Y-90694819D01*
X56961905Y-90694819D02*
X57200000Y-90694819D01*
X57200000Y-90694819D02*
X57342857Y-90742438D01*
X57342857Y-90742438D02*
X57438095Y-90837676D01*
X57438095Y-90837676D02*
X57485714Y-90932914D01*
X57485714Y-90932914D02*
X57533333Y-91123390D01*
X57533333Y-91123390D02*
X57533333Y-91266247D01*
X57533333Y-91266247D02*
X57485714Y-91456723D01*
X57485714Y-91456723D02*
X57438095Y-91551961D01*
X57438095Y-91551961D02*
X57342857Y-91647200D01*
X57342857Y-91647200D02*
X57200000Y-91694819D01*
X57200000Y-91694819D02*
X56961905Y-91694819D01*
X58485714Y-91694819D02*
X57914286Y-91694819D01*
X58200000Y-91694819D02*
X58200000Y-90694819D01*
X58200000Y-90694819D02*
X58104762Y-90837676D01*
X58104762Y-90837676D02*
X58009524Y-90932914D01*
X58009524Y-90932914D02*
X57914286Y-90980533D01*
X105091666Y-100244819D02*
X104758333Y-99768628D01*
X104520238Y-100244819D02*
X104520238Y-99244819D01*
X104520238Y-99244819D02*
X104901190Y-99244819D01*
X104901190Y-99244819D02*
X104996428Y-99292438D01*
X104996428Y-99292438D02*
X105044047Y-99340057D01*
X105044047Y-99340057D02*
X105091666Y-99435295D01*
X105091666Y-99435295D02*
X105091666Y-99578152D01*
X105091666Y-99578152D02*
X105044047Y-99673390D01*
X105044047Y-99673390D02*
X104996428Y-99721009D01*
X104996428Y-99721009D02*
X104901190Y-99768628D01*
X104901190Y-99768628D02*
X104520238Y-99768628D01*
X105520238Y-99721009D02*
X105853571Y-99721009D01*
X105996428Y-100244819D02*
X105520238Y-100244819D01*
X105520238Y-100244819D02*
X105520238Y-99244819D01*
X105520238Y-99244819D02*
X105996428Y-99244819D01*
X106758333Y-99721009D02*
X106425000Y-99721009D01*
X106425000Y-100244819D02*
X106425000Y-99244819D01*
X106425000Y-99244819D02*
X106901190Y-99244819D01*
X107425000Y-99244819D02*
X107425000Y-99482914D01*
X107186905Y-99387676D02*
X107425000Y-99482914D01*
X107425000Y-99482914D02*
X107663095Y-99387676D01*
X107282143Y-99673390D02*
X107425000Y-99482914D01*
X107425000Y-99482914D02*
X107567857Y-99673390D01*
X108186905Y-99244819D02*
X108186905Y-99482914D01*
X107948810Y-99387676D02*
X108186905Y-99482914D01*
X108186905Y-99482914D02*
X108425000Y-99387676D01*
X108044048Y-99673390D02*
X108186905Y-99482914D01*
X108186905Y-99482914D02*
X108329762Y-99673390D01*
X58154819Y-110173333D02*
X57678628Y-110506666D01*
X58154819Y-110744761D02*
X57154819Y-110744761D01*
X57154819Y-110744761D02*
X57154819Y-110363809D01*
X57154819Y-110363809D02*
X57202438Y-110268571D01*
X57202438Y-110268571D02*
X57250057Y-110220952D01*
X57250057Y-110220952D02*
X57345295Y-110173333D01*
X57345295Y-110173333D02*
X57488152Y-110173333D01*
X57488152Y-110173333D02*
X57583390Y-110220952D01*
X57583390Y-110220952D02*
X57631009Y-110268571D01*
X57631009Y-110268571D02*
X57678628Y-110363809D01*
X57678628Y-110363809D02*
X57678628Y-110744761D01*
X57631009Y-109744761D02*
X57631009Y-109411428D01*
X58154819Y-109268571D02*
X58154819Y-109744761D01*
X58154819Y-109744761D02*
X57154819Y-109744761D01*
X57154819Y-109744761D02*
X57154819Y-109268571D01*
X57631009Y-108506666D02*
X57631009Y-108839999D01*
X58154819Y-108839999D02*
X57154819Y-108839999D01*
X57154819Y-108839999D02*
X57154819Y-108363809D01*
X57154819Y-107839999D02*
X57392914Y-107839999D01*
X57297676Y-108078094D02*
X57392914Y-107839999D01*
X57392914Y-107839999D02*
X57297676Y-107601904D01*
X57583390Y-107982856D02*
X57392914Y-107839999D01*
X57392914Y-107839999D02*
X57583390Y-107697142D01*
X57154819Y-107078094D02*
X57392914Y-107078094D01*
X57297676Y-107316189D02*
X57392914Y-107078094D01*
X57392914Y-107078094D02*
X57297676Y-106839999D01*
X57583390Y-107220951D02*
X57392914Y-107078094D01*
X57392914Y-107078094D02*
X57583390Y-106935237D01*
X57891666Y-63304819D02*
X57558333Y-62828628D01*
X57320238Y-63304819D02*
X57320238Y-62304819D01*
X57320238Y-62304819D02*
X57701190Y-62304819D01*
X57701190Y-62304819D02*
X57796428Y-62352438D01*
X57796428Y-62352438D02*
X57844047Y-62400057D01*
X57844047Y-62400057D02*
X57891666Y-62495295D01*
X57891666Y-62495295D02*
X57891666Y-62638152D01*
X57891666Y-62638152D02*
X57844047Y-62733390D01*
X57844047Y-62733390D02*
X57796428Y-62781009D01*
X57796428Y-62781009D02*
X57701190Y-62828628D01*
X57701190Y-62828628D02*
X57320238Y-62828628D01*
X58320238Y-62781009D02*
X58653571Y-62781009D01*
X58796428Y-63304819D02*
X58320238Y-63304819D01*
X58320238Y-63304819D02*
X58320238Y-62304819D01*
X58320238Y-62304819D02*
X58796428Y-62304819D01*
X59558333Y-62781009D02*
X59225000Y-62781009D01*
X59225000Y-63304819D02*
X59225000Y-62304819D01*
X59225000Y-62304819D02*
X59701190Y-62304819D01*
X60225000Y-62304819D02*
X60225000Y-62542914D01*
X59986905Y-62447676D02*
X60225000Y-62542914D01*
X60225000Y-62542914D02*
X60463095Y-62447676D01*
X60082143Y-62733390D02*
X60225000Y-62542914D01*
X60225000Y-62542914D02*
X60367857Y-62733390D01*
X60986905Y-62304819D02*
X60986905Y-62542914D01*
X60748810Y-62447676D02*
X60986905Y-62542914D01*
X60986905Y-62542914D02*
X61225000Y-62447676D01*
X60844048Y-62733390D02*
X60986905Y-62542914D01*
X60986905Y-62542914D02*
X61129762Y-62733390D01*
X43316666Y-106954819D02*
X43316666Y-107669104D01*
X43316666Y-107669104D02*
X43269047Y-107811961D01*
X43269047Y-107811961D02*
X43173809Y-107907200D01*
X43173809Y-107907200D02*
X43030952Y-107954819D01*
X43030952Y-107954819D02*
X42935714Y-107954819D01*
X44316666Y-107954819D02*
X43745238Y-107954819D01*
X44030952Y-107954819D02*
X44030952Y-106954819D01*
X44030952Y-106954819D02*
X43935714Y-107097676D01*
X43935714Y-107097676D02*
X43840476Y-107192914D01*
X43840476Y-107192914D02*
X43745238Y-107240533D01*
X56986905Y-92994819D02*
X56986905Y-91994819D01*
X56986905Y-91994819D02*
X57225000Y-91994819D01*
X57225000Y-91994819D02*
X57367857Y-92042438D01*
X57367857Y-92042438D02*
X57463095Y-92137676D01*
X57463095Y-92137676D02*
X57510714Y-92232914D01*
X57510714Y-92232914D02*
X57558333Y-92423390D01*
X57558333Y-92423390D02*
X57558333Y-92566247D01*
X57558333Y-92566247D02*
X57510714Y-92756723D01*
X57510714Y-92756723D02*
X57463095Y-92851961D01*
X57463095Y-92851961D02*
X57367857Y-92947200D01*
X57367857Y-92947200D02*
X57225000Y-92994819D01*
X57225000Y-92994819D02*
X56986905Y-92994819D01*
X57891667Y-91994819D02*
X58510714Y-91994819D01*
X58510714Y-91994819D02*
X58177381Y-92375771D01*
X58177381Y-92375771D02*
X58320238Y-92375771D01*
X58320238Y-92375771D02*
X58415476Y-92423390D01*
X58415476Y-92423390D02*
X58463095Y-92471009D01*
X58463095Y-92471009D02*
X58510714Y-92566247D01*
X58510714Y-92566247D02*
X58510714Y-92804342D01*
X58510714Y-92804342D02*
X58463095Y-92899580D01*
X58463095Y-92899580D02*
X58415476Y-92947200D01*
X58415476Y-92947200D02*
X58320238Y-92994819D01*
X58320238Y-92994819D02*
X58034524Y-92994819D01*
X58034524Y-92994819D02*
X57939286Y-92947200D01*
X57939286Y-92947200D02*
X57891667Y-92899580D01*
X53783333Y-95269819D02*
X53450000Y-94793628D01*
X53211905Y-95269819D02*
X53211905Y-94269819D01*
X53211905Y-94269819D02*
X53592857Y-94269819D01*
X53592857Y-94269819D02*
X53688095Y-94317438D01*
X53688095Y-94317438D02*
X53735714Y-94365057D01*
X53735714Y-94365057D02*
X53783333Y-94460295D01*
X53783333Y-94460295D02*
X53783333Y-94603152D01*
X53783333Y-94603152D02*
X53735714Y-94698390D01*
X53735714Y-94698390D02*
X53688095Y-94746009D01*
X53688095Y-94746009D02*
X53592857Y-94793628D01*
X53592857Y-94793628D02*
X53211905Y-94793628D01*
X54164286Y-94365057D02*
X54211905Y-94317438D01*
X54211905Y-94317438D02*
X54307143Y-94269819D01*
X54307143Y-94269819D02*
X54545238Y-94269819D01*
X54545238Y-94269819D02*
X54640476Y-94317438D01*
X54640476Y-94317438D02*
X54688095Y-94365057D01*
X54688095Y-94365057D02*
X54735714Y-94460295D01*
X54735714Y-94460295D02*
X54735714Y-94555533D01*
X54735714Y-94555533D02*
X54688095Y-94698390D01*
X54688095Y-94698390D02*
X54116667Y-95269819D01*
X54116667Y-95269819D02*
X54735714Y-95269819D01*
X54708333Y-105974580D02*
X54660714Y-106022200D01*
X54660714Y-106022200D02*
X54517857Y-106069819D01*
X54517857Y-106069819D02*
X54422619Y-106069819D01*
X54422619Y-106069819D02*
X54279762Y-106022200D01*
X54279762Y-106022200D02*
X54184524Y-105926961D01*
X54184524Y-105926961D02*
X54136905Y-105831723D01*
X54136905Y-105831723D02*
X54089286Y-105641247D01*
X54089286Y-105641247D02*
X54089286Y-105498390D01*
X54089286Y-105498390D02*
X54136905Y-105307914D01*
X54136905Y-105307914D02*
X54184524Y-105212676D01*
X54184524Y-105212676D02*
X54279762Y-105117438D01*
X54279762Y-105117438D02*
X54422619Y-105069819D01*
X54422619Y-105069819D02*
X54517857Y-105069819D01*
X54517857Y-105069819D02*
X54660714Y-105117438D01*
X54660714Y-105117438D02*
X54708333Y-105165057D01*
X55660714Y-106069819D02*
X55089286Y-106069819D01*
X55375000Y-106069819D02*
X55375000Y-105069819D01*
X55375000Y-105069819D02*
X55279762Y-105212676D01*
X55279762Y-105212676D02*
X55184524Y-105307914D01*
X55184524Y-105307914D02*
X55089286Y-105355533D01*
X76624819Y-97196666D02*
X76148628Y-97529999D01*
X76624819Y-97768094D02*
X75624819Y-97768094D01*
X75624819Y-97768094D02*
X75624819Y-97387142D01*
X75624819Y-97387142D02*
X75672438Y-97291904D01*
X75672438Y-97291904D02*
X75720057Y-97244285D01*
X75720057Y-97244285D02*
X75815295Y-97196666D01*
X75815295Y-97196666D02*
X75958152Y-97196666D01*
X75958152Y-97196666D02*
X76053390Y-97244285D01*
X76053390Y-97244285D02*
X76101009Y-97291904D01*
X76101009Y-97291904D02*
X76148628Y-97387142D01*
X76148628Y-97387142D02*
X76148628Y-97768094D01*
X75624819Y-96863332D02*
X75624819Y-96196666D01*
X75624819Y-96196666D02*
X76624819Y-96625237D01*
X72029580Y-97266666D02*
X72077200Y-97314285D01*
X72077200Y-97314285D02*
X72124819Y-97457142D01*
X72124819Y-97457142D02*
X72124819Y-97552380D01*
X72124819Y-97552380D02*
X72077200Y-97695237D01*
X72077200Y-97695237D02*
X71981961Y-97790475D01*
X71981961Y-97790475D02*
X71886723Y-97838094D01*
X71886723Y-97838094D02*
X71696247Y-97885713D01*
X71696247Y-97885713D02*
X71553390Y-97885713D01*
X71553390Y-97885713D02*
X71362914Y-97838094D01*
X71362914Y-97838094D02*
X71267676Y-97790475D01*
X71267676Y-97790475D02*
X71172438Y-97695237D01*
X71172438Y-97695237D02*
X71124819Y-97552380D01*
X71124819Y-97552380D02*
X71124819Y-97457142D01*
X71124819Y-97457142D02*
X71172438Y-97314285D01*
X71172438Y-97314285D02*
X71220057Y-97266666D01*
X71124819Y-96933332D02*
X71124819Y-96266666D01*
X71124819Y-96266666D02*
X72124819Y-96695237D01*
X57533333Y-90319819D02*
X57200000Y-89843628D01*
X56961905Y-90319819D02*
X56961905Y-89319819D01*
X56961905Y-89319819D02*
X57342857Y-89319819D01*
X57342857Y-89319819D02*
X57438095Y-89367438D01*
X57438095Y-89367438D02*
X57485714Y-89415057D01*
X57485714Y-89415057D02*
X57533333Y-89510295D01*
X57533333Y-89510295D02*
X57533333Y-89653152D01*
X57533333Y-89653152D02*
X57485714Y-89748390D01*
X57485714Y-89748390D02*
X57438095Y-89796009D01*
X57438095Y-89796009D02*
X57342857Y-89843628D01*
X57342857Y-89843628D02*
X56961905Y-89843628D01*
X58390476Y-89653152D02*
X58390476Y-90319819D01*
X58152381Y-89272200D02*
X57914286Y-89986485D01*
X57914286Y-89986485D02*
X58533333Y-89986485D01*
X73469580Y-97236666D02*
X73517200Y-97284285D01*
X73517200Y-97284285D02*
X73564819Y-97427142D01*
X73564819Y-97427142D02*
X73564819Y-97522380D01*
X73564819Y-97522380D02*
X73517200Y-97665237D01*
X73517200Y-97665237D02*
X73421961Y-97760475D01*
X73421961Y-97760475D02*
X73326723Y-97808094D01*
X73326723Y-97808094D02*
X73136247Y-97855713D01*
X73136247Y-97855713D02*
X72993390Y-97855713D01*
X72993390Y-97855713D02*
X72802914Y-97808094D01*
X72802914Y-97808094D02*
X72707676Y-97760475D01*
X72707676Y-97760475D02*
X72612438Y-97665237D01*
X72612438Y-97665237D02*
X72564819Y-97522380D01*
X72564819Y-97522380D02*
X72564819Y-97427142D01*
X72564819Y-97427142D02*
X72612438Y-97284285D01*
X72612438Y-97284285D02*
X72660057Y-97236666D01*
X72564819Y-96379523D02*
X72564819Y-96569999D01*
X72564819Y-96569999D02*
X72612438Y-96665237D01*
X72612438Y-96665237D02*
X72660057Y-96712856D01*
X72660057Y-96712856D02*
X72802914Y-96808094D01*
X72802914Y-96808094D02*
X72993390Y-96855713D01*
X72993390Y-96855713D02*
X73374342Y-96855713D01*
X73374342Y-96855713D02*
X73469580Y-96808094D01*
X73469580Y-96808094D02*
X73517200Y-96760475D01*
X73517200Y-96760475D02*
X73564819Y-96665237D01*
X73564819Y-96665237D02*
X73564819Y-96474761D01*
X73564819Y-96474761D02*
X73517200Y-96379523D01*
X73517200Y-96379523D02*
X73469580Y-96331904D01*
X73469580Y-96331904D02*
X73374342Y-96284285D01*
X73374342Y-96284285D02*
X73136247Y-96284285D01*
X73136247Y-96284285D02*
X73041009Y-96331904D01*
X73041009Y-96331904D02*
X72993390Y-96379523D01*
X72993390Y-96379523D02*
X72945771Y-96474761D01*
X72945771Y-96474761D02*
X72945771Y-96665237D01*
X72945771Y-96665237D02*
X72993390Y-96760475D01*
X72993390Y-96760475D02*
X73041009Y-96808094D01*
X73041009Y-96808094D02*
X73136247Y-96855713D01*
X94709580Y-75126666D02*
X94757200Y-75174285D01*
X94757200Y-75174285D02*
X94804819Y-75317142D01*
X94804819Y-75317142D02*
X94804819Y-75412380D01*
X94804819Y-75412380D02*
X94757200Y-75555237D01*
X94757200Y-75555237D02*
X94661961Y-75650475D01*
X94661961Y-75650475D02*
X94566723Y-75698094D01*
X94566723Y-75698094D02*
X94376247Y-75745713D01*
X94376247Y-75745713D02*
X94233390Y-75745713D01*
X94233390Y-75745713D02*
X94042914Y-75698094D01*
X94042914Y-75698094D02*
X93947676Y-75650475D01*
X93947676Y-75650475D02*
X93852438Y-75555237D01*
X93852438Y-75555237D02*
X93804819Y-75412380D01*
X93804819Y-75412380D02*
X93804819Y-75317142D01*
X93804819Y-75317142D02*
X93852438Y-75174285D01*
X93852438Y-75174285D02*
X93900057Y-75126666D01*
X94233390Y-74555237D02*
X94185771Y-74650475D01*
X94185771Y-74650475D02*
X94138152Y-74698094D01*
X94138152Y-74698094D02*
X94042914Y-74745713D01*
X94042914Y-74745713D02*
X93995295Y-74745713D01*
X93995295Y-74745713D02*
X93900057Y-74698094D01*
X93900057Y-74698094D02*
X93852438Y-74650475D01*
X93852438Y-74650475D02*
X93804819Y-74555237D01*
X93804819Y-74555237D02*
X93804819Y-74364761D01*
X93804819Y-74364761D02*
X93852438Y-74269523D01*
X93852438Y-74269523D02*
X93900057Y-74221904D01*
X93900057Y-74221904D02*
X93995295Y-74174285D01*
X93995295Y-74174285D02*
X94042914Y-74174285D01*
X94042914Y-74174285D02*
X94138152Y-74221904D01*
X94138152Y-74221904D02*
X94185771Y-74269523D01*
X94185771Y-74269523D02*
X94233390Y-74364761D01*
X94233390Y-74364761D02*
X94233390Y-74555237D01*
X94233390Y-74555237D02*
X94281009Y-74650475D01*
X94281009Y-74650475D02*
X94328628Y-74698094D01*
X94328628Y-74698094D02*
X94423866Y-74745713D01*
X94423866Y-74745713D02*
X94614342Y-74745713D01*
X94614342Y-74745713D02*
X94709580Y-74698094D01*
X94709580Y-74698094D02*
X94757200Y-74650475D01*
X94757200Y-74650475D02*
X94804819Y-74555237D01*
X94804819Y-74555237D02*
X94804819Y-74364761D01*
X94804819Y-74364761D02*
X94757200Y-74269523D01*
X94757200Y-74269523D02*
X94709580Y-74221904D01*
X94709580Y-74221904D02*
X94614342Y-74174285D01*
X94614342Y-74174285D02*
X94423866Y-74174285D01*
X94423866Y-74174285D02*
X94328628Y-74221904D01*
X94328628Y-74221904D02*
X94281009Y-74269523D01*
X94281009Y-74269523D02*
X94233390Y-74364761D01*
X40654819Y-93479285D02*
X39654819Y-93479285D01*
X39654819Y-93479285D02*
X39654819Y-93241190D01*
X39654819Y-93241190D02*
X39702438Y-93098333D01*
X39702438Y-93098333D02*
X39797676Y-93003095D01*
X39797676Y-93003095D02*
X39892914Y-92955476D01*
X39892914Y-92955476D02*
X40083390Y-92907857D01*
X40083390Y-92907857D02*
X40226247Y-92907857D01*
X40226247Y-92907857D02*
X40416723Y-92955476D01*
X40416723Y-92955476D02*
X40511961Y-93003095D01*
X40511961Y-93003095D02*
X40607200Y-93098333D01*
X40607200Y-93098333D02*
X40654819Y-93241190D01*
X40654819Y-93241190D02*
X40654819Y-93479285D01*
X40654819Y-91955476D02*
X40654819Y-92526904D01*
X40654819Y-92241190D02*
X39654819Y-92241190D01*
X39654819Y-92241190D02*
X39797676Y-92336428D01*
X39797676Y-92336428D02*
X39892914Y-92431666D01*
X39892914Y-92431666D02*
X39940533Y-92526904D01*
X39654819Y-91098333D02*
X39654819Y-91288809D01*
X39654819Y-91288809D02*
X39702438Y-91384047D01*
X39702438Y-91384047D02*
X39750057Y-91431666D01*
X39750057Y-91431666D02*
X39892914Y-91526904D01*
X39892914Y-91526904D02*
X40083390Y-91574523D01*
X40083390Y-91574523D02*
X40464342Y-91574523D01*
X40464342Y-91574523D02*
X40559580Y-91526904D01*
X40559580Y-91526904D02*
X40607200Y-91479285D01*
X40607200Y-91479285D02*
X40654819Y-91384047D01*
X40654819Y-91384047D02*
X40654819Y-91193571D01*
X40654819Y-91193571D02*
X40607200Y-91098333D01*
X40607200Y-91098333D02*
X40559580Y-91050714D01*
X40559580Y-91050714D02*
X40464342Y-91003095D01*
X40464342Y-91003095D02*
X40226247Y-91003095D01*
X40226247Y-91003095D02*
X40131009Y-91050714D01*
X40131009Y-91050714D02*
X40083390Y-91098333D01*
X40083390Y-91098333D02*
X40035771Y-91193571D01*
X40035771Y-91193571D02*
X40035771Y-91384047D01*
X40035771Y-91384047D02*
X40083390Y-91479285D01*
X40083390Y-91479285D02*
X40131009Y-91526904D01*
X40131009Y-91526904D02*
X40226247Y-91574523D01*
X47859819Y-66508333D02*
X48574104Y-66508333D01*
X48574104Y-66508333D02*
X48716961Y-66555952D01*
X48716961Y-66555952D02*
X48812200Y-66651190D01*
X48812200Y-66651190D02*
X48859819Y-66794047D01*
X48859819Y-66794047D02*
X48859819Y-66889285D01*
X47955057Y-66079761D02*
X47907438Y-66032142D01*
X47907438Y-66032142D02*
X47859819Y-65936904D01*
X47859819Y-65936904D02*
X47859819Y-65698809D01*
X47859819Y-65698809D02*
X47907438Y-65603571D01*
X47907438Y-65603571D02*
X47955057Y-65555952D01*
X47955057Y-65555952D02*
X48050295Y-65508333D01*
X48050295Y-65508333D02*
X48145533Y-65508333D01*
X48145533Y-65508333D02*
X48288390Y-65555952D01*
X48288390Y-65555952D02*
X48859819Y-66127380D01*
X48859819Y-66127380D02*
X48859819Y-65508333D01*
X56007142Y-83174580D02*
X55959523Y-83222200D01*
X55959523Y-83222200D02*
X55816666Y-83269819D01*
X55816666Y-83269819D02*
X55721428Y-83269819D01*
X55721428Y-83269819D02*
X55578571Y-83222200D01*
X55578571Y-83222200D02*
X55483333Y-83126961D01*
X55483333Y-83126961D02*
X55435714Y-83031723D01*
X55435714Y-83031723D02*
X55388095Y-82841247D01*
X55388095Y-82841247D02*
X55388095Y-82698390D01*
X55388095Y-82698390D02*
X55435714Y-82507914D01*
X55435714Y-82507914D02*
X55483333Y-82412676D01*
X55483333Y-82412676D02*
X55578571Y-82317438D01*
X55578571Y-82317438D02*
X55721428Y-82269819D01*
X55721428Y-82269819D02*
X55816666Y-82269819D01*
X55816666Y-82269819D02*
X55959523Y-82317438D01*
X55959523Y-82317438D02*
X56007142Y-82365057D01*
X56388095Y-82365057D02*
X56435714Y-82317438D01*
X56435714Y-82317438D02*
X56530952Y-82269819D01*
X56530952Y-82269819D02*
X56769047Y-82269819D01*
X56769047Y-82269819D02*
X56864285Y-82317438D01*
X56864285Y-82317438D02*
X56911904Y-82365057D01*
X56911904Y-82365057D02*
X56959523Y-82460295D01*
X56959523Y-82460295D02*
X56959523Y-82555533D01*
X56959523Y-82555533D02*
X56911904Y-82698390D01*
X56911904Y-82698390D02*
X56340476Y-83269819D01*
X56340476Y-83269819D02*
X56959523Y-83269819D01*
X57578571Y-82269819D02*
X57673809Y-82269819D01*
X57673809Y-82269819D02*
X57769047Y-82317438D01*
X57769047Y-82317438D02*
X57816666Y-82365057D01*
X57816666Y-82365057D02*
X57864285Y-82460295D01*
X57864285Y-82460295D02*
X57911904Y-82650771D01*
X57911904Y-82650771D02*
X57911904Y-82888866D01*
X57911904Y-82888866D02*
X57864285Y-83079342D01*
X57864285Y-83079342D02*
X57816666Y-83174580D01*
X57816666Y-83174580D02*
X57769047Y-83222200D01*
X57769047Y-83222200D02*
X57673809Y-83269819D01*
X57673809Y-83269819D02*
X57578571Y-83269819D01*
X57578571Y-83269819D02*
X57483333Y-83222200D01*
X57483333Y-83222200D02*
X57435714Y-83174580D01*
X57435714Y-83174580D02*
X57388095Y-83079342D01*
X57388095Y-83079342D02*
X57340476Y-82888866D01*
X57340476Y-82888866D02*
X57340476Y-82650771D01*
X57340476Y-82650771D02*
X57388095Y-82460295D01*
X57388095Y-82460295D02*
X57435714Y-82365057D01*
X57435714Y-82365057D02*
X57483333Y-82317438D01*
X57483333Y-82317438D02*
X57578571Y-82269819D01*
X42232142Y-96519819D02*
X41898809Y-96043628D01*
X41660714Y-96519819D02*
X41660714Y-95519819D01*
X41660714Y-95519819D02*
X42041666Y-95519819D01*
X42041666Y-95519819D02*
X42136904Y-95567438D01*
X42136904Y-95567438D02*
X42184523Y-95615057D01*
X42184523Y-95615057D02*
X42232142Y-95710295D01*
X42232142Y-95710295D02*
X42232142Y-95853152D01*
X42232142Y-95853152D02*
X42184523Y-95948390D01*
X42184523Y-95948390D02*
X42136904Y-95996009D01*
X42136904Y-95996009D02*
X42041666Y-96043628D01*
X42041666Y-96043628D02*
X41660714Y-96043628D01*
X42613095Y-95615057D02*
X42660714Y-95567438D01*
X42660714Y-95567438D02*
X42755952Y-95519819D01*
X42755952Y-95519819D02*
X42994047Y-95519819D01*
X42994047Y-95519819D02*
X43089285Y-95567438D01*
X43089285Y-95567438D02*
X43136904Y-95615057D01*
X43136904Y-95615057D02*
X43184523Y-95710295D01*
X43184523Y-95710295D02*
X43184523Y-95805533D01*
X43184523Y-95805533D02*
X43136904Y-95948390D01*
X43136904Y-95948390D02*
X42565476Y-96519819D01*
X42565476Y-96519819D02*
X43184523Y-96519819D01*
X43803571Y-95519819D02*
X43898809Y-95519819D01*
X43898809Y-95519819D02*
X43994047Y-95567438D01*
X43994047Y-95567438D02*
X44041666Y-95615057D01*
X44041666Y-95615057D02*
X44089285Y-95710295D01*
X44089285Y-95710295D02*
X44136904Y-95900771D01*
X44136904Y-95900771D02*
X44136904Y-96138866D01*
X44136904Y-96138866D02*
X44089285Y-96329342D01*
X44089285Y-96329342D02*
X44041666Y-96424580D01*
X44041666Y-96424580D02*
X43994047Y-96472200D01*
X43994047Y-96472200D02*
X43898809Y-96519819D01*
X43898809Y-96519819D02*
X43803571Y-96519819D01*
X43803571Y-96519819D02*
X43708333Y-96472200D01*
X43708333Y-96472200D02*
X43660714Y-96424580D01*
X43660714Y-96424580D02*
X43613095Y-96329342D01*
X43613095Y-96329342D02*
X43565476Y-96138866D01*
X43565476Y-96138866D02*
X43565476Y-95900771D01*
X43565476Y-95900771D02*
X43613095Y-95710295D01*
X43613095Y-95710295D02*
X43660714Y-95615057D01*
X43660714Y-95615057D02*
X43708333Y-95567438D01*
X43708333Y-95567438D02*
X43803571Y-95519819D01*
X102746666Y-105774819D02*
X102746666Y-106489104D01*
X102746666Y-106489104D02*
X102699047Y-106631961D01*
X102699047Y-106631961D02*
X102603809Y-106727200D01*
X102603809Y-106727200D02*
X102460952Y-106774819D01*
X102460952Y-106774819D02*
X102365714Y-106774819D01*
X103699047Y-105774819D02*
X103222857Y-105774819D01*
X103222857Y-105774819D02*
X103175238Y-106251009D01*
X103175238Y-106251009D02*
X103222857Y-106203390D01*
X103222857Y-106203390D02*
X103318095Y-106155771D01*
X103318095Y-106155771D02*
X103556190Y-106155771D01*
X103556190Y-106155771D02*
X103651428Y-106203390D01*
X103651428Y-106203390D02*
X103699047Y-106251009D01*
X103699047Y-106251009D02*
X103746666Y-106346247D01*
X103746666Y-106346247D02*
X103746666Y-106584342D01*
X103746666Y-106584342D02*
X103699047Y-106679580D01*
X103699047Y-106679580D02*
X103651428Y-106727200D01*
X103651428Y-106727200D02*
X103556190Y-106774819D01*
X103556190Y-106774819D02*
X103318095Y-106774819D01*
X103318095Y-106774819D02*
X103222857Y-106727200D01*
X103222857Y-106727200D02*
X103175238Y-106679580D01*
X41686905Y-97844819D02*
X41686905Y-96844819D01*
X41686905Y-96844819D02*
X41925000Y-96844819D01*
X41925000Y-96844819D02*
X42067857Y-96892438D01*
X42067857Y-96892438D02*
X42163095Y-96987676D01*
X42163095Y-96987676D02*
X42210714Y-97082914D01*
X42210714Y-97082914D02*
X42258333Y-97273390D01*
X42258333Y-97273390D02*
X42258333Y-97416247D01*
X42258333Y-97416247D02*
X42210714Y-97606723D01*
X42210714Y-97606723D02*
X42163095Y-97701961D01*
X42163095Y-97701961D02*
X42067857Y-97797200D01*
X42067857Y-97797200D02*
X41925000Y-97844819D01*
X41925000Y-97844819D02*
X41686905Y-97844819D01*
X42829762Y-97273390D02*
X42734524Y-97225771D01*
X42734524Y-97225771D02*
X42686905Y-97178152D01*
X42686905Y-97178152D02*
X42639286Y-97082914D01*
X42639286Y-97082914D02*
X42639286Y-97035295D01*
X42639286Y-97035295D02*
X42686905Y-96940057D01*
X42686905Y-96940057D02*
X42734524Y-96892438D01*
X42734524Y-96892438D02*
X42829762Y-96844819D01*
X42829762Y-96844819D02*
X43020238Y-96844819D01*
X43020238Y-96844819D02*
X43115476Y-96892438D01*
X43115476Y-96892438D02*
X43163095Y-96940057D01*
X43163095Y-96940057D02*
X43210714Y-97035295D01*
X43210714Y-97035295D02*
X43210714Y-97082914D01*
X43210714Y-97082914D02*
X43163095Y-97178152D01*
X43163095Y-97178152D02*
X43115476Y-97225771D01*
X43115476Y-97225771D02*
X43020238Y-97273390D01*
X43020238Y-97273390D02*
X42829762Y-97273390D01*
X42829762Y-97273390D02*
X42734524Y-97321009D01*
X42734524Y-97321009D02*
X42686905Y-97368628D01*
X42686905Y-97368628D02*
X42639286Y-97463866D01*
X42639286Y-97463866D02*
X42639286Y-97654342D01*
X42639286Y-97654342D02*
X42686905Y-97749580D01*
X42686905Y-97749580D02*
X42734524Y-97797200D01*
X42734524Y-97797200D02*
X42829762Y-97844819D01*
X42829762Y-97844819D02*
X43020238Y-97844819D01*
X43020238Y-97844819D02*
X43115476Y-97797200D01*
X43115476Y-97797200D02*
X43163095Y-97749580D01*
X43163095Y-97749580D02*
X43210714Y-97654342D01*
X43210714Y-97654342D02*
X43210714Y-97463866D01*
X43210714Y-97463866D02*
X43163095Y-97368628D01*
X43163095Y-97368628D02*
X43115476Y-97321009D01*
X43115476Y-97321009D02*
X43020238Y-97273390D01*
X62458333Y-100449580D02*
X62410714Y-100497200D01*
X62410714Y-100497200D02*
X62267857Y-100544819D01*
X62267857Y-100544819D02*
X62172619Y-100544819D01*
X62172619Y-100544819D02*
X62029762Y-100497200D01*
X62029762Y-100497200D02*
X61934524Y-100401961D01*
X61934524Y-100401961D02*
X61886905Y-100306723D01*
X61886905Y-100306723D02*
X61839286Y-100116247D01*
X61839286Y-100116247D02*
X61839286Y-99973390D01*
X61839286Y-99973390D02*
X61886905Y-99782914D01*
X61886905Y-99782914D02*
X61934524Y-99687676D01*
X61934524Y-99687676D02*
X62029762Y-99592438D01*
X62029762Y-99592438D02*
X62172619Y-99544819D01*
X62172619Y-99544819D02*
X62267857Y-99544819D01*
X62267857Y-99544819D02*
X62410714Y-99592438D01*
X62410714Y-99592438D02*
X62458333Y-99640057D01*
X63363095Y-99544819D02*
X62886905Y-99544819D01*
X62886905Y-99544819D02*
X62839286Y-100021009D01*
X62839286Y-100021009D02*
X62886905Y-99973390D01*
X62886905Y-99973390D02*
X62982143Y-99925771D01*
X62982143Y-99925771D02*
X63220238Y-99925771D01*
X63220238Y-99925771D02*
X63315476Y-99973390D01*
X63315476Y-99973390D02*
X63363095Y-100021009D01*
X63363095Y-100021009D02*
X63410714Y-100116247D01*
X63410714Y-100116247D02*
X63410714Y-100354342D01*
X63410714Y-100354342D02*
X63363095Y-100449580D01*
X63363095Y-100449580D02*
X63315476Y-100497200D01*
X63315476Y-100497200D02*
X63220238Y-100544819D01*
X63220238Y-100544819D02*
X62982143Y-100544819D01*
X62982143Y-100544819D02*
X62886905Y-100497200D01*
X62886905Y-100497200D02*
X62839286Y-100449580D01*
X51354819Y-95582857D02*
X50878628Y-95916190D01*
X51354819Y-96154285D02*
X50354819Y-96154285D01*
X50354819Y-96154285D02*
X50354819Y-95773333D01*
X50354819Y-95773333D02*
X50402438Y-95678095D01*
X50402438Y-95678095D02*
X50450057Y-95630476D01*
X50450057Y-95630476D02*
X50545295Y-95582857D01*
X50545295Y-95582857D02*
X50688152Y-95582857D01*
X50688152Y-95582857D02*
X50783390Y-95630476D01*
X50783390Y-95630476D02*
X50831009Y-95678095D01*
X50831009Y-95678095D02*
X50878628Y-95773333D01*
X50878628Y-95773333D02*
X50878628Y-96154285D01*
X50450057Y-95201904D02*
X50402438Y-95154285D01*
X50402438Y-95154285D02*
X50354819Y-95059047D01*
X50354819Y-95059047D02*
X50354819Y-94820952D01*
X50354819Y-94820952D02*
X50402438Y-94725714D01*
X50402438Y-94725714D02*
X50450057Y-94678095D01*
X50450057Y-94678095D02*
X50545295Y-94630476D01*
X50545295Y-94630476D02*
X50640533Y-94630476D01*
X50640533Y-94630476D02*
X50783390Y-94678095D01*
X50783390Y-94678095D02*
X51354819Y-95249523D01*
X51354819Y-95249523D02*
X51354819Y-94630476D01*
X51354819Y-94154285D02*
X51354819Y-93963809D01*
X51354819Y-93963809D02*
X51307200Y-93868571D01*
X51307200Y-93868571D02*
X51259580Y-93820952D01*
X51259580Y-93820952D02*
X51116723Y-93725714D01*
X51116723Y-93725714D02*
X50926247Y-93678095D01*
X50926247Y-93678095D02*
X50545295Y-93678095D01*
X50545295Y-93678095D02*
X50450057Y-93725714D01*
X50450057Y-93725714D02*
X50402438Y-93773333D01*
X50402438Y-93773333D02*
X50354819Y-93868571D01*
X50354819Y-93868571D02*
X50354819Y-94059047D01*
X50354819Y-94059047D02*
X50402438Y-94154285D01*
X50402438Y-94154285D02*
X50450057Y-94201904D01*
X50450057Y-94201904D02*
X50545295Y-94249523D01*
X50545295Y-94249523D02*
X50783390Y-94249523D01*
X50783390Y-94249523D02*
X50878628Y-94201904D01*
X50878628Y-94201904D02*
X50926247Y-94154285D01*
X50926247Y-94154285D02*
X50973866Y-94059047D01*
X50973866Y-94059047D02*
X50973866Y-93868571D01*
X50973866Y-93868571D02*
X50926247Y-93773333D01*
X50926247Y-93773333D02*
X50878628Y-93725714D01*
X50878628Y-93725714D02*
X50783390Y-93678095D01*
X52236905Y-70404819D02*
X52236905Y-69404819D01*
X52236905Y-69404819D02*
X52475000Y-69404819D01*
X52475000Y-69404819D02*
X52617857Y-69452438D01*
X52617857Y-69452438D02*
X52713095Y-69547676D01*
X52713095Y-69547676D02*
X52760714Y-69642914D01*
X52760714Y-69642914D02*
X52808333Y-69833390D01*
X52808333Y-69833390D02*
X52808333Y-69976247D01*
X52808333Y-69976247D02*
X52760714Y-70166723D01*
X52760714Y-70166723D02*
X52713095Y-70261961D01*
X52713095Y-70261961D02*
X52617857Y-70357200D01*
X52617857Y-70357200D02*
X52475000Y-70404819D01*
X52475000Y-70404819D02*
X52236905Y-70404819D01*
X53713095Y-69404819D02*
X53236905Y-69404819D01*
X53236905Y-69404819D02*
X53189286Y-69881009D01*
X53189286Y-69881009D02*
X53236905Y-69833390D01*
X53236905Y-69833390D02*
X53332143Y-69785771D01*
X53332143Y-69785771D02*
X53570238Y-69785771D01*
X53570238Y-69785771D02*
X53665476Y-69833390D01*
X53665476Y-69833390D02*
X53713095Y-69881009D01*
X53713095Y-69881009D02*
X53760714Y-69976247D01*
X53760714Y-69976247D02*
X53760714Y-70214342D01*
X53760714Y-70214342D02*
X53713095Y-70309580D01*
X53713095Y-70309580D02*
X53665476Y-70357200D01*
X53665476Y-70357200D02*
X53570238Y-70404819D01*
X53570238Y-70404819D02*
X53332143Y-70404819D01*
X53332143Y-70404819D02*
X53236905Y-70357200D01*
X53236905Y-70357200D02*
X53189286Y-70309580D01*
X52236905Y-65729819D02*
X52236905Y-64729819D01*
X52236905Y-64729819D02*
X52475000Y-64729819D01*
X52475000Y-64729819D02*
X52617857Y-64777438D01*
X52617857Y-64777438D02*
X52713095Y-64872676D01*
X52713095Y-64872676D02*
X52760714Y-64967914D01*
X52760714Y-64967914D02*
X52808333Y-65158390D01*
X52808333Y-65158390D02*
X52808333Y-65301247D01*
X52808333Y-65301247D02*
X52760714Y-65491723D01*
X52760714Y-65491723D02*
X52713095Y-65586961D01*
X52713095Y-65586961D02*
X52617857Y-65682200D01*
X52617857Y-65682200D02*
X52475000Y-65729819D01*
X52475000Y-65729819D02*
X52236905Y-65729819D01*
X53665476Y-64729819D02*
X53475000Y-64729819D01*
X53475000Y-64729819D02*
X53379762Y-64777438D01*
X53379762Y-64777438D02*
X53332143Y-64825057D01*
X53332143Y-64825057D02*
X53236905Y-64967914D01*
X53236905Y-64967914D02*
X53189286Y-65158390D01*
X53189286Y-65158390D02*
X53189286Y-65539342D01*
X53189286Y-65539342D02*
X53236905Y-65634580D01*
X53236905Y-65634580D02*
X53284524Y-65682200D01*
X53284524Y-65682200D02*
X53379762Y-65729819D01*
X53379762Y-65729819D02*
X53570238Y-65729819D01*
X53570238Y-65729819D02*
X53665476Y-65682200D01*
X53665476Y-65682200D02*
X53713095Y-65634580D01*
X53713095Y-65634580D02*
X53760714Y-65539342D01*
X53760714Y-65539342D02*
X53760714Y-65301247D01*
X53760714Y-65301247D02*
X53713095Y-65206009D01*
X53713095Y-65206009D02*
X53665476Y-65158390D01*
X53665476Y-65158390D02*
X53570238Y-65110771D01*
X53570238Y-65110771D02*
X53379762Y-65110771D01*
X53379762Y-65110771D02*
X53284524Y-65158390D01*
X53284524Y-65158390D02*
X53236905Y-65206009D01*
X53236905Y-65206009D02*
X53189286Y-65301247D01*
X96354819Y-64057857D02*
X95878628Y-64391190D01*
X96354819Y-64629285D02*
X95354819Y-64629285D01*
X95354819Y-64629285D02*
X95354819Y-64248333D01*
X95354819Y-64248333D02*
X95402438Y-64153095D01*
X95402438Y-64153095D02*
X95450057Y-64105476D01*
X95450057Y-64105476D02*
X95545295Y-64057857D01*
X95545295Y-64057857D02*
X95688152Y-64057857D01*
X95688152Y-64057857D02*
X95783390Y-64105476D01*
X95783390Y-64105476D02*
X95831009Y-64153095D01*
X95831009Y-64153095D02*
X95878628Y-64248333D01*
X95878628Y-64248333D02*
X95878628Y-64629285D01*
X96354819Y-63105476D02*
X96354819Y-63676904D01*
X96354819Y-63391190D02*
X95354819Y-63391190D01*
X95354819Y-63391190D02*
X95497676Y-63486428D01*
X95497676Y-63486428D02*
X95592914Y-63581666D01*
X95592914Y-63581666D02*
X95640533Y-63676904D01*
X95354819Y-62248333D02*
X95354819Y-62438809D01*
X95354819Y-62438809D02*
X95402438Y-62534047D01*
X95402438Y-62534047D02*
X95450057Y-62581666D01*
X95450057Y-62581666D02*
X95592914Y-62676904D01*
X95592914Y-62676904D02*
X95783390Y-62724523D01*
X95783390Y-62724523D02*
X96164342Y-62724523D01*
X96164342Y-62724523D02*
X96259580Y-62676904D01*
X96259580Y-62676904D02*
X96307200Y-62629285D01*
X96307200Y-62629285D02*
X96354819Y-62534047D01*
X96354819Y-62534047D02*
X96354819Y-62343571D01*
X96354819Y-62343571D02*
X96307200Y-62248333D01*
X96307200Y-62248333D02*
X96259580Y-62200714D01*
X96259580Y-62200714D02*
X96164342Y-62153095D01*
X96164342Y-62153095D02*
X95926247Y-62153095D01*
X95926247Y-62153095D02*
X95831009Y-62200714D01*
X95831009Y-62200714D02*
X95783390Y-62248333D01*
X95783390Y-62248333D02*
X95735771Y-62343571D01*
X95735771Y-62343571D02*
X95735771Y-62534047D01*
X95735771Y-62534047D02*
X95783390Y-62629285D01*
X95783390Y-62629285D02*
X95831009Y-62676904D01*
X95831009Y-62676904D02*
X95926247Y-62724523D01*
X43138095Y-75457200D02*
X43280952Y-75504819D01*
X43280952Y-75504819D02*
X43519047Y-75504819D01*
X43519047Y-75504819D02*
X43614285Y-75457200D01*
X43614285Y-75457200D02*
X43661904Y-75409580D01*
X43661904Y-75409580D02*
X43709523Y-75314342D01*
X43709523Y-75314342D02*
X43709523Y-75219104D01*
X43709523Y-75219104D02*
X43661904Y-75123866D01*
X43661904Y-75123866D02*
X43614285Y-75076247D01*
X43614285Y-75076247D02*
X43519047Y-75028628D01*
X43519047Y-75028628D02*
X43328571Y-74981009D01*
X43328571Y-74981009D02*
X43233333Y-74933390D01*
X43233333Y-74933390D02*
X43185714Y-74885771D01*
X43185714Y-74885771D02*
X43138095Y-74790533D01*
X43138095Y-74790533D02*
X43138095Y-74695295D01*
X43138095Y-74695295D02*
X43185714Y-74600057D01*
X43185714Y-74600057D02*
X43233333Y-74552438D01*
X43233333Y-74552438D02*
X43328571Y-74504819D01*
X43328571Y-74504819D02*
X43566666Y-74504819D01*
X43566666Y-74504819D02*
X43709523Y-74552438D01*
X44661904Y-75504819D02*
X44090476Y-75504819D01*
X44376190Y-75504819D02*
X44376190Y-74504819D01*
X44376190Y-74504819D02*
X44280952Y-74647676D01*
X44280952Y-74647676D02*
X44185714Y-74742914D01*
X44185714Y-74742914D02*
X44090476Y-74790533D01*
X44777142Y-83434819D02*
X44443809Y-82958628D01*
X44205714Y-83434819D02*
X44205714Y-82434819D01*
X44205714Y-82434819D02*
X44586666Y-82434819D01*
X44586666Y-82434819D02*
X44681904Y-82482438D01*
X44681904Y-82482438D02*
X44729523Y-82530057D01*
X44729523Y-82530057D02*
X44777142Y-82625295D01*
X44777142Y-82625295D02*
X44777142Y-82768152D01*
X44777142Y-82768152D02*
X44729523Y-82863390D01*
X44729523Y-82863390D02*
X44681904Y-82911009D01*
X44681904Y-82911009D02*
X44586666Y-82958628D01*
X44586666Y-82958628D02*
X44205714Y-82958628D01*
X45158095Y-82530057D02*
X45205714Y-82482438D01*
X45205714Y-82482438D02*
X45300952Y-82434819D01*
X45300952Y-82434819D02*
X45539047Y-82434819D01*
X45539047Y-82434819D02*
X45634285Y-82482438D01*
X45634285Y-82482438D02*
X45681904Y-82530057D01*
X45681904Y-82530057D02*
X45729523Y-82625295D01*
X45729523Y-82625295D02*
X45729523Y-82720533D01*
X45729523Y-82720533D02*
X45681904Y-82863390D01*
X45681904Y-82863390D02*
X45110476Y-83434819D01*
X45110476Y-83434819D02*
X45729523Y-83434819D01*
X46110476Y-82530057D02*
X46158095Y-82482438D01*
X46158095Y-82482438D02*
X46253333Y-82434819D01*
X46253333Y-82434819D02*
X46491428Y-82434819D01*
X46491428Y-82434819D02*
X46586666Y-82482438D01*
X46586666Y-82482438D02*
X46634285Y-82530057D01*
X46634285Y-82530057D02*
X46681904Y-82625295D01*
X46681904Y-82625295D02*
X46681904Y-82720533D01*
X46681904Y-82720533D02*
X46634285Y-82863390D01*
X46634285Y-82863390D02*
X46062857Y-83434819D01*
X46062857Y-83434819D02*
X46681904Y-83434819D01*
X76340476Y-104804819D02*
X76340476Y-105519104D01*
X76340476Y-105519104D02*
X76292857Y-105661961D01*
X76292857Y-105661961D02*
X76197619Y-105757200D01*
X76197619Y-105757200D02*
X76054762Y-105804819D01*
X76054762Y-105804819D02*
X75959524Y-105804819D01*
X77340476Y-105804819D02*
X76769048Y-105804819D01*
X77054762Y-105804819D02*
X77054762Y-104804819D01*
X77054762Y-104804819D02*
X76959524Y-104947676D01*
X76959524Y-104947676D02*
X76864286Y-105042914D01*
X76864286Y-105042914D02*
X76769048Y-105090533D01*
X77959524Y-104804819D02*
X78054762Y-104804819D01*
X78054762Y-104804819D02*
X78150000Y-104852438D01*
X78150000Y-104852438D02*
X78197619Y-104900057D01*
X78197619Y-104900057D02*
X78245238Y-104995295D01*
X78245238Y-104995295D02*
X78292857Y-105185771D01*
X78292857Y-105185771D02*
X78292857Y-105423866D01*
X78292857Y-105423866D02*
X78245238Y-105614342D01*
X78245238Y-105614342D02*
X78197619Y-105709580D01*
X78197619Y-105709580D02*
X78150000Y-105757200D01*
X78150000Y-105757200D02*
X78054762Y-105804819D01*
X78054762Y-105804819D02*
X77959524Y-105804819D01*
X77959524Y-105804819D02*
X77864286Y-105757200D01*
X77864286Y-105757200D02*
X77816667Y-105709580D01*
X77816667Y-105709580D02*
X77769048Y-105614342D01*
X77769048Y-105614342D02*
X77721429Y-105423866D01*
X77721429Y-105423866D02*
X77721429Y-105185771D01*
X77721429Y-105185771D02*
X77769048Y-104995295D01*
X77769048Y-104995295D02*
X77816667Y-104900057D01*
X77816667Y-104900057D02*
X77864286Y-104852438D01*
X77864286Y-104852438D02*
X77959524Y-104804819D01*
X102526666Y-71044819D02*
X102193333Y-70568628D01*
X101955238Y-71044819D02*
X101955238Y-70044819D01*
X101955238Y-70044819D02*
X102336190Y-70044819D01*
X102336190Y-70044819D02*
X102431428Y-70092438D01*
X102431428Y-70092438D02*
X102479047Y-70140057D01*
X102479047Y-70140057D02*
X102526666Y-70235295D01*
X102526666Y-70235295D02*
X102526666Y-70378152D01*
X102526666Y-70378152D02*
X102479047Y-70473390D01*
X102479047Y-70473390D02*
X102431428Y-70521009D01*
X102431428Y-70521009D02*
X102336190Y-70568628D01*
X102336190Y-70568628D02*
X101955238Y-70568628D01*
X102955238Y-70521009D02*
X103288571Y-70521009D01*
X103431428Y-71044819D02*
X102955238Y-71044819D01*
X102955238Y-71044819D02*
X102955238Y-70044819D01*
X102955238Y-70044819D02*
X103431428Y-70044819D01*
X104193333Y-70521009D02*
X103860000Y-70521009D01*
X103860000Y-71044819D02*
X103860000Y-70044819D01*
X103860000Y-70044819D02*
X104336190Y-70044819D01*
X104860000Y-70044819D02*
X104860000Y-70282914D01*
X104621905Y-70187676D02*
X104860000Y-70282914D01*
X104860000Y-70282914D02*
X105098095Y-70187676D01*
X104717143Y-70473390D02*
X104860000Y-70282914D01*
X104860000Y-70282914D02*
X105002857Y-70473390D01*
X105621905Y-70044819D02*
X105621905Y-70282914D01*
X105383810Y-70187676D02*
X105621905Y-70282914D01*
X105621905Y-70282914D02*
X105860000Y-70187676D01*
X105479048Y-70473390D02*
X105621905Y-70282914D01*
X105621905Y-70282914D02*
X105764762Y-70473390D01*
X56082142Y-84744819D02*
X55748809Y-84268628D01*
X55510714Y-84744819D02*
X55510714Y-83744819D01*
X55510714Y-83744819D02*
X55891666Y-83744819D01*
X55891666Y-83744819D02*
X55986904Y-83792438D01*
X55986904Y-83792438D02*
X56034523Y-83840057D01*
X56034523Y-83840057D02*
X56082142Y-83935295D01*
X56082142Y-83935295D02*
X56082142Y-84078152D01*
X56082142Y-84078152D02*
X56034523Y-84173390D01*
X56034523Y-84173390D02*
X55986904Y-84221009D01*
X55986904Y-84221009D02*
X55891666Y-84268628D01*
X55891666Y-84268628D02*
X55510714Y-84268628D01*
X56415476Y-83744819D02*
X57034523Y-83744819D01*
X57034523Y-83744819D02*
X56701190Y-84125771D01*
X56701190Y-84125771D02*
X56844047Y-84125771D01*
X56844047Y-84125771D02*
X56939285Y-84173390D01*
X56939285Y-84173390D02*
X56986904Y-84221009D01*
X56986904Y-84221009D02*
X57034523Y-84316247D01*
X57034523Y-84316247D02*
X57034523Y-84554342D01*
X57034523Y-84554342D02*
X56986904Y-84649580D01*
X56986904Y-84649580D02*
X56939285Y-84697200D01*
X56939285Y-84697200D02*
X56844047Y-84744819D01*
X56844047Y-84744819D02*
X56558333Y-84744819D01*
X56558333Y-84744819D02*
X56463095Y-84697200D01*
X56463095Y-84697200D02*
X56415476Y-84649580D01*
X57653571Y-83744819D02*
X57748809Y-83744819D01*
X57748809Y-83744819D02*
X57844047Y-83792438D01*
X57844047Y-83792438D02*
X57891666Y-83840057D01*
X57891666Y-83840057D02*
X57939285Y-83935295D01*
X57939285Y-83935295D02*
X57986904Y-84125771D01*
X57986904Y-84125771D02*
X57986904Y-84363866D01*
X57986904Y-84363866D02*
X57939285Y-84554342D01*
X57939285Y-84554342D02*
X57891666Y-84649580D01*
X57891666Y-84649580D02*
X57844047Y-84697200D01*
X57844047Y-84697200D02*
X57748809Y-84744819D01*
X57748809Y-84744819D02*
X57653571Y-84744819D01*
X57653571Y-84744819D02*
X57558333Y-84697200D01*
X57558333Y-84697200D02*
X57510714Y-84649580D01*
X57510714Y-84649580D02*
X57463095Y-84554342D01*
X57463095Y-84554342D02*
X57415476Y-84363866D01*
X57415476Y-84363866D02*
X57415476Y-84125771D01*
X57415476Y-84125771D02*
X57463095Y-83935295D01*
X57463095Y-83935295D02*
X57510714Y-83840057D01*
X57510714Y-83840057D02*
X57558333Y-83792438D01*
X57558333Y-83792438D02*
X57653571Y-83744819D01*
X43554819Y-62963094D02*
X42554819Y-62963094D01*
X42554819Y-62963094D02*
X42554819Y-62724999D01*
X42554819Y-62724999D02*
X42602438Y-62582142D01*
X42602438Y-62582142D02*
X42697676Y-62486904D01*
X42697676Y-62486904D02*
X42792914Y-62439285D01*
X42792914Y-62439285D02*
X42983390Y-62391666D01*
X42983390Y-62391666D02*
X43126247Y-62391666D01*
X43126247Y-62391666D02*
X43316723Y-62439285D01*
X43316723Y-62439285D02*
X43411961Y-62486904D01*
X43411961Y-62486904D02*
X43507200Y-62582142D01*
X43507200Y-62582142D02*
X43554819Y-62724999D01*
X43554819Y-62724999D02*
X43554819Y-62963094D01*
X42650057Y-62010713D02*
X42602438Y-61963094D01*
X42602438Y-61963094D02*
X42554819Y-61867856D01*
X42554819Y-61867856D02*
X42554819Y-61629761D01*
X42554819Y-61629761D02*
X42602438Y-61534523D01*
X42602438Y-61534523D02*
X42650057Y-61486904D01*
X42650057Y-61486904D02*
X42745295Y-61439285D01*
X42745295Y-61439285D02*
X42840533Y-61439285D01*
X42840533Y-61439285D02*
X42983390Y-61486904D01*
X42983390Y-61486904D02*
X43554819Y-62058332D01*
X43554819Y-62058332D02*
X43554819Y-61439285D01*
X40704819Y-87282857D02*
X40228628Y-87616190D01*
X40704819Y-87854285D02*
X39704819Y-87854285D01*
X39704819Y-87854285D02*
X39704819Y-87473333D01*
X39704819Y-87473333D02*
X39752438Y-87378095D01*
X39752438Y-87378095D02*
X39800057Y-87330476D01*
X39800057Y-87330476D02*
X39895295Y-87282857D01*
X39895295Y-87282857D02*
X40038152Y-87282857D01*
X40038152Y-87282857D02*
X40133390Y-87330476D01*
X40133390Y-87330476D02*
X40181009Y-87378095D01*
X40181009Y-87378095D02*
X40228628Y-87473333D01*
X40228628Y-87473333D02*
X40228628Y-87854285D01*
X39800057Y-86901904D02*
X39752438Y-86854285D01*
X39752438Y-86854285D02*
X39704819Y-86759047D01*
X39704819Y-86759047D02*
X39704819Y-86520952D01*
X39704819Y-86520952D02*
X39752438Y-86425714D01*
X39752438Y-86425714D02*
X39800057Y-86378095D01*
X39800057Y-86378095D02*
X39895295Y-86330476D01*
X39895295Y-86330476D02*
X39990533Y-86330476D01*
X39990533Y-86330476D02*
X40133390Y-86378095D01*
X40133390Y-86378095D02*
X40704819Y-86949523D01*
X40704819Y-86949523D02*
X40704819Y-86330476D01*
X40038152Y-85473333D02*
X40704819Y-85473333D01*
X39657200Y-85711428D02*
X40371485Y-85949523D01*
X40371485Y-85949523D02*
X40371485Y-85330476D01*
X40654819Y-104488094D02*
X39654819Y-104488094D01*
X39654819Y-104488094D02*
X39654819Y-104249999D01*
X39654819Y-104249999D02*
X39702438Y-104107142D01*
X39702438Y-104107142D02*
X39797676Y-104011904D01*
X39797676Y-104011904D02*
X39892914Y-103964285D01*
X39892914Y-103964285D02*
X40083390Y-103916666D01*
X40083390Y-103916666D02*
X40226247Y-103916666D01*
X40226247Y-103916666D02*
X40416723Y-103964285D01*
X40416723Y-103964285D02*
X40511961Y-104011904D01*
X40511961Y-104011904D02*
X40607200Y-104107142D01*
X40607200Y-104107142D02*
X40654819Y-104249999D01*
X40654819Y-104249999D02*
X40654819Y-104488094D01*
X39654819Y-103583332D02*
X39654819Y-102916666D01*
X39654819Y-102916666D02*
X40654819Y-103345237D01*
X42247142Y-94794819D02*
X41913809Y-94318628D01*
X41675714Y-94794819D02*
X41675714Y-93794819D01*
X41675714Y-93794819D02*
X42056666Y-93794819D01*
X42056666Y-93794819D02*
X42151904Y-93842438D01*
X42151904Y-93842438D02*
X42199523Y-93890057D01*
X42199523Y-93890057D02*
X42247142Y-93985295D01*
X42247142Y-93985295D02*
X42247142Y-94128152D01*
X42247142Y-94128152D02*
X42199523Y-94223390D01*
X42199523Y-94223390D02*
X42151904Y-94271009D01*
X42151904Y-94271009D02*
X42056666Y-94318628D01*
X42056666Y-94318628D02*
X41675714Y-94318628D01*
X42628095Y-93890057D02*
X42675714Y-93842438D01*
X42675714Y-93842438D02*
X42770952Y-93794819D01*
X42770952Y-93794819D02*
X43009047Y-93794819D01*
X43009047Y-93794819D02*
X43104285Y-93842438D01*
X43104285Y-93842438D02*
X43151904Y-93890057D01*
X43151904Y-93890057D02*
X43199523Y-93985295D01*
X43199523Y-93985295D02*
X43199523Y-94080533D01*
X43199523Y-94080533D02*
X43151904Y-94223390D01*
X43151904Y-94223390D02*
X42580476Y-94794819D01*
X42580476Y-94794819D02*
X43199523Y-94794819D01*
X44151904Y-94794819D02*
X43580476Y-94794819D01*
X43866190Y-94794819D02*
X43866190Y-93794819D01*
X43866190Y-93794819D02*
X43770952Y-93937676D01*
X43770952Y-93937676D02*
X43675714Y-94032914D01*
X43675714Y-94032914D02*
X43580476Y-94080533D01*
X64706666Y-108154819D02*
X64706666Y-108869104D01*
X64706666Y-108869104D02*
X64659047Y-109011961D01*
X64659047Y-109011961D02*
X64563809Y-109107200D01*
X64563809Y-109107200D02*
X64420952Y-109154819D01*
X64420952Y-109154819D02*
X64325714Y-109154819D01*
X65611428Y-108154819D02*
X65420952Y-108154819D01*
X65420952Y-108154819D02*
X65325714Y-108202438D01*
X65325714Y-108202438D02*
X65278095Y-108250057D01*
X65278095Y-108250057D02*
X65182857Y-108392914D01*
X65182857Y-108392914D02*
X65135238Y-108583390D01*
X65135238Y-108583390D02*
X65135238Y-108964342D01*
X65135238Y-108964342D02*
X65182857Y-109059580D01*
X65182857Y-109059580D02*
X65230476Y-109107200D01*
X65230476Y-109107200D02*
X65325714Y-109154819D01*
X65325714Y-109154819D02*
X65516190Y-109154819D01*
X65516190Y-109154819D02*
X65611428Y-109107200D01*
X65611428Y-109107200D02*
X65659047Y-109059580D01*
X65659047Y-109059580D02*
X65706666Y-108964342D01*
X65706666Y-108964342D02*
X65706666Y-108726247D01*
X65706666Y-108726247D02*
X65659047Y-108631009D01*
X65659047Y-108631009D02*
X65611428Y-108583390D01*
X65611428Y-108583390D02*
X65516190Y-108535771D01*
X65516190Y-108535771D02*
X65325714Y-108535771D01*
X65325714Y-108535771D02*
X65230476Y-108583390D01*
X65230476Y-108583390D02*
X65182857Y-108631009D01*
X65182857Y-108631009D02*
X65135238Y-108726247D01*
X49029761Y-103650057D02*
X48934523Y-103602438D01*
X48934523Y-103602438D02*
X48839285Y-103507200D01*
X48839285Y-103507200D02*
X48696428Y-103364342D01*
X48696428Y-103364342D02*
X48601190Y-103316723D01*
X48601190Y-103316723D02*
X48505952Y-103316723D01*
X48553571Y-103554819D02*
X48458333Y-103507200D01*
X48458333Y-103507200D02*
X48363095Y-103411961D01*
X48363095Y-103411961D02*
X48315476Y-103221485D01*
X48315476Y-103221485D02*
X48315476Y-102888152D01*
X48315476Y-102888152D02*
X48363095Y-102697676D01*
X48363095Y-102697676D02*
X48458333Y-102602438D01*
X48458333Y-102602438D02*
X48553571Y-102554819D01*
X48553571Y-102554819D02*
X48744047Y-102554819D01*
X48744047Y-102554819D02*
X48839285Y-102602438D01*
X48839285Y-102602438D02*
X48934523Y-102697676D01*
X48934523Y-102697676D02*
X48982142Y-102888152D01*
X48982142Y-102888152D02*
X48982142Y-103221485D01*
X48982142Y-103221485D02*
X48934523Y-103411961D01*
X48934523Y-103411961D02*
X48839285Y-103507200D01*
X48839285Y-103507200D02*
X48744047Y-103554819D01*
X48744047Y-103554819D02*
X48553571Y-103554819D01*
X49934523Y-103554819D02*
X49363095Y-103554819D01*
X49648809Y-103554819D02*
X49648809Y-102554819D01*
X49648809Y-102554819D02*
X49553571Y-102697676D01*
X49553571Y-102697676D02*
X49458333Y-102792914D01*
X49458333Y-102792914D02*
X49363095Y-102840533D01*
X55957142Y-81474580D02*
X55909523Y-81522200D01*
X55909523Y-81522200D02*
X55766666Y-81569819D01*
X55766666Y-81569819D02*
X55671428Y-81569819D01*
X55671428Y-81569819D02*
X55528571Y-81522200D01*
X55528571Y-81522200D02*
X55433333Y-81426961D01*
X55433333Y-81426961D02*
X55385714Y-81331723D01*
X55385714Y-81331723D02*
X55338095Y-81141247D01*
X55338095Y-81141247D02*
X55338095Y-80998390D01*
X55338095Y-80998390D02*
X55385714Y-80807914D01*
X55385714Y-80807914D02*
X55433333Y-80712676D01*
X55433333Y-80712676D02*
X55528571Y-80617438D01*
X55528571Y-80617438D02*
X55671428Y-80569819D01*
X55671428Y-80569819D02*
X55766666Y-80569819D01*
X55766666Y-80569819D02*
X55909523Y-80617438D01*
X55909523Y-80617438D02*
X55957142Y-80665057D01*
X56338095Y-80665057D02*
X56385714Y-80617438D01*
X56385714Y-80617438D02*
X56480952Y-80569819D01*
X56480952Y-80569819D02*
X56719047Y-80569819D01*
X56719047Y-80569819D02*
X56814285Y-80617438D01*
X56814285Y-80617438D02*
X56861904Y-80665057D01*
X56861904Y-80665057D02*
X56909523Y-80760295D01*
X56909523Y-80760295D02*
X56909523Y-80855533D01*
X56909523Y-80855533D02*
X56861904Y-80998390D01*
X56861904Y-80998390D02*
X56290476Y-81569819D01*
X56290476Y-81569819D02*
X56909523Y-81569819D01*
X57861904Y-81569819D02*
X57290476Y-81569819D01*
X57576190Y-81569819D02*
X57576190Y-80569819D01*
X57576190Y-80569819D02*
X57480952Y-80712676D01*
X57480952Y-80712676D02*
X57385714Y-80807914D01*
X57385714Y-80807914D02*
X57290476Y-80855533D01*
X75074819Y-97176666D02*
X74598628Y-97509999D01*
X75074819Y-97748094D02*
X74074819Y-97748094D01*
X74074819Y-97748094D02*
X74074819Y-97367142D01*
X74074819Y-97367142D02*
X74122438Y-97271904D01*
X74122438Y-97271904D02*
X74170057Y-97224285D01*
X74170057Y-97224285D02*
X74265295Y-97176666D01*
X74265295Y-97176666D02*
X74408152Y-97176666D01*
X74408152Y-97176666D02*
X74503390Y-97224285D01*
X74503390Y-97224285D02*
X74551009Y-97271904D01*
X74551009Y-97271904D02*
X74598628Y-97367142D01*
X74598628Y-97367142D02*
X74598628Y-97748094D01*
X74074819Y-96319523D02*
X74074819Y-96509999D01*
X74074819Y-96509999D02*
X74122438Y-96605237D01*
X74122438Y-96605237D02*
X74170057Y-96652856D01*
X74170057Y-96652856D02*
X74312914Y-96748094D01*
X74312914Y-96748094D02*
X74503390Y-96795713D01*
X74503390Y-96795713D02*
X74884342Y-96795713D01*
X74884342Y-96795713D02*
X74979580Y-96748094D01*
X74979580Y-96748094D02*
X75027200Y-96700475D01*
X75027200Y-96700475D02*
X75074819Y-96605237D01*
X75074819Y-96605237D02*
X75074819Y-96414761D01*
X75074819Y-96414761D02*
X75027200Y-96319523D01*
X75027200Y-96319523D02*
X74979580Y-96271904D01*
X74979580Y-96271904D02*
X74884342Y-96224285D01*
X74884342Y-96224285D02*
X74646247Y-96224285D01*
X74646247Y-96224285D02*
X74551009Y-96271904D01*
X74551009Y-96271904D02*
X74503390Y-96319523D01*
X74503390Y-96319523D02*
X74455771Y-96414761D01*
X74455771Y-96414761D02*
X74455771Y-96605237D01*
X74455771Y-96605237D02*
X74503390Y-96700475D01*
X74503390Y-96700475D02*
X74551009Y-96748094D01*
X74551009Y-96748094D02*
X74646247Y-96795713D01*
X68604956Y-102464069D02*
X68604956Y-103179159D01*
X68604956Y-103179159D02*
X68557283Y-103322177D01*
X68557283Y-103322177D02*
X68461938Y-103417523D01*
X68461938Y-103417523D02*
X68318920Y-103465195D01*
X68318920Y-103465195D02*
X68223575Y-103465195D01*
X69510737Y-102797778D02*
X69510737Y-103465195D01*
X69272374Y-102416397D02*
X69034010Y-103131487D01*
X69034010Y-103131487D02*
X69653755Y-103131487D01*
X51788095Y-99269819D02*
X51788095Y-100079342D01*
X51788095Y-100079342D02*
X51835714Y-100174580D01*
X51835714Y-100174580D02*
X51883333Y-100222200D01*
X51883333Y-100222200D02*
X51978571Y-100269819D01*
X51978571Y-100269819D02*
X52169047Y-100269819D01*
X52169047Y-100269819D02*
X52264285Y-100222200D01*
X52264285Y-100222200D02*
X52311904Y-100174580D01*
X52311904Y-100174580D02*
X52359523Y-100079342D01*
X52359523Y-100079342D02*
X52359523Y-99269819D01*
X53359523Y-100269819D02*
X52788095Y-100269819D01*
X53073809Y-100269819D02*
X53073809Y-99269819D01*
X53073809Y-99269819D02*
X52978571Y-99412676D01*
X52978571Y-99412676D02*
X52883333Y-99507914D01*
X52883333Y-99507914D02*
X52788095Y-99555533D01*
X41797812Y-87649016D02*
X41797812Y-88979465D01*
X41797812Y-88979465D02*
X41876074Y-89135989D01*
X41876074Y-89135989D02*
X41954336Y-89214251D01*
X41954336Y-89214251D02*
X42110859Y-89292512D01*
X42110859Y-89292512D02*
X42423906Y-89292512D01*
X42423906Y-89292512D02*
X42580429Y-89214251D01*
X42580429Y-89214251D02*
X42658691Y-89135989D01*
X42658691Y-89135989D02*
X42736953Y-88979465D01*
X42736953Y-88979465D02*
X42736953Y-87649016D01*
X44223926Y-87649016D02*
X43910879Y-87649016D01*
X43910879Y-87649016D02*
X43754355Y-87727278D01*
X43754355Y-87727278D02*
X43676094Y-87805540D01*
X43676094Y-87805540D02*
X43519570Y-88040325D01*
X43519570Y-88040325D02*
X43441308Y-88353372D01*
X43441308Y-88353372D02*
X43441308Y-88979465D01*
X43441308Y-88979465D02*
X43519570Y-89135989D01*
X43519570Y-89135989D02*
X43597832Y-89214251D01*
X43597832Y-89214251D02*
X43754355Y-89292512D01*
X43754355Y-89292512D02*
X44067402Y-89292512D01*
X44067402Y-89292512D02*
X44223926Y-89214251D01*
X44223926Y-89214251D02*
X44302187Y-89135989D01*
X44302187Y-89135989D02*
X44380449Y-88979465D01*
X44380449Y-88979465D02*
X44380449Y-88588157D01*
X44380449Y-88588157D02*
X44302187Y-88431633D01*
X44302187Y-88431633D02*
X44223926Y-88353372D01*
X44223926Y-88353372D02*
X44067402Y-88275110D01*
X44067402Y-88275110D02*
X43754355Y-88275110D01*
X43754355Y-88275110D02*
X43597832Y-88353372D01*
X43597832Y-88353372D02*
X43519570Y-88431633D01*
X43519570Y-88431633D02*
X43441308Y-88588157D01*
X57558333Y-95549580D02*
X57510714Y-95597200D01*
X57510714Y-95597200D02*
X57367857Y-95644819D01*
X57367857Y-95644819D02*
X57272619Y-95644819D01*
X57272619Y-95644819D02*
X57129762Y-95597200D01*
X57129762Y-95597200D02*
X57034524Y-95501961D01*
X57034524Y-95501961D02*
X56986905Y-95406723D01*
X56986905Y-95406723D02*
X56939286Y-95216247D01*
X56939286Y-95216247D02*
X56939286Y-95073390D01*
X56939286Y-95073390D02*
X56986905Y-94882914D01*
X56986905Y-94882914D02*
X57034524Y-94787676D01*
X57034524Y-94787676D02*
X57129762Y-94692438D01*
X57129762Y-94692438D02*
X57272619Y-94644819D01*
X57272619Y-94644819D02*
X57367857Y-94644819D01*
X57367857Y-94644819D02*
X57510714Y-94692438D01*
X57510714Y-94692438D02*
X57558333Y-94740057D01*
X57891667Y-94644819D02*
X58510714Y-94644819D01*
X58510714Y-94644819D02*
X58177381Y-95025771D01*
X58177381Y-95025771D02*
X58320238Y-95025771D01*
X58320238Y-95025771D02*
X58415476Y-95073390D01*
X58415476Y-95073390D02*
X58463095Y-95121009D01*
X58463095Y-95121009D02*
X58510714Y-95216247D01*
X58510714Y-95216247D02*
X58510714Y-95454342D01*
X58510714Y-95454342D02*
X58463095Y-95549580D01*
X58463095Y-95549580D02*
X58415476Y-95597200D01*
X58415476Y-95597200D02*
X58320238Y-95644819D01*
X58320238Y-95644819D02*
X58034524Y-95644819D01*
X58034524Y-95644819D02*
X57939286Y-95597200D01*
X57939286Y-95597200D02*
X57891667Y-95549580D01*
X51329819Y-83749285D02*
X50329819Y-83749285D01*
X50329819Y-83749285D02*
X50329819Y-83511190D01*
X50329819Y-83511190D02*
X50377438Y-83368333D01*
X50377438Y-83368333D02*
X50472676Y-83273095D01*
X50472676Y-83273095D02*
X50567914Y-83225476D01*
X50567914Y-83225476D02*
X50758390Y-83177857D01*
X50758390Y-83177857D02*
X50901247Y-83177857D01*
X50901247Y-83177857D02*
X51091723Y-83225476D01*
X51091723Y-83225476D02*
X51186961Y-83273095D01*
X51186961Y-83273095D02*
X51282200Y-83368333D01*
X51282200Y-83368333D02*
X51329819Y-83511190D01*
X51329819Y-83511190D02*
X51329819Y-83749285D01*
X51329819Y-82225476D02*
X51329819Y-82796904D01*
X51329819Y-82511190D02*
X50329819Y-82511190D01*
X50329819Y-82511190D02*
X50472676Y-82606428D01*
X50472676Y-82606428D02*
X50567914Y-82701666D01*
X50567914Y-82701666D02*
X50615533Y-82796904D01*
X51329819Y-81749285D02*
X51329819Y-81558809D01*
X51329819Y-81558809D02*
X51282200Y-81463571D01*
X51282200Y-81463571D02*
X51234580Y-81415952D01*
X51234580Y-81415952D02*
X51091723Y-81320714D01*
X51091723Y-81320714D02*
X50901247Y-81273095D01*
X50901247Y-81273095D02*
X50520295Y-81273095D01*
X50520295Y-81273095D02*
X50425057Y-81320714D01*
X50425057Y-81320714D02*
X50377438Y-81368333D01*
X50377438Y-81368333D02*
X50329819Y-81463571D01*
X50329819Y-81463571D02*
X50329819Y-81654047D01*
X50329819Y-81654047D02*
X50377438Y-81749285D01*
X50377438Y-81749285D02*
X50425057Y-81796904D01*
X50425057Y-81796904D02*
X50520295Y-81844523D01*
X50520295Y-81844523D02*
X50758390Y-81844523D01*
X50758390Y-81844523D02*
X50853628Y-81796904D01*
X50853628Y-81796904D02*
X50901247Y-81749285D01*
X50901247Y-81749285D02*
X50948866Y-81654047D01*
X50948866Y-81654047D02*
X50948866Y-81463571D01*
X50948866Y-81463571D02*
X50901247Y-81368333D01*
X50901247Y-81368333D02*
X50853628Y-81320714D01*
X50853628Y-81320714D02*
X50758390Y-81273095D01*
X61958333Y-105519819D02*
X61625000Y-105043628D01*
X61386905Y-105519819D02*
X61386905Y-104519819D01*
X61386905Y-104519819D02*
X61767857Y-104519819D01*
X61767857Y-104519819D02*
X61863095Y-104567438D01*
X61863095Y-104567438D02*
X61910714Y-104615057D01*
X61910714Y-104615057D02*
X61958333Y-104710295D01*
X61958333Y-104710295D02*
X61958333Y-104853152D01*
X61958333Y-104853152D02*
X61910714Y-104948390D01*
X61910714Y-104948390D02*
X61863095Y-104996009D01*
X61863095Y-104996009D02*
X61767857Y-105043628D01*
X61767857Y-105043628D02*
X61386905Y-105043628D01*
X62863095Y-104519819D02*
X62386905Y-104519819D01*
X62386905Y-104519819D02*
X62339286Y-104996009D01*
X62339286Y-104996009D02*
X62386905Y-104948390D01*
X62386905Y-104948390D02*
X62482143Y-104900771D01*
X62482143Y-104900771D02*
X62720238Y-104900771D01*
X62720238Y-104900771D02*
X62815476Y-104948390D01*
X62815476Y-104948390D02*
X62863095Y-104996009D01*
X62863095Y-104996009D02*
X62910714Y-105091247D01*
X62910714Y-105091247D02*
X62910714Y-105329342D01*
X62910714Y-105329342D02*
X62863095Y-105424580D01*
X62863095Y-105424580D02*
X62815476Y-105472200D01*
X62815476Y-105472200D02*
X62720238Y-105519819D01*
X62720238Y-105519819D02*
X62482143Y-105519819D01*
X62482143Y-105519819D02*
X62386905Y-105472200D01*
X62386905Y-105472200D02*
X62339286Y-105424580D01*
X96494819Y-70500357D02*
X96018628Y-70833690D01*
X96494819Y-71071785D02*
X95494819Y-71071785D01*
X95494819Y-71071785D02*
X95494819Y-70690833D01*
X95494819Y-70690833D02*
X95542438Y-70595595D01*
X95542438Y-70595595D02*
X95590057Y-70547976D01*
X95590057Y-70547976D02*
X95685295Y-70500357D01*
X95685295Y-70500357D02*
X95828152Y-70500357D01*
X95828152Y-70500357D02*
X95923390Y-70547976D01*
X95923390Y-70547976D02*
X95971009Y-70595595D01*
X95971009Y-70595595D02*
X96018628Y-70690833D01*
X96018628Y-70690833D02*
X96018628Y-71071785D01*
X95590057Y-70119404D02*
X95542438Y-70071785D01*
X95542438Y-70071785D02*
X95494819Y-69976547D01*
X95494819Y-69976547D02*
X95494819Y-69738452D01*
X95494819Y-69738452D02*
X95542438Y-69643214D01*
X95542438Y-69643214D02*
X95590057Y-69595595D01*
X95590057Y-69595595D02*
X95685295Y-69547976D01*
X95685295Y-69547976D02*
X95780533Y-69547976D01*
X95780533Y-69547976D02*
X95923390Y-69595595D01*
X95923390Y-69595595D02*
X96494819Y-70167023D01*
X96494819Y-70167023D02*
X96494819Y-69547976D01*
X95923390Y-68976547D02*
X95875771Y-69071785D01*
X95875771Y-69071785D02*
X95828152Y-69119404D01*
X95828152Y-69119404D02*
X95732914Y-69167023D01*
X95732914Y-69167023D02*
X95685295Y-69167023D01*
X95685295Y-69167023D02*
X95590057Y-69119404D01*
X95590057Y-69119404D02*
X95542438Y-69071785D01*
X95542438Y-69071785D02*
X95494819Y-68976547D01*
X95494819Y-68976547D02*
X95494819Y-68786071D01*
X95494819Y-68786071D02*
X95542438Y-68690833D01*
X95542438Y-68690833D02*
X95590057Y-68643214D01*
X95590057Y-68643214D02*
X95685295Y-68595595D01*
X95685295Y-68595595D02*
X95732914Y-68595595D01*
X95732914Y-68595595D02*
X95828152Y-68643214D01*
X95828152Y-68643214D02*
X95875771Y-68690833D01*
X95875771Y-68690833D02*
X95923390Y-68786071D01*
X95923390Y-68786071D02*
X95923390Y-68976547D01*
X95923390Y-68976547D02*
X95971009Y-69071785D01*
X95971009Y-69071785D02*
X96018628Y-69119404D01*
X96018628Y-69119404D02*
X96113866Y-69167023D01*
X96113866Y-69167023D02*
X96304342Y-69167023D01*
X96304342Y-69167023D02*
X96399580Y-69119404D01*
X96399580Y-69119404D02*
X96447200Y-69071785D01*
X96447200Y-69071785D02*
X96494819Y-68976547D01*
X96494819Y-68976547D02*
X96494819Y-68786071D01*
X96494819Y-68786071D02*
X96447200Y-68690833D01*
X96447200Y-68690833D02*
X96399580Y-68643214D01*
X96399580Y-68643214D02*
X96304342Y-68595595D01*
X96304342Y-68595595D02*
X96113866Y-68595595D01*
X96113866Y-68595595D02*
X96018628Y-68643214D01*
X96018628Y-68643214D02*
X95971009Y-68690833D01*
X95971009Y-68690833D02*
X95923390Y-68786071D01*
X49109580Y-77807857D02*
X49157200Y-77855476D01*
X49157200Y-77855476D02*
X49204819Y-77998333D01*
X49204819Y-77998333D02*
X49204819Y-78093571D01*
X49204819Y-78093571D02*
X49157200Y-78236428D01*
X49157200Y-78236428D02*
X49061961Y-78331666D01*
X49061961Y-78331666D02*
X48966723Y-78379285D01*
X48966723Y-78379285D02*
X48776247Y-78426904D01*
X48776247Y-78426904D02*
X48633390Y-78426904D01*
X48633390Y-78426904D02*
X48442914Y-78379285D01*
X48442914Y-78379285D02*
X48347676Y-78331666D01*
X48347676Y-78331666D02*
X48252438Y-78236428D01*
X48252438Y-78236428D02*
X48204819Y-78093571D01*
X48204819Y-78093571D02*
X48204819Y-77998333D01*
X48204819Y-77998333D02*
X48252438Y-77855476D01*
X48252438Y-77855476D02*
X48300057Y-77807857D01*
X49204819Y-76855476D02*
X49204819Y-77426904D01*
X49204819Y-77141190D02*
X48204819Y-77141190D01*
X48204819Y-77141190D02*
X48347676Y-77236428D01*
X48347676Y-77236428D02*
X48442914Y-77331666D01*
X48442914Y-77331666D02*
X48490533Y-77426904D01*
X48633390Y-76284047D02*
X48585771Y-76379285D01*
X48585771Y-76379285D02*
X48538152Y-76426904D01*
X48538152Y-76426904D02*
X48442914Y-76474523D01*
X48442914Y-76474523D02*
X48395295Y-76474523D01*
X48395295Y-76474523D02*
X48300057Y-76426904D01*
X48300057Y-76426904D02*
X48252438Y-76379285D01*
X48252438Y-76379285D02*
X48204819Y-76284047D01*
X48204819Y-76284047D02*
X48204819Y-76093571D01*
X48204819Y-76093571D02*
X48252438Y-75998333D01*
X48252438Y-75998333D02*
X48300057Y-75950714D01*
X48300057Y-75950714D02*
X48395295Y-75903095D01*
X48395295Y-75903095D02*
X48442914Y-75903095D01*
X48442914Y-75903095D02*
X48538152Y-75950714D01*
X48538152Y-75950714D02*
X48585771Y-75998333D01*
X48585771Y-75998333D02*
X48633390Y-76093571D01*
X48633390Y-76093571D02*
X48633390Y-76284047D01*
X48633390Y-76284047D02*
X48681009Y-76379285D01*
X48681009Y-76379285D02*
X48728628Y-76426904D01*
X48728628Y-76426904D02*
X48823866Y-76474523D01*
X48823866Y-76474523D02*
X49014342Y-76474523D01*
X49014342Y-76474523D02*
X49109580Y-76426904D01*
X49109580Y-76426904D02*
X49157200Y-76379285D01*
X49157200Y-76379285D02*
X49204819Y-76284047D01*
X49204819Y-76284047D02*
X49204819Y-76093571D01*
X49204819Y-76093571D02*
X49157200Y-75998333D01*
X49157200Y-75998333D02*
X49109580Y-75950714D01*
X49109580Y-75950714D02*
X49014342Y-75903095D01*
X49014342Y-75903095D02*
X48823866Y-75903095D01*
X48823866Y-75903095D02*
X48728628Y-75950714D01*
X48728628Y-75950714D02*
X48681009Y-75998333D01*
X48681009Y-75998333D02*
X48633390Y-76093571D01*
X44958333Y-100854819D02*
X44482143Y-100854819D01*
X44482143Y-100854819D02*
X44482143Y-99854819D01*
X45815476Y-100854819D02*
X45244048Y-100854819D01*
X45529762Y-100854819D02*
X45529762Y-99854819D01*
X45529762Y-99854819D02*
X45434524Y-99997676D01*
X45434524Y-99997676D02*
X45339286Y-100092914D01*
X45339286Y-100092914D02*
X45244048Y-100140533D01*
X85041666Y-61944819D02*
X85041666Y-62659104D01*
X85041666Y-62659104D02*
X84994047Y-62801961D01*
X84994047Y-62801961D02*
X84898809Y-62897200D01*
X84898809Y-62897200D02*
X84755952Y-62944819D01*
X84755952Y-62944819D02*
X84660714Y-62944819D01*
X85422619Y-61944819D02*
X86089285Y-61944819D01*
X86089285Y-61944819D02*
X85660714Y-62944819D01*
X57583333Y-94394819D02*
X57250000Y-93918628D01*
X57011905Y-94394819D02*
X57011905Y-93394819D01*
X57011905Y-93394819D02*
X57392857Y-93394819D01*
X57392857Y-93394819D02*
X57488095Y-93442438D01*
X57488095Y-93442438D02*
X57535714Y-93490057D01*
X57535714Y-93490057D02*
X57583333Y-93585295D01*
X57583333Y-93585295D02*
X57583333Y-93728152D01*
X57583333Y-93728152D02*
X57535714Y-93823390D01*
X57535714Y-93823390D02*
X57488095Y-93871009D01*
X57488095Y-93871009D02*
X57392857Y-93918628D01*
X57392857Y-93918628D02*
X57011905Y-93918628D01*
X57916667Y-93394819D02*
X58535714Y-93394819D01*
X58535714Y-93394819D02*
X58202381Y-93775771D01*
X58202381Y-93775771D02*
X58345238Y-93775771D01*
X58345238Y-93775771D02*
X58440476Y-93823390D01*
X58440476Y-93823390D02*
X58488095Y-93871009D01*
X58488095Y-93871009D02*
X58535714Y-93966247D01*
X58535714Y-93966247D02*
X58535714Y-94204342D01*
X58535714Y-94204342D02*
X58488095Y-94299580D01*
X58488095Y-94299580D02*
X58440476Y-94347200D01*
X58440476Y-94347200D02*
X58345238Y-94394819D01*
X58345238Y-94394819D02*
X58059524Y-94394819D01*
X58059524Y-94394819D02*
X57964286Y-94347200D01*
X57964286Y-94347200D02*
X57916667Y-94299580D01*
X44995714Y-86334819D02*
X44995714Y-85334819D01*
X44995714Y-85334819D02*
X45233809Y-85334819D01*
X45233809Y-85334819D02*
X45376666Y-85382438D01*
X45376666Y-85382438D02*
X45471904Y-85477676D01*
X45471904Y-85477676D02*
X45519523Y-85572914D01*
X45519523Y-85572914D02*
X45567142Y-85763390D01*
X45567142Y-85763390D02*
X45567142Y-85906247D01*
X45567142Y-85906247D02*
X45519523Y-86096723D01*
X45519523Y-86096723D02*
X45471904Y-86191961D01*
X45471904Y-86191961D02*
X45376666Y-86287200D01*
X45376666Y-86287200D02*
X45233809Y-86334819D01*
X45233809Y-86334819D02*
X44995714Y-86334819D01*
X46519523Y-86334819D02*
X45948095Y-86334819D01*
X46233809Y-86334819D02*
X46233809Y-85334819D01*
X46233809Y-85334819D02*
X46138571Y-85477676D01*
X46138571Y-85477676D02*
X46043333Y-85572914D01*
X46043333Y-85572914D02*
X45948095Y-85620533D01*
X47090952Y-85763390D02*
X46995714Y-85715771D01*
X46995714Y-85715771D02*
X46948095Y-85668152D01*
X46948095Y-85668152D02*
X46900476Y-85572914D01*
X46900476Y-85572914D02*
X46900476Y-85525295D01*
X46900476Y-85525295D02*
X46948095Y-85430057D01*
X46948095Y-85430057D02*
X46995714Y-85382438D01*
X46995714Y-85382438D02*
X47090952Y-85334819D01*
X47090952Y-85334819D02*
X47281428Y-85334819D01*
X47281428Y-85334819D02*
X47376666Y-85382438D01*
X47376666Y-85382438D02*
X47424285Y-85430057D01*
X47424285Y-85430057D02*
X47471904Y-85525295D01*
X47471904Y-85525295D02*
X47471904Y-85572914D01*
X47471904Y-85572914D02*
X47424285Y-85668152D01*
X47424285Y-85668152D02*
X47376666Y-85715771D01*
X47376666Y-85715771D02*
X47281428Y-85763390D01*
X47281428Y-85763390D02*
X47090952Y-85763390D01*
X47090952Y-85763390D02*
X46995714Y-85811009D01*
X46995714Y-85811009D02*
X46948095Y-85858628D01*
X46948095Y-85858628D02*
X46900476Y-85953866D01*
X46900476Y-85953866D02*
X46900476Y-86144342D01*
X46900476Y-86144342D02*
X46948095Y-86239580D01*
X46948095Y-86239580D02*
X46995714Y-86287200D01*
X46995714Y-86287200D02*
X47090952Y-86334819D01*
X47090952Y-86334819D02*
X47281428Y-86334819D01*
X47281428Y-86334819D02*
X47376666Y-86287200D01*
X47376666Y-86287200D02*
X47424285Y-86239580D01*
X47424285Y-86239580D02*
X47471904Y-86144342D01*
X47471904Y-86144342D02*
X47471904Y-85953866D01*
X47471904Y-85953866D02*
X47424285Y-85858628D01*
X47424285Y-85858628D02*
X47376666Y-85811009D01*
X47376666Y-85811009D02*
X47281428Y-85763390D01*
X46973810Y-74204819D02*
X46973810Y-73204819D01*
X48021428Y-74109580D02*
X47973809Y-74157200D01*
X47973809Y-74157200D02*
X47830952Y-74204819D01*
X47830952Y-74204819D02*
X47735714Y-74204819D01*
X47735714Y-74204819D02*
X47592857Y-74157200D01*
X47592857Y-74157200D02*
X47497619Y-74061961D01*
X47497619Y-74061961D02*
X47450000Y-73966723D01*
X47450000Y-73966723D02*
X47402381Y-73776247D01*
X47402381Y-73776247D02*
X47402381Y-73633390D01*
X47402381Y-73633390D02*
X47450000Y-73442914D01*
X47450000Y-73442914D02*
X47497619Y-73347676D01*
X47497619Y-73347676D02*
X47592857Y-73252438D01*
X47592857Y-73252438D02*
X47735714Y-73204819D01*
X47735714Y-73204819D02*
X47830952Y-73204819D01*
X47830952Y-73204819D02*
X47973809Y-73252438D01*
X47973809Y-73252438D02*
X48021428Y-73300057D01*
X48973809Y-74204819D02*
X48402381Y-74204819D01*
X48688095Y-74204819D02*
X48688095Y-73204819D01*
X48688095Y-73204819D02*
X48592857Y-73347676D01*
X48592857Y-73347676D02*
X48497619Y-73442914D01*
X48497619Y-73442914D02*
X48402381Y-73490533D01*
X101127142Y-72859580D02*
X101079523Y-72907200D01*
X101079523Y-72907200D02*
X100936666Y-72954819D01*
X100936666Y-72954819D02*
X100841428Y-72954819D01*
X100841428Y-72954819D02*
X100698571Y-72907200D01*
X100698571Y-72907200D02*
X100603333Y-72811961D01*
X100603333Y-72811961D02*
X100555714Y-72716723D01*
X100555714Y-72716723D02*
X100508095Y-72526247D01*
X100508095Y-72526247D02*
X100508095Y-72383390D01*
X100508095Y-72383390D02*
X100555714Y-72192914D01*
X100555714Y-72192914D02*
X100603333Y-72097676D01*
X100603333Y-72097676D02*
X100698571Y-72002438D01*
X100698571Y-72002438D02*
X100841428Y-71954819D01*
X100841428Y-71954819D02*
X100936666Y-71954819D01*
X100936666Y-71954819D02*
X101079523Y-72002438D01*
X101079523Y-72002438D02*
X101127142Y-72050057D01*
X102079523Y-72954819D02*
X101508095Y-72954819D01*
X101793809Y-72954819D02*
X101793809Y-71954819D01*
X101793809Y-71954819D02*
X101698571Y-72097676D01*
X101698571Y-72097676D02*
X101603333Y-72192914D01*
X101603333Y-72192914D02*
X101508095Y-72240533D01*
X102984285Y-71954819D02*
X102508095Y-71954819D01*
X102508095Y-71954819D02*
X102460476Y-72431009D01*
X102460476Y-72431009D02*
X102508095Y-72383390D01*
X102508095Y-72383390D02*
X102603333Y-72335771D01*
X102603333Y-72335771D02*
X102841428Y-72335771D01*
X102841428Y-72335771D02*
X102936666Y-72383390D01*
X102936666Y-72383390D02*
X102984285Y-72431009D01*
X102984285Y-72431009D02*
X103031904Y-72526247D01*
X103031904Y-72526247D02*
X103031904Y-72764342D01*
X103031904Y-72764342D02*
X102984285Y-72859580D01*
X102984285Y-72859580D02*
X102936666Y-72907200D01*
X102936666Y-72907200D02*
X102841428Y-72954819D01*
X102841428Y-72954819D02*
X102603333Y-72954819D01*
X102603333Y-72954819D02*
X102508095Y-72907200D01*
X102508095Y-72907200D02*
X102460476Y-72859580D01*
X94779819Y-64007857D02*
X94303628Y-64341190D01*
X94779819Y-64579285D02*
X93779819Y-64579285D01*
X93779819Y-64579285D02*
X93779819Y-64198333D01*
X93779819Y-64198333D02*
X93827438Y-64103095D01*
X93827438Y-64103095D02*
X93875057Y-64055476D01*
X93875057Y-64055476D02*
X93970295Y-64007857D01*
X93970295Y-64007857D02*
X94113152Y-64007857D01*
X94113152Y-64007857D02*
X94208390Y-64055476D01*
X94208390Y-64055476D02*
X94256009Y-64103095D01*
X94256009Y-64103095D02*
X94303628Y-64198333D01*
X94303628Y-64198333D02*
X94303628Y-64579285D01*
X94779819Y-63055476D02*
X94779819Y-63626904D01*
X94779819Y-63341190D02*
X93779819Y-63341190D01*
X93779819Y-63341190D02*
X93922676Y-63436428D01*
X93922676Y-63436428D02*
X94017914Y-63531666D01*
X94017914Y-63531666D02*
X94065533Y-63626904D01*
X93779819Y-62150714D02*
X93779819Y-62626904D01*
X93779819Y-62626904D02*
X94256009Y-62674523D01*
X94256009Y-62674523D02*
X94208390Y-62626904D01*
X94208390Y-62626904D02*
X94160771Y-62531666D01*
X94160771Y-62531666D02*
X94160771Y-62293571D01*
X94160771Y-62293571D02*
X94208390Y-62198333D01*
X94208390Y-62198333D02*
X94256009Y-62150714D01*
X94256009Y-62150714D02*
X94351247Y-62103095D01*
X94351247Y-62103095D02*
X94589342Y-62103095D01*
X94589342Y-62103095D02*
X94684580Y-62150714D01*
X94684580Y-62150714D02*
X94732200Y-62198333D01*
X94732200Y-62198333D02*
X94779819Y-62293571D01*
X94779819Y-62293571D02*
X94779819Y-62531666D01*
X94779819Y-62531666D02*
X94732200Y-62626904D01*
X94732200Y-62626904D02*
X94684580Y-62674523D01*
X100932142Y-75569819D02*
X100598809Y-75093628D01*
X100360714Y-75569819D02*
X100360714Y-74569819D01*
X100360714Y-74569819D02*
X100741666Y-74569819D01*
X100741666Y-74569819D02*
X100836904Y-74617438D01*
X100836904Y-74617438D02*
X100884523Y-74665057D01*
X100884523Y-74665057D02*
X100932142Y-74760295D01*
X100932142Y-74760295D02*
X100932142Y-74903152D01*
X100932142Y-74903152D02*
X100884523Y-74998390D01*
X100884523Y-74998390D02*
X100836904Y-75046009D01*
X100836904Y-75046009D02*
X100741666Y-75093628D01*
X100741666Y-75093628D02*
X100360714Y-75093628D01*
X101313095Y-74665057D02*
X101360714Y-74617438D01*
X101360714Y-74617438D02*
X101455952Y-74569819D01*
X101455952Y-74569819D02*
X101694047Y-74569819D01*
X101694047Y-74569819D02*
X101789285Y-74617438D01*
X101789285Y-74617438D02*
X101836904Y-74665057D01*
X101836904Y-74665057D02*
X101884523Y-74760295D01*
X101884523Y-74760295D02*
X101884523Y-74855533D01*
X101884523Y-74855533D02*
X101836904Y-74998390D01*
X101836904Y-74998390D02*
X101265476Y-75569819D01*
X101265476Y-75569819D02*
X101884523Y-75569819D01*
X102217857Y-74569819D02*
X102836904Y-74569819D01*
X102836904Y-74569819D02*
X102503571Y-74950771D01*
X102503571Y-74950771D02*
X102646428Y-74950771D01*
X102646428Y-74950771D02*
X102741666Y-74998390D01*
X102741666Y-74998390D02*
X102789285Y-75046009D01*
X102789285Y-75046009D02*
X102836904Y-75141247D01*
X102836904Y-75141247D02*
X102836904Y-75379342D01*
X102836904Y-75379342D02*
X102789285Y-75474580D01*
X102789285Y-75474580D02*
X102741666Y-75522200D01*
X102741666Y-75522200D02*
X102646428Y-75569819D01*
X102646428Y-75569819D02*
X102360714Y-75569819D01*
X102360714Y-75569819D02*
X102265476Y-75522200D01*
X102265476Y-75522200D02*
X102217857Y-75474580D01*
X101082142Y-77994819D02*
X100748809Y-77518628D01*
X100510714Y-77994819D02*
X100510714Y-76994819D01*
X100510714Y-76994819D02*
X100891666Y-76994819D01*
X100891666Y-76994819D02*
X100986904Y-77042438D01*
X100986904Y-77042438D02*
X101034523Y-77090057D01*
X101034523Y-77090057D02*
X101082142Y-77185295D01*
X101082142Y-77185295D02*
X101082142Y-77328152D01*
X101082142Y-77328152D02*
X101034523Y-77423390D01*
X101034523Y-77423390D02*
X100986904Y-77471009D01*
X100986904Y-77471009D02*
X100891666Y-77518628D01*
X100891666Y-77518628D02*
X100510714Y-77518628D01*
X101463095Y-77090057D02*
X101510714Y-77042438D01*
X101510714Y-77042438D02*
X101605952Y-76994819D01*
X101605952Y-76994819D02*
X101844047Y-76994819D01*
X101844047Y-76994819D02*
X101939285Y-77042438D01*
X101939285Y-77042438D02*
X101986904Y-77090057D01*
X101986904Y-77090057D02*
X102034523Y-77185295D01*
X102034523Y-77185295D02*
X102034523Y-77280533D01*
X102034523Y-77280533D02*
X101986904Y-77423390D01*
X101986904Y-77423390D02*
X101415476Y-77994819D01*
X101415476Y-77994819D02*
X102034523Y-77994819D01*
X102939285Y-76994819D02*
X102463095Y-76994819D01*
X102463095Y-76994819D02*
X102415476Y-77471009D01*
X102415476Y-77471009D02*
X102463095Y-77423390D01*
X102463095Y-77423390D02*
X102558333Y-77375771D01*
X102558333Y-77375771D02*
X102796428Y-77375771D01*
X102796428Y-77375771D02*
X102891666Y-77423390D01*
X102891666Y-77423390D02*
X102939285Y-77471009D01*
X102939285Y-77471009D02*
X102986904Y-77566247D01*
X102986904Y-77566247D02*
X102986904Y-77804342D01*
X102986904Y-77804342D02*
X102939285Y-77899580D01*
X102939285Y-77899580D02*
X102891666Y-77947200D01*
X102891666Y-77947200D02*
X102796428Y-77994819D01*
X102796428Y-77994819D02*
X102558333Y-77994819D01*
X102558333Y-77994819D02*
X102463095Y-77947200D01*
X102463095Y-77947200D02*
X102415476Y-77899580D01*
X44879819Y-80757857D02*
X44403628Y-81091190D01*
X44879819Y-81329285D02*
X43879819Y-81329285D01*
X43879819Y-81329285D02*
X43879819Y-80948333D01*
X43879819Y-80948333D02*
X43927438Y-80853095D01*
X43927438Y-80853095D02*
X43975057Y-80805476D01*
X43975057Y-80805476D02*
X44070295Y-80757857D01*
X44070295Y-80757857D02*
X44213152Y-80757857D01*
X44213152Y-80757857D02*
X44308390Y-80805476D01*
X44308390Y-80805476D02*
X44356009Y-80853095D01*
X44356009Y-80853095D02*
X44403628Y-80948333D01*
X44403628Y-80948333D02*
X44403628Y-81329285D01*
X43975057Y-80376904D02*
X43927438Y-80329285D01*
X43927438Y-80329285D02*
X43879819Y-80234047D01*
X43879819Y-80234047D02*
X43879819Y-79995952D01*
X43879819Y-79995952D02*
X43927438Y-79900714D01*
X43927438Y-79900714D02*
X43975057Y-79853095D01*
X43975057Y-79853095D02*
X44070295Y-79805476D01*
X44070295Y-79805476D02*
X44165533Y-79805476D01*
X44165533Y-79805476D02*
X44308390Y-79853095D01*
X44308390Y-79853095D02*
X44879819Y-80424523D01*
X44879819Y-80424523D02*
X44879819Y-79805476D01*
X43879819Y-79472142D02*
X43879819Y-78805476D01*
X43879819Y-78805476D02*
X44879819Y-79234047D01*
X47711905Y-64604819D02*
X47711905Y-63604819D01*
X47711905Y-63604819D02*
X47950000Y-63604819D01*
X47950000Y-63604819D02*
X48092857Y-63652438D01*
X48092857Y-63652438D02*
X48188095Y-63747676D01*
X48188095Y-63747676D02*
X48235714Y-63842914D01*
X48235714Y-63842914D02*
X48283333Y-64033390D01*
X48283333Y-64033390D02*
X48283333Y-64176247D01*
X48283333Y-64176247D02*
X48235714Y-64366723D01*
X48235714Y-64366723D02*
X48188095Y-64461961D01*
X48188095Y-64461961D02*
X48092857Y-64557200D01*
X48092857Y-64557200D02*
X47950000Y-64604819D01*
X47950000Y-64604819D02*
X47711905Y-64604819D01*
X49140476Y-63938152D02*
X49140476Y-64604819D01*
X48902381Y-63557200D02*
X48664286Y-64271485D01*
X48664286Y-64271485D02*
X49283333Y-64271485D01*
X40140476Y-61104819D02*
X40140476Y-61819104D01*
X40140476Y-61819104D02*
X40092857Y-61961961D01*
X40092857Y-61961961D02*
X39997619Y-62057200D01*
X39997619Y-62057200D02*
X39854762Y-62104819D01*
X39854762Y-62104819D02*
X39759524Y-62104819D01*
X41140476Y-62104819D02*
X40569048Y-62104819D01*
X40854762Y-62104819D02*
X40854762Y-61104819D01*
X40854762Y-61104819D02*
X40759524Y-61247676D01*
X40759524Y-61247676D02*
X40664286Y-61342914D01*
X40664286Y-61342914D02*
X40569048Y-61390533D01*
X41521429Y-61200057D02*
X41569048Y-61152438D01*
X41569048Y-61152438D02*
X41664286Y-61104819D01*
X41664286Y-61104819D02*
X41902381Y-61104819D01*
X41902381Y-61104819D02*
X41997619Y-61152438D01*
X41997619Y-61152438D02*
X42045238Y-61200057D01*
X42045238Y-61200057D02*
X42092857Y-61295295D01*
X42092857Y-61295295D02*
X42092857Y-61390533D01*
X42092857Y-61390533D02*
X42045238Y-61533390D01*
X42045238Y-61533390D02*
X41473810Y-62104819D01*
X41473810Y-62104819D02*
X42092857Y-62104819D01*
X43857142Y-88729580D02*
X43809523Y-88777200D01*
X43809523Y-88777200D02*
X43666666Y-88824819D01*
X43666666Y-88824819D02*
X43571428Y-88824819D01*
X43571428Y-88824819D02*
X43428571Y-88777200D01*
X43428571Y-88777200D02*
X43333333Y-88681961D01*
X43333333Y-88681961D02*
X43285714Y-88586723D01*
X43285714Y-88586723D02*
X43238095Y-88396247D01*
X43238095Y-88396247D02*
X43238095Y-88253390D01*
X43238095Y-88253390D02*
X43285714Y-88062914D01*
X43285714Y-88062914D02*
X43333333Y-87967676D01*
X43333333Y-87967676D02*
X43428571Y-87872438D01*
X43428571Y-87872438D02*
X43571428Y-87824819D01*
X43571428Y-87824819D02*
X43666666Y-87824819D01*
X43666666Y-87824819D02*
X43809523Y-87872438D01*
X43809523Y-87872438D02*
X43857142Y-87920057D01*
X44238095Y-87920057D02*
X44285714Y-87872438D01*
X44285714Y-87872438D02*
X44380952Y-87824819D01*
X44380952Y-87824819D02*
X44619047Y-87824819D01*
X44619047Y-87824819D02*
X44714285Y-87872438D01*
X44714285Y-87872438D02*
X44761904Y-87920057D01*
X44761904Y-87920057D02*
X44809523Y-88015295D01*
X44809523Y-88015295D02*
X44809523Y-88110533D01*
X44809523Y-88110533D02*
X44761904Y-88253390D01*
X44761904Y-88253390D02*
X44190476Y-88824819D01*
X44190476Y-88824819D02*
X44809523Y-88824819D01*
X45190476Y-87920057D02*
X45238095Y-87872438D01*
X45238095Y-87872438D02*
X45333333Y-87824819D01*
X45333333Y-87824819D02*
X45571428Y-87824819D01*
X45571428Y-87824819D02*
X45666666Y-87872438D01*
X45666666Y-87872438D02*
X45714285Y-87920057D01*
X45714285Y-87920057D02*
X45761904Y-88015295D01*
X45761904Y-88015295D02*
X45761904Y-88110533D01*
X45761904Y-88110533D02*
X45714285Y-88253390D01*
X45714285Y-88253390D02*
X45142857Y-88824819D01*
X45142857Y-88824819D02*
X45761904Y-88824819D01*
X99127142Y-66159580D02*
X99079523Y-66207200D01*
X99079523Y-66207200D02*
X98936666Y-66254819D01*
X98936666Y-66254819D02*
X98841428Y-66254819D01*
X98841428Y-66254819D02*
X98698571Y-66207200D01*
X98698571Y-66207200D02*
X98603333Y-66111961D01*
X98603333Y-66111961D02*
X98555714Y-66016723D01*
X98555714Y-66016723D02*
X98508095Y-65826247D01*
X98508095Y-65826247D02*
X98508095Y-65683390D01*
X98508095Y-65683390D02*
X98555714Y-65492914D01*
X98555714Y-65492914D02*
X98603333Y-65397676D01*
X98603333Y-65397676D02*
X98698571Y-65302438D01*
X98698571Y-65302438D02*
X98841428Y-65254819D01*
X98841428Y-65254819D02*
X98936666Y-65254819D01*
X98936666Y-65254819D02*
X99079523Y-65302438D01*
X99079523Y-65302438D02*
X99127142Y-65350057D01*
X100079523Y-66254819D02*
X99508095Y-66254819D01*
X99793809Y-66254819D02*
X99793809Y-65254819D01*
X99793809Y-65254819D02*
X99698571Y-65397676D01*
X99698571Y-65397676D02*
X99603333Y-65492914D01*
X99603333Y-65492914D02*
X99508095Y-65540533D01*
X100936666Y-65254819D02*
X100746190Y-65254819D01*
X100746190Y-65254819D02*
X100650952Y-65302438D01*
X100650952Y-65302438D02*
X100603333Y-65350057D01*
X100603333Y-65350057D02*
X100508095Y-65492914D01*
X100508095Y-65492914D02*
X100460476Y-65683390D01*
X100460476Y-65683390D02*
X100460476Y-66064342D01*
X100460476Y-66064342D02*
X100508095Y-66159580D01*
X100508095Y-66159580D02*
X100555714Y-66207200D01*
X100555714Y-66207200D02*
X100650952Y-66254819D01*
X100650952Y-66254819D02*
X100841428Y-66254819D01*
X100841428Y-66254819D02*
X100936666Y-66207200D01*
X100936666Y-66207200D02*
X100984285Y-66159580D01*
X100984285Y-66159580D02*
X101031904Y-66064342D01*
X101031904Y-66064342D02*
X101031904Y-65826247D01*
X101031904Y-65826247D02*
X100984285Y-65731009D01*
X100984285Y-65731009D02*
X100936666Y-65683390D01*
X100936666Y-65683390D02*
X100841428Y-65635771D01*
X100841428Y-65635771D02*
X100650952Y-65635771D01*
X100650952Y-65635771D02*
X100555714Y-65683390D01*
X100555714Y-65683390D02*
X100508095Y-65731009D01*
X100508095Y-65731009D02*
X100460476Y-65826247D01*
X50007142Y-80174580D02*
X49959523Y-80222200D01*
X49959523Y-80222200D02*
X49816666Y-80269819D01*
X49816666Y-80269819D02*
X49721428Y-80269819D01*
X49721428Y-80269819D02*
X49578571Y-80222200D01*
X49578571Y-80222200D02*
X49483333Y-80126961D01*
X49483333Y-80126961D02*
X49435714Y-80031723D01*
X49435714Y-80031723D02*
X49388095Y-79841247D01*
X49388095Y-79841247D02*
X49388095Y-79698390D01*
X49388095Y-79698390D02*
X49435714Y-79507914D01*
X49435714Y-79507914D02*
X49483333Y-79412676D01*
X49483333Y-79412676D02*
X49578571Y-79317438D01*
X49578571Y-79317438D02*
X49721428Y-79269819D01*
X49721428Y-79269819D02*
X49816666Y-79269819D01*
X49816666Y-79269819D02*
X49959523Y-79317438D01*
X49959523Y-79317438D02*
X50007142Y-79365057D01*
X50959523Y-80269819D02*
X50388095Y-80269819D01*
X50673809Y-80269819D02*
X50673809Y-79269819D01*
X50673809Y-79269819D02*
X50578571Y-79412676D01*
X50578571Y-79412676D02*
X50483333Y-79507914D01*
X50483333Y-79507914D02*
X50388095Y-79555533D01*
X51435714Y-80269819D02*
X51626190Y-80269819D01*
X51626190Y-80269819D02*
X51721428Y-80222200D01*
X51721428Y-80222200D02*
X51769047Y-80174580D01*
X51769047Y-80174580D02*
X51864285Y-80031723D01*
X51864285Y-80031723D02*
X51911904Y-79841247D01*
X51911904Y-79841247D02*
X51911904Y-79460295D01*
X51911904Y-79460295D02*
X51864285Y-79365057D01*
X51864285Y-79365057D02*
X51816666Y-79317438D01*
X51816666Y-79317438D02*
X51721428Y-79269819D01*
X51721428Y-79269819D02*
X51530952Y-79269819D01*
X51530952Y-79269819D02*
X51435714Y-79317438D01*
X51435714Y-79317438D02*
X51388095Y-79365057D01*
X51388095Y-79365057D02*
X51340476Y-79460295D01*
X51340476Y-79460295D02*
X51340476Y-79698390D01*
X51340476Y-79698390D02*
X51388095Y-79793628D01*
X51388095Y-79793628D02*
X51435714Y-79841247D01*
X51435714Y-79841247D02*
X51530952Y-79888866D01*
X51530952Y-79888866D02*
X51721428Y-79888866D01*
X51721428Y-79888866D02*
X51816666Y-79841247D01*
X51816666Y-79841247D02*
X51864285Y-79793628D01*
X51864285Y-79793628D02*
X51911904Y-79698390D01*
X97879819Y-64529285D02*
X96879819Y-64529285D01*
X96879819Y-64529285D02*
X96879819Y-64291190D01*
X96879819Y-64291190D02*
X96927438Y-64148333D01*
X96927438Y-64148333D02*
X97022676Y-64053095D01*
X97022676Y-64053095D02*
X97117914Y-64005476D01*
X97117914Y-64005476D02*
X97308390Y-63957857D01*
X97308390Y-63957857D02*
X97451247Y-63957857D01*
X97451247Y-63957857D02*
X97641723Y-64005476D01*
X97641723Y-64005476D02*
X97736961Y-64053095D01*
X97736961Y-64053095D02*
X97832200Y-64148333D01*
X97832200Y-64148333D02*
X97879819Y-64291190D01*
X97879819Y-64291190D02*
X97879819Y-64529285D01*
X96975057Y-63576904D02*
X96927438Y-63529285D01*
X96927438Y-63529285D02*
X96879819Y-63434047D01*
X96879819Y-63434047D02*
X96879819Y-63195952D01*
X96879819Y-63195952D02*
X96927438Y-63100714D01*
X96927438Y-63100714D02*
X96975057Y-63053095D01*
X96975057Y-63053095D02*
X97070295Y-63005476D01*
X97070295Y-63005476D02*
X97165533Y-63005476D01*
X97165533Y-63005476D02*
X97308390Y-63053095D01*
X97308390Y-63053095D02*
X97879819Y-63624523D01*
X97879819Y-63624523D02*
X97879819Y-63005476D01*
X96879819Y-62386428D02*
X96879819Y-62291190D01*
X96879819Y-62291190D02*
X96927438Y-62195952D01*
X96927438Y-62195952D02*
X96975057Y-62148333D01*
X96975057Y-62148333D02*
X97070295Y-62100714D01*
X97070295Y-62100714D02*
X97260771Y-62053095D01*
X97260771Y-62053095D02*
X97498866Y-62053095D01*
X97498866Y-62053095D02*
X97689342Y-62100714D01*
X97689342Y-62100714D02*
X97784580Y-62148333D01*
X97784580Y-62148333D02*
X97832200Y-62195952D01*
X97832200Y-62195952D02*
X97879819Y-62291190D01*
X97879819Y-62291190D02*
X97879819Y-62386428D01*
X97879819Y-62386428D02*
X97832200Y-62481666D01*
X97832200Y-62481666D02*
X97784580Y-62529285D01*
X97784580Y-62529285D02*
X97689342Y-62576904D01*
X97689342Y-62576904D02*
X97498866Y-62624523D01*
X97498866Y-62624523D02*
X97260771Y-62624523D01*
X97260771Y-62624523D02*
X97070295Y-62576904D01*
X97070295Y-62576904D02*
X96975057Y-62529285D01*
X96975057Y-62529285D02*
X96927438Y-62481666D01*
X96927438Y-62481666D02*
X96879819Y-62386428D01*
X104838095Y-96519819D02*
X104838095Y-97329342D01*
X104838095Y-97329342D02*
X104885714Y-97424580D01*
X104885714Y-97424580D02*
X104933333Y-97472200D01*
X104933333Y-97472200D02*
X105028571Y-97519819D01*
X105028571Y-97519819D02*
X105219047Y-97519819D01*
X105219047Y-97519819D02*
X105314285Y-97472200D01*
X105314285Y-97472200D02*
X105361904Y-97424580D01*
X105361904Y-97424580D02*
X105409523Y-97329342D01*
X105409523Y-97329342D02*
X105409523Y-96519819D01*
X106361904Y-96519819D02*
X105885714Y-96519819D01*
X105885714Y-96519819D02*
X105838095Y-96996009D01*
X105838095Y-96996009D02*
X105885714Y-96948390D01*
X105885714Y-96948390D02*
X105980952Y-96900771D01*
X105980952Y-96900771D02*
X106219047Y-96900771D01*
X106219047Y-96900771D02*
X106314285Y-96948390D01*
X106314285Y-96948390D02*
X106361904Y-96996009D01*
X106361904Y-96996009D02*
X106409523Y-97091247D01*
X106409523Y-97091247D02*
X106409523Y-97329342D01*
X106409523Y-97329342D02*
X106361904Y-97424580D01*
X106361904Y-97424580D02*
X106314285Y-97472200D01*
X106314285Y-97472200D02*
X106219047Y-97519819D01*
X106219047Y-97519819D02*
X105980952Y-97519819D01*
X105980952Y-97519819D02*
X105885714Y-97472200D01*
X105885714Y-97472200D02*
X105838095Y-97424580D01*
X50879819Y-110231666D02*
X50403628Y-110564999D01*
X50879819Y-110803094D02*
X49879819Y-110803094D01*
X49879819Y-110803094D02*
X49879819Y-110422142D01*
X49879819Y-110422142D02*
X49927438Y-110326904D01*
X49927438Y-110326904D02*
X49975057Y-110279285D01*
X49975057Y-110279285D02*
X50070295Y-110231666D01*
X50070295Y-110231666D02*
X50213152Y-110231666D01*
X50213152Y-110231666D02*
X50308390Y-110279285D01*
X50308390Y-110279285D02*
X50356009Y-110326904D01*
X50356009Y-110326904D02*
X50403628Y-110422142D01*
X50403628Y-110422142D02*
X50403628Y-110803094D01*
X50879819Y-109279285D02*
X50879819Y-109850713D01*
X50879819Y-109564999D02*
X49879819Y-109564999D01*
X49879819Y-109564999D02*
X50022676Y-109660237D01*
X50022676Y-109660237D02*
X50117914Y-109755475D01*
X50117914Y-109755475D02*
X50165533Y-109850713D01*
X62033333Y-97299580D02*
X61985714Y-97347200D01*
X61985714Y-97347200D02*
X61842857Y-97394819D01*
X61842857Y-97394819D02*
X61747619Y-97394819D01*
X61747619Y-97394819D02*
X61604762Y-97347200D01*
X61604762Y-97347200D02*
X61509524Y-97251961D01*
X61509524Y-97251961D02*
X61461905Y-97156723D01*
X61461905Y-97156723D02*
X61414286Y-96966247D01*
X61414286Y-96966247D02*
X61414286Y-96823390D01*
X61414286Y-96823390D02*
X61461905Y-96632914D01*
X61461905Y-96632914D02*
X61509524Y-96537676D01*
X61509524Y-96537676D02*
X61604762Y-96442438D01*
X61604762Y-96442438D02*
X61747619Y-96394819D01*
X61747619Y-96394819D02*
X61842857Y-96394819D01*
X61842857Y-96394819D02*
X61985714Y-96442438D01*
X61985714Y-96442438D02*
X62033333Y-96490057D01*
X62890476Y-96728152D02*
X62890476Y-97394819D01*
X62652381Y-96347200D02*
X62414286Y-97061485D01*
X62414286Y-97061485D02*
X63033333Y-97061485D01*
X52425057Y-91110238D02*
X52377438Y-91205476D01*
X52377438Y-91205476D02*
X52282200Y-91300714D01*
X52282200Y-91300714D02*
X52139342Y-91443571D01*
X52139342Y-91443571D02*
X52091723Y-91538809D01*
X52091723Y-91538809D02*
X52091723Y-91634047D01*
X52329819Y-91586428D02*
X52282200Y-91681666D01*
X52282200Y-91681666D02*
X52186961Y-91776904D01*
X52186961Y-91776904D02*
X51996485Y-91824523D01*
X51996485Y-91824523D02*
X51663152Y-91824523D01*
X51663152Y-91824523D02*
X51472676Y-91776904D01*
X51472676Y-91776904D02*
X51377438Y-91681666D01*
X51377438Y-91681666D02*
X51329819Y-91586428D01*
X51329819Y-91586428D02*
X51329819Y-91395952D01*
X51329819Y-91395952D02*
X51377438Y-91300714D01*
X51377438Y-91300714D02*
X51472676Y-91205476D01*
X51472676Y-91205476D02*
X51663152Y-91157857D01*
X51663152Y-91157857D02*
X51996485Y-91157857D01*
X51996485Y-91157857D02*
X52186961Y-91205476D01*
X52186961Y-91205476D02*
X52282200Y-91300714D01*
X52282200Y-91300714D02*
X52329819Y-91395952D01*
X52329819Y-91395952D02*
X52329819Y-91586428D01*
X51425057Y-90776904D02*
X51377438Y-90729285D01*
X51377438Y-90729285D02*
X51329819Y-90634047D01*
X51329819Y-90634047D02*
X51329819Y-90395952D01*
X51329819Y-90395952D02*
X51377438Y-90300714D01*
X51377438Y-90300714D02*
X51425057Y-90253095D01*
X51425057Y-90253095D02*
X51520295Y-90205476D01*
X51520295Y-90205476D02*
X51615533Y-90205476D01*
X51615533Y-90205476D02*
X51758390Y-90253095D01*
X51758390Y-90253095D02*
X52329819Y-90824523D01*
X52329819Y-90824523D02*
X52329819Y-90205476D01*
X69596666Y-61874819D02*
X69596666Y-62589104D01*
X69596666Y-62589104D02*
X69549047Y-62731961D01*
X69549047Y-62731961D02*
X69453809Y-62827200D01*
X69453809Y-62827200D02*
X69310952Y-62874819D01*
X69310952Y-62874819D02*
X69215714Y-62874819D01*
X70120476Y-62874819D02*
X70310952Y-62874819D01*
X70310952Y-62874819D02*
X70406190Y-62827200D01*
X70406190Y-62827200D02*
X70453809Y-62779580D01*
X70453809Y-62779580D02*
X70549047Y-62636723D01*
X70549047Y-62636723D02*
X70596666Y-62446247D01*
X70596666Y-62446247D02*
X70596666Y-62065295D01*
X70596666Y-62065295D02*
X70549047Y-61970057D01*
X70549047Y-61970057D02*
X70501428Y-61922438D01*
X70501428Y-61922438D02*
X70406190Y-61874819D01*
X70406190Y-61874819D02*
X70215714Y-61874819D01*
X70215714Y-61874819D02*
X70120476Y-61922438D01*
X70120476Y-61922438D02*
X70072857Y-61970057D01*
X70072857Y-61970057D02*
X70025238Y-62065295D01*
X70025238Y-62065295D02*
X70025238Y-62303390D01*
X70025238Y-62303390D02*
X70072857Y-62398628D01*
X70072857Y-62398628D02*
X70120476Y-62446247D01*
X70120476Y-62446247D02*
X70215714Y-62493866D01*
X70215714Y-62493866D02*
X70406190Y-62493866D01*
X70406190Y-62493866D02*
X70501428Y-62446247D01*
X70501428Y-62446247D02*
X70549047Y-62398628D01*
X70549047Y-62398628D02*
X70596666Y-62303390D01*
X89950476Y-101824819D02*
X89950476Y-102539104D01*
X89950476Y-102539104D02*
X89902857Y-102681961D01*
X89902857Y-102681961D02*
X89807619Y-102777200D01*
X89807619Y-102777200D02*
X89664762Y-102824819D01*
X89664762Y-102824819D02*
X89569524Y-102824819D01*
X90950476Y-102824819D02*
X90379048Y-102824819D01*
X90664762Y-102824819D02*
X90664762Y-101824819D01*
X90664762Y-101824819D02*
X90569524Y-101967676D01*
X90569524Y-101967676D02*
X90474286Y-102062914D01*
X90474286Y-102062914D02*
X90379048Y-102110533D01*
X91902857Y-102824819D02*
X91331429Y-102824819D01*
X91617143Y-102824819D02*
X91617143Y-101824819D01*
X91617143Y-101824819D02*
X91521905Y-101967676D01*
X91521905Y-101967676D02*
X91426667Y-102062914D01*
X91426667Y-102062914D02*
X91331429Y-102110533D01*
X78224819Y-97186666D02*
X77748628Y-97519999D01*
X78224819Y-97758094D02*
X77224819Y-97758094D01*
X77224819Y-97758094D02*
X77224819Y-97377142D01*
X77224819Y-97377142D02*
X77272438Y-97281904D01*
X77272438Y-97281904D02*
X77320057Y-97234285D01*
X77320057Y-97234285D02*
X77415295Y-97186666D01*
X77415295Y-97186666D02*
X77558152Y-97186666D01*
X77558152Y-97186666D02*
X77653390Y-97234285D01*
X77653390Y-97234285D02*
X77701009Y-97281904D01*
X77701009Y-97281904D02*
X77748628Y-97377142D01*
X77748628Y-97377142D02*
X77748628Y-97758094D01*
X77653390Y-96615237D02*
X77605771Y-96710475D01*
X77605771Y-96710475D02*
X77558152Y-96758094D01*
X77558152Y-96758094D02*
X77462914Y-96805713D01*
X77462914Y-96805713D02*
X77415295Y-96805713D01*
X77415295Y-96805713D02*
X77320057Y-96758094D01*
X77320057Y-96758094D02*
X77272438Y-96710475D01*
X77272438Y-96710475D02*
X77224819Y-96615237D01*
X77224819Y-96615237D02*
X77224819Y-96424761D01*
X77224819Y-96424761D02*
X77272438Y-96329523D01*
X77272438Y-96329523D02*
X77320057Y-96281904D01*
X77320057Y-96281904D02*
X77415295Y-96234285D01*
X77415295Y-96234285D02*
X77462914Y-96234285D01*
X77462914Y-96234285D02*
X77558152Y-96281904D01*
X77558152Y-96281904D02*
X77605771Y-96329523D01*
X77605771Y-96329523D02*
X77653390Y-96424761D01*
X77653390Y-96424761D02*
X77653390Y-96615237D01*
X77653390Y-96615237D02*
X77701009Y-96710475D01*
X77701009Y-96710475D02*
X77748628Y-96758094D01*
X77748628Y-96758094D02*
X77843866Y-96805713D01*
X77843866Y-96805713D02*
X78034342Y-96805713D01*
X78034342Y-96805713D02*
X78129580Y-96758094D01*
X78129580Y-96758094D02*
X78177200Y-96710475D01*
X78177200Y-96710475D02*
X78224819Y-96615237D01*
X78224819Y-96615237D02*
X78224819Y-96424761D01*
X78224819Y-96424761D02*
X78177200Y-96329523D01*
X78177200Y-96329523D02*
X78129580Y-96281904D01*
X78129580Y-96281904D02*
X78034342Y-96234285D01*
X78034342Y-96234285D02*
X77843866Y-96234285D01*
X77843866Y-96234285D02*
X77748628Y-96281904D01*
X77748628Y-96281904D02*
X77701009Y-96329523D01*
X77701009Y-96329523D02*
X77653390Y-96424761D01*
X96729580Y-78822857D02*
X96777200Y-78870476D01*
X96777200Y-78870476D02*
X96824819Y-79013333D01*
X96824819Y-79013333D02*
X96824819Y-79108571D01*
X96824819Y-79108571D02*
X96777200Y-79251428D01*
X96777200Y-79251428D02*
X96681961Y-79346666D01*
X96681961Y-79346666D02*
X96586723Y-79394285D01*
X96586723Y-79394285D02*
X96396247Y-79441904D01*
X96396247Y-79441904D02*
X96253390Y-79441904D01*
X96253390Y-79441904D02*
X96062914Y-79394285D01*
X96062914Y-79394285D02*
X95967676Y-79346666D01*
X95967676Y-79346666D02*
X95872438Y-79251428D01*
X95872438Y-79251428D02*
X95824819Y-79108571D01*
X95824819Y-79108571D02*
X95824819Y-79013333D01*
X95824819Y-79013333D02*
X95872438Y-78870476D01*
X95872438Y-78870476D02*
X95920057Y-78822857D01*
X96824819Y-77870476D02*
X96824819Y-78441904D01*
X96824819Y-78156190D02*
X95824819Y-78156190D01*
X95824819Y-78156190D02*
X95967676Y-78251428D01*
X95967676Y-78251428D02*
X96062914Y-78346666D01*
X96062914Y-78346666D02*
X96110533Y-78441904D01*
X95824819Y-77537142D02*
X95824819Y-76870476D01*
X95824819Y-76870476D02*
X96824819Y-77299047D01*
X59838095Y-81694819D02*
X59838095Y-82504342D01*
X59838095Y-82504342D02*
X59885714Y-82599580D01*
X59885714Y-82599580D02*
X59933333Y-82647200D01*
X59933333Y-82647200D02*
X60028571Y-82694819D01*
X60028571Y-82694819D02*
X60219047Y-82694819D01*
X60219047Y-82694819D02*
X60314285Y-82647200D01*
X60314285Y-82647200D02*
X60361904Y-82599580D01*
X60361904Y-82599580D02*
X60409523Y-82504342D01*
X60409523Y-82504342D02*
X60409523Y-81694819D01*
X60838095Y-81790057D02*
X60885714Y-81742438D01*
X60885714Y-81742438D02*
X60980952Y-81694819D01*
X60980952Y-81694819D02*
X61219047Y-81694819D01*
X61219047Y-81694819D02*
X61314285Y-81742438D01*
X61314285Y-81742438D02*
X61361904Y-81790057D01*
X61361904Y-81790057D02*
X61409523Y-81885295D01*
X61409523Y-81885295D02*
X61409523Y-81980533D01*
X61409523Y-81980533D02*
X61361904Y-82123390D01*
X61361904Y-82123390D02*
X60790476Y-82694819D01*
X60790476Y-82694819D02*
X61409523Y-82694819D01*
X91982380Y-74887800D02*
X92073809Y-74918276D01*
X92073809Y-74918276D02*
X92226190Y-74918276D01*
X92226190Y-74918276D02*
X92287142Y-74887800D01*
X92287142Y-74887800D02*
X92317618Y-74857323D01*
X92317618Y-74857323D02*
X92348095Y-74796371D01*
X92348095Y-74796371D02*
X92348095Y-74735419D01*
X92348095Y-74735419D02*
X92317618Y-74674466D01*
X92317618Y-74674466D02*
X92287142Y-74643990D01*
X92287142Y-74643990D02*
X92226190Y-74613514D01*
X92226190Y-74613514D02*
X92104285Y-74583038D01*
X92104285Y-74583038D02*
X92043333Y-74552561D01*
X92043333Y-74552561D02*
X92012856Y-74522085D01*
X92012856Y-74522085D02*
X91982380Y-74461133D01*
X91982380Y-74461133D02*
X91982380Y-74400180D01*
X91982380Y-74400180D02*
X92012856Y-74339228D01*
X92012856Y-74339228D02*
X92043333Y-74308752D01*
X92043333Y-74308752D02*
X92104285Y-74278276D01*
X92104285Y-74278276D02*
X92256666Y-74278276D01*
X92256666Y-74278276D02*
X92348095Y-74308752D01*
X92591904Y-74339228D02*
X92622380Y-74308752D01*
X92622380Y-74308752D02*
X92683333Y-74278276D01*
X92683333Y-74278276D02*
X92835714Y-74278276D01*
X92835714Y-74278276D02*
X92896666Y-74308752D01*
X92896666Y-74308752D02*
X92927142Y-74339228D01*
X92927142Y-74339228D02*
X92957619Y-74400180D01*
X92957619Y-74400180D02*
X92957619Y-74461133D01*
X92957619Y-74461133D02*
X92927142Y-74552561D01*
X92927142Y-74552561D02*
X92561428Y-74918276D01*
X92561428Y-74918276D02*
X92957619Y-74918276D01*
X48404819Y-95054285D02*
X47404819Y-95054285D01*
X47404819Y-95054285D02*
X47404819Y-94816190D01*
X47404819Y-94816190D02*
X47452438Y-94673333D01*
X47452438Y-94673333D02*
X47547676Y-94578095D01*
X47547676Y-94578095D02*
X47642914Y-94530476D01*
X47642914Y-94530476D02*
X47833390Y-94482857D01*
X47833390Y-94482857D02*
X47976247Y-94482857D01*
X47976247Y-94482857D02*
X48166723Y-94530476D01*
X48166723Y-94530476D02*
X48261961Y-94578095D01*
X48261961Y-94578095D02*
X48357200Y-94673333D01*
X48357200Y-94673333D02*
X48404819Y-94816190D01*
X48404819Y-94816190D02*
X48404819Y-95054285D01*
X48404819Y-93530476D02*
X48404819Y-94101904D01*
X48404819Y-93816190D02*
X47404819Y-93816190D01*
X47404819Y-93816190D02*
X47547676Y-93911428D01*
X47547676Y-93911428D02*
X47642914Y-94006666D01*
X47642914Y-94006666D02*
X47690533Y-94101904D01*
X47404819Y-93197142D02*
X47404819Y-92530476D01*
X47404819Y-92530476D02*
X48404819Y-92959047D01*
D11*
%TO.C,D1*%
X56152500Y-97605000D02*
X56152500Y-99075000D01*
X56152500Y-99075000D02*
X58612500Y-99075000D01*
X58612500Y-97605000D02*
X56152500Y-97605000D01*
%TO.C,J1*%
X47960000Y-108990000D02*
X47960000Y-106490000D01*
X47960000Y-106490000D02*
X45460000Y-106490000D01*
X47660000Y-110810000D02*
X47660000Y-106790000D01*
X47660000Y-109100000D02*
X47160000Y-109100000D01*
X47660000Y-108290000D02*
X46660000Y-108290000D01*
X47660000Y-106790000D02*
X39940000Y-106790000D01*
X47160000Y-110310000D02*
X40440000Y-110310000D01*
X47160000Y-109100000D02*
X47160000Y-110310000D01*
X46660000Y-108290000D02*
X46660000Y-106790000D01*
X40940000Y-108290000D02*
X40940000Y-106790000D01*
X40440000Y-110310000D02*
X40440000Y-109100000D01*
X40440000Y-109100000D02*
X39940000Y-109100000D01*
X39940000Y-110810000D02*
X47660000Y-110810000D01*
X39940000Y-108290000D02*
X40940000Y-108290000D01*
X39940000Y-106790000D02*
X39940000Y-110810000D01*
%TO.C,D3*%
X56152500Y-99230000D02*
X56152500Y-100700000D01*
X56152500Y-100700000D02*
X58612500Y-100700000D01*
X58612500Y-99230000D02*
X56152500Y-99230000D01*
%TO.C,R2*%
X53845276Y-95842500D02*
X54354724Y-95842500D01*
X53845276Y-96887500D02*
X54354724Y-96887500D01*
%TO.C,C1*%
X50565000Y-102880000D02*
X50565000Y-104750000D01*
X50565000Y-104750000D02*
X54650000Y-104750000D01*
X54650000Y-102880000D02*
X50565000Y-102880000D01*
%TO.C,R7*%
X76622500Y-94052776D02*
X76622500Y-94562224D01*
X75577500Y-94052776D02*
X75577500Y-94562224D01*
%TO.C,C7*%
X70960000Y-94483767D02*
X70960000Y-94191233D01*
X71980000Y-94483767D02*
X71980000Y-94191233D01*
%TO.C,U7*%
X49635000Y-72850000D02*
X55645000Y-72850000D01*
X51885000Y-79670000D02*
X55645000Y-79670000D01*
X55645000Y-72850000D02*
X55645000Y-74110000D01*
X55645000Y-79670000D02*
X55645000Y-78410000D01*
%TO.C,R4*%
X58042224Y-97262500D02*
X57532776Y-97262500D01*
X58042224Y-96217500D02*
X57532776Y-96217500D01*
%TO.C,C6*%
X72500000Y-94473767D02*
X72500000Y-94181233D01*
X73520000Y-94473767D02*
X73520000Y-94181233D01*
%TO.C,C8*%
X95750000Y-75256267D02*
X95750000Y-74963733D01*
X96770000Y-75256267D02*
X96770000Y-74963733D01*
%TO.C,D16*%
X41700000Y-93870000D02*
X40500000Y-93870000D01*
X41700000Y-95830000D02*
X41700000Y-93870000D01*
X40500000Y-95830000D02*
X40500000Y-93870000D01*
D12*
%TO.C,J2*%
X44040000Y-63605000D02*
X42400000Y-63605000D01*
X39090000Y-63605000D02*
X39950000Y-63605000D01*
X39090000Y-63605000D02*
X39090000Y-72545000D01*
X44040000Y-72545000D02*
X42400000Y-72545000D01*
X39090000Y-72545000D02*
X39950000Y-72545000D01*
D13*
X46050000Y-62500000D02*
G75*
G03*
X46050000Y-62500000I-100000J0D01*
G01*
D11*
%TO.C,C20*%
X53291233Y-82142500D02*
X53583767Y-82142500D01*
X53291233Y-83162500D02*
X53583767Y-83162500D01*
%TO.C,R20*%
X45445276Y-95477500D02*
X45954724Y-95477500D01*
X45445276Y-96522500D02*
X45954724Y-96522500D01*
%TO.C,J5*%
X89260000Y-109680000D02*
X89260000Y-108350000D01*
X90590000Y-109680000D02*
X89260000Y-109680000D01*
X91860000Y-109680000D02*
X104620000Y-109680000D01*
X91860000Y-109680000D02*
X91860000Y-107020000D01*
X104620000Y-109680000D02*
X104620000Y-107020000D01*
X91860000Y-107020000D02*
X104620000Y-107020000D01*
%TO.C,D8*%
X40162500Y-102650000D02*
X42162500Y-102650000D01*
X40162500Y-102650000D02*
X40162500Y-98640000D01*
X42162500Y-102650000D02*
X42162500Y-98640000D01*
%TO.C,C5*%
X59665000Y-103700000D02*
X61535000Y-103700000D01*
X61535000Y-103700000D02*
X61535000Y-99790000D01*
X59665000Y-99790000D02*
X59665000Y-103700000D01*
%TO.C,R29*%
X49772500Y-94785276D02*
X49772500Y-95294724D01*
X48727500Y-94785276D02*
X48727500Y-95294724D01*
%TO.C,D5*%
X50625000Y-71010000D02*
X51825000Y-71010000D01*
X50625000Y-69050000D02*
X50625000Y-71010000D01*
X51825000Y-69050000D02*
X51825000Y-71010000D01*
%TO.C,D6*%
X51825000Y-64090000D02*
X50625000Y-64090000D01*
X51825000Y-66050000D02*
X51825000Y-64090000D01*
X50625000Y-66050000D02*
X50625000Y-64090000D01*
%TO.C,R16*%
X95327500Y-66707224D02*
X95327500Y-66197776D01*
X96372500Y-66707224D02*
X96372500Y-66197776D01*
D12*
%TO.C,S1*%
X41554000Y-75440000D02*
X41046000Y-75440000D01*
X40000000Y-75960000D02*
X40000000Y-81620000D01*
X42600000Y-77290000D02*
X42600000Y-78790000D01*
X41554000Y-82140000D02*
X41046000Y-82140000D01*
D13*
X44471000Y-76461000D02*
G75*
G03*
X44471000Y-76461000I-100000J0D01*
G01*
D11*
%TO.C,R22*%
X45165276Y-83887500D02*
X45674724Y-83887500D01*
X45165276Y-84932500D02*
X45674724Y-84932500D01*
%TO.C,J10*%
X86790000Y-103360000D02*
X86790000Y-104690000D01*
X85460000Y-103360000D02*
X86790000Y-103360000D01*
X84190000Y-103360000D02*
X79050000Y-103360000D01*
X84190000Y-103360000D02*
X84190000Y-106020000D01*
X79050000Y-103360000D02*
X79050000Y-106020000D01*
X84190000Y-106020000D02*
X79050000Y-106020000D01*
%TO.C,R30*%
X53692224Y-84725000D02*
X53182776Y-84725000D01*
X53692224Y-83680000D02*
X53182776Y-83680000D01*
%TO.C,D2*%
X44115000Y-61575000D02*
X44115000Y-62775000D01*
X46075000Y-61575000D02*
X44115000Y-61575000D01*
X46075000Y-62775000D02*
X44115000Y-62775000D01*
%TO.C,R24*%
X42179724Y-84912500D02*
X41670276Y-84912500D01*
X42179724Y-83867500D02*
X41670276Y-83867500D01*
%TO.C,D7*%
X40815000Y-104200000D02*
X40815000Y-106200000D01*
X40815000Y-104200000D02*
X44825000Y-104200000D01*
X40815000Y-106200000D02*
X44825000Y-106200000D01*
%TO.C,R21*%
X45465276Y-93867500D02*
X45974724Y-93867500D01*
X45465276Y-94912500D02*
X45974724Y-94912500D01*
%TO.C,J6*%
X66380000Y-109680000D02*
X66380000Y-108350000D01*
X67710000Y-109680000D02*
X66380000Y-109680000D01*
X68980000Y-109680000D02*
X86820000Y-109680000D01*
X68980000Y-109680000D02*
X68980000Y-107020000D01*
X86820000Y-109680000D02*
X86820000Y-107020000D01*
X68980000Y-107020000D02*
X86820000Y-107020000D01*
%TO.C,Q1*%
X50585000Y-105400000D02*
X50585000Y-103725000D01*
X50585000Y-105400000D02*
X50585000Y-106050000D01*
X47465000Y-105400000D02*
X47465000Y-104750000D01*
X47465000Y-105400000D02*
X47465000Y-106050000D01*
%TO.C,C21*%
X53291233Y-80580000D02*
X53583767Y-80580000D01*
X53291233Y-81600000D02*
X53583767Y-81600000D01*
%TO.C,G\u002A\u002A\u002A*%
D14*
X69137959Y-65282277D02*
X69123848Y-65296388D01*
X69109737Y-65282277D01*
X69123848Y-65268166D01*
X69137959Y-65282277D01*
G36*
X69137959Y-65282277D02*
G01*
X69123848Y-65296388D01*
X69109737Y-65282277D01*
X69123848Y-65268166D01*
X69137959Y-65282277D01*
G37*
X70520848Y-67765832D02*
X70506737Y-67779943D01*
X70492626Y-67765832D01*
X70506737Y-67751721D01*
X70520848Y-67765832D01*
G36*
X70520848Y-67765832D02*
G01*
X70506737Y-67779943D01*
X70492626Y-67765832D01*
X70506737Y-67751721D01*
X70520848Y-67765832D01*
G37*
X71423959Y-68273832D02*
X71409848Y-68287943D01*
X71395737Y-68273832D01*
X71409848Y-68259721D01*
X71423959Y-68273832D01*
G36*
X71423959Y-68273832D02*
G01*
X71409848Y-68287943D01*
X71395737Y-68273832D01*
X71409848Y-68259721D01*
X71423959Y-68273832D01*
G37*
X72157737Y-63955832D02*
X72143626Y-63969943D01*
X72129514Y-63955832D01*
X72143626Y-63941721D01*
X72157737Y-63955832D01*
G36*
X72157737Y-63955832D02*
G01*
X72143626Y-63969943D01*
X72129514Y-63955832D01*
X72143626Y-63941721D01*
X72157737Y-63955832D01*
G37*
X72298848Y-67003832D02*
X72284737Y-67017943D01*
X72270626Y-67003832D01*
X72284737Y-66989721D01*
X72298848Y-67003832D01*
G36*
X72298848Y-67003832D02*
G01*
X72284737Y-67017943D01*
X72270626Y-67003832D01*
X72284737Y-66989721D01*
X72298848Y-67003832D01*
G37*
X73060848Y-65056499D02*
X73046737Y-65070610D01*
X73032626Y-65056499D01*
X73046737Y-65042388D01*
X73060848Y-65056499D01*
G36*
X73060848Y-65056499D02*
G01*
X73046737Y-65070610D01*
X73032626Y-65056499D01*
X73046737Y-65042388D01*
X73060848Y-65056499D01*
G37*
X73060848Y-66919166D02*
X73046737Y-66933277D01*
X73032626Y-66919166D01*
X73046737Y-66905055D01*
X73060848Y-66919166D01*
G36*
X73060848Y-66919166D02*
G01*
X73046737Y-66933277D01*
X73032626Y-66919166D01*
X73046737Y-66905055D01*
X73060848Y-66919166D01*
G37*
X76983737Y-68979388D02*
X76969626Y-68993499D01*
X76955514Y-68979388D01*
X76969626Y-68965277D01*
X76983737Y-68979388D01*
G36*
X76983737Y-68979388D02*
G01*
X76969626Y-68993499D01*
X76955514Y-68979388D01*
X76969626Y-68965277D01*
X76983737Y-68979388D01*
G37*
X79439070Y-64604943D02*
X79424959Y-64619055D01*
X79410848Y-64604943D01*
X79424959Y-64590832D01*
X79439070Y-64604943D01*
G36*
X79439070Y-64604943D02*
G01*
X79424959Y-64619055D01*
X79410848Y-64604943D01*
X79424959Y-64590832D01*
X79439070Y-64604943D01*
G37*
X64454997Y-67405296D02*
X64663562Y-67429014D01*
X64830535Y-67485737D01*
X64953963Y-67574225D01*
X65031892Y-67693238D01*
X65057386Y-67787474D01*
X65061722Y-67965489D01*
X65017843Y-68115057D01*
X64926654Y-68234555D01*
X64789062Y-68322364D01*
X64749403Y-68338480D01*
X64673338Y-68357924D01*
X64573417Y-68372127D01*
X64464923Y-68380448D01*
X64363135Y-68382248D01*
X64283336Y-68376888D01*
X64240807Y-68363728D01*
X64238027Y-68359876D01*
X64234390Y-68322155D01*
X64232138Y-68238181D01*
X64231360Y-68118130D01*
X64232148Y-67972179D01*
X64233620Y-67863527D01*
X64241403Y-67398943D01*
X64454997Y-67405296D01*
G36*
X64454997Y-67405296D02*
G01*
X64663562Y-67429014D01*
X64830535Y-67485737D01*
X64953963Y-67574225D01*
X65031892Y-67693238D01*
X65057386Y-67787474D01*
X65061722Y-67965489D01*
X65017843Y-68115057D01*
X64926654Y-68234555D01*
X64789062Y-68322364D01*
X64749403Y-68338480D01*
X64673338Y-68357924D01*
X64573417Y-68372127D01*
X64464923Y-68380448D01*
X64363135Y-68382248D01*
X64283336Y-68376888D01*
X64240807Y-68363728D01*
X64238027Y-68359876D01*
X64234390Y-68322155D01*
X64232138Y-68238181D01*
X64231360Y-68118130D01*
X64232148Y-67972179D01*
X64233620Y-67863527D01*
X64241403Y-67398943D01*
X64454997Y-67405296D01*
G37*
X80449005Y-66939310D02*
X80440959Y-67228194D01*
X80102292Y-67223613D01*
X79962013Y-67223083D01*
X79835814Y-67225092D01*
X79738189Y-67229255D01*
X79686014Y-67234667D01*
X79608403Y-67250301D01*
X79608403Y-70461055D01*
X78987514Y-70461055D01*
X78987514Y-68855407D01*
X78987357Y-68508967D01*
X78986814Y-68214814D01*
X78985779Y-67968788D01*
X78984147Y-67766734D01*
X78981812Y-67604493D01*
X78978669Y-67477908D01*
X78974611Y-67382821D01*
X78969534Y-67315075D01*
X78963330Y-67270512D01*
X78955895Y-67244974D01*
X78947122Y-67234304D01*
X78946273Y-67233934D01*
X78904037Y-67228270D01*
X78817024Y-67223780D01*
X78696895Y-67220842D01*
X78555311Y-67219837D01*
X78515884Y-67219941D01*
X78126737Y-67221773D01*
X78126737Y-66665166D01*
X79291894Y-66657796D01*
X80457051Y-66650427D01*
X80449005Y-66939310D01*
G36*
X80449005Y-66939310D02*
G01*
X80440959Y-67228194D01*
X80102292Y-67223613D01*
X79962013Y-67223083D01*
X79835814Y-67225092D01*
X79738189Y-67229255D01*
X79686014Y-67234667D01*
X79608403Y-67250301D01*
X79608403Y-70461055D01*
X78987514Y-70461055D01*
X78987514Y-68855407D01*
X78987357Y-68508967D01*
X78986814Y-68214814D01*
X78985779Y-67968788D01*
X78984147Y-67766734D01*
X78981812Y-67604493D01*
X78978669Y-67477908D01*
X78974611Y-67382821D01*
X78969534Y-67315075D01*
X78963330Y-67270512D01*
X78955895Y-67244974D01*
X78947122Y-67234304D01*
X78946273Y-67233934D01*
X78904037Y-67228270D01*
X78817024Y-67223780D01*
X78696895Y-67220842D01*
X78555311Y-67219837D01*
X78515884Y-67219941D01*
X78126737Y-67221773D01*
X78126737Y-66665166D01*
X79291894Y-66657796D01*
X80457051Y-66650427D01*
X80449005Y-66939310D01*
G37*
X79949882Y-64578827D02*
X80060949Y-64652072D01*
X80143691Y-64762809D01*
X80157624Y-64793837D01*
X80190869Y-64940877D01*
X80176682Y-65079916D01*
X80122461Y-65203407D01*
X80035609Y-65303807D01*
X79923526Y-65373572D01*
X79793611Y-65405155D01*
X79653266Y-65391012D01*
X79592893Y-65369579D01*
X79521326Y-65324215D01*
X79443951Y-65254991D01*
X79379772Y-65180763D01*
X79350047Y-65128600D01*
X79321253Y-65123807D01*
X79242399Y-65119127D01*
X79119871Y-65114637D01*
X78960054Y-65110410D01*
X78769333Y-65106521D01*
X78554093Y-65103046D01*
X78320720Y-65100060D01*
X78075599Y-65097636D01*
X77825114Y-65095851D01*
X77575651Y-65094779D01*
X77333595Y-65094494D01*
X77105331Y-65095073D01*
X76897244Y-65096589D01*
X76765014Y-65098279D01*
X76739791Y-65124391D01*
X76729760Y-65193405D01*
X76729737Y-65197610D01*
X76725442Y-65263598D01*
X76701067Y-65290827D01*
X76639371Y-65296369D01*
X76630004Y-65296388D01*
X76530271Y-65296388D01*
X76538282Y-64992999D01*
X76538840Y-64971832D01*
X79523737Y-64971832D01*
X79531601Y-65060986D01*
X79561968Y-65119851D01*
X79598098Y-65153228D01*
X79701689Y-65204065D01*
X79809217Y-65199353D01*
X79915906Y-65139308D01*
X79916682Y-65138657D01*
X79984072Y-65054676D01*
X80004469Y-64965771D01*
X79985694Y-64880489D01*
X79935567Y-64807378D01*
X79861908Y-64754985D01*
X79772538Y-64731860D01*
X79675277Y-64746548D01*
X79598098Y-64790436D01*
X79547899Y-64842921D01*
X79526736Y-64909758D01*
X79523737Y-64971832D01*
X76538840Y-64971832D01*
X76546292Y-64689610D01*
X76638014Y-64680766D01*
X76696389Y-64678412D01*
X76722584Y-64696451D01*
X76729489Y-64749753D01*
X76729737Y-64786600D01*
X76729737Y-64901277D01*
X79313531Y-64901277D01*
X79369245Y-64781332D01*
X79450691Y-64664398D01*
X79560894Y-64585861D01*
X79688438Y-64545541D01*
X79821907Y-64543257D01*
X79949882Y-64578827D01*
G36*
X79949882Y-64578827D02*
G01*
X80060949Y-64652072D01*
X80143691Y-64762809D01*
X80157624Y-64793837D01*
X80190869Y-64940877D01*
X80176682Y-65079916D01*
X80122461Y-65203407D01*
X80035609Y-65303807D01*
X79923526Y-65373572D01*
X79793611Y-65405155D01*
X79653266Y-65391012D01*
X79592893Y-65369579D01*
X79521326Y-65324215D01*
X79443951Y-65254991D01*
X79379772Y-65180763D01*
X79350047Y-65128600D01*
X79321253Y-65123807D01*
X79242399Y-65119127D01*
X79119871Y-65114637D01*
X78960054Y-65110410D01*
X78769333Y-65106521D01*
X78554093Y-65103046D01*
X78320720Y-65100060D01*
X78075599Y-65097636D01*
X77825114Y-65095851D01*
X77575651Y-65094779D01*
X77333595Y-65094494D01*
X77105331Y-65095073D01*
X76897244Y-65096589D01*
X76765014Y-65098279D01*
X76739791Y-65124391D01*
X76729760Y-65193405D01*
X76729737Y-65197610D01*
X76725442Y-65263598D01*
X76701067Y-65290827D01*
X76639371Y-65296369D01*
X76630004Y-65296388D01*
X76530271Y-65296388D01*
X76538282Y-64992999D01*
X76538840Y-64971832D01*
X79523737Y-64971832D01*
X79531601Y-65060986D01*
X79561968Y-65119851D01*
X79598098Y-65153228D01*
X79701689Y-65204065D01*
X79809217Y-65199353D01*
X79915906Y-65139308D01*
X79916682Y-65138657D01*
X79984072Y-65054676D01*
X80004469Y-64965771D01*
X79985694Y-64880489D01*
X79935567Y-64807378D01*
X79861908Y-64754985D01*
X79772538Y-64731860D01*
X79675277Y-64746548D01*
X79598098Y-64790436D01*
X79547899Y-64842921D01*
X79526736Y-64909758D01*
X79523737Y-64971832D01*
X76538840Y-64971832D01*
X76546292Y-64689610D01*
X76638014Y-64680766D01*
X76696389Y-64678412D01*
X76722584Y-64696451D01*
X76729489Y-64749753D01*
X76729737Y-64786600D01*
X76729737Y-64901277D01*
X79313531Y-64901277D01*
X79369245Y-64781332D01*
X79450691Y-64664398D01*
X79560894Y-64585861D01*
X79688438Y-64545541D01*
X79821907Y-64543257D01*
X79949882Y-64578827D01*
G37*
X63606047Y-64387622D02*
X63737928Y-64450045D01*
X63842939Y-64553349D01*
X63865254Y-64588248D01*
X63930959Y-64703286D01*
X65208014Y-64703504D01*
X65545638Y-64702941D01*
X65833582Y-64701144D01*
X66070698Y-64698140D01*
X66255838Y-64693954D01*
X66387853Y-64688609D01*
X66465596Y-64682132D01*
X66488206Y-64675499D01*
X66491728Y-64626233D01*
X66493703Y-64583777D01*
X66513824Y-64514675D01*
X66572270Y-64482496D01*
X66619126Y-64478376D01*
X66646357Y-64480395D01*
X66664423Y-64493289D01*
X66675204Y-64526646D01*
X66680579Y-64590058D01*
X66682426Y-64693113D01*
X66682626Y-64802499D01*
X66682626Y-65127055D01*
X66601250Y-65127055D01*
X66530373Y-65105457D01*
X66496523Y-65043214D01*
X66499614Y-64955471D01*
X66500502Y-64942759D01*
X66494649Y-64932207D01*
X66477290Y-64923615D01*
X66443662Y-64916780D01*
X66388999Y-64911503D01*
X66308537Y-64907582D01*
X66197509Y-64904816D01*
X66051152Y-64903005D01*
X65864700Y-64901946D01*
X65633389Y-64901440D01*
X65352453Y-64901285D01*
X65214774Y-64901277D01*
X63919496Y-64901277D01*
X63872359Y-65000610D01*
X63816912Y-65085144D01*
X63745872Y-65156316D01*
X63740429Y-65160322D01*
X63645268Y-65203531D01*
X63520471Y-65228028D01*
X63390817Y-65230100D01*
X63331821Y-65221547D01*
X63266081Y-65186156D01*
X63192197Y-65116051D01*
X63124267Y-65028391D01*
X63076393Y-64940340D01*
X63063178Y-64894580D01*
X63063862Y-64810922D01*
X63242629Y-64810922D01*
X63264107Y-64911391D01*
X63315593Y-64976497D01*
X63398852Y-65020571D01*
X63494664Y-65039448D01*
X63583809Y-65028962D01*
X63640736Y-64992999D01*
X63707835Y-64900843D01*
X63730818Y-64820606D01*
X63713939Y-64735119D01*
X63708218Y-64720748D01*
X63645875Y-64626084D01*
X63564450Y-64574864D01*
X63474557Y-64562530D01*
X63386814Y-64584525D01*
X63311834Y-64636294D01*
X63260234Y-64713278D01*
X63242629Y-64810922D01*
X63063862Y-64810922D01*
X63064473Y-64736401D01*
X63112287Y-64593996D01*
X63200998Y-64478272D01*
X63316219Y-64403751D01*
X63460931Y-64370663D01*
X63606047Y-64387622D01*
G36*
X63606047Y-64387622D02*
G01*
X63737928Y-64450045D01*
X63842939Y-64553349D01*
X63865254Y-64588248D01*
X63930959Y-64703286D01*
X65208014Y-64703504D01*
X65545638Y-64702941D01*
X65833582Y-64701144D01*
X66070698Y-64698140D01*
X66255838Y-64693954D01*
X66387853Y-64688609D01*
X66465596Y-64682132D01*
X66488206Y-64675499D01*
X66491728Y-64626233D01*
X66493703Y-64583777D01*
X66513824Y-64514675D01*
X66572270Y-64482496D01*
X66619126Y-64478376D01*
X66646357Y-64480395D01*
X66664423Y-64493289D01*
X66675204Y-64526646D01*
X66680579Y-64590058D01*
X66682426Y-64693113D01*
X66682626Y-64802499D01*
X66682626Y-65127055D01*
X66601250Y-65127055D01*
X66530373Y-65105457D01*
X66496523Y-65043214D01*
X66499614Y-64955471D01*
X66500502Y-64942759D01*
X66494649Y-64932207D01*
X66477290Y-64923615D01*
X66443662Y-64916780D01*
X66388999Y-64911503D01*
X66308537Y-64907582D01*
X66197509Y-64904816D01*
X66051152Y-64903005D01*
X65864700Y-64901946D01*
X65633389Y-64901440D01*
X65352453Y-64901285D01*
X65214774Y-64901277D01*
X63919496Y-64901277D01*
X63872359Y-65000610D01*
X63816912Y-65085144D01*
X63745872Y-65156316D01*
X63740429Y-65160322D01*
X63645268Y-65203531D01*
X63520471Y-65228028D01*
X63390817Y-65230100D01*
X63331821Y-65221547D01*
X63266081Y-65186156D01*
X63192197Y-65116051D01*
X63124267Y-65028391D01*
X63076393Y-64940340D01*
X63063178Y-64894580D01*
X63063862Y-64810922D01*
X63242629Y-64810922D01*
X63264107Y-64911391D01*
X63315593Y-64976497D01*
X63398852Y-65020571D01*
X63494664Y-65039448D01*
X63583809Y-65028962D01*
X63640736Y-64992999D01*
X63707835Y-64900843D01*
X63730818Y-64820606D01*
X63713939Y-64735119D01*
X63708218Y-64720748D01*
X63645875Y-64626084D01*
X63564450Y-64574864D01*
X63474557Y-64562530D01*
X63386814Y-64584525D01*
X63311834Y-64636294D01*
X63260234Y-64713278D01*
X63242629Y-64810922D01*
X63063862Y-64810922D01*
X63064473Y-64736401D01*
X63112287Y-64593996D01*
X63200998Y-64478272D01*
X63316219Y-64403751D01*
X63460931Y-64370663D01*
X63606047Y-64387622D01*
G37*
X72889593Y-66733022D02*
X72928520Y-66793204D01*
X72947575Y-66833484D01*
X72947959Y-66836487D01*
X72961648Y-66868811D01*
X72998237Y-66936918D01*
X73051008Y-67028541D01*
X73076945Y-67072019D01*
X73134699Y-67167848D01*
X73179005Y-67241614D01*
X73216075Y-67304017D01*
X73252120Y-67365760D01*
X73293352Y-67437543D01*
X73345982Y-67530068D01*
X73416221Y-67654037D01*
X73474190Y-67756420D01*
X73692588Y-68142119D01*
X73823168Y-67911642D01*
X73880612Y-67810700D01*
X73958774Y-67673986D01*
X74050140Y-67514608D01*
X74147199Y-67345672D01*
X74226965Y-67207125D01*
X74311574Y-67059145D01*
X74385528Y-66927548D01*
X74444486Y-66820243D01*
X74484108Y-66745140D01*
X74500055Y-66710146D01*
X74500181Y-66709200D01*
X74522704Y-66679832D01*
X74544823Y-66668185D01*
X74588969Y-66661185D01*
X74671351Y-66656047D01*
X74778829Y-66652792D01*
X74898265Y-66651442D01*
X75016520Y-66652017D01*
X75120455Y-66654539D01*
X75196932Y-66659029D01*
X75232811Y-66665508D01*
X75233959Y-66667071D01*
X75220411Y-66695089D01*
X75182469Y-66764657D01*
X75124187Y-66868576D01*
X75049620Y-66999645D01*
X74962822Y-67150663D01*
X74920128Y-67224460D01*
X74823772Y-67390888D01*
X74732644Y-67548674D01*
X74652088Y-67688535D01*
X74587446Y-67801192D01*
X74544060Y-67877365D01*
X74535363Y-67892832D01*
X74457368Y-68029879D01*
X74356885Y-68202368D01*
X74241207Y-68397793D01*
X74222552Y-68429055D01*
X74176662Y-68508816D01*
X74119292Y-68612454D01*
X74077060Y-68690897D01*
X73990574Y-68853963D01*
X73993130Y-69650453D01*
X73995687Y-70446943D01*
X73703202Y-70454897D01*
X73579735Y-70456345D01*
X73477836Y-70453962D01*
X73410340Y-70448259D01*
X73390313Y-70442445D01*
X73385150Y-70410013D01*
X73380623Y-70328434D01*
X73376890Y-70205004D01*
X73374113Y-70047019D01*
X73372450Y-69861774D01*
X73372062Y-69656566D01*
X73372153Y-69612982D01*
X73374399Y-68803923D01*
X73227965Y-68552989D01*
X73160960Y-68437167D01*
X73100294Y-68330522D01*
X73054584Y-68248288D01*
X73038120Y-68217388D01*
X72998311Y-68144511D01*
X72936735Y-68037414D01*
X72861422Y-67909815D01*
X72780404Y-67775433D01*
X72757269Y-67737610D01*
X72725516Y-67682498D01*
X72679120Y-67598157D01*
X72640409Y-67525943D01*
X72580935Y-67419280D01*
X72517170Y-67313326D01*
X72482295Y-67259697D01*
X72430512Y-67177773D01*
X72390395Y-67103563D01*
X72381294Y-67082658D01*
X72352959Y-67024219D01*
X72304690Y-66939055D01*
X72256966Y-66861523D01*
X72205874Y-66777678D01*
X72170054Y-66711298D01*
X72157737Y-66678729D01*
X72184662Y-66666890D01*
X72260337Y-66657929D01*
X72377113Y-66652473D01*
X72494482Y-66651055D01*
X72831226Y-66651055D01*
X72889593Y-66733022D01*
G36*
X72889593Y-66733022D02*
G01*
X72928520Y-66793204D01*
X72947575Y-66833484D01*
X72947959Y-66836487D01*
X72961648Y-66868811D01*
X72998237Y-66936918D01*
X73051008Y-67028541D01*
X73076945Y-67072019D01*
X73134699Y-67167848D01*
X73179005Y-67241614D01*
X73216075Y-67304017D01*
X73252120Y-67365760D01*
X73293352Y-67437543D01*
X73345982Y-67530068D01*
X73416221Y-67654037D01*
X73474190Y-67756420D01*
X73692588Y-68142119D01*
X73823168Y-67911642D01*
X73880612Y-67810700D01*
X73958774Y-67673986D01*
X74050140Y-67514608D01*
X74147199Y-67345672D01*
X74226965Y-67207125D01*
X74311574Y-67059145D01*
X74385528Y-66927548D01*
X74444486Y-66820243D01*
X74484108Y-66745140D01*
X74500055Y-66710146D01*
X74500181Y-66709200D01*
X74522704Y-66679832D01*
X74544823Y-66668185D01*
X74588969Y-66661185D01*
X74671351Y-66656047D01*
X74778829Y-66652792D01*
X74898265Y-66651442D01*
X75016520Y-66652017D01*
X75120455Y-66654539D01*
X75196932Y-66659029D01*
X75232811Y-66665508D01*
X75233959Y-66667071D01*
X75220411Y-66695089D01*
X75182469Y-66764657D01*
X75124187Y-66868576D01*
X75049620Y-66999645D01*
X74962822Y-67150663D01*
X74920128Y-67224460D01*
X74823772Y-67390888D01*
X74732644Y-67548674D01*
X74652088Y-67688535D01*
X74587446Y-67801192D01*
X74544060Y-67877365D01*
X74535363Y-67892832D01*
X74457368Y-68029879D01*
X74356885Y-68202368D01*
X74241207Y-68397793D01*
X74222552Y-68429055D01*
X74176662Y-68508816D01*
X74119292Y-68612454D01*
X74077060Y-68690897D01*
X73990574Y-68853963D01*
X73993130Y-69650453D01*
X73995687Y-70446943D01*
X73703202Y-70454897D01*
X73579735Y-70456345D01*
X73477836Y-70453962D01*
X73410340Y-70448259D01*
X73390313Y-70442445D01*
X73385150Y-70410013D01*
X73380623Y-70328434D01*
X73376890Y-70205004D01*
X73374113Y-70047019D01*
X73372450Y-69861774D01*
X73372062Y-69656566D01*
X73372153Y-69612982D01*
X73374399Y-68803923D01*
X73227965Y-68552989D01*
X73160960Y-68437167D01*
X73100294Y-68330522D01*
X73054584Y-68248288D01*
X73038120Y-68217388D01*
X72998311Y-68144511D01*
X72936735Y-68037414D01*
X72861422Y-67909815D01*
X72780404Y-67775433D01*
X72757269Y-67737610D01*
X72725516Y-67682498D01*
X72679120Y-67598157D01*
X72640409Y-67525943D01*
X72580935Y-67419280D01*
X72517170Y-67313326D01*
X72482295Y-67259697D01*
X72430512Y-67177773D01*
X72390395Y-67103563D01*
X72381294Y-67082658D01*
X72352959Y-67024219D01*
X72304690Y-66939055D01*
X72256966Y-66861523D01*
X72205874Y-66777678D01*
X72170054Y-66711298D01*
X72157737Y-66678729D01*
X72184662Y-66666890D01*
X72260337Y-66657929D01*
X72377113Y-66652473D01*
X72494482Y-66651055D01*
X72831226Y-66651055D01*
X72889593Y-66733022D01*
G37*
X76959658Y-66621756D02*
X77117642Y-66671018D01*
X77266175Y-66750035D01*
X77287945Y-66764262D01*
X77371566Y-66829628D01*
X77461899Y-66915284D01*
X77548876Y-67009636D01*
X77622424Y-67101090D01*
X77672473Y-67178053D01*
X77689107Y-67226103D01*
X77666047Y-67253063D01*
X77604291Y-67299273D01*
X77514718Y-67356991D01*
X77457751Y-67390714D01*
X77340198Y-67455910D01*
X77259275Y-67490803D01*
X77203793Y-67495079D01*
X77162564Y-67468423D01*
X77124400Y-67410524D01*
X77108719Y-67380930D01*
X77059779Y-67319417D01*
X76983171Y-67254975D01*
X76945822Y-67230708D01*
X76789275Y-67169861D01*
X76621641Y-67157447D01*
X76456489Y-67191123D01*
X76307387Y-67268545D01*
X76211176Y-67357538D01*
X76160824Y-67434079D01*
X76139641Y-67520920D01*
X76137070Y-67584472D01*
X76146266Y-67681507D01*
X76177833Y-67765318D01*
X76237741Y-67841229D01*
X76331960Y-67914565D01*
X76466459Y-67990651D01*
X76647208Y-68074814D01*
X76723485Y-68107580D01*
X76948470Y-68206251D01*
X77128676Y-68294065D01*
X77273348Y-68376528D01*
X77391728Y-68459141D01*
X77493059Y-68547410D01*
X77537013Y-68591979D01*
X77663943Y-68765479D01*
X77748904Y-68973756D01*
X77792870Y-69219264D01*
X77794660Y-69240776D01*
X77787305Y-69490016D01*
X77729816Y-69728831D01*
X77627023Y-69949612D01*
X77483753Y-70144752D01*
X77304837Y-70306645D01*
X77095102Y-70427683D01*
X77023142Y-70456232D01*
X76887440Y-70492784D01*
X76724356Y-70519479D01*
X76556984Y-70533885D01*
X76408418Y-70533574D01*
X76348737Y-70527193D01*
X76097291Y-70460408D01*
X75876303Y-70346869D01*
X75688120Y-70188771D01*
X75535091Y-69988308D01*
X75419564Y-69747675D01*
X75378771Y-69620900D01*
X75350514Y-69512793D01*
X75342846Y-69441462D01*
X75363478Y-69396849D01*
X75420118Y-69368892D01*
X75520476Y-69347533D01*
X75598023Y-69334805D01*
X75705627Y-69313209D01*
X75801869Y-69286680D01*
X75851621Y-69267450D01*
X75912912Y-69245671D01*
X75932838Y-69259064D01*
X75952786Y-69368160D01*
X75990885Y-69497095D01*
X76038768Y-69621585D01*
X76088067Y-69717346D01*
X76093597Y-69725632D01*
X76204214Y-69838705D01*
X76345674Y-69914332D01*
X76505605Y-69951379D01*
X76671635Y-69948713D01*
X76831395Y-69905200D01*
X76972512Y-69819706D01*
X76986612Y-69807468D01*
X77092153Y-69676783D01*
X77154874Y-69521352D01*
X77174036Y-69354048D01*
X77148899Y-69187747D01*
X77078723Y-69035320D01*
X77034311Y-68977014D01*
X76937335Y-68892729D01*
X76788449Y-68800242D01*
X76591261Y-68701548D01*
X76351978Y-68599676D01*
X76088501Y-68475494D01*
X75871183Y-68331397D01*
X75702804Y-68169667D01*
X75586145Y-67992583D01*
X75570651Y-67958781D01*
X75533149Y-67833439D01*
X75517270Y-67676045D01*
X75516338Y-67615326D01*
X75524294Y-67432023D01*
X75550979Y-67286792D01*
X75601076Y-67163036D01*
X75676440Y-67047848D01*
X75840973Y-66866776D01*
X76023507Y-66735186D01*
X76231485Y-66649289D01*
X76472345Y-66605299D01*
X76557552Y-66599456D01*
X76777777Y-66598988D01*
X76959658Y-66621756D01*
G36*
X76959658Y-66621756D02*
G01*
X77117642Y-66671018D01*
X77266175Y-66750035D01*
X77287945Y-66764262D01*
X77371566Y-66829628D01*
X77461899Y-66915284D01*
X77548876Y-67009636D01*
X77622424Y-67101090D01*
X77672473Y-67178053D01*
X77689107Y-67226103D01*
X77666047Y-67253063D01*
X77604291Y-67299273D01*
X77514718Y-67356991D01*
X77457751Y-67390714D01*
X77340198Y-67455910D01*
X77259275Y-67490803D01*
X77203793Y-67495079D01*
X77162564Y-67468423D01*
X77124400Y-67410524D01*
X77108719Y-67380930D01*
X77059779Y-67319417D01*
X76983171Y-67254975D01*
X76945822Y-67230708D01*
X76789275Y-67169861D01*
X76621641Y-67157447D01*
X76456489Y-67191123D01*
X76307387Y-67268545D01*
X76211176Y-67357538D01*
X76160824Y-67434079D01*
X76139641Y-67520920D01*
X76137070Y-67584472D01*
X76146266Y-67681507D01*
X76177833Y-67765318D01*
X76237741Y-67841229D01*
X76331960Y-67914565D01*
X76466459Y-67990651D01*
X76647208Y-68074814D01*
X76723485Y-68107580D01*
X76948470Y-68206251D01*
X77128676Y-68294065D01*
X77273348Y-68376528D01*
X77391728Y-68459141D01*
X77493059Y-68547410D01*
X77537013Y-68591979D01*
X77663943Y-68765479D01*
X77748904Y-68973756D01*
X77792870Y-69219264D01*
X77794660Y-69240776D01*
X77787305Y-69490016D01*
X77729816Y-69728831D01*
X77627023Y-69949612D01*
X77483753Y-70144752D01*
X77304837Y-70306645D01*
X77095102Y-70427683D01*
X77023142Y-70456232D01*
X76887440Y-70492784D01*
X76724356Y-70519479D01*
X76556984Y-70533885D01*
X76408418Y-70533574D01*
X76348737Y-70527193D01*
X76097291Y-70460408D01*
X75876303Y-70346869D01*
X75688120Y-70188771D01*
X75535091Y-69988308D01*
X75419564Y-69747675D01*
X75378771Y-69620900D01*
X75350514Y-69512793D01*
X75342846Y-69441462D01*
X75363478Y-69396849D01*
X75420118Y-69368892D01*
X75520476Y-69347533D01*
X75598023Y-69334805D01*
X75705627Y-69313209D01*
X75801869Y-69286680D01*
X75851621Y-69267450D01*
X75912912Y-69245671D01*
X75932838Y-69259064D01*
X75952786Y-69368160D01*
X75990885Y-69497095D01*
X76038768Y-69621585D01*
X76088067Y-69717346D01*
X76093597Y-69725632D01*
X76204214Y-69838705D01*
X76345674Y-69914332D01*
X76505605Y-69951379D01*
X76671635Y-69948713D01*
X76831395Y-69905200D01*
X76972512Y-69819706D01*
X76986612Y-69807468D01*
X77092153Y-69676783D01*
X77154874Y-69521352D01*
X77174036Y-69354048D01*
X77148899Y-69187747D01*
X77078723Y-69035320D01*
X77034311Y-68977014D01*
X76937335Y-68892729D01*
X76788449Y-68800242D01*
X76591261Y-68701548D01*
X76351978Y-68599676D01*
X76088501Y-68475494D01*
X75871183Y-68331397D01*
X75702804Y-68169667D01*
X75586145Y-67992583D01*
X75570651Y-67958781D01*
X75533149Y-67833439D01*
X75517270Y-67676045D01*
X75516338Y-67615326D01*
X75524294Y-67432023D01*
X75550979Y-67286792D01*
X75601076Y-67163036D01*
X75676440Y-67047848D01*
X75840973Y-66866776D01*
X76023507Y-66735186D01*
X76231485Y-66649289D01*
X76472345Y-66605299D01*
X76557552Y-66599456D01*
X76777777Y-66598988D01*
X76959658Y-66621756D01*
G37*
X71026781Y-66600678D02*
X71243833Y-66645372D01*
X71434654Y-66723676D01*
X71478397Y-66749677D01*
X71555340Y-66808458D01*
X71643086Y-66889697D01*
X71731616Y-66982162D01*
X71810910Y-67074620D01*
X71870948Y-67155835D01*
X71901711Y-67214574D01*
X71903737Y-67226557D01*
X71880430Y-67251243D01*
X71816585Y-67296835D01*
X71721311Y-67357393D01*
X71603721Y-67426975D01*
X71548419Y-67458272D01*
X71424499Y-67527456D01*
X71346618Y-67415552D01*
X71224812Y-67286408D01*
X71075723Y-67201137D01*
X70910214Y-67162332D01*
X70739144Y-67172585D01*
X70577911Y-67231997D01*
X70454445Y-67324367D01*
X70372865Y-67438871D01*
X70336502Y-67565577D01*
X70348688Y-67694554D01*
X70391778Y-67786935D01*
X70441577Y-67843107D01*
X70517083Y-67907678D01*
X70601899Y-67968860D01*
X70679627Y-68014867D01*
X70733870Y-68033909D01*
X70735384Y-68033943D01*
X70781488Y-68046338D01*
X70872227Y-68081891D01*
X71001934Y-68138158D01*
X71164941Y-68212691D01*
X71325181Y-68288454D01*
X71552706Y-68425315D01*
X71736517Y-68594898D01*
X71874295Y-68792926D01*
X71963720Y-69015120D01*
X72002475Y-69257204D01*
X71988648Y-69512280D01*
X71922241Y-69768708D01*
X71808745Y-69995580D01*
X71651071Y-70189291D01*
X71452131Y-70346240D01*
X71223208Y-70459672D01*
X71125706Y-70487065D01*
X70997254Y-70510305D01*
X70856388Y-70527445D01*
X70721646Y-70536535D01*
X70611563Y-70535628D01*
X70563181Y-70529039D01*
X70313523Y-70454611D01*
X70109067Y-70359315D01*
X69940819Y-70238057D01*
X69815292Y-70105486D01*
X69722992Y-69964146D01*
X69641042Y-69790269D01*
X69580001Y-69607763D01*
X69563216Y-69534689D01*
X69553400Y-69471147D01*
X69558681Y-69426414D01*
X69587559Y-69394316D01*
X69648537Y-69368677D01*
X69750117Y-69343323D01*
X69857626Y-69320869D01*
X69962773Y-69298224D01*
X70050021Y-69277271D01*
X70100805Y-69262473D01*
X70101341Y-69262263D01*
X70126840Y-69261792D01*
X70148361Y-69289566D01*
X70170318Y-69354873D01*
X70195808Y-69461071D01*
X70228116Y-69586639D01*
X70263746Y-69674530D01*
X70311264Y-69743268D01*
X70341006Y-69775094D01*
X70478990Y-69882125D01*
X70635587Y-69941085D01*
X70788568Y-69957033D01*
X70960179Y-69934540D01*
X71107960Y-69868450D01*
X71228206Y-69767377D01*
X71317214Y-69639935D01*
X71371278Y-69494741D01*
X71386693Y-69340408D01*
X71359757Y-69185551D01*
X71286762Y-69038785D01*
X71218463Y-68957336D01*
X71138121Y-68893202D01*
X71018837Y-68818015D01*
X70874957Y-68739334D01*
X70720829Y-68664717D01*
X70570798Y-68601722D01*
X70487591Y-68572287D01*
X70381699Y-68526246D01*
X70254477Y-68453650D01*
X70125232Y-68367122D01*
X70013267Y-68279284D01*
X69956893Y-68225292D01*
X69832956Y-68053142D01*
X69749492Y-67857483D01*
X69709551Y-67651208D01*
X69716184Y-67447209D01*
X69744724Y-67328426D01*
X69801365Y-67192280D01*
X69875509Y-67061767D01*
X69956428Y-66953526D01*
X70029514Y-66886674D01*
X70072983Y-66847189D01*
X70081063Y-66816602D01*
X70081258Y-66796940D01*
X70088361Y-66797743D01*
X70126036Y-66788471D01*
X70183691Y-66756496D01*
X70361954Y-66667504D01*
X70571471Y-66611820D01*
X70797870Y-66589520D01*
X71026781Y-66600678D01*
G36*
X71026781Y-66600678D02*
G01*
X71243833Y-66645372D01*
X71434654Y-66723676D01*
X71478397Y-66749677D01*
X71555340Y-66808458D01*
X71643086Y-66889697D01*
X71731616Y-66982162D01*
X71810910Y-67074620D01*
X71870948Y-67155835D01*
X71901711Y-67214574D01*
X71903737Y-67226557D01*
X71880430Y-67251243D01*
X71816585Y-67296835D01*
X71721311Y-67357393D01*
X71603721Y-67426975D01*
X71548419Y-67458272D01*
X71424499Y-67527456D01*
X71346618Y-67415552D01*
X71224812Y-67286408D01*
X71075723Y-67201137D01*
X70910214Y-67162332D01*
X70739144Y-67172585D01*
X70577911Y-67231997D01*
X70454445Y-67324367D01*
X70372865Y-67438871D01*
X70336502Y-67565577D01*
X70348688Y-67694554D01*
X70391778Y-67786935D01*
X70441577Y-67843107D01*
X70517083Y-67907678D01*
X70601899Y-67968860D01*
X70679627Y-68014867D01*
X70733870Y-68033909D01*
X70735384Y-68033943D01*
X70781488Y-68046338D01*
X70872227Y-68081891D01*
X71001934Y-68138158D01*
X71164941Y-68212691D01*
X71325181Y-68288454D01*
X71552706Y-68425315D01*
X71736517Y-68594898D01*
X71874295Y-68792926D01*
X71963720Y-69015120D01*
X72002475Y-69257204D01*
X71988648Y-69512280D01*
X71922241Y-69768708D01*
X71808745Y-69995580D01*
X71651071Y-70189291D01*
X71452131Y-70346240D01*
X71223208Y-70459672D01*
X71125706Y-70487065D01*
X70997254Y-70510305D01*
X70856388Y-70527445D01*
X70721646Y-70536535D01*
X70611563Y-70535628D01*
X70563181Y-70529039D01*
X70313523Y-70454611D01*
X70109067Y-70359315D01*
X69940819Y-70238057D01*
X69815292Y-70105486D01*
X69722992Y-69964146D01*
X69641042Y-69790269D01*
X69580001Y-69607763D01*
X69563216Y-69534689D01*
X69553400Y-69471147D01*
X69558681Y-69426414D01*
X69587559Y-69394316D01*
X69648537Y-69368677D01*
X69750117Y-69343323D01*
X69857626Y-69320869D01*
X69962773Y-69298224D01*
X70050021Y-69277271D01*
X70100805Y-69262473D01*
X70101341Y-69262263D01*
X70126840Y-69261792D01*
X70148361Y-69289566D01*
X70170318Y-69354873D01*
X70195808Y-69461071D01*
X70228116Y-69586639D01*
X70263746Y-69674530D01*
X70311264Y-69743268D01*
X70341006Y-69775094D01*
X70478990Y-69882125D01*
X70635587Y-69941085D01*
X70788568Y-69957033D01*
X70960179Y-69934540D01*
X71107960Y-69868450D01*
X71228206Y-69767377D01*
X71317214Y-69639935D01*
X71371278Y-69494741D01*
X71386693Y-69340408D01*
X71359757Y-69185551D01*
X71286762Y-69038785D01*
X71218463Y-68957336D01*
X71138121Y-68893202D01*
X71018837Y-68818015D01*
X70874957Y-68739334D01*
X70720829Y-68664717D01*
X70570798Y-68601722D01*
X70487591Y-68572287D01*
X70381699Y-68526246D01*
X70254477Y-68453650D01*
X70125232Y-68367122D01*
X70013267Y-68279284D01*
X69956893Y-68225292D01*
X69832956Y-68053142D01*
X69749492Y-67857483D01*
X69709551Y-67651208D01*
X69716184Y-67447209D01*
X69744724Y-67328426D01*
X69801365Y-67192280D01*
X69875509Y-67061767D01*
X69956428Y-66953526D01*
X70029514Y-66886674D01*
X70072983Y-66847189D01*
X70081063Y-66816602D01*
X70081258Y-66796940D01*
X70088361Y-66797743D01*
X70126036Y-66788471D01*
X70183691Y-66756496D01*
X70361954Y-66667504D01*
X70571471Y-66611820D01*
X70797870Y-66589520D01*
X71026781Y-66600678D01*
G37*
X69152070Y-70785610D02*
X65983286Y-70792787D01*
X65474651Y-70793825D01*
X65019827Y-70794492D01*
X64616183Y-70794766D01*
X64261087Y-70794623D01*
X63951908Y-70794040D01*
X63686013Y-70792993D01*
X63460771Y-70791459D01*
X63273551Y-70789415D01*
X63121720Y-70786837D01*
X63002646Y-70783702D01*
X62913699Y-70779987D01*
X62852246Y-70775668D01*
X62815656Y-70770723D01*
X62801296Y-70765127D01*
X62800994Y-70764565D01*
X62798977Y-70731432D01*
X62797230Y-70646168D01*
X62795764Y-70513086D01*
X62794591Y-70336500D01*
X62793724Y-70120722D01*
X62793173Y-69870066D01*
X62792950Y-69588844D01*
X62793068Y-69281370D01*
X62793538Y-68951957D01*
X62794370Y-68604918D01*
X62794464Y-68573884D01*
X63295959Y-68573884D01*
X63295959Y-70434230D01*
X63754570Y-70426476D01*
X64213181Y-70418721D01*
X64220721Y-69706110D01*
X64224289Y-69472086D01*
X64229503Y-69280887D01*
X64236205Y-69135682D01*
X64244236Y-69039641D01*
X64253439Y-68995933D01*
X64256350Y-68993499D01*
X64284544Y-69015640D01*
X64331541Y-69073706D01*
X64387204Y-69155163D01*
X64387594Y-69155777D01*
X64463633Y-69274864D01*
X64551279Y-69411285D01*
X64644181Y-69555245D01*
X64735986Y-69696951D01*
X64820341Y-69826610D01*
X64890894Y-69934428D01*
X64941291Y-70010610D01*
X64959671Y-70037721D01*
X65009712Y-70116045D01*
X65053628Y-70192943D01*
X65105594Y-70273656D01*
X65169875Y-70352934D01*
X65172862Y-70356117D01*
X65247237Y-70434624D01*
X65795598Y-70431603D01*
X65964561Y-70430029D01*
X66112409Y-70427420D01*
X66230570Y-70424031D01*
X66310472Y-70420113D01*
X66343544Y-70415922D01*
X66343959Y-70415405D01*
X66328242Y-70385185D01*
X66315014Y-70368141D01*
X66289011Y-70335049D01*
X66235396Y-70265077D01*
X66160451Y-70166481D01*
X66070458Y-70047518D01*
X65999242Y-69953055D01*
X65894245Y-69813855D01*
X65792032Y-69678832D01*
X65701309Y-69559451D01*
X65630780Y-69467175D01*
X65602829Y-69430943D01*
X65521149Y-69325029D01*
X65431362Y-69207520D01*
X65383004Y-69143718D01*
X65321616Y-69065331D01*
X65270787Y-69005729D01*
X65243918Y-68979775D01*
X65214628Y-68940336D01*
X65218114Y-68932995D01*
X66852445Y-68932995D01*
X66852655Y-69203674D01*
X66853356Y-69461158D01*
X66854564Y-69699668D01*
X66856289Y-69913424D01*
X66858545Y-70096647D01*
X66861345Y-70243559D01*
X66864702Y-70348378D01*
X66868628Y-70405328D01*
X66870733Y-70413977D01*
X66902484Y-70418240D01*
X66984269Y-70421785D01*
X67109684Y-70424537D01*
X67272321Y-70426423D01*
X67465774Y-70427368D01*
X67683638Y-70427298D01*
X67919507Y-70426140D01*
X67922394Y-70426119D01*
X68954514Y-70418721D01*
X68954514Y-69656721D01*
X68375959Y-69642610D01*
X67797403Y-69628499D01*
X67797403Y-68951166D01*
X68883959Y-68935836D01*
X68885764Y-68830612D01*
X68887141Y-68621747D01*
X68883830Y-68445623D01*
X68876166Y-68307997D01*
X68864484Y-68214624D01*
X68849118Y-68171261D01*
X68847373Y-68169885D01*
X68809441Y-68163202D01*
X68724995Y-68157458D01*
X68603966Y-68153039D01*
X68456280Y-68150332D01*
X68326779Y-68149656D01*
X68165472Y-68148756D01*
X68023390Y-68146150D01*
X67910331Y-68142164D01*
X67836091Y-68137123D01*
X67811247Y-68132556D01*
X67800174Y-68099190D01*
X67791674Y-68023943D01*
X67786001Y-67921328D01*
X67783408Y-67805862D01*
X67784151Y-67692058D01*
X67788483Y-67594431D01*
X67796658Y-67527497D01*
X67800423Y-67514141D01*
X67812627Y-67498843D01*
X67840653Y-67487425D01*
X67891676Y-67479345D01*
X67972870Y-67474060D01*
X68091410Y-67471027D01*
X68254470Y-67469701D01*
X68390232Y-67469499D01*
X68962911Y-67469499D01*
X68970979Y-66715025D01*
X68892191Y-66702137D01*
X68845758Y-66699174D01*
X68750113Y-66696679D01*
X68612486Y-66694715D01*
X68440107Y-66693345D01*
X68240208Y-66692632D01*
X68020018Y-66692640D01*
X67858771Y-66693104D01*
X67595069Y-66694504D01*
X67382468Y-66696515D01*
X67215626Y-66699379D01*
X67089201Y-66703339D01*
X66997852Y-66708635D01*
X66936235Y-66715512D01*
X66899009Y-66724209D01*
X66880832Y-66734971D01*
X66878940Y-66737506D01*
X66874586Y-66771903D01*
X66870582Y-66856675D01*
X66866942Y-66986045D01*
X66863678Y-67154233D01*
X66860803Y-67355459D01*
X66858330Y-67583945D01*
X66856271Y-67833912D01*
X66854641Y-68099579D01*
X66853451Y-68375168D01*
X66852715Y-68654900D01*
X66852445Y-68932995D01*
X65218114Y-68932995D01*
X65235266Y-68896883D01*
X65300733Y-68857960D01*
X65320903Y-68850770D01*
X65541674Y-68752827D01*
X65722480Y-68615244D01*
X65862356Y-68439184D01*
X65960338Y-68225812D01*
X66009267Y-68020491D01*
X66023018Y-67769345D01*
X65987415Y-67531205D01*
X65906562Y-67312148D01*
X65784564Y-67118247D01*
X65625526Y-66955578D01*
X65433554Y-66830216D01*
X65212752Y-66748234D01*
X65138945Y-66732552D01*
X65074739Y-66725652D01*
X64966486Y-66718938D01*
X64822791Y-66712566D01*
X64652259Y-66706691D01*
X64463494Y-66701470D01*
X64265103Y-66697058D01*
X64065689Y-66693610D01*
X63873857Y-66691283D01*
X63698213Y-66690232D01*
X63547360Y-66690612D01*
X63429905Y-66692580D01*
X63354452Y-66696291D01*
X63331615Y-66699855D01*
X63324251Y-66713352D01*
X63317908Y-66750061D01*
X63312519Y-66813400D01*
X63308019Y-66906783D01*
X63304345Y-67033629D01*
X63301429Y-67197354D01*
X63299209Y-67401373D01*
X63297618Y-67649105D01*
X63296592Y-67943965D01*
X63296065Y-68289370D01*
X63295959Y-68573884D01*
X62794464Y-68573884D01*
X62794778Y-68471388D01*
X62802070Y-66213610D01*
X69152070Y-66213610D01*
X69152070Y-70785610D01*
G36*
X69152070Y-70785610D02*
G01*
X65983286Y-70792787D01*
X65474651Y-70793825D01*
X65019827Y-70794492D01*
X64616183Y-70794766D01*
X64261087Y-70794623D01*
X63951908Y-70794040D01*
X63686013Y-70792993D01*
X63460771Y-70791459D01*
X63273551Y-70789415D01*
X63121720Y-70786837D01*
X63002646Y-70783702D01*
X62913699Y-70779987D01*
X62852246Y-70775668D01*
X62815656Y-70770723D01*
X62801296Y-70765127D01*
X62800994Y-70764565D01*
X62798977Y-70731432D01*
X62797230Y-70646168D01*
X62795764Y-70513086D01*
X62794591Y-70336500D01*
X62793724Y-70120722D01*
X62793173Y-69870066D01*
X62792950Y-69588844D01*
X62793068Y-69281370D01*
X62793538Y-68951957D01*
X62794370Y-68604918D01*
X62794464Y-68573884D01*
X63295959Y-68573884D01*
X63295959Y-70434230D01*
X63754570Y-70426476D01*
X64213181Y-70418721D01*
X64220721Y-69706110D01*
X64224289Y-69472086D01*
X64229503Y-69280887D01*
X64236205Y-69135682D01*
X64244236Y-69039641D01*
X64253439Y-68995933D01*
X64256350Y-68993499D01*
X64284544Y-69015640D01*
X64331541Y-69073706D01*
X64387204Y-69155163D01*
X64387594Y-69155777D01*
X64463633Y-69274864D01*
X64551279Y-69411285D01*
X64644181Y-69555245D01*
X64735986Y-69696951D01*
X64820341Y-69826610D01*
X64890894Y-69934428D01*
X64941291Y-70010610D01*
X64959671Y-70037721D01*
X65009712Y-70116045D01*
X65053628Y-70192943D01*
X65105594Y-70273656D01*
X65169875Y-70352934D01*
X65172862Y-70356117D01*
X65247237Y-70434624D01*
X65795598Y-70431603D01*
X65964561Y-70430029D01*
X66112409Y-70427420D01*
X66230570Y-70424031D01*
X66310472Y-70420113D01*
X66343544Y-70415922D01*
X66343959Y-70415405D01*
X66328242Y-70385185D01*
X66315014Y-70368141D01*
X66289011Y-70335049D01*
X66235396Y-70265077D01*
X66160451Y-70166481D01*
X66070458Y-70047518D01*
X65999242Y-69953055D01*
X65894245Y-69813855D01*
X65792032Y-69678832D01*
X65701309Y-69559451D01*
X65630780Y-69467175D01*
X65602829Y-69430943D01*
X65521149Y-69325029D01*
X65431362Y-69207520D01*
X65383004Y-69143718D01*
X65321616Y-69065331D01*
X65270787Y-69005729D01*
X65243918Y-68979775D01*
X65214628Y-68940336D01*
X65218114Y-68932995D01*
X66852445Y-68932995D01*
X66852655Y-69203674D01*
X66853356Y-69461158D01*
X66854564Y-69699668D01*
X66856289Y-69913424D01*
X66858545Y-70096647D01*
X66861345Y-70243559D01*
X66864702Y-70348378D01*
X66868628Y-70405328D01*
X66870733Y-70413977D01*
X66902484Y-70418240D01*
X66984269Y-70421785D01*
X67109684Y-70424537D01*
X67272321Y-70426423D01*
X67465774Y-70427368D01*
X67683638Y-70427298D01*
X67919507Y-70426140D01*
X67922394Y-70426119D01*
X68954514Y-70418721D01*
X68954514Y-69656721D01*
X68375959Y-69642610D01*
X67797403Y-69628499D01*
X67797403Y-68951166D01*
X68883959Y-68935836D01*
X68885764Y-68830612D01*
X68887141Y-68621747D01*
X68883830Y-68445623D01*
X68876166Y-68307997D01*
X68864484Y-68214624D01*
X68849118Y-68171261D01*
X68847373Y-68169885D01*
X68809441Y-68163202D01*
X68724995Y-68157458D01*
X68603966Y-68153039D01*
X68456280Y-68150332D01*
X68326779Y-68149656D01*
X68165472Y-68148756D01*
X68023390Y-68146150D01*
X67910331Y-68142164D01*
X67836091Y-68137123D01*
X67811247Y-68132556D01*
X67800174Y-68099190D01*
X67791674Y-68023943D01*
X67786001Y-67921328D01*
X67783408Y-67805862D01*
X67784151Y-67692058D01*
X67788483Y-67594431D01*
X67796658Y-67527497D01*
X67800423Y-67514141D01*
X67812627Y-67498843D01*
X67840653Y-67487425D01*
X67891676Y-67479345D01*
X67972870Y-67474060D01*
X68091410Y-67471027D01*
X68254470Y-67469701D01*
X68390232Y-67469499D01*
X68962911Y-67469499D01*
X68970979Y-66715025D01*
X68892191Y-66702137D01*
X68845758Y-66699174D01*
X68750113Y-66696679D01*
X68612486Y-66694715D01*
X68440107Y-66693345D01*
X68240208Y-66692632D01*
X68020018Y-66692640D01*
X67858771Y-66693104D01*
X67595069Y-66694504D01*
X67382468Y-66696515D01*
X67215626Y-66699379D01*
X67089201Y-66703339D01*
X66997852Y-66708635D01*
X66936235Y-66715512D01*
X66899009Y-66724209D01*
X66880832Y-66734971D01*
X66878940Y-66737506D01*
X66874586Y-66771903D01*
X66870582Y-66856675D01*
X66866942Y-66986045D01*
X66863678Y-67154233D01*
X66860803Y-67355459D01*
X66858330Y-67583945D01*
X66856271Y-67833912D01*
X66854641Y-68099579D01*
X66853451Y-68375168D01*
X66852715Y-68654900D01*
X66852445Y-68932995D01*
X65218114Y-68932995D01*
X65235266Y-68896883D01*
X65300733Y-68857960D01*
X65320903Y-68850770D01*
X65541674Y-68752827D01*
X65722480Y-68615244D01*
X65862356Y-68439184D01*
X65960338Y-68225812D01*
X66009267Y-68020491D01*
X66023018Y-67769345D01*
X65987415Y-67531205D01*
X65906562Y-67312148D01*
X65784564Y-67118247D01*
X65625526Y-66955578D01*
X65433554Y-66830216D01*
X65212752Y-66748234D01*
X65138945Y-66732552D01*
X65074739Y-66725652D01*
X64966486Y-66718938D01*
X64822791Y-66712566D01*
X64652259Y-66706691D01*
X64463494Y-66701470D01*
X64265103Y-66697058D01*
X64065689Y-66693610D01*
X63873857Y-66691283D01*
X63698213Y-66690232D01*
X63547360Y-66690612D01*
X63429905Y-66692580D01*
X63354452Y-66696291D01*
X63331615Y-66699855D01*
X63324251Y-66713352D01*
X63317908Y-66750061D01*
X63312519Y-66813400D01*
X63308019Y-66906783D01*
X63304345Y-67033629D01*
X63301429Y-67197354D01*
X63299209Y-67401373D01*
X63297618Y-67649105D01*
X63296592Y-67943965D01*
X63296065Y-68289370D01*
X63295959Y-68573884D01*
X62794464Y-68573884D01*
X62794778Y-68471388D01*
X62802070Y-66213610D01*
X69152070Y-66213610D01*
X69152070Y-70785610D01*
G37*
X72202872Y-64128977D02*
X72273401Y-64239066D01*
X72344553Y-64346984D01*
X72401766Y-64430675D01*
X72405267Y-64435610D01*
X72467902Y-64525145D01*
X72540968Y-64631832D01*
X72582764Y-64693881D01*
X72636352Y-64767656D01*
X72679451Y-64815333D01*
X72700691Y-64826471D01*
X72712076Y-64834757D01*
X72708345Y-64850422D01*
X72717186Y-64890390D01*
X72753071Y-64959687D01*
X72807588Y-65042388D01*
X72874208Y-65138377D01*
X72933767Y-65231036D01*
X72967690Y-65289858D01*
X73005830Y-65347485D01*
X73039503Y-65372666D01*
X73044832Y-65372282D01*
X73068300Y-65345840D01*
X73116586Y-65277239D01*
X73185675Y-65172842D01*
X73271552Y-65039015D01*
X73370202Y-64882122D01*
X73477612Y-64708528D01*
X73589764Y-64524597D01*
X73702646Y-64336696D01*
X73773657Y-64216888D01*
X73836532Y-64113558D01*
X73890257Y-64031470D01*
X73927836Y-63980967D01*
X73940670Y-63969943D01*
X73965337Y-63991292D01*
X74014845Y-64048904D01*
X74081204Y-64133128D01*
X74133422Y-64202777D01*
X74229489Y-64332583D01*
X74335612Y-64474734D01*
X74433205Y-64604365D01*
X74460419Y-64640221D01*
X74616154Y-64844832D01*
X75852375Y-64844832D01*
X75868959Y-64435610D01*
X76031237Y-64427146D01*
X76193514Y-64418682D01*
X76193514Y-65609649D01*
X76031237Y-65601185D01*
X75868959Y-65592721D01*
X75860677Y-65388592D01*
X75852394Y-65184463D01*
X75143270Y-65176925D01*
X74434146Y-65169388D01*
X74206108Y-64867318D01*
X74121286Y-64756198D01*
X74048603Y-64663315D01*
X73994714Y-64597000D01*
X73966276Y-64565588D01*
X73963959Y-64564166D01*
X73943855Y-64586156D01*
X73907128Y-64643888D01*
X73877089Y-64696903D01*
X73835875Y-64769370D01*
X73772359Y-64877034D01*
X73694123Y-65007212D01*
X73608753Y-65147217D01*
X73577716Y-65197610D01*
X73427438Y-65441521D01*
X73301273Y-65647686D01*
X73193153Y-65826056D01*
X73125707Y-65938443D01*
X73088109Y-65986111D01*
X73061036Y-66001943D01*
X73040598Y-65979521D01*
X72994013Y-65916987D01*
X72926073Y-65821439D01*
X72841567Y-65699975D01*
X72745288Y-65559694D01*
X72642026Y-65407695D01*
X72536572Y-65251075D01*
X72433717Y-65096933D01*
X72338252Y-64952368D01*
X72254967Y-64824478D01*
X72188655Y-64720360D01*
X72144106Y-64647114D01*
X72132432Y-64626110D01*
X72099584Y-64578035D01*
X72077012Y-64562610D01*
X72050439Y-64583940D01*
X72003010Y-64639627D01*
X71949938Y-64710777D01*
X71892971Y-64791294D01*
X71813543Y-64903505D01*
X71721822Y-65033048D01*
X71627977Y-65165558D01*
X71620448Y-65176189D01*
X71538610Y-65293530D01*
X71470105Y-65395192D01*
X71420926Y-65472016D01*
X71397065Y-65514844D01*
X71395737Y-65519559D01*
X71376739Y-65553719D01*
X71374041Y-65555092D01*
X71348989Y-65581136D01*
X71300991Y-65642419D01*
X71238858Y-65727512D01*
X71214530Y-65762055D01*
X71136573Y-65873495D01*
X71083847Y-65944719D01*
X71048776Y-65981443D01*
X71023784Y-65989382D01*
X71001294Y-65974250D01*
X70974725Y-65942961D01*
X70926287Y-65880162D01*
X70857006Y-65784681D01*
X70773682Y-65666495D01*
X70683116Y-65535583D01*
X70592108Y-65401923D01*
X70507457Y-65275492D01*
X70435964Y-65166269D01*
X70384738Y-65084721D01*
X70464403Y-65084721D01*
X70478514Y-65098832D01*
X70492626Y-65084721D01*
X70478514Y-65070610D01*
X70464403Y-65084721D01*
X70384738Y-65084721D01*
X70384430Y-65084232D01*
X70360962Y-65042388D01*
X70329985Y-64985345D01*
X70280123Y-64904328D01*
X70250548Y-64858943D01*
X70520848Y-64858943D01*
X70534959Y-64873055D01*
X70549070Y-64858943D01*
X70534959Y-64844832D01*
X70520848Y-64858943D01*
X70250548Y-64858943D01*
X70219581Y-64811425D01*
X70213514Y-64802499D01*
X70379737Y-64802499D01*
X70393848Y-64816610D01*
X70407959Y-64802499D01*
X70393848Y-64788388D01*
X70379737Y-64802499D01*
X70213514Y-64802499D01*
X70156567Y-64718723D01*
X70099286Y-64638307D01*
X70073484Y-64604943D01*
X70351514Y-64604943D01*
X70365626Y-64619055D01*
X70379737Y-64604943D01*
X70365626Y-64590832D01*
X70351514Y-64604943D01*
X70073484Y-64604943D01*
X70055946Y-64582265D01*
X70035209Y-64562610D01*
X70017481Y-64586952D01*
X69978447Y-64655756D01*
X69921415Y-64762688D01*
X69849693Y-64901414D01*
X69766589Y-65065601D01*
X69675411Y-65248916D01*
X69652905Y-65294625D01*
X69560018Y-65481724D01*
X69474028Y-65651284D01*
X69398306Y-65796943D01*
X69336223Y-65912342D01*
X69291150Y-65991120D01*
X69266459Y-66026916D01*
X69263986Y-66028403D01*
X69233163Y-66008856D01*
X69178721Y-65955629D01*
X69111662Y-65879623D01*
X69101978Y-65867888D01*
X69031331Y-65782232D01*
X68970487Y-65709638D01*
X68931907Y-65664962D01*
X68930374Y-65663277D01*
X68894334Y-65621272D01*
X68870749Y-65592721D01*
X69166181Y-65592721D01*
X69180292Y-65606832D01*
X69194403Y-65592721D01*
X69180292Y-65578610D01*
X69166181Y-65592721D01*
X68870749Y-65592721D01*
X68835779Y-65550388D01*
X69109737Y-65550388D01*
X69120063Y-65573618D01*
X69128551Y-65569203D01*
X69131929Y-65535709D01*
X69128551Y-65531573D01*
X69111773Y-65535447D01*
X69109737Y-65550388D01*
X68835779Y-65550388D01*
X68835157Y-65549636D01*
X68764842Y-65462916D01*
X68755763Y-65451610D01*
X68688747Y-65369023D01*
X68635032Y-65304606D01*
X68604586Y-65270274D01*
X68602292Y-65268166D01*
X68576056Y-65238810D01*
X68529854Y-65180650D01*
X68504709Y-65147612D01*
X68478674Y-65112943D01*
X68742848Y-65112943D01*
X68756959Y-65127055D01*
X68771070Y-65112943D01*
X68756959Y-65098832D01*
X68742848Y-65112943D01*
X68478674Y-65112943D01*
X68424775Y-65041170D01*
X67899423Y-65048835D01*
X67711610Y-65052191D01*
X67573144Y-65056439D01*
X67476925Y-65062248D01*
X67415855Y-65070290D01*
X67382835Y-65081235D01*
X67370768Y-65095754D01*
X67370270Y-65098832D01*
X67367765Y-65148290D01*
X67365100Y-65233971D01*
X67363214Y-65319005D01*
X67359959Y-65496844D01*
X67204737Y-65490564D01*
X67049514Y-65484284D01*
X67049514Y-65395166D01*
X67105959Y-65395166D01*
X67120070Y-65409277D01*
X67134181Y-65395166D01*
X67120070Y-65381055D01*
X67105959Y-65395166D01*
X67049514Y-65395166D01*
X67049514Y-64937589D01*
X68549841Y-64937589D01*
X68556708Y-64953361D01*
X68585125Y-64983658D01*
X68601462Y-64977443D01*
X68601737Y-64973498D01*
X68581691Y-64949627D01*
X68569154Y-64940915D01*
X68549841Y-64937589D01*
X67049514Y-64937589D01*
X67049514Y-64915388D01*
X68601737Y-64915388D01*
X68615848Y-64929499D01*
X68629959Y-64915388D01*
X68615848Y-64901277D01*
X68601737Y-64915388D01*
X67049514Y-64915388D01*
X67049514Y-64336832D01*
X67357380Y-64336832D01*
X67374070Y-64717832D01*
X68587626Y-64733234D01*
X68728551Y-64913453D01*
X68796201Y-64995198D01*
X68852070Y-65053968D01*
X68886670Y-65080063D01*
X68891528Y-65080043D01*
X68907097Y-65084163D01*
X68905825Y-65090042D01*
X68917224Y-65123496D01*
X68955425Y-65183103D01*
X69010393Y-65256597D01*
X69072096Y-65331709D01*
X69130501Y-65396174D01*
X69175575Y-65437722D01*
X69196449Y-65445384D01*
X69213911Y-65415420D01*
X69253211Y-65341431D01*
X69311014Y-65229911D01*
X69320324Y-65211721D01*
X69420181Y-65211721D01*
X69430507Y-65234951D01*
X69438996Y-65230536D01*
X69442374Y-65197043D01*
X69438996Y-65192906D01*
X69422218Y-65196780D01*
X69420181Y-65211721D01*
X69320324Y-65211721D01*
X69383981Y-65087355D01*
X69468777Y-64920256D01*
X69528108Y-64802499D01*
X69787070Y-64802499D01*
X69801181Y-64816610D01*
X69815292Y-64802499D01*
X69801181Y-64788388D01*
X69787070Y-64802499D01*
X69528108Y-64802499D01*
X69562064Y-64735108D01*
X69588430Y-64682555D01*
X69599165Y-64661388D01*
X69702403Y-64661388D01*
X69716514Y-64675499D01*
X69730626Y-64661388D01*
X69716514Y-64647277D01*
X69702403Y-64661388D01*
X69599165Y-64661388D01*
X69683694Y-64494716D01*
X69758408Y-64350943D01*
X70012848Y-64350943D01*
X70026959Y-64365055D01*
X70041070Y-64350943D01*
X70182181Y-64350943D01*
X70196292Y-64365055D01*
X70210403Y-64350943D01*
X70196292Y-64336832D01*
X70182181Y-64350943D01*
X70041070Y-64350943D01*
X70026959Y-64336832D01*
X70012848Y-64350943D01*
X69758408Y-64350943D01*
X69772184Y-64324435D01*
X69833445Y-64209832D01*
X69928181Y-64209832D01*
X69942292Y-64223943D01*
X69956403Y-64209832D01*
X69942292Y-64195721D01*
X69928181Y-64209832D01*
X69833445Y-64209832D01*
X69850474Y-64177976D01*
X69915138Y-64061606D01*
X69962747Y-63981590D01*
X69989874Y-63944195D01*
X69993366Y-63942215D01*
X70020431Y-63964754D01*
X70071189Y-64026188D01*
X70138989Y-64117818D01*
X70217184Y-64230941D01*
X70238626Y-64263147D01*
X70317204Y-64379051D01*
X70385760Y-64474462D01*
X70438075Y-64541146D01*
X70467934Y-64570872D01*
X70471459Y-64571432D01*
X70489604Y-64582984D01*
X70492626Y-64604421D01*
X70507769Y-64657163D01*
X70544376Y-64718363D01*
X70589210Y-64771022D01*
X70629036Y-64798138D01*
X70642585Y-64797030D01*
X70657070Y-64798385D01*
X70651269Y-64811074D01*
X70659645Y-64842926D01*
X70693077Y-64909734D01*
X70744421Y-65000097D01*
X70806533Y-65102614D01*
X70872266Y-65205884D01*
X70934476Y-65298505D01*
X70986019Y-65369077D01*
X71019747Y-65406197D01*
X71026096Y-65409177D01*
X71047339Y-65387197D01*
X71094121Y-65326906D01*
X71160231Y-65236659D01*
X71239460Y-65124813D01*
X71268737Y-65082693D01*
X71357519Y-64955521D01*
X71441445Y-64837405D01*
X71512114Y-64740028D01*
X71561126Y-64675072D01*
X71567987Y-64666515D01*
X71625900Y-64589350D01*
X71673021Y-64516062D01*
X71678429Y-64506166D01*
X71714354Y-64446667D01*
X71771239Y-64361729D01*
X71829066Y-64280388D01*
X71900150Y-64183219D01*
X71969001Y-64088944D01*
X72011812Y-64030200D01*
X72080891Y-63935234D01*
X72202872Y-64128977D01*
G36*
X72202872Y-64128977D02*
G01*
X72273401Y-64239066D01*
X72344553Y-64346984D01*
X72401766Y-64430675D01*
X72405267Y-64435610D01*
X72467902Y-64525145D01*
X72540968Y-64631832D01*
X72582764Y-64693881D01*
X72636352Y-64767656D01*
X72679451Y-64815333D01*
X72700691Y-64826471D01*
X72712076Y-64834757D01*
X72708345Y-64850422D01*
X72717186Y-64890390D01*
X72753071Y-64959687D01*
X72807588Y-65042388D01*
X72874208Y-65138377D01*
X72933767Y-65231036D01*
X72967690Y-65289858D01*
X73005830Y-65347485D01*
X73039503Y-65372666D01*
X73044832Y-65372282D01*
X73068300Y-65345840D01*
X73116586Y-65277239D01*
X73185675Y-65172842D01*
X73271552Y-65039015D01*
X73370202Y-64882122D01*
X73477612Y-64708528D01*
X73589764Y-64524597D01*
X73702646Y-64336696D01*
X73773657Y-64216888D01*
X73836532Y-64113558D01*
X73890257Y-64031470D01*
X73927836Y-63980967D01*
X73940670Y-63969943D01*
X73965337Y-63991292D01*
X74014845Y-64048904D01*
X74081204Y-64133128D01*
X74133422Y-64202777D01*
X74229489Y-64332583D01*
X74335612Y-64474734D01*
X74433205Y-64604365D01*
X74460419Y-64640221D01*
X74616154Y-64844832D01*
X75852375Y-64844832D01*
X75868959Y-64435610D01*
X76031237Y-64427146D01*
X76193514Y-64418682D01*
X76193514Y-65609649D01*
X76031237Y-65601185D01*
X75868959Y-65592721D01*
X75860677Y-65388592D01*
X75852394Y-65184463D01*
X75143270Y-65176925D01*
X74434146Y-65169388D01*
X74206108Y-64867318D01*
X74121286Y-64756198D01*
X74048603Y-64663315D01*
X73994714Y-64597000D01*
X73966276Y-64565588D01*
X73963959Y-64564166D01*
X73943855Y-64586156D01*
X73907128Y-64643888D01*
X73877089Y-64696903D01*
X73835875Y-64769370D01*
X73772359Y-64877034D01*
X73694123Y-65007212D01*
X73608753Y-65147217D01*
X73577716Y-65197610D01*
X73427438Y-65441521D01*
X73301273Y-65647686D01*
X73193153Y-65826056D01*
X73125707Y-65938443D01*
X73088109Y-65986111D01*
X73061036Y-66001943D01*
X73040598Y-65979521D01*
X72994013Y-65916987D01*
X72926073Y-65821439D01*
X72841567Y-65699975D01*
X72745288Y-65559694D01*
X72642026Y-65407695D01*
X72536572Y-65251075D01*
X72433717Y-65096933D01*
X72338252Y-64952368D01*
X72254967Y-64824478D01*
X72188655Y-64720360D01*
X72144106Y-64647114D01*
X72132432Y-64626110D01*
X72099584Y-64578035D01*
X72077012Y-64562610D01*
X72050439Y-64583940D01*
X72003010Y-64639627D01*
X71949938Y-64710777D01*
X71892971Y-64791294D01*
X71813543Y-64903505D01*
X71721822Y-65033048D01*
X71627977Y-65165558D01*
X71620448Y-65176189D01*
X71538610Y-65293530D01*
X71470105Y-65395192D01*
X71420926Y-65472016D01*
X71397065Y-65514844D01*
X71395737Y-65519559D01*
X71376739Y-65553719D01*
X71374041Y-65555092D01*
X71348989Y-65581136D01*
X71300991Y-65642419D01*
X71238858Y-65727512D01*
X71214530Y-65762055D01*
X71136573Y-65873495D01*
X71083847Y-65944719D01*
X71048776Y-65981443D01*
X71023784Y-65989382D01*
X71001294Y-65974250D01*
X70974725Y-65942961D01*
X70926287Y-65880162D01*
X70857006Y-65784681D01*
X70773682Y-65666495D01*
X70683116Y-65535583D01*
X70592108Y-65401923D01*
X70507457Y-65275492D01*
X70435964Y-65166269D01*
X70384738Y-65084721D01*
X70464403Y-65084721D01*
X70478514Y-65098832D01*
X70492626Y-65084721D01*
X70478514Y-65070610D01*
X70464403Y-65084721D01*
X70384738Y-65084721D01*
X70384430Y-65084232D01*
X70360962Y-65042388D01*
X70329985Y-64985345D01*
X70280123Y-64904328D01*
X70250548Y-64858943D01*
X70520848Y-64858943D01*
X70534959Y-64873055D01*
X70549070Y-64858943D01*
X70534959Y-64844832D01*
X70520848Y-64858943D01*
X70250548Y-64858943D01*
X70219581Y-64811425D01*
X70213514Y-64802499D01*
X70379737Y-64802499D01*
X70393848Y-64816610D01*
X70407959Y-64802499D01*
X70393848Y-64788388D01*
X70379737Y-64802499D01*
X70213514Y-64802499D01*
X70156567Y-64718723D01*
X70099286Y-64638307D01*
X70073484Y-64604943D01*
X70351514Y-64604943D01*
X70365626Y-64619055D01*
X70379737Y-64604943D01*
X70365626Y-64590832D01*
X70351514Y-64604943D01*
X70073484Y-64604943D01*
X70055946Y-64582265D01*
X70035209Y-64562610D01*
X70017481Y-64586952D01*
X69978447Y-64655756D01*
X69921415Y-64762688D01*
X69849693Y-64901414D01*
X69766589Y-65065601D01*
X69675411Y-65248916D01*
X69652905Y-65294625D01*
X69560018Y-65481724D01*
X69474028Y-65651284D01*
X69398306Y-65796943D01*
X69336223Y-65912342D01*
X69291150Y-65991120D01*
X69266459Y-66026916D01*
X69263986Y-66028403D01*
X69233163Y-66008856D01*
X69178721Y-65955629D01*
X69111662Y-65879623D01*
X69101978Y-65867888D01*
X69031331Y-65782232D01*
X68970487Y-65709638D01*
X68931907Y-65664962D01*
X68930374Y-65663277D01*
X68894334Y-65621272D01*
X68870749Y-65592721D01*
X69166181Y-65592721D01*
X69180292Y-65606832D01*
X69194403Y-65592721D01*
X69180292Y-65578610D01*
X69166181Y-65592721D01*
X68870749Y-65592721D01*
X68835779Y-65550388D01*
X69109737Y-65550388D01*
X69120063Y-65573618D01*
X69128551Y-65569203D01*
X69131929Y-65535709D01*
X69128551Y-65531573D01*
X69111773Y-65535447D01*
X69109737Y-65550388D01*
X68835779Y-65550388D01*
X68835157Y-65549636D01*
X68764842Y-65462916D01*
X68755763Y-65451610D01*
X68688747Y-65369023D01*
X68635032Y-65304606D01*
X68604586Y-65270274D01*
X68602292Y-65268166D01*
X68576056Y-65238810D01*
X68529854Y-65180650D01*
X68504709Y-65147612D01*
X68478674Y-65112943D01*
X68742848Y-65112943D01*
X68756959Y-65127055D01*
X68771070Y-65112943D01*
X68756959Y-65098832D01*
X68742848Y-65112943D01*
X68478674Y-65112943D01*
X68424775Y-65041170D01*
X67899423Y-65048835D01*
X67711610Y-65052191D01*
X67573144Y-65056439D01*
X67476925Y-65062248D01*
X67415855Y-65070290D01*
X67382835Y-65081235D01*
X67370768Y-65095754D01*
X67370270Y-65098832D01*
X67367765Y-65148290D01*
X67365100Y-65233971D01*
X67363214Y-65319005D01*
X67359959Y-65496844D01*
X67204737Y-65490564D01*
X67049514Y-65484284D01*
X67049514Y-65395166D01*
X67105959Y-65395166D01*
X67120070Y-65409277D01*
X67134181Y-65395166D01*
X67120070Y-65381055D01*
X67105959Y-65395166D01*
X67049514Y-65395166D01*
X67049514Y-64937589D01*
X68549841Y-64937589D01*
X68556708Y-64953361D01*
X68585125Y-64983658D01*
X68601462Y-64977443D01*
X68601737Y-64973498D01*
X68581691Y-64949627D01*
X68569154Y-64940915D01*
X68549841Y-64937589D01*
X67049514Y-64937589D01*
X67049514Y-64915388D01*
X68601737Y-64915388D01*
X68615848Y-64929499D01*
X68629959Y-64915388D01*
X68615848Y-64901277D01*
X68601737Y-64915388D01*
X67049514Y-64915388D01*
X67049514Y-64336832D01*
X67357380Y-64336832D01*
X67374070Y-64717832D01*
X68587626Y-64733234D01*
X68728551Y-64913453D01*
X68796201Y-64995198D01*
X68852070Y-65053968D01*
X68886670Y-65080063D01*
X68891528Y-65080043D01*
X68907097Y-65084163D01*
X68905825Y-65090042D01*
X68917224Y-65123496D01*
X68955425Y-65183103D01*
X69010393Y-65256597D01*
X69072096Y-65331709D01*
X69130501Y-65396174D01*
X69175575Y-65437722D01*
X69196449Y-65445384D01*
X69213911Y-65415420D01*
X69253211Y-65341431D01*
X69311014Y-65229911D01*
X69320324Y-65211721D01*
X69420181Y-65211721D01*
X69430507Y-65234951D01*
X69438996Y-65230536D01*
X69442374Y-65197043D01*
X69438996Y-65192906D01*
X69422218Y-65196780D01*
X69420181Y-65211721D01*
X69320324Y-65211721D01*
X69383981Y-65087355D01*
X69468777Y-64920256D01*
X69528108Y-64802499D01*
X69787070Y-64802499D01*
X69801181Y-64816610D01*
X69815292Y-64802499D01*
X69801181Y-64788388D01*
X69787070Y-64802499D01*
X69528108Y-64802499D01*
X69562064Y-64735108D01*
X69588430Y-64682555D01*
X69599165Y-64661388D01*
X69702403Y-64661388D01*
X69716514Y-64675499D01*
X69730626Y-64661388D01*
X69716514Y-64647277D01*
X69702403Y-64661388D01*
X69599165Y-64661388D01*
X69683694Y-64494716D01*
X69758408Y-64350943D01*
X70012848Y-64350943D01*
X70026959Y-64365055D01*
X70041070Y-64350943D01*
X70182181Y-64350943D01*
X70196292Y-64365055D01*
X70210403Y-64350943D01*
X70196292Y-64336832D01*
X70182181Y-64350943D01*
X70041070Y-64350943D01*
X70026959Y-64336832D01*
X70012848Y-64350943D01*
X69758408Y-64350943D01*
X69772184Y-64324435D01*
X69833445Y-64209832D01*
X69928181Y-64209832D01*
X69942292Y-64223943D01*
X69956403Y-64209832D01*
X69942292Y-64195721D01*
X69928181Y-64209832D01*
X69833445Y-64209832D01*
X69850474Y-64177976D01*
X69915138Y-64061606D01*
X69962747Y-63981590D01*
X69989874Y-63944195D01*
X69993366Y-63942215D01*
X70020431Y-63964754D01*
X70071189Y-64026188D01*
X70138989Y-64117818D01*
X70217184Y-64230941D01*
X70238626Y-64263147D01*
X70317204Y-64379051D01*
X70385760Y-64474462D01*
X70438075Y-64541146D01*
X70467934Y-64570872D01*
X70471459Y-64571432D01*
X70489604Y-64582984D01*
X70492626Y-64604421D01*
X70507769Y-64657163D01*
X70544376Y-64718363D01*
X70589210Y-64771022D01*
X70629036Y-64798138D01*
X70642585Y-64797030D01*
X70657070Y-64798385D01*
X70651269Y-64811074D01*
X70659645Y-64842926D01*
X70693077Y-64909734D01*
X70744421Y-65000097D01*
X70806533Y-65102614D01*
X70872266Y-65205884D01*
X70934476Y-65298505D01*
X70986019Y-65369077D01*
X71019747Y-65406197D01*
X71026096Y-65409177D01*
X71047339Y-65387197D01*
X71094121Y-65326906D01*
X71160231Y-65236659D01*
X71239460Y-65124813D01*
X71268737Y-65082693D01*
X71357519Y-64955521D01*
X71441445Y-64837405D01*
X71512114Y-64740028D01*
X71561126Y-64675072D01*
X71567987Y-64666515D01*
X71625900Y-64589350D01*
X71673021Y-64516062D01*
X71678429Y-64506166D01*
X71714354Y-64446667D01*
X71771239Y-64361729D01*
X71829066Y-64280388D01*
X71900150Y-64183219D01*
X71969001Y-64088944D01*
X72011812Y-64030200D01*
X72080891Y-63935234D01*
X72202872Y-64128977D01*
G37*
D11*
%TO.C,R6*%
X75072500Y-94062776D02*
X75072500Y-94572224D01*
X74027500Y-94062776D02*
X74027500Y-94572224D01*
D12*
%TO.C,J4*%
X68010000Y-102070000D02*
X70610000Y-102070000D01*
D10*
%TO.C,U1*%
X55412500Y-102460000D02*
X50342500Y-102460000D01*
X54482500Y-97320000D02*
X50342500Y-97320000D01*
D15*
%TO.C,U6*%
X45640000Y-91440600D02*
X45640000Y-86919400D01*
X40560000Y-89484800D02*
X40560000Y-91440600D01*
X40560000Y-88875200D02*
X40560000Y-89484800D01*
X40560000Y-86919400D02*
X40560000Y-88875200D01*
X40560000Y-89484800D02*
G75*
G03*
X40560000Y-88875200I0J304800D01*
G01*
D11*
%TO.C,C3*%
X57641233Y-102505000D02*
X57933767Y-102505000D01*
X57641233Y-103525000D02*
X57933767Y-103525000D01*
%TO.C,D19*%
X49850000Y-84950000D02*
X47890000Y-84950000D01*
X49850000Y-83750000D02*
X47890000Y-83750000D01*
X47890000Y-83750000D02*
X47890000Y-84950000D01*
%TO.C,R5*%
X59277064Y-106050000D02*
X57822936Y-106050000D01*
X59277064Y-104230000D02*
X57822936Y-104230000D01*
%TO.C,R28*%
X96947500Y-70112224D02*
X96947500Y-69602776D01*
X97992500Y-70112224D02*
X97992500Y-69602776D01*
%TO.C,C18*%
X48985000Y-78730000D02*
X47115000Y-78730000D01*
X47115000Y-78730000D02*
X47115000Y-82640000D01*
X48985000Y-82640000D02*
X48985000Y-78730000D01*
%TO.C,L1*%
X42525000Y-103825000D02*
X42525000Y-96925000D01*
X47625000Y-103825000D02*
X47625000Y-96925000D01*
%TO.C,J7*%
X84150000Y-61430000D02*
X84150000Y-60100000D01*
X85480000Y-61430000D02*
X84150000Y-61430000D01*
X86750000Y-61430000D02*
X104590000Y-61430000D01*
X86750000Y-61430000D02*
X86750000Y-58770000D01*
X104590000Y-61430000D02*
X104590000Y-58770000D01*
X86750000Y-58770000D02*
X104590000Y-58770000D01*
%TO.C,R3*%
X57545276Y-100967500D02*
X58054724Y-100967500D01*
X57545276Y-102012500D02*
X58054724Y-102012500D01*
%TO.C,D18*%
X47900000Y-85270000D02*
X47900000Y-86470000D01*
X49860000Y-85270000D02*
X47900000Y-85270000D01*
X49860000Y-86470000D02*
X47900000Y-86470000D01*
%TO.C,IC1*%
X44940000Y-76527500D02*
X44940000Y-78327500D01*
X44940000Y-76527500D02*
X44940000Y-75727500D01*
X48060000Y-76527500D02*
X48060000Y-77327500D01*
X48060000Y-76527500D02*
X48060000Y-75727500D01*
%TO.C,C15*%
X98483733Y-71940000D02*
X98776267Y-71940000D01*
X98483733Y-72960000D02*
X98776267Y-72960000D01*
%TO.C,R15*%
X93777500Y-66717224D02*
X93777500Y-66207776D01*
X94822500Y-66717224D02*
X94822500Y-66207776D01*
%TO.C,R23*%
X98957500Y-75304724D02*
X98957500Y-74795276D01*
X100002500Y-75304724D02*
X100002500Y-74795276D01*
%TO.C,R25*%
X98435276Y-77027500D02*
X98944724Y-77027500D01*
X98435276Y-78072500D02*
X98944724Y-78072500D01*
%TO.C,C2*%
X49740000Y-62785000D02*
X51610000Y-62785000D01*
X51610000Y-62785000D02*
X51610000Y-58700000D01*
X49740000Y-58700000D02*
X49740000Y-62785000D01*
%TO.C,R27*%
X44952500Y-80594724D02*
X44952500Y-80085276D01*
X45997500Y-80594724D02*
X45997500Y-80085276D01*
%TO.C,D4*%
X49300000Y-58040000D02*
X47300000Y-58040000D01*
X49300000Y-58040000D02*
X49300000Y-62050000D01*
X47300000Y-58040000D02*
X47300000Y-62050000D01*
%TO.C,J12*%
X40685000Y-57865000D02*
X42065000Y-57865000D01*
X42065000Y-57815000D02*
X42065000Y-57865000D01*
X42065000Y-57815000D02*
X44485000Y-57815000D01*
X42065000Y-60885000D02*
X42065000Y-60935000D01*
X42065000Y-60935000D02*
X44485000Y-60935000D01*
X44485000Y-57815000D02*
X44485000Y-57865000D01*
X44485000Y-60885000D02*
X44485000Y-60935000D01*
%TO.C,C22*%
X47285000Y-87973733D02*
X47285000Y-88266267D01*
X46265000Y-87973733D02*
X46265000Y-88266267D01*
%TO.C,C16*%
X98425000Y-71505000D02*
X100295000Y-71505000D01*
X100295000Y-71505000D02*
X100295000Y-67420000D01*
X98425000Y-67420000D02*
X98425000Y-71505000D01*
%TO.C,C19*%
X49575000Y-81786267D02*
X49575000Y-81493733D01*
X50595000Y-81786267D02*
X50595000Y-81493733D01*
%TO.C,D20*%
X98195000Y-64800000D02*
X96725000Y-64800000D01*
X96725000Y-64800000D02*
X96725000Y-67260000D01*
X98195000Y-67260000D02*
X98195000Y-64800000D01*
D12*
%TO.C,U5*%
X108180000Y-80200000D02*
X108180000Y-98200000D01*
X101460000Y-80200000D02*
X108180000Y-80200000D01*
X83410000Y-80200000D02*
X82680000Y-80200000D01*
X82680000Y-80200000D02*
X82680000Y-81445000D01*
X108180000Y-98200000D02*
X101460000Y-98200000D01*
X83410000Y-98200000D02*
X82680000Y-98200000D01*
X82680000Y-98200000D02*
X82680000Y-96955000D01*
D13*
X100790000Y-79000000D02*
G75*
G03*
X100790000Y-79000000I-100000J0D01*
G01*
D11*
%TO.C,R1*%
X49497500Y-108710276D02*
X49497500Y-109219724D01*
X48452500Y-108710276D02*
X48452500Y-109219724D01*
%TO.C,C4*%
X60935000Y-97193733D02*
X60935000Y-97486267D01*
X59915000Y-97193733D02*
X59915000Y-97486267D01*
%TO.C,Q2*%
X50935000Y-91945000D02*
X50935000Y-89515000D01*
X50925000Y-91965000D02*
X49925000Y-91965000D01*
X48925000Y-91965000D02*
X47875000Y-91965000D01*
X47875000Y-91965000D02*
X47875000Y-90115000D01*
%TO.C,J9*%
X57210000Y-61430000D02*
X57210000Y-60100000D01*
X58540000Y-61430000D02*
X57210000Y-61430000D01*
X59810000Y-61430000D02*
X82730000Y-61430000D01*
X59810000Y-61430000D02*
X59810000Y-58770000D01*
X82730000Y-61430000D02*
X82730000Y-58770000D01*
X59810000Y-58770000D02*
X82730000Y-58770000D01*
%TO.C,J11*%
X89250000Y-106090000D02*
X89250000Y-104760000D01*
X90580000Y-106090000D02*
X89250000Y-106090000D01*
X91850000Y-106090000D02*
X102070000Y-106090000D01*
X91850000Y-106090000D02*
X91850000Y-103430000D01*
X102070000Y-106090000D02*
X102070000Y-103430000D01*
X91850000Y-103430000D02*
X102070000Y-103430000D01*
%TO.C,R8*%
X78182500Y-94052776D02*
X78182500Y-94562224D01*
X77137500Y-94052776D02*
X77137500Y-94562224D01*
%TO.C,C17*%
X98410000Y-74913733D02*
X98410000Y-75206267D01*
X97390000Y-74913733D02*
X97390000Y-75206267D01*
D12*
%TO.C,U2*%
X78120000Y-75000000D02*
X78120000Y-91000000D01*
X62120000Y-75000000D02*
X62120000Y-91000000D01*
D13*
X77270000Y-72850000D02*
G75*
G03*
X77270000Y-72850000I-100000J0D01*
G01*
D12*
%TO.C,S2*%
X89860000Y-72002500D02*
X89860000Y-76902500D01*
X95300000Y-72002500D02*
X95300000Y-76902500D01*
D13*
X90780000Y-79102500D02*
G75*
G03*
X90780000Y-79102500I-100000J0D01*
G01*
D11*
%TO.C,D17*%
X47350000Y-90470000D02*
X46150000Y-90470000D01*
X47350000Y-92430000D02*
X47350000Y-90470000D01*
X46150000Y-92430000D02*
X46150000Y-90470000D01*
%TD*%
M02*
