%TF.GenerationSoftware,KiCad,Pcbnew,7.0.6*%
%TF.CreationDate,2024-02-07T19:17:44+08:00*%
%TF.ProjectId,PCB_Main_Board_ESP32S3_RFM95,5043425f-4d61-4696-9e5f-426f6172645f,rev?*%
%TF.SameCoordinates,Original*%
%TF.FileFunction,Drillmap*%
%TF.FilePolarity,Positive*%
%FSLAX45Y45*%
G04 Gerber Fmt 4.5, Leading zero omitted, Abs format (unit mm)*
G04 Created by KiCad (PCBNEW 7.0.6) date 2024-02-07 19:17:44*
%MOMM*%
%LPD*%
G01*
G04 APERTURE LIST*
%ADD10C,0.050000*%
%ADD11C,0.200000*%
%ADD12C,0.030000*%
%ADD13C,0.065000*%
%ADD14C,0.100000*%
G04 APERTURE END LIST*
D10*
X3952240Y-11115040D02*
X3952240Y-5730240D01*
X10609580Y-7053580D02*
X10861040Y-7305040D01*
X10607040Y-5908040D02*
X10609580Y-7053580D01*
X10607040Y-10835640D02*
X10607040Y-11115040D01*
X10861040Y-10581640D02*
X10607040Y-10835640D01*
X10429240Y-5730240D02*
X10607040Y-5908040D01*
X10607040Y-11115040D02*
X3952240Y-11115040D01*
X10861040Y-7305040D02*
X10861040Y-10581640D01*
X3952240Y-5730240D02*
X10429240Y-5730240D01*
D11*
D12*
X4097500Y-9371500D02*
X4127500Y-9401500D01*
X4127500Y-9371500D02*
X4097500Y-9401500D01*
X4097500Y-9439000D02*
X4127500Y-9469000D01*
X4127500Y-9439000D02*
X4097500Y-9469000D01*
X4125000Y-9759000D02*
X4155000Y-9789000D01*
X4155000Y-9759000D02*
X4125000Y-9789000D01*
X4125000Y-9826500D02*
X4155000Y-9856500D01*
X4155000Y-9826500D02*
X4125000Y-9856500D01*
X4125000Y-9894000D02*
X4155000Y-9924000D01*
X4155000Y-9894000D02*
X4125000Y-9924000D01*
X4140000Y-5822500D02*
X4170000Y-5852500D01*
X4170000Y-5822500D02*
X4140000Y-5852500D01*
X4175000Y-9619000D02*
X4205000Y-9649000D01*
X4205000Y-9619000D02*
X4175000Y-9649000D01*
X4180000Y-6930000D02*
X4210000Y-6960000D01*
X4210000Y-6930000D02*
X4180000Y-6960000D01*
X4185000Y-5925000D02*
X4215000Y-5955000D01*
X4215000Y-5925000D02*
X4185000Y-5955000D01*
X4192500Y-9050000D02*
X4222500Y-9080000D01*
X4222500Y-9050000D02*
X4192500Y-9080000D01*
X4222500Y-8089000D02*
X4252500Y-8119000D01*
X4252500Y-8089000D02*
X4222500Y-8119000D01*
X4227500Y-6022500D02*
X4257500Y-6052500D01*
X4257500Y-6022500D02*
X4227500Y-6052500D01*
X4257500Y-7636500D02*
X4287500Y-7666500D01*
X4287500Y-7636500D02*
X4257500Y-7666500D01*
X4278750Y-6542500D02*
X4308750Y-6572500D01*
X4308750Y-6542500D02*
X4278750Y-6572500D01*
X4282500Y-8089000D02*
X4312500Y-8119000D01*
X4312500Y-8089000D02*
X4282500Y-8119000D01*
X4282500Y-9336500D02*
X4312500Y-9366500D01*
X4312500Y-9336500D02*
X4282500Y-9366500D01*
X4285000Y-9411500D02*
X4315000Y-9441500D01*
X4315000Y-9411500D02*
X4285000Y-9441500D01*
X4287500Y-8771500D02*
X4317500Y-8801500D01*
X4317500Y-8771500D02*
X4287500Y-8801500D01*
X4330000Y-7636500D02*
X4360000Y-7666500D01*
X4360000Y-7636500D02*
X4330000Y-7666500D01*
X4330000Y-9474000D02*
X4360000Y-9504000D01*
X4360000Y-9474000D02*
X4330000Y-9504000D01*
X4347500Y-8089000D02*
X4377500Y-8119000D01*
X4377500Y-8089000D02*
X4347500Y-8119000D01*
X4352500Y-8849000D02*
X4382500Y-8879000D01*
X4382500Y-8849000D02*
X4352500Y-8879000D01*
X4387500Y-8754000D02*
X4417500Y-8784000D01*
X4417500Y-8754000D02*
X4387500Y-8784000D01*
X4410000Y-8824000D02*
X4440000Y-8854000D01*
X4440000Y-8824000D02*
X4410000Y-8854000D01*
X4415000Y-5925000D02*
X4445000Y-5955000D01*
X4445000Y-5925000D02*
X4415000Y-5955000D01*
X4420000Y-9049000D02*
X4450000Y-9079000D01*
X4450000Y-9049000D02*
X4420000Y-9079000D01*
X4477500Y-5822500D02*
X4507500Y-5852500D01*
X4507500Y-5822500D02*
X4477500Y-5852500D01*
X4490000Y-8754000D02*
X4520000Y-8784000D01*
X4520000Y-8754000D02*
X4490000Y-8784000D01*
X4502500Y-9306500D02*
X4532500Y-9336500D01*
X4532500Y-9306500D02*
X4502500Y-9336500D01*
X4535000Y-8111500D02*
X4565000Y-8141500D01*
X4565000Y-8111500D02*
X4535000Y-8141500D01*
X4540000Y-7479000D02*
X4570000Y-7509000D01*
X4570000Y-7479000D02*
X4540000Y-7509000D01*
X4540000Y-7546500D02*
X4570000Y-7576500D01*
X4570000Y-7546500D02*
X4540000Y-7576500D01*
X4550000Y-5822500D02*
X4580000Y-5852500D01*
X4580000Y-5822500D02*
X4550000Y-5852500D01*
X4562500Y-9334000D02*
X4592500Y-9364000D01*
X4592500Y-9334000D02*
X4562500Y-9364000D01*
X4579000Y-7032000D02*
X4609000Y-7062000D01*
X4609000Y-7032000D02*
X4579000Y-7062000D01*
X4584000Y-6552500D02*
X4614000Y-6582500D01*
X4614000Y-6552500D02*
X4584000Y-6582500D01*
X4614000Y-8577000D02*
X4644000Y-8607000D01*
X4644000Y-8577000D02*
X4614000Y-8607000D01*
X4630000Y-8426500D02*
X4660000Y-8456500D01*
X4660000Y-8426500D02*
X4630000Y-8456500D01*
X4641000Y-7032500D02*
X4671000Y-7062500D01*
X4671000Y-7032500D02*
X4641000Y-7062500D01*
X4642000Y-8642000D02*
X4672000Y-8672000D01*
X4672000Y-8642000D02*
X4642000Y-8672000D01*
X4645000Y-6552000D02*
X4675000Y-6582000D01*
X4675000Y-6552000D02*
X4645000Y-6582000D01*
X4646250Y-9585000D02*
X4676250Y-9615000D01*
X4676250Y-9585000D02*
X4646250Y-9615000D01*
X4647000Y-8717000D02*
X4677000Y-8747000D01*
X4677000Y-8717000D02*
X4647000Y-8747000D01*
X4654125Y-9418125D02*
X4684125Y-9448125D01*
X4684125Y-9418125D02*
X4654125Y-9448125D01*
X4730000Y-7751500D02*
X4760000Y-7781500D01*
X4760000Y-7751500D02*
X4730000Y-7781500D01*
X4821000Y-6942500D02*
X4851000Y-6972500D01*
X4851000Y-6942500D02*
X4821000Y-6972500D01*
X4821000Y-7015000D02*
X4851000Y-7045000D01*
X4851000Y-7015000D02*
X4821000Y-7045000D01*
X4869000Y-8639000D02*
X4899000Y-8669000D01*
X4899000Y-8639000D02*
X4869000Y-8669000D01*
X4885000Y-10687500D02*
X4915000Y-10717500D01*
X4915000Y-10687500D02*
X4885000Y-10717500D01*
X4885000Y-10979000D02*
X4915000Y-11009000D01*
X4915000Y-10979000D02*
X4885000Y-11009000D01*
X4887500Y-10618750D02*
X4917500Y-10648750D01*
X4917500Y-10618750D02*
X4887500Y-10648750D01*
X4908145Y-9582105D02*
X4938145Y-9612105D01*
X4938145Y-9582105D02*
X4908145Y-9612105D01*
X4912000Y-8683000D02*
X4942000Y-8713000D01*
X4942000Y-8683000D02*
X4912000Y-8713000D01*
X4945000Y-9874000D02*
X4975000Y-9904000D01*
X4975000Y-9874000D02*
X4945000Y-9904000D01*
X4950000Y-6392500D02*
X4980000Y-6422500D01*
X4980000Y-6392500D02*
X4950000Y-6422500D01*
X4950000Y-6445000D02*
X4980000Y-6475000D01*
X4980000Y-6445000D02*
X4950000Y-6475000D01*
X4952500Y-10072500D02*
X4982500Y-10102500D01*
X4982500Y-10072500D02*
X4952500Y-10102500D01*
X4962500Y-6337500D02*
X4992500Y-6367500D01*
X4992500Y-6337500D02*
X4962500Y-6367500D01*
X4982500Y-7574000D02*
X5012500Y-7604000D01*
X5012500Y-7574000D02*
X4982500Y-7604000D01*
X4982500Y-7649000D02*
X5012500Y-7679000D01*
X5012500Y-7649000D02*
X4982500Y-7679000D01*
X4987500Y-5801500D02*
X5017500Y-5831500D01*
X5017500Y-5801500D02*
X4987500Y-5831500D01*
X4998750Y-9762750D02*
X5028750Y-9792750D01*
X5028750Y-9762750D02*
X4998750Y-9792750D01*
X5000000Y-8420000D02*
X5030000Y-8450000D01*
X5030000Y-8420000D02*
X5000000Y-8450000D01*
X5000000Y-9874000D02*
X5030000Y-9904000D01*
X5030000Y-9874000D02*
X5000000Y-9904000D01*
X5000000Y-10074000D02*
X5030000Y-10104000D01*
X5030000Y-10074000D02*
X5000000Y-10104000D01*
X5001000Y-8572000D02*
X5031000Y-8602000D01*
X5031000Y-8572000D02*
X5001000Y-8602000D01*
X5010000Y-7874000D02*
X5040000Y-7904000D01*
X5040000Y-7874000D02*
X5010000Y-7904000D01*
X5012500Y-7804000D02*
X5042500Y-7834000D01*
X5042500Y-7804000D02*
X5012500Y-7834000D01*
X5035000Y-9461500D02*
X5065000Y-9491500D01*
X5065000Y-9461500D02*
X5035000Y-9491500D01*
X5055000Y-9564000D02*
X5085000Y-9594000D01*
X5085000Y-9564000D02*
X5055000Y-9594000D01*
X5060000Y-5801500D02*
X5090000Y-5831500D01*
X5090000Y-5801500D02*
X5060000Y-5831500D01*
X5060000Y-7574000D02*
X5090000Y-7604000D01*
X5090000Y-7574000D02*
X5060000Y-7604000D01*
X5060000Y-7649000D02*
X5090000Y-7679000D01*
X5090000Y-7649000D02*
X5060000Y-7679000D01*
X5085000Y-7804000D02*
X5115000Y-7834000D01*
X5115000Y-7804000D02*
X5085000Y-7834000D01*
X5085000Y-7874000D02*
X5115000Y-7904000D01*
X5115000Y-7874000D02*
X5085000Y-7904000D01*
X5102000Y-6464000D02*
X5132000Y-6494000D01*
X5132000Y-6464000D02*
X5102000Y-6494000D01*
X5112500Y-10153000D02*
X5142500Y-10183000D01*
X5142500Y-10153000D02*
X5112500Y-10183000D01*
X5115050Y-10372500D02*
X5145050Y-10402500D01*
X5145050Y-10372500D02*
X5115050Y-10402500D01*
X5132500Y-5801500D02*
X5162500Y-5831500D01*
X5162500Y-5801500D02*
X5132500Y-5831500D01*
X5135500Y-10209500D02*
X5165500Y-10239500D01*
X5165500Y-10209500D02*
X5135500Y-10239500D01*
X5185000Y-10372500D02*
X5215000Y-10402500D01*
X5215000Y-10372500D02*
X5185000Y-10402500D01*
X5240000Y-10073000D02*
X5270000Y-10103000D01*
X5270000Y-10073000D02*
X5240000Y-10103000D01*
X5248000Y-6613000D02*
X5278000Y-6643000D01*
X5278000Y-6613000D02*
X5248000Y-6643000D01*
X5255000Y-10140000D02*
X5285000Y-10170000D01*
X5285000Y-10140000D02*
X5255000Y-10170000D01*
X5297500Y-7230000D02*
X5327500Y-7260000D01*
X5327500Y-7230000D02*
X5297500Y-7260000D01*
X5300000Y-7307500D02*
X5330000Y-7337500D01*
X5330000Y-7307500D02*
X5300000Y-7337500D01*
X5327500Y-10074000D02*
X5357500Y-10104000D01*
X5357500Y-10074000D02*
X5327500Y-10104000D01*
X5328000Y-10144000D02*
X5358000Y-10174000D01*
X5358000Y-10144000D02*
X5328000Y-10174000D01*
X5370000Y-7230000D02*
X5400000Y-7260000D01*
X5400000Y-7230000D02*
X5370000Y-7260000D01*
X5372500Y-7307500D02*
X5402500Y-7337500D01*
X5402500Y-7307500D02*
X5372500Y-7337500D01*
X5395000Y-6730000D02*
X5425000Y-6760000D01*
X5425000Y-6730000D02*
X5395000Y-6760000D01*
X5412500Y-8266500D02*
X5442500Y-8296500D01*
X5442500Y-8266500D02*
X5412500Y-8296500D01*
X5412500Y-8336500D02*
X5442500Y-8366500D01*
X5442500Y-8336500D02*
X5412500Y-8366500D01*
X5412500Y-8406500D02*
X5442500Y-8436500D01*
X5442500Y-8406500D02*
X5412500Y-8436500D01*
X5447500Y-7232500D02*
X5477500Y-7262500D01*
X5477500Y-7232500D02*
X5447500Y-7262500D01*
X5450000Y-7310000D02*
X5480000Y-7340000D01*
X5480000Y-7310000D02*
X5450000Y-7340000D01*
X5455000Y-8616500D02*
X5485000Y-8646500D01*
X5485000Y-8616500D02*
X5455000Y-8646500D01*
X5465000Y-6792500D02*
X5495000Y-6822500D01*
X5495000Y-6792500D02*
X5465000Y-6822500D01*
X5467500Y-9647000D02*
X5497500Y-9677000D01*
X5497500Y-9647000D02*
X5467500Y-9677000D01*
X5487500Y-10176500D02*
X5517500Y-10206500D01*
X5517500Y-10176500D02*
X5487500Y-10206500D01*
X5520000Y-6395000D02*
X5550000Y-6425000D01*
X5550000Y-6395000D02*
X5520000Y-6425000D01*
X5520000Y-7232500D02*
X5550000Y-7262500D01*
X5550000Y-7232500D02*
X5520000Y-7262500D01*
X5522500Y-7310000D02*
X5552500Y-7340000D01*
X5552500Y-7310000D02*
X5522500Y-7340000D01*
X5527500Y-8619000D02*
X5557500Y-8649000D01*
X5557500Y-8619000D02*
X5527500Y-8649000D01*
X5532500Y-9674000D02*
X5562500Y-9704000D01*
X5562500Y-9674000D02*
X5532500Y-9704000D01*
X5557500Y-8781500D02*
X5587500Y-8811500D01*
X5587500Y-8781500D02*
X5557500Y-8811500D01*
X5560000Y-8941500D02*
X5590000Y-8971500D01*
X5590000Y-8941500D02*
X5560000Y-8971500D01*
X5575000Y-6507500D02*
X5605000Y-6537500D01*
X5605000Y-6507500D02*
X5575000Y-6537500D01*
X5627500Y-7504000D02*
X5657500Y-7534000D01*
X5657500Y-7504000D02*
X5627500Y-7534000D01*
X5627500Y-7586500D02*
X5657500Y-7616500D01*
X5657500Y-7586500D02*
X5627500Y-7616500D01*
X5627500Y-7669000D02*
X5657500Y-7699000D01*
X5657500Y-7669000D02*
X5627500Y-7699000D01*
X5655000Y-10271500D02*
X5685000Y-10301500D01*
X5685000Y-10271500D02*
X5655000Y-10301500D01*
X5685000Y-10445000D02*
X5715000Y-10475000D01*
X5715000Y-10445000D02*
X5685000Y-10475000D01*
X5685000Y-10497500D02*
X5715000Y-10527500D01*
X5715000Y-10497500D02*
X5685000Y-10527500D01*
X5697500Y-10301500D02*
X5727500Y-10331500D01*
X5727500Y-10301500D02*
X5697500Y-10331500D01*
X5705000Y-6527500D02*
X5735000Y-6557500D01*
X5735000Y-6527500D02*
X5705000Y-6557500D01*
X5710000Y-7504000D02*
X5740000Y-7534000D01*
X5740000Y-7504000D02*
X5710000Y-7534000D01*
X5712500Y-7584000D02*
X5742500Y-7614000D01*
X5742500Y-7584000D02*
X5712500Y-7614000D01*
X5712500Y-7666500D02*
X5742500Y-7696500D01*
X5742500Y-7666500D02*
X5712500Y-7696500D01*
X5730000Y-8664000D02*
X5760000Y-8694000D01*
X5760000Y-8664000D02*
X5730000Y-8694000D01*
X5735000Y-8724000D02*
X5765000Y-8754000D01*
X5765000Y-8724000D02*
X5735000Y-8754000D01*
X5745000Y-9494000D02*
X5775000Y-9524000D01*
X5775000Y-9494000D02*
X5745000Y-9524000D01*
X5746250Y-9336500D02*
X5776250Y-9366500D01*
X5776250Y-9336500D02*
X5746250Y-9366500D01*
X5747500Y-8781500D02*
X5777500Y-8811500D01*
X5777500Y-8781500D02*
X5747500Y-8811500D01*
X5845000Y-10284000D02*
X5875000Y-10314000D01*
X5875000Y-10284000D02*
X5845000Y-10314000D01*
X5947000Y-9481000D02*
X5977000Y-9511000D01*
X5977000Y-9481000D02*
X5947000Y-9511000D01*
X5955000Y-5789000D02*
X5985000Y-5819000D01*
X5985000Y-5789000D02*
X5955000Y-5819000D01*
X6002500Y-6700000D02*
X6032500Y-6730000D01*
X6032500Y-6700000D02*
X6002500Y-6730000D01*
X6025000Y-10446500D02*
X6055000Y-10476500D01*
X6055000Y-10446500D02*
X6025000Y-10476500D01*
X6025000Y-10519000D02*
X6055000Y-10549000D01*
X6055000Y-10519000D02*
X6025000Y-10549000D01*
X6030000Y-5789000D02*
X6060000Y-5819000D01*
X6060000Y-5789000D02*
X6030000Y-5819000D01*
X6045000Y-10219000D02*
X6075000Y-10249000D01*
X6075000Y-10219000D02*
X6045000Y-10249000D01*
X6045000Y-10294000D02*
X6075000Y-10324000D01*
X6075000Y-10294000D02*
X6045000Y-10324000D01*
X6072500Y-10941500D02*
X6102500Y-10971500D01*
X6102500Y-10941500D02*
X6072500Y-10971500D01*
X6072500Y-11014000D02*
X6102500Y-11044000D01*
X6102500Y-11014000D02*
X6072500Y-11044000D01*
X6092500Y-6697500D02*
X6122500Y-6727500D01*
X6122500Y-6697500D02*
X6092500Y-6727500D01*
X6102500Y-5789000D02*
X6132500Y-5819000D01*
X6132500Y-5789000D02*
X6102500Y-5819000D01*
X6175000Y-5789000D02*
X6205000Y-5819000D01*
X6205000Y-5789000D02*
X6175000Y-5819000D01*
X6212500Y-10916500D02*
X6242500Y-10946500D01*
X6242500Y-10916500D02*
X6212500Y-10946500D01*
X6212500Y-10989000D02*
X6242500Y-11019000D01*
X6242500Y-10989000D02*
X6212500Y-11019000D01*
X6265000Y-5789000D02*
X6295000Y-5819000D01*
X6295000Y-5789000D02*
X6265000Y-5819000D01*
X6292500Y-10916500D02*
X6322500Y-10946500D01*
X6322500Y-10916500D02*
X6292500Y-10946500D01*
X6292500Y-10989000D02*
X6322500Y-11019000D01*
X6322500Y-10989000D02*
X6292500Y-11019000D01*
X6340000Y-5789000D02*
X6370000Y-5819000D01*
X6370000Y-5789000D02*
X6340000Y-5819000D01*
X6412500Y-5789000D02*
X6442500Y-5819000D01*
X6442500Y-5789000D02*
X6412500Y-5819000D01*
X6477500Y-6687500D02*
X6507500Y-6717500D01*
X6507500Y-6687500D02*
X6477500Y-6717500D01*
X6482500Y-7212500D02*
X6512500Y-7242500D01*
X6512500Y-7212500D02*
X6482500Y-7242500D01*
X6485000Y-5789000D02*
X6515000Y-5819000D01*
X6515000Y-5789000D02*
X6485000Y-5819000D01*
X6515000Y-7960000D02*
X6545000Y-7990000D01*
X6545000Y-7960000D02*
X6515000Y-7990000D01*
X6546000Y-7990000D02*
X6576000Y-8020000D01*
X6576000Y-7990000D02*
X6546000Y-8020000D01*
X6550000Y-6687500D02*
X6580000Y-6717500D01*
X6580000Y-6687500D02*
X6550000Y-6717500D01*
X6555000Y-7212500D02*
X6585000Y-7242500D01*
X6585000Y-7212500D02*
X6555000Y-7242500D01*
X6582500Y-5786500D02*
X6612500Y-5816500D01*
X6612500Y-5786500D02*
X6582500Y-5816500D01*
X6627500Y-6690000D02*
X6657500Y-6720000D01*
X6657500Y-6690000D02*
X6627500Y-6720000D01*
X6632500Y-7215000D02*
X6662500Y-7245000D01*
X6662500Y-7215000D02*
X6632500Y-7245000D01*
X6657500Y-5786500D02*
X6687500Y-5816500D01*
X6687500Y-5786500D02*
X6657500Y-5816500D01*
X6662500Y-10471500D02*
X6692500Y-10501500D01*
X6692500Y-10471500D02*
X6662500Y-10501500D01*
X6693000Y-7974250D02*
X6723000Y-8004250D01*
X6723000Y-7974250D02*
X6693000Y-8004250D01*
X6697000Y-7515000D02*
X6727000Y-7545000D01*
X6727000Y-7515000D02*
X6697000Y-7545000D01*
X6700000Y-6690000D02*
X6730000Y-6720000D01*
X6730000Y-6690000D02*
X6700000Y-6720000D01*
X6705000Y-7215000D02*
X6735000Y-7245000D01*
X6735000Y-7215000D02*
X6705000Y-7245000D01*
X6730000Y-5786500D02*
X6760000Y-5816500D01*
X6760000Y-5786500D02*
X6730000Y-5816500D01*
X6737500Y-10471500D02*
X6767500Y-10501500D01*
X6767500Y-10471500D02*
X6737500Y-10501500D01*
X6802500Y-5786500D02*
X6832500Y-5816500D01*
X6832500Y-5786500D02*
X6802500Y-5816500D01*
X6810000Y-10471500D02*
X6840000Y-10501500D01*
X6840000Y-10471500D02*
X6810000Y-10501500D01*
X6849000Y-7974500D02*
X6879000Y-8004500D01*
X6879000Y-7974500D02*
X6849000Y-8004500D01*
X6885000Y-10474000D02*
X6915000Y-10504000D01*
X6915000Y-10474000D02*
X6885000Y-10504000D01*
X6897000Y-7515000D02*
X6927000Y-7545000D01*
X6927000Y-7515000D02*
X6897000Y-7545000D01*
X6960000Y-10474000D02*
X6990000Y-10504000D01*
X6990000Y-10474000D02*
X6960000Y-10504000D01*
X7004000Y-7974250D02*
X7034000Y-8004250D01*
X7034000Y-7974250D02*
X7004000Y-8004250D01*
X7032500Y-10474000D02*
X7062500Y-10504000D01*
X7062500Y-10474000D02*
X7032500Y-10504000D01*
X7068000Y-8944000D02*
X7098000Y-8974000D01*
X7098000Y-8944000D02*
X7068000Y-8974000D01*
X7068000Y-9083000D02*
X7098000Y-9113000D01*
X7098000Y-9083000D02*
X7068000Y-9113000D01*
X7070000Y-9017000D02*
X7100000Y-9047000D01*
X7100000Y-9017000D02*
X7070000Y-9047000D01*
X7097000Y-7515000D02*
X7127000Y-7545000D01*
X7127000Y-7515000D02*
X7097000Y-7545000D01*
X7130000Y-8943000D02*
X7160000Y-8973000D01*
X7160000Y-8943000D02*
X7130000Y-8973000D01*
X7130000Y-9082000D02*
X7160000Y-9112000D01*
X7160000Y-9082000D02*
X7130000Y-9112000D01*
X7131000Y-9019000D02*
X7161000Y-9049000D01*
X7161000Y-9019000D02*
X7131000Y-9049000D01*
X7160000Y-7983000D02*
X7190000Y-8013000D01*
X7190000Y-7983000D02*
X7160000Y-8013000D01*
X7248000Y-8386000D02*
X7278000Y-8416000D01*
X7278000Y-8386000D02*
X7248000Y-8416000D01*
X7248000Y-8643000D02*
X7278000Y-8673000D01*
X7278000Y-8643000D02*
X7248000Y-8673000D01*
X7297000Y-7515000D02*
X7327000Y-7545000D01*
X7327000Y-7515000D02*
X7297000Y-7545000D01*
X7317000Y-7967000D02*
X7347000Y-7997000D01*
X7347000Y-7967000D02*
X7317000Y-7997000D01*
X7336000Y-8579000D02*
X7366000Y-8609000D01*
X7366000Y-8579000D02*
X7336000Y-8609000D01*
X7359500Y-8341500D02*
X7389500Y-8371500D01*
X7389500Y-8341500D02*
X7359500Y-8371500D01*
X7441000Y-9511000D02*
X7471000Y-9541000D01*
X7471000Y-9511000D02*
X7441000Y-9541000D01*
X7497000Y-7515000D02*
X7527000Y-7545000D01*
X7527000Y-7515000D02*
X7497000Y-7545000D01*
X7597000Y-9507000D02*
X7627000Y-9537000D01*
X7627000Y-9507000D02*
X7597000Y-9537000D01*
X8264950Y-8079000D02*
X8294950Y-8109000D01*
X8294950Y-8079000D02*
X8264950Y-8109000D01*
X8268000Y-7941000D02*
X8298000Y-7971000D01*
X8298000Y-7941000D02*
X8268000Y-7971000D01*
X8277500Y-8204000D02*
X8307500Y-8234000D01*
X8307500Y-8204000D02*
X8277500Y-8234000D01*
X8278000Y-8333500D02*
X8308000Y-8363500D01*
X8308000Y-8333500D02*
X8278000Y-8363500D01*
X8278000Y-8460500D02*
X8308000Y-8490500D01*
X8308000Y-8460500D02*
X8278000Y-8490500D01*
X8278000Y-8587500D02*
X8308000Y-8617500D01*
X8308000Y-8587500D02*
X8278000Y-8617500D01*
X8278000Y-8714500D02*
X8308000Y-8744500D01*
X8308000Y-8714500D02*
X8278000Y-8744500D01*
X8278000Y-8841500D02*
X8308000Y-8871500D01*
X8308000Y-8841500D02*
X8278000Y-8871500D01*
X8278000Y-8968500D02*
X8308000Y-8998500D01*
X8308000Y-8968500D02*
X8278000Y-8998500D01*
X8278000Y-9095500D02*
X8308000Y-9125500D01*
X8308000Y-9095500D02*
X8278000Y-9125500D01*
X8278000Y-9222500D02*
X8308000Y-9252500D01*
X8308000Y-9222500D02*
X8278000Y-9252500D01*
X8278000Y-9476500D02*
X8308000Y-9506500D01*
X8308000Y-9476500D02*
X8278000Y-9506500D01*
X8278000Y-9603500D02*
X8308000Y-9633500D01*
X8308000Y-9603500D02*
X8278000Y-9633500D01*
X8285000Y-7354000D02*
X8315000Y-7384000D01*
X8315000Y-7354000D02*
X8285000Y-7384000D01*
X8285000Y-7426500D02*
X8315000Y-7456500D01*
X8315000Y-7426500D02*
X8285000Y-7456500D01*
X8285000Y-7499000D02*
X8315000Y-7529000D01*
X8315000Y-7499000D02*
X8285000Y-7529000D01*
X8285000Y-7574000D02*
X8315000Y-7604000D01*
X8315000Y-7574000D02*
X8285000Y-7604000D01*
X8292500Y-6679000D02*
X8322500Y-6709000D01*
X8322500Y-6679000D02*
X8292500Y-6709000D01*
X8292500Y-6751500D02*
X8322500Y-6781500D01*
X8322500Y-6751500D02*
X8292500Y-6781500D01*
X8315000Y-6229000D02*
X8345000Y-6259000D01*
X8345000Y-6229000D02*
X8315000Y-6259000D01*
X8405000Y-9781500D02*
X8435000Y-9811500D01*
X8435000Y-9781500D02*
X8405000Y-9811500D01*
X8462500Y-5794000D02*
X8492500Y-5824000D01*
X8492500Y-5794000D02*
X8462500Y-5824000D01*
X8484000Y-8518000D02*
X8514000Y-8548000D01*
X8514000Y-8518000D02*
X8484000Y-8548000D01*
X8484000Y-8590500D02*
X8514000Y-8620500D01*
X8514000Y-8590500D02*
X8484000Y-8620500D01*
X8484000Y-8663000D02*
X8514000Y-8693000D01*
X8514000Y-8663000D02*
X8484000Y-8693000D01*
X8484000Y-8738000D02*
X8514000Y-8768000D01*
X8514000Y-8738000D02*
X8484000Y-8768000D01*
X8492500Y-9159000D02*
X8522500Y-9189000D01*
X8522500Y-9159000D02*
X8492500Y-9189000D01*
X8492500Y-9231500D02*
X8522500Y-9261500D01*
X8522500Y-9231500D02*
X8492500Y-9261500D01*
X8492500Y-9304000D02*
X8522500Y-9334000D01*
X8522500Y-9304000D02*
X8492500Y-9334000D01*
X8492500Y-9379000D02*
X8522500Y-9409000D01*
X8522500Y-9379000D02*
X8492500Y-9409000D01*
X8537500Y-5794000D02*
X8567500Y-5824000D01*
X8567500Y-5794000D02*
X8537500Y-5824000D01*
X8564000Y-8518000D02*
X8594000Y-8548000D01*
X8594000Y-8518000D02*
X8564000Y-8548000D01*
X8564000Y-8590500D02*
X8594000Y-8620500D01*
X8594000Y-8590500D02*
X8564000Y-8620500D01*
X8564000Y-8663000D02*
X8594000Y-8693000D01*
X8594000Y-8663000D02*
X8564000Y-8693000D01*
X8564000Y-8738000D02*
X8594000Y-8768000D01*
X8594000Y-8738000D02*
X8564000Y-8768000D01*
X8572500Y-9159000D02*
X8602500Y-9189000D01*
X8602500Y-9159000D02*
X8572500Y-9189000D01*
X8572500Y-9231500D02*
X8602500Y-9261500D01*
X8602500Y-9231500D02*
X8572500Y-9261500D01*
X8572500Y-9304000D02*
X8602500Y-9334000D01*
X8602500Y-9304000D02*
X8572500Y-9334000D01*
X8572500Y-9379000D02*
X8602500Y-9409000D01*
X8602500Y-9379000D02*
X8572500Y-9409000D01*
X8610000Y-5794000D02*
X8640000Y-5824000D01*
X8640000Y-5794000D02*
X8610000Y-5824000D01*
X8657000Y-8030000D02*
X8687000Y-8060000D01*
X8687000Y-8030000D02*
X8657000Y-8060000D01*
X8657500Y-6506500D02*
X8687500Y-6536500D01*
X8687500Y-6506500D02*
X8657500Y-6536500D01*
X8682500Y-5794000D02*
X8712500Y-5824000D01*
X8712500Y-5794000D02*
X8682500Y-5824000D01*
X8690000Y-6411500D02*
X8720000Y-6441500D01*
X8720000Y-6411500D02*
X8690000Y-6441500D01*
X8692500Y-6314000D02*
X8722500Y-6344000D01*
X8722500Y-6314000D02*
X8692500Y-6344000D01*
X8745000Y-10801500D02*
X8775000Y-10831500D01*
X8775000Y-10801500D02*
X8745000Y-10831500D01*
X8745000Y-10874000D02*
X8775000Y-10904000D01*
X8775000Y-10874000D02*
X8745000Y-10904000D01*
X8745000Y-10946500D02*
X8775000Y-10976500D01*
X8775000Y-10946500D02*
X8745000Y-10976500D01*
X8745000Y-11021500D02*
X8775000Y-11051500D01*
X8775000Y-11021500D02*
X8745000Y-11051500D01*
X8772500Y-5794000D02*
X8802500Y-5824000D01*
X8802500Y-5794000D02*
X8772500Y-5824000D01*
X8784000Y-8030000D02*
X8814000Y-8060000D01*
X8814000Y-8030000D02*
X8784000Y-8060000D01*
X8825000Y-10801500D02*
X8855000Y-10831500D01*
X8855000Y-10801500D02*
X8825000Y-10831500D01*
X8825000Y-10874000D02*
X8855000Y-10904000D01*
X8855000Y-10874000D02*
X8825000Y-10904000D01*
X8825000Y-10946500D02*
X8855000Y-10976500D01*
X8855000Y-10946500D02*
X8825000Y-10976500D01*
X8825000Y-11021500D02*
X8855000Y-11051500D01*
X8855000Y-11021500D02*
X8825000Y-11051500D01*
X8847500Y-5794000D02*
X8877500Y-5824000D01*
X8877500Y-5794000D02*
X8847500Y-5824000D01*
X8912500Y-7266500D02*
X8942500Y-7296500D01*
X8942500Y-7266500D02*
X8912500Y-7296500D01*
X8912500Y-7341500D02*
X8942500Y-7371500D01*
X8942500Y-7341500D02*
X8912500Y-7371500D01*
X8912500Y-7414000D02*
X8942500Y-7444000D01*
X8942500Y-7414000D02*
X8912500Y-7444000D01*
X8912500Y-7486500D02*
X8942500Y-7516500D01*
X8942500Y-7486500D02*
X8912500Y-7516500D01*
X8920000Y-5794000D02*
X8950000Y-5824000D01*
X8950000Y-5794000D02*
X8920000Y-5824000D01*
X8992500Y-5794000D02*
X9022500Y-5824000D01*
X9022500Y-5794000D02*
X8992500Y-5824000D01*
X9032500Y-8040000D02*
X9062500Y-8070000D01*
X9062500Y-8040000D02*
X9032500Y-8070000D01*
X9056000Y-7268000D02*
X9086000Y-7298000D01*
X9086000Y-7268000D02*
X9056000Y-7298000D01*
X9056000Y-7343000D02*
X9086000Y-7373000D01*
X9086000Y-7343000D02*
X9056000Y-7373000D01*
X9056000Y-7415500D02*
X9086000Y-7445500D01*
X9086000Y-7415500D02*
X9056000Y-7445500D01*
X9056000Y-7488000D02*
X9086000Y-7518000D01*
X9086000Y-7488000D02*
X9056000Y-7518000D01*
X9090000Y-5791500D02*
X9120000Y-5821500D01*
X9120000Y-5791500D02*
X9090000Y-5821500D01*
X9157500Y-8030000D02*
X9187500Y-8060000D01*
X9187500Y-8030000D02*
X9157500Y-8060000D01*
X9165000Y-5791500D02*
X9195000Y-5821500D01*
X9195000Y-5791500D02*
X9165000Y-5821500D01*
X9190000Y-6651500D02*
X9220000Y-6681500D01*
X9220000Y-6651500D02*
X9190000Y-6681500D01*
X9217500Y-6851500D02*
X9247500Y-6881500D01*
X9247500Y-6851500D02*
X9217500Y-6881500D01*
X9237500Y-5791500D02*
X9267500Y-5821500D01*
X9267500Y-5791500D02*
X9237500Y-5821500D01*
X9290000Y-6717500D02*
X9320000Y-6747500D01*
X9320000Y-6717500D02*
X9290000Y-6747500D01*
X9290000Y-8024000D02*
X9320000Y-8054000D01*
X9320000Y-8024000D02*
X9290000Y-8054000D01*
X9310000Y-5791500D02*
X9340000Y-5821500D01*
X9340000Y-5791500D02*
X9310000Y-5821500D01*
X9420000Y-6559000D02*
X9450000Y-6589000D01*
X9450000Y-6559000D02*
X9420000Y-6589000D01*
X9420000Y-8026500D02*
X9450000Y-8056500D01*
X9450000Y-8026500D02*
X9420000Y-8056500D01*
X9425000Y-9899000D02*
X9455000Y-9929000D01*
X9455000Y-9899000D02*
X9425000Y-9929000D01*
X9433000Y-7115250D02*
X9463000Y-7145250D01*
X9463000Y-7115250D02*
X9433000Y-7145250D01*
X9462500Y-8219000D02*
X9492500Y-8249000D01*
X9492500Y-8219000D02*
X9462500Y-8249000D01*
X9546000Y-9780000D02*
X9576000Y-9810000D01*
X9576000Y-9780000D02*
X9546000Y-9810000D01*
X9565000Y-10266500D02*
X9595000Y-10296500D01*
X9595000Y-10266500D02*
X9565000Y-10296500D01*
X9567500Y-6549000D02*
X9597500Y-6579000D01*
X9597500Y-6549000D02*
X9567500Y-6579000D01*
X9673000Y-8030000D02*
X9703000Y-8060000D01*
X9703000Y-8030000D02*
X9673000Y-8060000D01*
X9673000Y-9780000D02*
X9703000Y-9810000D01*
X9703000Y-9780000D02*
X9673000Y-9810000D01*
X9677500Y-10071500D02*
X9707500Y-10101500D01*
X9707500Y-10071500D02*
X9677500Y-10101500D01*
X9732000Y-7057000D02*
X9762000Y-7087000D01*
X9762000Y-7057000D02*
X9732000Y-7087000D01*
X9817500Y-10254000D02*
X9847500Y-10284000D01*
X9847500Y-10254000D02*
X9817500Y-10284000D01*
X9857000Y-6517000D02*
X9887000Y-6547000D01*
X9887000Y-6517000D02*
X9857000Y-6547000D01*
X9875000Y-7059000D02*
X9905000Y-7089000D01*
X9905000Y-7059000D02*
X9875000Y-7089000D01*
X9877500Y-9186500D02*
X9907500Y-9216500D01*
X9907500Y-9186500D02*
X9877500Y-9216500D01*
X9877500Y-9259000D02*
X9907500Y-9289000D01*
X9907500Y-9259000D02*
X9877500Y-9289000D01*
X9877500Y-9331500D02*
X9907500Y-9361500D01*
X9907500Y-9331500D02*
X9877500Y-9361500D01*
X9877500Y-9406500D02*
X9907500Y-9436500D01*
X9907500Y-9406500D02*
X9877500Y-9436500D01*
X9885000Y-8231500D02*
X9915000Y-8261500D01*
X9915000Y-8231500D02*
X9885000Y-8261500D01*
X9885000Y-8304000D02*
X9915000Y-8334000D01*
X9915000Y-8304000D02*
X9885000Y-8334000D01*
X9885000Y-8376500D02*
X9915000Y-8406500D01*
X9915000Y-8376500D02*
X9885000Y-8406500D01*
X9885000Y-8451500D02*
X9915000Y-8481500D01*
X9915000Y-8451500D02*
X9885000Y-8481500D01*
X9892500Y-6989000D02*
X9922500Y-7019000D01*
X9922500Y-6989000D02*
X9892500Y-7019000D01*
X9922500Y-7149000D02*
X9952500Y-7179000D01*
X9952500Y-7149000D02*
X9922500Y-7179000D01*
X9932500Y-7231500D02*
X9962500Y-7261500D01*
X9962500Y-7231500D02*
X9932500Y-7261500D01*
X9935000Y-7319000D02*
X9965000Y-7349000D01*
X9965000Y-7319000D02*
X9935000Y-7349000D01*
X9935000Y-7404000D02*
X9965000Y-7434000D01*
X9965000Y-7404000D02*
X9935000Y-7434000D01*
X9937000Y-6481500D02*
X9967000Y-6511500D01*
X9967000Y-6481500D02*
X9937000Y-6511500D01*
X9937000Y-6554000D02*
X9967000Y-6584000D01*
X9967000Y-6554000D02*
X9937000Y-6584000D01*
X9947500Y-7059000D02*
X9977500Y-7089000D01*
X9977500Y-7059000D02*
X9947500Y-7089000D01*
X9957500Y-9186500D02*
X9987500Y-9216500D01*
X9987500Y-9186500D02*
X9957500Y-9216500D01*
X9957500Y-9259000D02*
X9987500Y-9289000D01*
X9987500Y-9259000D02*
X9957500Y-9289000D01*
X9957500Y-9331500D02*
X9987500Y-9361500D01*
X9987500Y-9331500D02*
X9957500Y-9361500D01*
X9957500Y-9406500D02*
X9987500Y-9436500D01*
X9987500Y-9406500D02*
X9957500Y-9436500D01*
X9965000Y-8231500D02*
X9995000Y-8261500D01*
X9995000Y-8231500D02*
X9965000Y-8261500D01*
X9965000Y-8304000D02*
X9995000Y-8334000D01*
X9995000Y-8304000D02*
X9965000Y-8334000D01*
X9965000Y-8376500D02*
X9995000Y-8406500D01*
X9995000Y-8376500D02*
X9965000Y-8406500D01*
X9965000Y-8451500D02*
X9995000Y-8481500D01*
X9995000Y-8451500D02*
X9965000Y-8481500D01*
D13*
X4150500Y-6375000D02*
G75*
G03*
X4150500Y-6375000I-32500J0D01*
G01*
D11*
X4155500Y-6342500D02*
X4080500Y-6342500D01*
X4080500Y-6342500D02*
G75*
G03*
X4080500Y-6407500I0J-32500D01*
G01*
X4080500Y-6407500D02*
X4155500Y-6407500D01*
X4155500Y-6407500D02*
G75*
G03*
X4155500Y-6342500I0J32500D01*
G01*
D13*
X4150500Y-7240000D02*
G75*
G03*
X4150500Y-7240000I-32500J0D01*
G01*
D11*
X4155500Y-7207500D02*
X4080500Y-7207500D01*
X4080500Y-7207500D02*
G75*
G03*
X4080500Y-7272500I0J-32500D01*
G01*
X4080500Y-7272500D02*
X4155500Y-7272500D01*
X4155500Y-7272500D02*
G75*
G03*
X4155500Y-7207500I0J32500D01*
G01*
D13*
X4568500Y-6375000D02*
G75*
G03*
X4568500Y-6375000I-32500J0D01*
G01*
D11*
X4589516Y-6342500D02*
X4482484Y-6342500D01*
X4482484Y-6342500D02*
G75*
G03*
X4482484Y-6407500I0J-32500D01*
G01*
X4482484Y-6407500D02*
X4589516Y-6407500D01*
X4589516Y-6407500D02*
G75*
G03*
X4589516Y-6342500I0J32500D01*
G01*
D13*
X4568500Y-7240000D02*
G75*
G03*
X4568500Y-7240000I-32500J0D01*
G01*
D11*
X4589516Y-7207500D02*
X4482484Y-7207500D01*
X4482484Y-7207500D02*
G75*
G03*
X4482484Y-7272500I0J-32500D01*
G01*
X4482484Y-7272500D02*
X4589516Y-7272500D01*
X4589516Y-7272500D02*
G75*
G03*
X4589516Y-7207500I0J32500D01*
G01*
D14*
X4255000Y-10860000D02*
X4255000Y-10960000D01*
X4205000Y-10910000D02*
X4305000Y-10910000D01*
X4505000Y-10860000D02*
X4505000Y-10960000D01*
X4455000Y-10910000D02*
X4555000Y-10910000D01*
X5854000Y-5960000D02*
X5854000Y-6060000D01*
X5804000Y-6010000D02*
X5904000Y-6010000D01*
X6108000Y-5960000D02*
X6108000Y-6060000D01*
X6058000Y-6010000D02*
X6158000Y-6010000D01*
X6362000Y-5960000D02*
X6362000Y-6060000D01*
X6312000Y-6010000D02*
X6412000Y-6010000D01*
X6616000Y-5960000D02*
X6616000Y-6060000D01*
X6566000Y-6010000D02*
X6666000Y-6010000D01*
X6771000Y-10785000D02*
X6771000Y-10885000D01*
X6721000Y-10835000D02*
X6821000Y-10835000D01*
X6870000Y-5960000D02*
X6870000Y-6060000D01*
X6820000Y-6010000D02*
X6920000Y-6010000D01*
X7025000Y-10785000D02*
X7025000Y-10885000D01*
X6975000Y-10835000D02*
X7075000Y-10835000D01*
X7124000Y-5960000D02*
X7124000Y-6060000D01*
X7074000Y-6010000D02*
X7174000Y-6010000D01*
X7279000Y-10785000D02*
X7279000Y-10885000D01*
X7229000Y-10835000D02*
X7329000Y-10835000D01*
X7378000Y-5960000D02*
X7378000Y-6060000D01*
X7328000Y-6010000D02*
X7428000Y-6010000D01*
X7533000Y-10785000D02*
X7533000Y-10885000D01*
X7483000Y-10835000D02*
X7583000Y-10835000D01*
X7632000Y-5960000D02*
X7632000Y-6060000D01*
X7582000Y-6010000D02*
X7682000Y-6010000D01*
X7787000Y-10785000D02*
X7787000Y-10885000D01*
X7737000Y-10835000D02*
X7837000Y-10835000D01*
X7886000Y-5960000D02*
X7886000Y-6060000D01*
X7836000Y-6010000D02*
X7936000Y-6010000D01*
X8038000Y-10419000D02*
X8038000Y-10519000D01*
X7988000Y-10469000D02*
X8088000Y-10469000D01*
X8041000Y-10785000D02*
X8041000Y-10885000D01*
X7991000Y-10835000D02*
X8091000Y-10835000D01*
X8140000Y-5960000D02*
X8140000Y-6060000D01*
X8090000Y-6010000D02*
X8190000Y-6010000D01*
X8292000Y-10419000D02*
X8292000Y-10519000D01*
X8242000Y-10469000D02*
X8342000Y-10469000D01*
X8295000Y-10785000D02*
X8295000Y-10885000D01*
X8245000Y-10835000D02*
X8345000Y-10835000D01*
X8546000Y-10419000D02*
X8546000Y-10519000D01*
X8496000Y-10469000D02*
X8596000Y-10469000D01*
X8548000Y-5960000D02*
X8548000Y-6060000D01*
X8498000Y-6010000D02*
X8598000Y-6010000D01*
X8549000Y-10785000D02*
X8549000Y-10885000D01*
X8499000Y-10835000D02*
X8599000Y-10835000D01*
X8802000Y-5960000D02*
X8802000Y-6060000D01*
X8752000Y-6010000D02*
X8852000Y-6010000D01*
X9056000Y-5960000D02*
X9056000Y-6060000D01*
X9006000Y-6010000D02*
X9106000Y-6010000D01*
X9058000Y-10426000D02*
X9058000Y-10526000D01*
X9008000Y-10476000D02*
X9108000Y-10476000D01*
X9059000Y-10785000D02*
X9059000Y-10885000D01*
X9009000Y-10835000D02*
X9109000Y-10835000D01*
X9310000Y-5960000D02*
X9310000Y-6060000D01*
X9260000Y-6010000D02*
X9360000Y-6010000D01*
X9312000Y-10426000D02*
X9312000Y-10526000D01*
X9262000Y-10476000D02*
X9362000Y-10476000D01*
X9313000Y-10785000D02*
X9313000Y-10885000D01*
X9263000Y-10835000D02*
X9363000Y-10835000D01*
X9564000Y-5960000D02*
X9564000Y-6060000D01*
X9514000Y-6010000D02*
X9614000Y-6010000D01*
X9566000Y-10426000D02*
X9566000Y-10526000D01*
X9516000Y-10476000D02*
X9616000Y-10476000D01*
X9567000Y-10785000D02*
X9567000Y-10885000D01*
X9517000Y-10835000D02*
X9617000Y-10835000D01*
X9818000Y-5960000D02*
X9818000Y-6060000D01*
X9768000Y-6010000D02*
X9868000Y-6010000D01*
X9820000Y-10426000D02*
X9820000Y-10526000D01*
X9770000Y-10476000D02*
X9870000Y-10476000D01*
X9821000Y-10785000D02*
X9821000Y-10885000D01*
X9771000Y-10835000D02*
X9871000Y-10835000D01*
X10072000Y-5960000D02*
X10072000Y-6060000D01*
X10022000Y-6010000D02*
X10122000Y-6010000D01*
X10074000Y-10426000D02*
X10074000Y-10526000D01*
X10024000Y-10476000D02*
X10124000Y-10476000D01*
X10075000Y-10785000D02*
X10075000Y-10885000D01*
X10025000Y-10835000D02*
X10125000Y-10835000D01*
X10326000Y-5960000D02*
X10326000Y-6060000D01*
X10276000Y-6010000D02*
X10376000Y-6010000D01*
X10329000Y-10785000D02*
X10329000Y-10885000D01*
X10279000Y-10835000D02*
X10379000Y-10835000D01*
D11*
X4210517Y-11429024D02*
X4210517Y-11229024D01*
X4210517Y-11229024D02*
X4258136Y-11229024D01*
X4258136Y-11229024D02*
X4286707Y-11238548D01*
X4286707Y-11238548D02*
X4305755Y-11257595D01*
X4305755Y-11257595D02*
X4315279Y-11276643D01*
X4315279Y-11276643D02*
X4324803Y-11314738D01*
X4324803Y-11314738D02*
X4324803Y-11343309D01*
X4324803Y-11343309D02*
X4315279Y-11381405D01*
X4315279Y-11381405D02*
X4305755Y-11400452D01*
X4305755Y-11400452D02*
X4286707Y-11419500D01*
X4286707Y-11419500D02*
X4258136Y-11429024D01*
X4258136Y-11429024D02*
X4210517Y-11429024D01*
X4410517Y-11429024D02*
X4410517Y-11295690D01*
X4410517Y-11333786D02*
X4420041Y-11314738D01*
X4420041Y-11314738D02*
X4429564Y-11305214D01*
X4429564Y-11305214D02*
X4448612Y-11295690D01*
X4448612Y-11295690D02*
X4467660Y-11295690D01*
X4534326Y-11429024D02*
X4534326Y-11295690D01*
X4534326Y-11229024D02*
X4524803Y-11238548D01*
X4524803Y-11238548D02*
X4534326Y-11248071D01*
X4534326Y-11248071D02*
X4543850Y-11238548D01*
X4543850Y-11238548D02*
X4534326Y-11229024D01*
X4534326Y-11229024D02*
X4534326Y-11248071D01*
X4658136Y-11429024D02*
X4639088Y-11419500D01*
X4639088Y-11419500D02*
X4629564Y-11400452D01*
X4629564Y-11400452D02*
X4629564Y-11229024D01*
X4762898Y-11429024D02*
X4743850Y-11419500D01*
X4743850Y-11419500D02*
X4734326Y-11400452D01*
X4734326Y-11400452D02*
X4734326Y-11229024D01*
X4991469Y-11429024D02*
X4991469Y-11229024D01*
X4991469Y-11229024D02*
X5058136Y-11371881D01*
X5058136Y-11371881D02*
X5124803Y-11229024D01*
X5124803Y-11229024D02*
X5124803Y-11429024D01*
X5305755Y-11429024D02*
X5305755Y-11324262D01*
X5305755Y-11324262D02*
X5296231Y-11305214D01*
X5296231Y-11305214D02*
X5277184Y-11295690D01*
X5277184Y-11295690D02*
X5239088Y-11295690D01*
X5239088Y-11295690D02*
X5220041Y-11305214D01*
X5305755Y-11419500D02*
X5286707Y-11429024D01*
X5286707Y-11429024D02*
X5239088Y-11429024D01*
X5239088Y-11429024D02*
X5220041Y-11419500D01*
X5220041Y-11419500D02*
X5210517Y-11400452D01*
X5210517Y-11400452D02*
X5210517Y-11381405D01*
X5210517Y-11381405D02*
X5220041Y-11362357D01*
X5220041Y-11362357D02*
X5239088Y-11352833D01*
X5239088Y-11352833D02*
X5286707Y-11352833D01*
X5286707Y-11352833D02*
X5305755Y-11343309D01*
X5400993Y-11295690D02*
X5400993Y-11495690D01*
X5400993Y-11305214D02*
X5420041Y-11295690D01*
X5420041Y-11295690D02*
X5458136Y-11295690D01*
X5458136Y-11295690D02*
X5477184Y-11305214D01*
X5477184Y-11305214D02*
X5486707Y-11314738D01*
X5486707Y-11314738D02*
X5496231Y-11333786D01*
X5496231Y-11333786D02*
X5496231Y-11390928D01*
X5496231Y-11390928D02*
X5486707Y-11409976D01*
X5486707Y-11409976D02*
X5477184Y-11419500D01*
X5477184Y-11419500D02*
X5458136Y-11429024D01*
X5458136Y-11429024D02*
X5420041Y-11429024D01*
X5420041Y-11429024D02*
X5400993Y-11419500D01*
X5581945Y-11409976D02*
X5591469Y-11419500D01*
X5591469Y-11419500D02*
X5581945Y-11429024D01*
X5581945Y-11429024D02*
X5572422Y-11419500D01*
X5572422Y-11419500D02*
X5581945Y-11409976D01*
X5581945Y-11409976D02*
X5581945Y-11429024D01*
X5581945Y-11305214D02*
X5591469Y-11314738D01*
X5591469Y-11314738D02*
X5581945Y-11324262D01*
X5581945Y-11324262D02*
X5572422Y-11314738D01*
X5572422Y-11314738D02*
X5581945Y-11305214D01*
X5581945Y-11305214D02*
X5581945Y-11324262D01*
D12*
X3919740Y-11742540D02*
X3949740Y-11772540D01*
X3949740Y-11742540D02*
X3919740Y-11772540D01*
D11*
X4248612Y-11649024D02*
X4267660Y-11649024D01*
X4267660Y-11649024D02*
X4286707Y-11658548D01*
X4286707Y-11658548D02*
X4296231Y-11668071D01*
X4296231Y-11668071D02*
X4305755Y-11687119D01*
X4305755Y-11687119D02*
X4315279Y-11725214D01*
X4315279Y-11725214D02*
X4315279Y-11772833D01*
X4315279Y-11772833D02*
X4305755Y-11810928D01*
X4305755Y-11810928D02*
X4296231Y-11829976D01*
X4296231Y-11829976D02*
X4286707Y-11839500D01*
X4286707Y-11839500D02*
X4267660Y-11849024D01*
X4267660Y-11849024D02*
X4248612Y-11849024D01*
X4248612Y-11849024D02*
X4229564Y-11839500D01*
X4229564Y-11839500D02*
X4220041Y-11829976D01*
X4220041Y-11829976D02*
X4210517Y-11810928D01*
X4210517Y-11810928D02*
X4200993Y-11772833D01*
X4200993Y-11772833D02*
X4200993Y-11725214D01*
X4200993Y-11725214D02*
X4210517Y-11687119D01*
X4210517Y-11687119D02*
X4220041Y-11668071D01*
X4220041Y-11668071D02*
X4229564Y-11658548D01*
X4229564Y-11658548D02*
X4248612Y-11649024D01*
X4400993Y-11829976D02*
X4410517Y-11839500D01*
X4410517Y-11839500D02*
X4400993Y-11849024D01*
X4400993Y-11849024D02*
X4391469Y-11839500D01*
X4391469Y-11839500D02*
X4400993Y-11829976D01*
X4400993Y-11829976D02*
X4400993Y-11849024D01*
X4477184Y-11649024D02*
X4600993Y-11649024D01*
X4600993Y-11649024D02*
X4534326Y-11725214D01*
X4534326Y-11725214D02*
X4562898Y-11725214D01*
X4562898Y-11725214D02*
X4581945Y-11734738D01*
X4581945Y-11734738D02*
X4591469Y-11744262D01*
X4591469Y-11744262D02*
X4600993Y-11763309D01*
X4600993Y-11763309D02*
X4600993Y-11810928D01*
X4600993Y-11810928D02*
X4591469Y-11829976D01*
X4591469Y-11829976D02*
X4581945Y-11839500D01*
X4581945Y-11839500D02*
X4562898Y-11849024D01*
X4562898Y-11849024D02*
X4505755Y-11849024D01*
X4505755Y-11849024D02*
X4486707Y-11839500D01*
X4486707Y-11839500D02*
X4477184Y-11829976D01*
X4724803Y-11649024D02*
X4743850Y-11649024D01*
X4743850Y-11649024D02*
X4762898Y-11658548D01*
X4762898Y-11658548D02*
X4772422Y-11668071D01*
X4772422Y-11668071D02*
X4781945Y-11687119D01*
X4781945Y-11687119D02*
X4791469Y-11725214D01*
X4791469Y-11725214D02*
X4791469Y-11772833D01*
X4791469Y-11772833D02*
X4781945Y-11810928D01*
X4781945Y-11810928D02*
X4772422Y-11829976D01*
X4772422Y-11829976D02*
X4762898Y-11839500D01*
X4762898Y-11839500D02*
X4743850Y-11849024D01*
X4743850Y-11849024D02*
X4724803Y-11849024D01*
X4724803Y-11849024D02*
X4705755Y-11839500D01*
X4705755Y-11839500D02*
X4696231Y-11829976D01*
X4696231Y-11829976D02*
X4686707Y-11810928D01*
X4686707Y-11810928D02*
X4677184Y-11772833D01*
X4677184Y-11772833D02*
X4677184Y-11725214D01*
X4677184Y-11725214D02*
X4686707Y-11687119D01*
X4686707Y-11687119D02*
X4696231Y-11668071D01*
X4696231Y-11668071D02*
X4705755Y-11658548D01*
X4705755Y-11658548D02*
X4724803Y-11649024D01*
X4915279Y-11649024D02*
X4934326Y-11649024D01*
X4934326Y-11649024D02*
X4953374Y-11658548D01*
X4953374Y-11658548D02*
X4962898Y-11668071D01*
X4962898Y-11668071D02*
X4972422Y-11687119D01*
X4972422Y-11687119D02*
X4981945Y-11725214D01*
X4981945Y-11725214D02*
X4981945Y-11772833D01*
X4981945Y-11772833D02*
X4972422Y-11810928D01*
X4972422Y-11810928D02*
X4962898Y-11829976D01*
X4962898Y-11829976D02*
X4953374Y-11839500D01*
X4953374Y-11839500D02*
X4934326Y-11849024D01*
X4934326Y-11849024D02*
X4915279Y-11849024D01*
X4915279Y-11849024D02*
X4896231Y-11839500D01*
X4896231Y-11839500D02*
X4886707Y-11829976D01*
X4886707Y-11829976D02*
X4877184Y-11810928D01*
X4877184Y-11810928D02*
X4867660Y-11772833D01*
X4867660Y-11772833D02*
X4867660Y-11725214D01*
X4867660Y-11725214D02*
X4877184Y-11687119D01*
X4877184Y-11687119D02*
X4886707Y-11668071D01*
X4886707Y-11668071D02*
X4896231Y-11658548D01*
X4896231Y-11658548D02*
X4915279Y-11649024D01*
X5067660Y-11849024D02*
X5067660Y-11715690D01*
X5067660Y-11734738D02*
X5077184Y-11725214D01*
X5077184Y-11725214D02*
X5096231Y-11715690D01*
X5096231Y-11715690D02*
X5124803Y-11715690D01*
X5124803Y-11715690D02*
X5143850Y-11725214D01*
X5143850Y-11725214D02*
X5153374Y-11744262D01*
X5153374Y-11744262D02*
X5153374Y-11849024D01*
X5153374Y-11744262D02*
X5162898Y-11725214D01*
X5162898Y-11725214D02*
X5181945Y-11715690D01*
X5181945Y-11715690D02*
X5210517Y-11715690D01*
X5210517Y-11715690D02*
X5229565Y-11725214D01*
X5229565Y-11725214D02*
X5239088Y-11744262D01*
X5239088Y-11744262D02*
X5239088Y-11849024D01*
X5334326Y-11849024D02*
X5334326Y-11715690D01*
X5334326Y-11734738D02*
X5343850Y-11725214D01*
X5343850Y-11725214D02*
X5362898Y-11715690D01*
X5362898Y-11715690D02*
X5391469Y-11715690D01*
X5391469Y-11715690D02*
X5410517Y-11725214D01*
X5410517Y-11725214D02*
X5420041Y-11744262D01*
X5420041Y-11744262D02*
X5420041Y-11849024D01*
X5420041Y-11744262D02*
X5429565Y-11725214D01*
X5429565Y-11725214D02*
X5448612Y-11715690D01*
X5448612Y-11715690D02*
X5477184Y-11715690D01*
X5477184Y-11715690D02*
X5496231Y-11725214D01*
X5496231Y-11725214D02*
X5505755Y-11744262D01*
X5505755Y-11744262D02*
X5505755Y-11849024D01*
X5896231Y-11639500D02*
X5724803Y-11896643D01*
X6153374Y-11649024D02*
X6172422Y-11649024D01*
X6172422Y-11649024D02*
X6191469Y-11658548D01*
X6191469Y-11658548D02*
X6200993Y-11668071D01*
X6200993Y-11668071D02*
X6210517Y-11687119D01*
X6210517Y-11687119D02*
X6220041Y-11725214D01*
X6220041Y-11725214D02*
X6220041Y-11772833D01*
X6220041Y-11772833D02*
X6210517Y-11810928D01*
X6210517Y-11810928D02*
X6200993Y-11829976D01*
X6200993Y-11829976D02*
X6191469Y-11839500D01*
X6191469Y-11839500D02*
X6172422Y-11849024D01*
X6172422Y-11849024D02*
X6153374Y-11849024D01*
X6153374Y-11849024D02*
X6134326Y-11839500D01*
X6134326Y-11839500D02*
X6124803Y-11829976D01*
X6124803Y-11829976D02*
X6115279Y-11810928D01*
X6115279Y-11810928D02*
X6105755Y-11772833D01*
X6105755Y-11772833D02*
X6105755Y-11725214D01*
X6105755Y-11725214D02*
X6115279Y-11687119D01*
X6115279Y-11687119D02*
X6124803Y-11668071D01*
X6124803Y-11668071D02*
X6134326Y-11658548D01*
X6134326Y-11658548D02*
X6153374Y-11649024D01*
X6305755Y-11829976D02*
X6315279Y-11839500D01*
X6315279Y-11839500D02*
X6305755Y-11849024D01*
X6305755Y-11849024D02*
X6296231Y-11839500D01*
X6296231Y-11839500D02*
X6305755Y-11829976D01*
X6305755Y-11829976D02*
X6305755Y-11849024D01*
X6439088Y-11649024D02*
X6458136Y-11649024D01*
X6458136Y-11649024D02*
X6477184Y-11658548D01*
X6477184Y-11658548D02*
X6486707Y-11668071D01*
X6486707Y-11668071D02*
X6496231Y-11687119D01*
X6496231Y-11687119D02*
X6505755Y-11725214D01*
X6505755Y-11725214D02*
X6505755Y-11772833D01*
X6505755Y-11772833D02*
X6496231Y-11810928D01*
X6496231Y-11810928D02*
X6486707Y-11829976D01*
X6486707Y-11829976D02*
X6477184Y-11839500D01*
X6477184Y-11839500D02*
X6458136Y-11849024D01*
X6458136Y-11849024D02*
X6439088Y-11849024D01*
X6439088Y-11849024D02*
X6420041Y-11839500D01*
X6420041Y-11839500D02*
X6410517Y-11829976D01*
X6410517Y-11829976D02*
X6400993Y-11810928D01*
X6400993Y-11810928D02*
X6391469Y-11772833D01*
X6391469Y-11772833D02*
X6391469Y-11725214D01*
X6391469Y-11725214D02*
X6400993Y-11687119D01*
X6400993Y-11687119D02*
X6410517Y-11668071D01*
X6410517Y-11668071D02*
X6420041Y-11658548D01*
X6420041Y-11658548D02*
X6439088Y-11649024D01*
X6696231Y-11849024D02*
X6581946Y-11849024D01*
X6639088Y-11849024D02*
X6639088Y-11649024D01*
X6639088Y-11649024D02*
X6620041Y-11677595D01*
X6620041Y-11677595D02*
X6600993Y-11696643D01*
X6600993Y-11696643D02*
X6581946Y-11706167D01*
X6886707Y-11849024D02*
X6772422Y-11849024D01*
X6829565Y-11849024D02*
X6829565Y-11649024D01*
X6829565Y-11649024D02*
X6810517Y-11677595D01*
X6810517Y-11677595D02*
X6791469Y-11696643D01*
X6791469Y-11696643D02*
X6772422Y-11706167D01*
X7000993Y-11734738D02*
X6981946Y-11725214D01*
X6981946Y-11725214D02*
X6972422Y-11715690D01*
X6972422Y-11715690D02*
X6962898Y-11696643D01*
X6962898Y-11696643D02*
X6962898Y-11687119D01*
X6962898Y-11687119D02*
X6972422Y-11668071D01*
X6972422Y-11668071D02*
X6981946Y-11658548D01*
X6981946Y-11658548D02*
X7000993Y-11649024D01*
X7000993Y-11649024D02*
X7039088Y-11649024D01*
X7039088Y-11649024D02*
X7058136Y-11658548D01*
X7058136Y-11658548D02*
X7067660Y-11668071D01*
X7067660Y-11668071D02*
X7077184Y-11687119D01*
X7077184Y-11687119D02*
X7077184Y-11696643D01*
X7077184Y-11696643D02*
X7067660Y-11715690D01*
X7067660Y-11715690D02*
X7058136Y-11725214D01*
X7058136Y-11725214D02*
X7039088Y-11734738D01*
X7039088Y-11734738D02*
X7000993Y-11734738D01*
X7000993Y-11734738D02*
X6981946Y-11744262D01*
X6981946Y-11744262D02*
X6972422Y-11753786D01*
X6972422Y-11753786D02*
X6962898Y-11772833D01*
X6962898Y-11772833D02*
X6962898Y-11810928D01*
X6962898Y-11810928D02*
X6972422Y-11829976D01*
X6972422Y-11829976D02*
X6981946Y-11839500D01*
X6981946Y-11839500D02*
X7000993Y-11849024D01*
X7000993Y-11849024D02*
X7039088Y-11849024D01*
X7039088Y-11849024D02*
X7058136Y-11839500D01*
X7058136Y-11839500D02*
X7067660Y-11829976D01*
X7067660Y-11829976D02*
X7077184Y-11810928D01*
X7077184Y-11810928D02*
X7077184Y-11772833D01*
X7077184Y-11772833D02*
X7067660Y-11753786D01*
X7067660Y-11753786D02*
X7058136Y-11744262D01*
X7058136Y-11744262D02*
X7039088Y-11734738D01*
X7153374Y-11649024D02*
X7153374Y-11687119D01*
X7229565Y-11649024D02*
X7229565Y-11687119D01*
X7524803Y-11925214D02*
X7515279Y-11915690D01*
X7515279Y-11915690D02*
X7496231Y-11887119D01*
X7496231Y-11887119D02*
X7486708Y-11868071D01*
X7486708Y-11868071D02*
X7477184Y-11839500D01*
X7477184Y-11839500D02*
X7467660Y-11791881D01*
X7467660Y-11791881D02*
X7467660Y-11753786D01*
X7467660Y-11753786D02*
X7477184Y-11706167D01*
X7477184Y-11706167D02*
X7486708Y-11677595D01*
X7486708Y-11677595D02*
X7496231Y-11658548D01*
X7496231Y-11658548D02*
X7515279Y-11629976D01*
X7515279Y-11629976D02*
X7524803Y-11620452D01*
X7581946Y-11649024D02*
X7705755Y-11649024D01*
X7705755Y-11649024D02*
X7639088Y-11725214D01*
X7639088Y-11725214D02*
X7667660Y-11725214D01*
X7667660Y-11725214D02*
X7686708Y-11734738D01*
X7686708Y-11734738D02*
X7696231Y-11744262D01*
X7696231Y-11744262D02*
X7705755Y-11763309D01*
X7705755Y-11763309D02*
X7705755Y-11810928D01*
X7705755Y-11810928D02*
X7696231Y-11829976D01*
X7696231Y-11829976D02*
X7686708Y-11839500D01*
X7686708Y-11839500D02*
X7667660Y-11849024D01*
X7667660Y-11849024D02*
X7610517Y-11849024D01*
X7610517Y-11849024D02*
X7591469Y-11839500D01*
X7591469Y-11839500D02*
X7581946Y-11829976D01*
X7829565Y-11649024D02*
X7848612Y-11649024D01*
X7848612Y-11649024D02*
X7867660Y-11658548D01*
X7867660Y-11658548D02*
X7877184Y-11668071D01*
X7877184Y-11668071D02*
X7886708Y-11687119D01*
X7886708Y-11687119D02*
X7896231Y-11725214D01*
X7896231Y-11725214D02*
X7896231Y-11772833D01*
X7896231Y-11772833D02*
X7886708Y-11810928D01*
X7886708Y-11810928D02*
X7877184Y-11829976D01*
X7877184Y-11829976D02*
X7867660Y-11839500D01*
X7867660Y-11839500D02*
X7848612Y-11849024D01*
X7848612Y-11849024D02*
X7829565Y-11849024D01*
X7829565Y-11849024D02*
X7810517Y-11839500D01*
X7810517Y-11839500D02*
X7800993Y-11829976D01*
X7800993Y-11829976D02*
X7791469Y-11810928D01*
X7791469Y-11810928D02*
X7781946Y-11772833D01*
X7781946Y-11772833D02*
X7781946Y-11725214D01*
X7781946Y-11725214D02*
X7791469Y-11687119D01*
X7791469Y-11687119D02*
X7800993Y-11668071D01*
X7800993Y-11668071D02*
X7810517Y-11658548D01*
X7810517Y-11658548D02*
X7829565Y-11649024D01*
X7962898Y-11649024D02*
X8086708Y-11649024D01*
X8086708Y-11649024D02*
X8020041Y-11725214D01*
X8020041Y-11725214D02*
X8048612Y-11725214D01*
X8048612Y-11725214D02*
X8067660Y-11734738D01*
X8067660Y-11734738D02*
X8077184Y-11744262D01*
X8077184Y-11744262D02*
X8086708Y-11763309D01*
X8086708Y-11763309D02*
X8086708Y-11810928D01*
X8086708Y-11810928D02*
X8077184Y-11829976D01*
X8077184Y-11829976D02*
X8067660Y-11839500D01*
X8067660Y-11839500D02*
X8048612Y-11849024D01*
X8048612Y-11849024D02*
X7991469Y-11849024D01*
X7991469Y-11849024D02*
X7972422Y-11839500D01*
X7972422Y-11839500D02*
X7962898Y-11829976D01*
X8324803Y-11849024D02*
X8324803Y-11649024D01*
X8410517Y-11849024D02*
X8410517Y-11744262D01*
X8410517Y-11744262D02*
X8400993Y-11725214D01*
X8400993Y-11725214D02*
X8381946Y-11715690D01*
X8381946Y-11715690D02*
X8353374Y-11715690D01*
X8353374Y-11715690D02*
X8334327Y-11725214D01*
X8334327Y-11725214D02*
X8324803Y-11734738D01*
X8534327Y-11849024D02*
X8515279Y-11839500D01*
X8515279Y-11839500D02*
X8505755Y-11829976D01*
X8505755Y-11829976D02*
X8496232Y-11810928D01*
X8496232Y-11810928D02*
X8496232Y-11753786D01*
X8496232Y-11753786D02*
X8505755Y-11734738D01*
X8505755Y-11734738D02*
X8515279Y-11725214D01*
X8515279Y-11725214D02*
X8534327Y-11715690D01*
X8534327Y-11715690D02*
X8562898Y-11715690D01*
X8562898Y-11715690D02*
X8581946Y-11725214D01*
X8581946Y-11725214D02*
X8591470Y-11734738D01*
X8591470Y-11734738D02*
X8600993Y-11753786D01*
X8600993Y-11753786D02*
X8600993Y-11810928D01*
X8600993Y-11810928D02*
X8591470Y-11829976D01*
X8591470Y-11829976D02*
X8581946Y-11839500D01*
X8581946Y-11839500D02*
X8562898Y-11849024D01*
X8562898Y-11849024D02*
X8534327Y-11849024D01*
X8715279Y-11849024D02*
X8696232Y-11839500D01*
X8696232Y-11839500D02*
X8686708Y-11820452D01*
X8686708Y-11820452D02*
X8686708Y-11649024D01*
X8867660Y-11839500D02*
X8848613Y-11849024D01*
X8848613Y-11849024D02*
X8810517Y-11849024D01*
X8810517Y-11849024D02*
X8791470Y-11839500D01*
X8791470Y-11839500D02*
X8781946Y-11820452D01*
X8781946Y-11820452D02*
X8781946Y-11744262D01*
X8781946Y-11744262D02*
X8791470Y-11725214D01*
X8791470Y-11725214D02*
X8810517Y-11715690D01*
X8810517Y-11715690D02*
X8848613Y-11715690D01*
X8848613Y-11715690D02*
X8867660Y-11725214D01*
X8867660Y-11725214D02*
X8877184Y-11744262D01*
X8877184Y-11744262D02*
X8877184Y-11763309D01*
X8877184Y-11763309D02*
X8781946Y-11782357D01*
X8953374Y-11839500D02*
X8972422Y-11849024D01*
X8972422Y-11849024D02*
X9010517Y-11849024D01*
X9010517Y-11849024D02*
X9029565Y-11839500D01*
X9029565Y-11839500D02*
X9039089Y-11820452D01*
X9039089Y-11820452D02*
X9039089Y-11810928D01*
X9039089Y-11810928D02*
X9029565Y-11791881D01*
X9029565Y-11791881D02*
X9010517Y-11782357D01*
X9010517Y-11782357D02*
X8981946Y-11782357D01*
X8981946Y-11782357D02*
X8962898Y-11772833D01*
X8962898Y-11772833D02*
X8953374Y-11753786D01*
X8953374Y-11753786D02*
X8953374Y-11744262D01*
X8953374Y-11744262D02*
X8962898Y-11725214D01*
X8962898Y-11725214D02*
X8981946Y-11715690D01*
X8981946Y-11715690D02*
X9010517Y-11715690D01*
X9010517Y-11715690D02*
X9029565Y-11725214D01*
X9105755Y-11925214D02*
X9115279Y-11915690D01*
X9115279Y-11915690D02*
X9134327Y-11887119D01*
X9134327Y-11887119D02*
X9143851Y-11868071D01*
X9143851Y-11868071D02*
X9153374Y-11839500D01*
X9153374Y-11839500D02*
X9162898Y-11791881D01*
X9162898Y-11791881D02*
X9162898Y-11753786D01*
X9162898Y-11753786D02*
X9153374Y-11706167D01*
X9153374Y-11706167D02*
X9143851Y-11677595D01*
X9143851Y-11677595D02*
X9134327Y-11658548D01*
X9134327Y-11658548D02*
X9115279Y-11629976D01*
X9115279Y-11629976D02*
X9105755Y-11620452D01*
D13*
X3949740Y-12021540D02*
G75*
G03*
X3949740Y-12021540I-32500J0D01*
G01*
D11*
X4248612Y-11913024D02*
X4267660Y-11913024D01*
X4267660Y-11913024D02*
X4286707Y-11922548D01*
X4286707Y-11922548D02*
X4296231Y-11932071D01*
X4296231Y-11932071D02*
X4305755Y-11951119D01*
X4305755Y-11951119D02*
X4315279Y-11989214D01*
X4315279Y-11989214D02*
X4315279Y-12036833D01*
X4315279Y-12036833D02*
X4305755Y-12074928D01*
X4305755Y-12074928D02*
X4296231Y-12093976D01*
X4296231Y-12093976D02*
X4286707Y-12103500D01*
X4286707Y-12103500D02*
X4267660Y-12113024D01*
X4267660Y-12113024D02*
X4248612Y-12113024D01*
X4248612Y-12113024D02*
X4229564Y-12103500D01*
X4229564Y-12103500D02*
X4220041Y-12093976D01*
X4220041Y-12093976D02*
X4210517Y-12074928D01*
X4210517Y-12074928D02*
X4200993Y-12036833D01*
X4200993Y-12036833D02*
X4200993Y-11989214D01*
X4200993Y-11989214D02*
X4210517Y-11951119D01*
X4210517Y-11951119D02*
X4220041Y-11932071D01*
X4220041Y-11932071D02*
X4229564Y-11922548D01*
X4229564Y-11922548D02*
X4248612Y-11913024D01*
X4400993Y-12093976D02*
X4410517Y-12103500D01*
X4410517Y-12103500D02*
X4400993Y-12113024D01*
X4400993Y-12113024D02*
X4391469Y-12103500D01*
X4391469Y-12103500D02*
X4400993Y-12093976D01*
X4400993Y-12093976D02*
X4400993Y-12113024D01*
X4581945Y-11913024D02*
X4543850Y-11913024D01*
X4543850Y-11913024D02*
X4524803Y-11922548D01*
X4524803Y-11922548D02*
X4515279Y-11932071D01*
X4515279Y-11932071D02*
X4496231Y-11960643D01*
X4496231Y-11960643D02*
X4486707Y-11998738D01*
X4486707Y-11998738D02*
X4486707Y-12074928D01*
X4486707Y-12074928D02*
X4496231Y-12093976D01*
X4496231Y-12093976D02*
X4505755Y-12103500D01*
X4505755Y-12103500D02*
X4524803Y-12113024D01*
X4524803Y-12113024D02*
X4562898Y-12113024D01*
X4562898Y-12113024D02*
X4581945Y-12103500D01*
X4581945Y-12103500D02*
X4591469Y-12093976D01*
X4591469Y-12093976D02*
X4600993Y-12074928D01*
X4600993Y-12074928D02*
X4600993Y-12027309D01*
X4600993Y-12027309D02*
X4591469Y-12008262D01*
X4591469Y-12008262D02*
X4581945Y-11998738D01*
X4581945Y-11998738D02*
X4562898Y-11989214D01*
X4562898Y-11989214D02*
X4524803Y-11989214D01*
X4524803Y-11989214D02*
X4505755Y-11998738D01*
X4505755Y-11998738D02*
X4496231Y-12008262D01*
X4496231Y-12008262D02*
X4486707Y-12027309D01*
X4781945Y-11913024D02*
X4686707Y-11913024D01*
X4686707Y-11913024D02*
X4677184Y-12008262D01*
X4677184Y-12008262D02*
X4686707Y-11998738D01*
X4686707Y-11998738D02*
X4705755Y-11989214D01*
X4705755Y-11989214D02*
X4753374Y-11989214D01*
X4753374Y-11989214D02*
X4772422Y-11998738D01*
X4772422Y-11998738D02*
X4781945Y-12008262D01*
X4781945Y-12008262D02*
X4791469Y-12027309D01*
X4791469Y-12027309D02*
X4791469Y-12074928D01*
X4791469Y-12074928D02*
X4781945Y-12093976D01*
X4781945Y-12093976D02*
X4772422Y-12103500D01*
X4772422Y-12103500D02*
X4753374Y-12113024D01*
X4753374Y-12113024D02*
X4705755Y-12113024D01*
X4705755Y-12113024D02*
X4686707Y-12103500D01*
X4686707Y-12103500D02*
X4677184Y-12093976D01*
X4915279Y-11913024D02*
X4934326Y-11913024D01*
X4934326Y-11913024D02*
X4953374Y-11922548D01*
X4953374Y-11922548D02*
X4962898Y-11932071D01*
X4962898Y-11932071D02*
X4972422Y-11951119D01*
X4972422Y-11951119D02*
X4981945Y-11989214D01*
X4981945Y-11989214D02*
X4981945Y-12036833D01*
X4981945Y-12036833D02*
X4972422Y-12074928D01*
X4972422Y-12074928D02*
X4962898Y-12093976D01*
X4962898Y-12093976D02*
X4953374Y-12103500D01*
X4953374Y-12103500D02*
X4934326Y-12113024D01*
X4934326Y-12113024D02*
X4915279Y-12113024D01*
X4915279Y-12113024D02*
X4896231Y-12103500D01*
X4896231Y-12103500D02*
X4886707Y-12093976D01*
X4886707Y-12093976D02*
X4877184Y-12074928D01*
X4877184Y-12074928D02*
X4867660Y-12036833D01*
X4867660Y-12036833D02*
X4867660Y-11989214D01*
X4867660Y-11989214D02*
X4877184Y-11951119D01*
X4877184Y-11951119D02*
X4886707Y-11932071D01*
X4886707Y-11932071D02*
X4896231Y-11922548D01*
X4896231Y-11922548D02*
X4915279Y-11913024D01*
X5067660Y-12113024D02*
X5067660Y-11979690D01*
X5067660Y-11998738D02*
X5077184Y-11989214D01*
X5077184Y-11989214D02*
X5096231Y-11979690D01*
X5096231Y-11979690D02*
X5124803Y-11979690D01*
X5124803Y-11979690D02*
X5143850Y-11989214D01*
X5143850Y-11989214D02*
X5153374Y-12008262D01*
X5153374Y-12008262D02*
X5153374Y-12113024D01*
X5153374Y-12008262D02*
X5162898Y-11989214D01*
X5162898Y-11989214D02*
X5181945Y-11979690D01*
X5181945Y-11979690D02*
X5210517Y-11979690D01*
X5210517Y-11979690D02*
X5229565Y-11989214D01*
X5229565Y-11989214D02*
X5239088Y-12008262D01*
X5239088Y-12008262D02*
X5239088Y-12113024D01*
X5334326Y-12113024D02*
X5334326Y-11979690D01*
X5334326Y-11998738D02*
X5343850Y-11989214D01*
X5343850Y-11989214D02*
X5362898Y-11979690D01*
X5362898Y-11979690D02*
X5391469Y-11979690D01*
X5391469Y-11979690D02*
X5410517Y-11989214D01*
X5410517Y-11989214D02*
X5420041Y-12008262D01*
X5420041Y-12008262D02*
X5420041Y-12113024D01*
X5420041Y-12008262D02*
X5429565Y-11989214D01*
X5429565Y-11989214D02*
X5448612Y-11979690D01*
X5448612Y-11979690D02*
X5477184Y-11979690D01*
X5477184Y-11979690D02*
X5496231Y-11989214D01*
X5496231Y-11989214D02*
X5505755Y-12008262D01*
X5505755Y-12008262D02*
X5505755Y-12113024D01*
X5896231Y-11903500D02*
X5724803Y-12160643D01*
X6153374Y-11913024D02*
X6172422Y-11913024D01*
X6172422Y-11913024D02*
X6191469Y-11922548D01*
X6191469Y-11922548D02*
X6200993Y-11932071D01*
X6200993Y-11932071D02*
X6210517Y-11951119D01*
X6210517Y-11951119D02*
X6220041Y-11989214D01*
X6220041Y-11989214D02*
X6220041Y-12036833D01*
X6220041Y-12036833D02*
X6210517Y-12074928D01*
X6210517Y-12074928D02*
X6200993Y-12093976D01*
X6200993Y-12093976D02*
X6191469Y-12103500D01*
X6191469Y-12103500D02*
X6172422Y-12113024D01*
X6172422Y-12113024D02*
X6153374Y-12113024D01*
X6153374Y-12113024D02*
X6134326Y-12103500D01*
X6134326Y-12103500D02*
X6124803Y-12093976D01*
X6124803Y-12093976D02*
X6115279Y-12074928D01*
X6115279Y-12074928D02*
X6105755Y-12036833D01*
X6105755Y-12036833D02*
X6105755Y-11989214D01*
X6105755Y-11989214D02*
X6115279Y-11951119D01*
X6115279Y-11951119D02*
X6124803Y-11932071D01*
X6124803Y-11932071D02*
X6134326Y-11922548D01*
X6134326Y-11922548D02*
X6153374Y-11913024D01*
X6305755Y-12093976D02*
X6315279Y-12103500D01*
X6315279Y-12103500D02*
X6305755Y-12113024D01*
X6305755Y-12113024D02*
X6296231Y-12103500D01*
X6296231Y-12103500D02*
X6305755Y-12093976D01*
X6305755Y-12093976D02*
X6305755Y-12113024D01*
X6439088Y-11913024D02*
X6458136Y-11913024D01*
X6458136Y-11913024D02*
X6477184Y-11922548D01*
X6477184Y-11922548D02*
X6486707Y-11932071D01*
X6486707Y-11932071D02*
X6496231Y-11951119D01*
X6496231Y-11951119D02*
X6505755Y-11989214D01*
X6505755Y-11989214D02*
X6505755Y-12036833D01*
X6505755Y-12036833D02*
X6496231Y-12074928D01*
X6496231Y-12074928D02*
X6486707Y-12093976D01*
X6486707Y-12093976D02*
X6477184Y-12103500D01*
X6477184Y-12103500D02*
X6458136Y-12113024D01*
X6458136Y-12113024D02*
X6439088Y-12113024D01*
X6439088Y-12113024D02*
X6420041Y-12103500D01*
X6420041Y-12103500D02*
X6410517Y-12093976D01*
X6410517Y-12093976D02*
X6400993Y-12074928D01*
X6400993Y-12074928D02*
X6391469Y-12036833D01*
X6391469Y-12036833D02*
X6391469Y-11989214D01*
X6391469Y-11989214D02*
X6400993Y-11951119D01*
X6400993Y-11951119D02*
X6410517Y-11932071D01*
X6410517Y-11932071D02*
X6420041Y-11922548D01*
X6420041Y-11922548D02*
X6439088Y-11913024D01*
X6581946Y-11932071D02*
X6591469Y-11922548D01*
X6591469Y-11922548D02*
X6610517Y-11913024D01*
X6610517Y-11913024D02*
X6658136Y-11913024D01*
X6658136Y-11913024D02*
X6677184Y-11922548D01*
X6677184Y-11922548D02*
X6686707Y-11932071D01*
X6686707Y-11932071D02*
X6696231Y-11951119D01*
X6696231Y-11951119D02*
X6696231Y-11970167D01*
X6696231Y-11970167D02*
X6686707Y-11998738D01*
X6686707Y-11998738D02*
X6572422Y-12113024D01*
X6572422Y-12113024D02*
X6696231Y-12113024D01*
X6877184Y-11913024D02*
X6781946Y-11913024D01*
X6781946Y-11913024D02*
X6772422Y-12008262D01*
X6772422Y-12008262D02*
X6781946Y-11998738D01*
X6781946Y-11998738D02*
X6800993Y-11989214D01*
X6800993Y-11989214D02*
X6848612Y-11989214D01*
X6848612Y-11989214D02*
X6867660Y-11998738D01*
X6867660Y-11998738D02*
X6877184Y-12008262D01*
X6877184Y-12008262D02*
X6886707Y-12027309D01*
X6886707Y-12027309D02*
X6886707Y-12074928D01*
X6886707Y-12074928D02*
X6877184Y-12093976D01*
X6877184Y-12093976D02*
X6867660Y-12103500D01*
X6867660Y-12103500D02*
X6848612Y-12113024D01*
X6848612Y-12113024D02*
X6800993Y-12113024D01*
X6800993Y-12113024D02*
X6781946Y-12103500D01*
X6781946Y-12103500D02*
X6772422Y-12093976D01*
X7058136Y-11913024D02*
X7020041Y-11913024D01*
X7020041Y-11913024D02*
X7000993Y-11922548D01*
X7000993Y-11922548D02*
X6991469Y-11932071D01*
X6991469Y-11932071D02*
X6972422Y-11960643D01*
X6972422Y-11960643D02*
X6962898Y-11998738D01*
X6962898Y-11998738D02*
X6962898Y-12074928D01*
X6962898Y-12074928D02*
X6972422Y-12093976D01*
X6972422Y-12093976D02*
X6981946Y-12103500D01*
X6981946Y-12103500D02*
X7000993Y-12113024D01*
X7000993Y-12113024D02*
X7039088Y-12113024D01*
X7039088Y-12113024D02*
X7058136Y-12103500D01*
X7058136Y-12103500D02*
X7067660Y-12093976D01*
X7067660Y-12093976D02*
X7077184Y-12074928D01*
X7077184Y-12074928D02*
X7077184Y-12027309D01*
X7077184Y-12027309D02*
X7067660Y-12008262D01*
X7067660Y-12008262D02*
X7058136Y-11998738D01*
X7058136Y-11998738D02*
X7039088Y-11989214D01*
X7039088Y-11989214D02*
X7000993Y-11989214D01*
X7000993Y-11989214D02*
X6981946Y-11998738D01*
X6981946Y-11998738D02*
X6972422Y-12008262D01*
X6972422Y-12008262D02*
X6962898Y-12027309D01*
X7153374Y-11913024D02*
X7153374Y-11951119D01*
X7229565Y-11913024D02*
X7229565Y-11951119D01*
X7524803Y-12189214D02*
X7515279Y-12179690D01*
X7515279Y-12179690D02*
X7496231Y-12151119D01*
X7496231Y-12151119D02*
X7486708Y-12132071D01*
X7486708Y-12132071D02*
X7477184Y-12103500D01*
X7477184Y-12103500D02*
X7467660Y-12055881D01*
X7467660Y-12055881D02*
X7467660Y-12017786D01*
X7467660Y-12017786D02*
X7477184Y-11970167D01*
X7477184Y-11970167D02*
X7486708Y-11941595D01*
X7486708Y-11941595D02*
X7496231Y-11922548D01*
X7496231Y-11922548D02*
X7515279Y-11893976D01*
X7515279Y-11893976D02*
X7524803Y-11884452D01*
X7639088Y-11913024D02*
X7658136Y-11913024D01*
X7658136Y-11913024D02*
X7677184Y-11922548D01*
X7677184Y-11922548D02*
X7686708Y-11932071D01*
X7686708Y-11932071D02*
X7696231Y-11951119D01*
X7696231Y-11951119D02*
X7705755Y-11989214D01*
X7705755Y-11989214D02*
X7705755Y-12036833D01*
X7705755Y-12036833D02*
X7696231Y-12074928D01*
X7696231Y-12074928D02*
X7686708Y-12093976D01*
X7686708Y-12093976D02*
X7677184Y-12103500D01*
X7677184Y-12103500D02*
X7658136Y-12113024D01*
X7658136Y-12113024D02*
X7639088Y-12113024D01*
X7639088Y-12113024D02*
X7620041Y-12103500D01*
X7620041Y-12103500D02*
X7610517Y-12093976D01*
X7610517Y-12093976D02*
X7600993Y-12074928D01*
X7600993Y-12074928D02*
X7591469Y-12036833D01*
X7591469Y-12036833D02*
X7591469Y-11989214D01*
X7591469Y-11989214D02*
X7600993Y-11951119D01*
X7600993Y-11951119D02*
X7610517Y-11932071D01*
X7610517Y-11932071D02*
X7620041Y-11922548D01*
X7620041Y-11922548D02*
X7639088Y-11913024D01*
X7943850Y-12113024D02*
X7943850Y-11913024D01*
X8029565Y-12113024D02*
X8029565Y-12008262D01*
X8029565Y-12008262D02*
X8020041Y-11989214D01*
X8020041Y-11989214D02*
X8000993Y-11979690D01*
X8000993Y-11979690D02*
X7972422Y-11979690D01*
X7972422Y-11979690D02*
X7953374Y-11989214D01*
X7953374Y-11989214D02*
X7943850Y-11998738D01*
X8153374Y-12113024D02*
X8134327Y-12103500D01*
X8134327Y-12103500D02*
X8124803Y-12093976D01*
X8124803Y-12093976D02*
X8115279Y-12074928D01*
X8115279Y-12074928D02*
X8115279Y-12017786D01*
X8115279Y-12017786D02*
X8124803Y-11998738D01*
X8124803Y-11998738D02*
X8134327Y-11989214D01*
X8134327Y-11989214D02*
X8153374Y-11979690D01*
X8153374Y-11979690D02*
X8181946Y-11979690D01*
X8181946Y-11979690D02*
X8200993Y-11989214D01*
X8200993Y-11989214D02*
X8210517Y-11998738D01*
X8210517Y-11998738D02*
X8220041Y-12017786D01*
X8220041Y-12017786D02*
X8220041Y-12074928D01*
X8220041Y-12074928D02*
X8210517Y-12093976D01*
X8210517Y-12093976D02*
X8200993Y-12103500D01*
X8200993Y-12103500D02*
X8181946Y-12113024D01*
X8181946Y-12113024D02*
X8153374Y-12113024D01*
X8334327Y-12113024D02*
X8315279Y-12103500D01*
X8315279Y-12103500D02*
X8305755Y-12084452D01*
X8305755Y-12084452D02*
X8305755Y-11913024D01*
X8486708Y-12103500D02*
X8467660Y-12113024D01*
X8467660Y-12113024D02*
X8429565Y-12113024D01*
X8429565Y-12113024D02*
X8410517Y-12103500D01*
X8410517Y-12103500D02*
X8400993Y-12084452D01*
X8400993Y-12084452D02*
X8400993Y-12008262D01*
X8400993Y-12008262D02*
X8410517Y-11989214D01*
X8410517Y-11989214D02*
X8429565Y-11979690D01*
X8429565Y-11979690D02*
X8467660Y-11979690D01*
X8467660Y-11979690D02*
X8486708Y-11989214D01*
X8486708Y-11989214D02*
X8496232Y-12008262D01*
X8496232Y-12008262D02*
X8496232Y-12027309D01*
X8496232Y-12027309D02*
X8400993Y-12046357D01*
X8572422Y-12103500D02*
X8591470Y-12113024D01*
X8591470Y-12113024D02*
X8629565Y-12113024D01*
X8629565Y-12113024D02*
X8648613Y-12103500D01*
X8648613Y-12103500D02*
X8658136Y-12084452D01*
X8658136Y-12084452D02*
X8658136Y-12074928D01*
X8658136Y-12074928D02*
X8648613Y-12055881D01*
X8648613Y-12055881D02*
X8629565Y-12046357D01*
X8629565Y-12046357D02*
X8600993Y-12046357D01*
X8600993Y-12046357D02*
X8581946Y-12036833D01*
X8581946Y-12036833D02*
X8572422Y-12017786D01*
X8572422Y-12017786D02*
X8572422Y-12008262D01*
X8572422Y-12008262D02*
X8581946Y-11989214D01*
X8581946Y-11989214D02*
X8600993Y-11979690D01*
X8600993Y-11979690D02*
X8629565Y-11979690D01*
X8629565Y-11979690D02*
X8648613Y-11989214D01*
X8896232Y-12036833D02*
X9048613Y-12036833D01*
X8972422Y-12113024D02*
X8972422Y-11960643D01*
X9381946Y-11979690D02*
X9381946Y-12113024D01*
X9334327Y-11903500D02*
X9286708Y-12046357D01*
X9286708Y-12046357D02*
X9410517Y-12046357D01*
X9629565Y-12103500D02*
X9648613Y-12113024D01*
X9648613Y-12113024D02*
X9686708Y-12113024D01*
X9686708Y-12113024D02*
X9705756Y-12103500D01*
X9705756Y-12103500D02*
X9715279Y-12084452D01*
X9715279Y-12084452D02*
X9715279Y-12074928D01*
X9715279Y-12074928D02*
X9705756Y-12055881D01*
X9705756Y-12055881D02*
X9686708Y-12046357D01*
X9686708Y-12046357D02*
X9658136Y-12046357D01*
X9658136Y-12046357D02*
X9639089Y-12036833D01*
X9639089Y-12036833D02*
X9629565Y-12017786D01*
X9629565Y-12017786D02*
X9629565Y-12008262D01*
X9629565Y-12008262D02*
X9639089Y-11989214D01*
X9639089Y-11989214D02*
X9658136Y-11979690D01*
X9658136Y-11979690D02*
X9686708Y-11979690D01*
X9686708Y-11979690D02*
X9705756Y-11989214D01*
X9829565Y-12113024D02*
X9810517Y-12103500D01*
X9810517Y-12103500D02*
X9800994Y-12084452D01*
X9800994Y-12084452D02*
X9800994Y-11913024D01*
X9934327Y-12113024D02*
X9915279Y-12103500D01*
X9915279Y-12103500D02*
X9905756Y-12093976D01*
X9905756Y-12093976D02*
X9896232Y-12074928D01*
X9896232Y-12074928D02*
X9896232Y-12017786D01*
X9896232Y-12017786D02*
X9905756Y-11998738D01*
X9905756Y-11998738D02*
X9915279Y-11989214D01*
X9915279Y-11989214D02*
X9934327Y-11979690D01*
X9934327Y-11979690D02*
X9962898Y-11979690D01*
X9962898Y-11979690D02*
X9981946Y-11989214D01*
X9981946Y-11989214D02*
X9991470Y-11998738D01*
X9991470Y-11998738D02*
X10000994Y-12017786D01*
X10000994Y-12017786D02*
X10000994Y-12074928D01*
X10000994Y-12074928D02*
X9991470Y-12093976D01*
X9991470Y-12093976D02*
X9981946Y-12103500D01*
X9981946Y-12103500D02*
X9962898Y-12113024D01*
X9962898Y-12113024D02*
X9934327Y-12113024D01*
X10058137Y-11979690D02*
X10134327Y-11979690D01*
X10086708Y-11913024D02*
X10086708Y-12084452D01*
X10086708Y-12084452D02*
X10096232Y-12103500D01*
X10096232Y-12103500D02*
X10115279Y-12113024D01*
X10115279Y-12113024D02*
X10134327Y-12113024D01*
X10191470Y-12103500D02*
X10210517Y-12113024D01*
X10210517Y-12113024D02*
X10248613Y-12113024D01*
X10248613Y-12113024D02*
X10267660Y-12103500D01*
X10267660Y-12103500D02*
X10277184Y-12084452D01*
X10277184Y-12084452D02*
X10277184Y-12074928D01*
X10277184Y-12074928D02*
X10267660Y-12055881D01*
X10267660Y-12055881D02*
X10248613Y-12046357D01*
X10248613Y-12046357D02*
X10220041Y-12046357D01*
X10220041Y-12046357D02*
X10200994Y-12036833D01*
X10200994Y-12036833D02*
X10191470Y-12017786D01*
X10191470Y-12017786D02*
X10191470Y-12008262D01*
X10191470Y-12008262D02*
X10200994Y-11989214D01*
X10200994Y-11989214D02*
X10220041Y-11979690D01*
X10220041Y-11979690D02*
X10248613Y-11979690D01*
X10248613Y-11979690D02*
X10267660Y-11989214D01*
X10343851Y-12189214D02*
X10353375Y-12179690D01*
X10353375Y-12179690D02*
X10372422Y-12151119D01*
X10372422Y-12151119D02*
X10381946Y-12132071D01*
X10381946Y-12132071D02*
X10391470Y-12103500D01*
X10391470Y-12103500D02*
X10400994Y-12055881D01*
X10400994Y-12055881D02*
X10400994Y-12017786D01*
X10400994Y-12017786D02*
X10391470Y-11970167D01*
X10391470Y-11970167D02*
X10381946Y-11941595D01*
X10381946Y-11941595D02*
X10372422Y-11922548D01*
X10372422Y-11922548D02*
X10353375Y-11893976D01*
X10353375Y-11893976D02*
X10343851Y-11884452D01*
D14*
X3899740Y-12235540D02*
X3899740Y-12335540D01*
X3849740Y-12285540D02*
X3949740Y-12285540D01*
D11*
X4315279Y-12377024D02*
X4200993Y-12377024D01*
X4258136Y-12377024D02*
X4258136Y-12177024D01*
X4258136Y-12177024D02*
X4239088Y-12205595D01*
X4239088Y-12205595D02*
X4220041Y-12224643D01*
X4220041Y-12224643D02*
X4200993Y-12234167D01*
X4400993Y-12357976D02*
X4410517Y-12367500D01*
X4410517Y-12367500D02*
X4400993Y-12377024D01*
X4400993Y-12377024D02*
X4391469Y-12367500D01*
X4391469Y-12367500D02*
X4400993Y-12357976D01*
X4400993Y-12357976D02*
X4400993Y-12377024D01*
X4534326Y-12177024D02*
X4553374Y-12177024D01*
X4553374Y-12177024D02*
X4572422Y-12186548D01*
X4572422Y-12186548D02*
X4581945Y-12196071D01*
X4581945Y-12196071D02*
X4591469Y-12215119D01*
X4591469Y-12215119D02*
X4600993Y-12253214D01*
X4600993Y-12253214D02*
X4600993Y-12300833D01*
X4600993Y-12300833D02*
X4591469Y-12338928D01*
X4591469Y-12338928D02*
X4581945Y-12357976D01*
X4581945Y-12357976D02*
X4572422Y-12367500D01*
X4572422Y-12367500D02*
X4553374Y-12377024D01*
X4553374Y-12377024D02*
X4534326Y-12377024D01*
X4534326Y-12377024D02*
X4515279Y-12367500D01*
X4515279Y-12367500D02*
X4505755Y-12357976D01*
X4505755Y-12357976D02*
X4496231Y-12338928D01*
X4496231Y-12338928D02*
X4486707Y-12300833D01*
X4486707Y-12300833D02*
X4486707Y-12253214D01*
X4486707Y-12253214D02*
X4496231Y-12215119D01*
X4496231Y-12215119D02*
X4505755Y-12196071D01*
X4505755Y-12196071D02*
X4515279Y-12186548D01*
X4515279Y-12186548D02*
X4534326Y-12177024D01*
X4724803Y-12177024D02*
X4743850Y-12177024D01*
X4743850Y-12177024D02*
X4762898Y-12186548D01*
X4762898Y-12186548D02*
X4772422Y-12196071D01*
X4772422Y-12196071D02*
X4781945Y-12215119D01*
X4781945Y-12215119D02*
X4791469Y-12253214D01*
X4791469Y-12253214D02*
X4791469Y-12300833D01*
X4791469Y-12300833D02*
X4781945Y-12338928D01*
X4781945Y-12338928D02*
X4772422Y-12357976D01*
X4772422Y-12357976D02*
X4762898Y-12367500D01*
X4762898Y-12367500D02*
X4743850Y-12377024D01*
X4743850Y-12377024D02*
X4724803Y-12377024D01*
X4724803Y-12377024D02*
X4705755Y-12367500D01*
X4705755Y-12367500D02*
X4696231Y-12357976D01*
X4696231Y-12357976D02*
X4686707Y-12338928D01*
X4686707Y-12338928D02*
X4677184Y-12300833D01*
X4677184Y-12300833D02*
X4677184Y-12253214D01*
X4677184Y-12253214D02*
X4686707Y-12215119D01*
X4686707Y-12215119D02*
X4696231Y-12196071D01*
X4696231Y-12196071D02*
X4705755Y-12186548D01*
X4705755Y-12186548D02*
X4724803Y-12177024D01*
X4915279Y-12177024D02*
X4934326Y-12177024D01*
X4934326Y-12177024D02*
X4953374Y-12186548D01*
X4953374Y-12186548D02*
X4962898Y-12196071D01*
X4962898Y-12196071D02*
X4972422Y-12215119D01*
X4972422Y-12215119D02*
X4981945Y-12253214D01*
X4981945Y-12253214D02*
X4981945Y-12300833D01*
X4981945Y-12300833D02*
X4972422Y-12338928D01*
X4972422Y-12338928D02*
X4962898Y-12357976D01*
X4962898Y-12357976D02*
X4953374Y-12367500D01*
X4953374Y-12367500D02*
X4934326Y-12377024D01*
X4934326Y-12377024D02*
X4915279Y-12377024D01*
X4915279Y-12377024D02*
X4896231Y-12367500D01*
X4896231Y-12367500D02*
X4886707Y-12357976D01*
X4886707Y-12357976D02*
X4877184Y-12338928D01*
X4877184Y-12338928D02*
X4867660Y-12300833D01*
X4867660Y-12300833D02*
X4867660Y-12253214D01*
X4867660Y-12253214D02*
X4877184Y-12215119D01*
X4877184Y-12215119D02*
X4886707Y-12196071D01*
X4886707Y-12196071D02*
X4896231Y-12186548D01*
X4896231Y-12186548D02*
X4915279Y-12177024D01*
X5067660Y-12377024D02*
X5067660Y-12243690D01*
X5067660Y-12262738D02*
X5077184Y-12253214D01*
X5077184Y-12253214D02*
X5096231Y-12243690D01*
X5096231Y-12243690D02*
X5124803Y-12243690D01*
X5124803Y-12243690D02*
X5143850Y-12253214D01*
X5143850Y-12253214D02*
X5153374Y-12272262D01*
X5153374Y-12272262D02*
X5153374Y-12377024D01*
X5153374Y-12272262D02*
X5162898Y-12253214D01*
X5162898Y-12253214D02*
X5181945Y-12243690D01*
X5181945Y-12243690D02*
X5210517Y-12243690D01*
X5210517Y-12243690D02*
X5229565Y-12253214D01*
X5229565Y-12253214D02*
X5239088Y-12272262D01*
X5239088Y-12272262D02*
X5239088Y-12377024D01*
X5334326Y-12377024D02*
X5334326Y-12243690D01*
X5334326Y-12262738D02*
X5343850Y-12253214D01*
X5343850Y-12253214D02*
X5362898Y-12243690D01*
X5362898Y-12243690D02*
X5391469Y-12243690D01*
X5391469Y-12243690D02*
X5410517Y-12253214D01*
X5410517Y-12253214D02*
X5420041Y-12272262D01*
X5420041Y-12272262D02*
X5420041Y-12377024D01*
X5420041Y-12272262D02*
X5429565Y-12253214D01*
X5429565Y-12253214D02*
X5448612Y-12243690D01*
X5448612Y-12243690D02*
X5477184Y-12243690D01*
X5477184Y-12243690D02*
X5496231Y-12253214D01*
X5496231Y-12253214D02*
X5505755Y-12272262D01*
X5505755Y-12272262D02*
X5505755Y-12377024D01*
X5896231Y-12167500D02*
X5724803Y-12424643D01*
X6153374Y-12177024D02*
X6172422Y-12177024D01*
X6172422Y-12177024D02*
X6191469Y-12186548D01*
X6191469Y-12186548D02*
X6200993Y-12196071D01*
X6200993Y-12196071D02*
X6210517Y-12215119D01*
X6210517Y-12215119D02*
X6220041Y-12253214D01*
X6220041Y-12253214D02*
X6220041Y-12300833D01*
X6220041Y-12300833D02*
X6210517Y-12338928D01*
X6210517Y-12338928D02*
X6200993Y-12357976D01*
X6200993Y-12357976D02*
X6191469Y-12367500D01*
X6191469Y-12367500D02*
X6172422Y-12377024D01*
X6172422Y-12377024D02*
X6153374Y-12377024D01*
X6153374Y-12377024D02*
X6134326Y-12367500D01*
X6134326Y-12367500D02*
X6124803Y-12357976D01*
X6124803Y-12357976D02*
X6115279Y-12338928D01*
X6115279Y-12338928D02*
X6105755Y-12300833D01*
X6105755Y-12300833D02*
X6105755Y-12253214D01*
X6105755Y-12253214D02*
X6115279Y-12215119D01*
X6115279Y-12215119D02*
X6124803Y-12196071D01*
X6124803Y-12196071D02*
X6134326Y-12186548D01*
X6134326Y-12186548D02*
X6153374Y-12177024D01*
X6305755Y-12357976D02*
X6315279Y-12367500D01*
X6315279Y-12367500D02*
X6305755Y-12377024D01*
X6305755Y-12377024D02*
X6296231Y-12367500D01*
X6296231Y-12367500D02*
X6305755Y-12357976D01*
X6305755Y-12357976D02*
X6305755Y-12377024D01*
X6439088Y-12177024D02*
X6458136Y-12177024D01*
X6458136Y-12177024D02*
X6477184Y-12186548D01*
X6477184Y-12186548D02*
X6486707Y-12196071D01*
X6486707Y-12196071D02*
X6496231Y-12215119D01*
X6496231Y-12215119D02*
X6505755Y-12253214D01*
X6505755Y-12253214D02*
X6505755Y-12300833D01*
X6505755Y-12300833D02*
X6496231Y-12338928D01*
X6496231Y-12338928D02*
X6486707Y-12357976D01*
X6486707Y-12357976D02*
X6477184Y-12367500D01*
X6477184Y-12367500D02*
X6458136Y-12377024D01*
X6458136Y-12377024D02*
X6439088Y-12377024D01*
X6439088Y-12377024D02*
X6420041Y-12367500D01*
X6420041Y-12367500D02*
X6410517Y-12357976D01*
X6410517Y-12357976D02*
X6400993Y-12338928D01*
X6400993Y-12338928D02*
X6391469Y-12300833D01*
X6391469Y-12300833D02*
X6391469Y-12253214D01*
X6391469Y-12253214D02*
X6400993Y-12215119D01*
X6400993Y-12215119D02*
X6410517Y-12196071D01*
X6410517Y-12196071D02*
X6420041Y-12186548D01*
X6420041Y-12186548D02*
X6439088Y-12177024D01*
X6572422Y-12177024D02*
X6696231Y-12177024D01*
X6696231Y-12177024D02*
X6629565Y-12253214D01*
X6629565Y-12253214D02*
X6658136Y-12253214D01*
X6658136Y-12253214D02*
X6677184Y-12262738D01*
X6677184Y-12262738D02*
X6686707Y-12272262D01*
X6686707Y-12272262D02*
X6696231Y-12291309D01*
X6696231Y-12291309D02*
X6696231Y-12338928D01*
X6696231Y-12338928D02*
X6686707Y-12357976D01*
X6686707Y-12357976D02*
X6677184Y-12367500D01*
X6677184Y-12367500D02*
X6658136Y-12377024D01*
X6658136Y-12377024D02*
X6600993Y-12377024D01*
X6600993Y-12377024D02*
X6581946Y-12367500D01*
X6581946Y-12367500D02*
X6572422Y-12357976D01*
X6791469Y-12377024D02*
X6829565Y-12377024D01*
X6829565Y-12377024D02*
X6848612Y-12367500D01*
X6848612Y-12367500D02*
X6858136Y-12357976D01*
X6858136Y-12357976D02*
X6877184Y-12329405D01*
X6877184Y-12329405D02*
X6886707Y-12291309D01*
X6886707Y-12291309D02*
X6886707Y-12215119D01*
X6886707Y-12215119D02*
X6877184Y-12196071D01*
X6877184Y-12196071D02*
X6867660Y-12186548D01*
X6867660Y-12186548D02*
X6848612Y-12177024D01*
X6848612Y-12177024D02*
X6810517Y-12177024D01*
X6810517Y-12177024D02*
X6791469Y-12186548D01*
X6791469Y-12186548D02*
X6781946Y-12196071D01*
X6781946Y-12196071D02*
X6772422Y-12215119D01*
X6772422Y-12215119D02*
X6772422Y-12262738D01*
X6772422Y-12262738D02*
X6781946Y-12281786D01*
X6781946Y-12281786D02*
X6791469Y-12291309D01*
X6791469Y-12291309D02*
X6810517Y-12300833D01*
X6810517Y-12300833D02*
X6848612Y-12300833D01*
X6848612Y-12300833D02*
X6867660Y-12291309D01*
X6867660Y-12291309D02*
X6877184Y-12281786D01*
X6877184Y-12281786D02*
X6886707Y-12262738D01*
X7058136Y-12243690D02*
X7058136Y-12377024D01*
X7010517Y-12167500D02*
X6962898Y-12310357D01*
X6962898Y-12310357D02*
X7086707Y-12310357D01*
X7153374Y-12177024D02*
X7153374Y-12215119D01*
X7229565Y-12177024D02*
X7229565Y-12215119D01*
X7524803Y-12453214D02*
X7515279Y-12443690D01*
X7515279Y-12443690D02*
X7496231Y-12415119D01*
X7496231Y-12415119D02*
X7486708Y-12396071D01*
X7486708Y-12396071D02*
X7477184Y-12367500D01*
X7477184Y-12367500D02*
X7467660Y-12319881D01*
X7467660Y-12319881D02*
X7467660Y-12281786D01*
X7467660Y-12281786D02*
X7477184Y-12234167D01*
X7477184Y-12234167D02*
X7486708Y-12205595D01*
X7486708Y-12205595D02*
X7496231Y-12186548D01*
X7496231Y-12186548D02*
X7515279Y-12157976D01*
X7515279Y-12157976D02*
X7524803Y-12148452D01*
X7686708Y-12243690D02*
X7686708Y-12377024D01*
X7639088Y-12167500D02*
X7591469Y-12310357D01*
X7591469Y-12310357D02*
X7715279Y-12310357D01*
X7781946Y-12196071D02*
X7791469Y-12186548D01*
X7791469Y-12186548D02*
X7810517Y-12177024D01*
X7810517Y-12177024D02*
X7858136Y-12177024D01*
X7858136Y-12177024D02*
X7877184Y-12186548D01*
X7877184Y-12186548D02*
X7886708Y-12196071D01*
X7886708Y-12196071D02*
X7896231Y-12215119D01*
X7896231Y-12215119D02*
X7896231Y-12234167D01*
X7896231Y-12234167D02*
X7886708Y-12262738D01*
X7886708Y-12262738D02*
X7772422Y-12377024D01*
X7772422Y-12377024D02*
X7896231Y-12377024D01*
X8134327Y-12377024D02*
X8134327Y-12177024D01*
X8220041Y-12377024D02*
X8220041Y-12272262D01*
X8220041Y-12272262D02*
X8210517Y-12253214D01*
X8210517Y-12253214D02*
X8191470Y-12243690D01*
X8191470Y-12243690D02*
X8162898Y-12243690D01*
X8162898Y-12243690D02*
X8143850Y-12253214D01*
X8143850Y-12253214D02*
X8134327Y-12262738D01*
X8343850Y-12377024D02*
X8324803Y-12367500D01*
X8324803Y-12367500D02*
X8315279Y-12357976D01*
X8315279Y-12357976D02*
X8305755Y-12338928D01*
X8305755Y-12338928D02*
X8305755Y-12281786D01*
X8305755Y-12281786D02*
X8315279Y-12262738D01*
X8315279Y-12262738D02*
X8324803Y-12253214D01*
X8324803Y-12253214D02*
X8343850Y-12243690D01*
X8343850Y-12243690D02*
X8372422Y-12243690D01*
X8372422Y-12243690D02*
X8391470Y-12253214D01*
X8391470Y-12253214D02*
X8400993Y-12262738D01*
X8400993Y-12262738D02*
X8410517Y-12281786D01*
X8410517Y-12281786D02*
X8410517Y-12338928D01*
X8410517Y-12338928D02*
X8400993Y-12357976D01*
X8400993Y-12357976D02*
X8391470Y-12367500D01*
X8391470Y-12367500D02*
X8372422Y-12377024D01*
X8372422Y-12377024D02*
X8343850Y-12377024D01*
X8524803Y-12377024D02*
X8505755Y-12367500D01*
X8505755Y-12367500D02*
X8496232Y-12348452D01*
X8496232Y-12348452D02*
X8496232Y-12177024D01*
X8677184Y-12367500D02*
X8658136Y-12377024D01*
X8658136Y-12377024D02*
X8620041Y-12377024D01*
X8620041Y-12377024D02*
X8600993Y-12367500D01*
X8600993Y-12367500D02*
X8591470Y-12348452D01*
X8591470Y-12348452D02*
X8591470Y-12272262D01*
X8591470Y-12272262D02*
X8600993Y-12253214D01*
X8600993Y-12253214D02*
X8620041Y-12243690D01*
X8620041Y-12243690D02*
X8658136Y-12243690D01*
X8658136Y-12243690D02*
X8677184Y-12253214D01*
X8677184Y-12253214D02*
X8686708Y-12272262D01*
X8686708Y-12272262D02*
X8686708Y-12291309D01*
X8686708Y-12291309D02*
X8591470Y-12310357D01*
X8762898Y-12367500D02*
X8781946Y-12377024D01*
X8781946Y-12377024D02*
X8820041Y-12377024D01*
X8820041Y-12377024D02*
X8839089Y-12367500D01*
X8839089Y-12367500D02*
X8848613Y-12348452D01*
X8848613Y-12348452D02*
X8848613Y-12338928D01*
X8848613Y-12338928D02*
X8839089Y-12319881D01*
X8839089Y-12319881D02*
X8820041Y-12310357D01*
X8820041Y-12310357D02*
X8791470Y-12310357D01*
X8791470Y-12310357D02*
X8772422Y-12300833D01*
X8772422Y-12300833D02*
X8762898Y-12281786D01*
X8762898Y-12281786D02*
X8762898Y-12272262D01*
X8762898Y-12272262D02*
X8772422Y-12253214D01*
X8772422Y-12253214D02*
X8791470Y-12243690D01*
X8791470Y-12243690D02*
X8820041Y-12243690D01*
X8820041Y-12243690D02*
X8839089Y-12253214D01*
X8915279Y-12453214D02*
X8924803Y-12443690D01*
X8924803Y-12443690D02*
X8943851Y-12415119D01*
X8943851Y-12415119D02*
X8953374Y-12396071D01*
X8953374Y-12396071D02*
X8962898Y-12367500D01*
X8962898Y-12367500D02*
X8972422Y-12319881D01*
X8972422Y-12319881D02*
X8972422Y-12281786D01*
X8972422Y-12281786D02*
X8962898Y-12234167D01*
X8962898Y-12234167D02*
X8953374Y-12205595D01*
X8953374Y-12205595D02*
X8943851Y-12186548D01*
X8943851Y-12186548D02*
X8924803Y-12157976D01*
X8924803Y-12157976D02*
X8915279Y-12148452D01*
M02*
