%TF.GenerationSoftware,KiCad,Pcbnew,7.0.6*%
%TF.CreationDate,2024-02-07T19:17:42+08:00*%
%TF.ProjectId,PCB_Main_Board_ESP32S3_RFM95,5043425f-4d61-4696-9e5f-426f6172645f,rev?*%
%TF.SameCoordinates,Original*%
%TF.FileFunction,Soldermask,Bot*%
%TF.FilePolarity,Negative*%
%FSLAX46Y46*%
G04 Gerber Fmt 4.6, Leading zero omitted, Abs format (unit mm)*
G04 Created by KiCad (PCBNEW 7.0.6) date 2024-02-07 19:17:42*
%MOMM*%
%LPD*%
G01*
G04 APERTURE LIST*
G04 Aperture macros list*
%AMRoundRect*
0 Rectangle with rounded corners*
0 $1 Rounding radius*
0 $2 $3 $4 $5 $6 $7 $8 $9 X,Y pos of 4 corners*
0 Add a 4 corners polygon primitive as box body*
4,1,4,$2,$3,$4,$5,$6,$7,$8,$9,$2,$3,0*
0 Add four circle primitives for the rounded corners*
1,1,$1+$1,$2,$3*
1,1,$1+$1,$4,$5*
1,1,$1+$1,$6,$7*
1,1,$1+$1,$8,$9*
0 Add four rect primitives between the rounded corners*
20,1,$1+$1,$2,$3,$4,$5,0*
20,1,$1+$1,$4,$5,$6,$7,0*
20,1,$1+$1,$6,$7,$8,$9,0*
20,1,$1+$1,$8,$9,$2,$3,0*%
G04 Aperture macros list end*
%ADD10C,3.200000*%
%ADD11RoundRect,0.250000X0.600000X0.750000X-0.600000X0.750000X-0.600000X-0.750000X0.600000X-0.750000X0*%
%ADD12O,1.700000X2.000000*%
%ADD13C,0.650000*%
%ADD14O,2.204000X1.204000*%
%ADD15O,2.004000X1.104000*%
%ADD16R,1.700000X1.700000*%
%ADD17O,1.700000X1.700000*%
%ADD18C,0.900000*%
%ADD19RoundRect,0.237500X-0.300000X-0.237500X0.300000X-0.237500X0.300000X0.237500X-0.300000X0.237500X0*%
%ADD20RoundRect,0.237500X0.250000X0.237500X-0.250000X0.237500X-0.250000X-0.237500X0.250000X-0.237500X0*%
%ADD21RoundRect,0.237500X-0.250000X-0.237500X0.250000X-0.237500X0.250000X0.237500X-0.250000X0.237500X0*%
%ADD22RoundRect,0.237500X-0.237500X0.250000X-0.237500X-0.250000X0.237500X-0.250000X0.237500X0.250000X0*%
%ADD23RoundRect,0.237500X0.237500X-0.250000X0.237500X0.250000X-0.237500X0.250000X-0.237500X-0.250000X0*%
%ADD24RoundRect,0.150000X-0.150000X-0.700000X0.150000X-0.700000X0.150000X0.700000X-0.150000X0.700000X0*%
%ADD25RoundRect,0.250000X-0.250000X-1.100000X0.250000X-1.100000X0.250000X1.100000X-0.250000X1.100000X0*%
%ADD26R,1.600000X0.700000*%
%ADD27R,1.600000X1.400000*%
%ADD28R,2.200000X1.400000*%
%ADD29R,1.400000X1.800000*%
%ADD30RoundRect,0.150000X-0.150000X0.587500X-0.150000X-0.587500X0.150000X-0.587500X0.150000X0.587500X0*%
G04 APERTURE END LIST*
D10*
%TO.C,REF\u002A\u002A*%
X105816400Y-103276400D03*
%TD*%
%TO.C,REF\u002A\u002A*%
X53746400Y-108331000D03*
%TD*%
%TO.C,REF\u002A\u002A*%
X55016400Y-60071000D03*
%TD*%
D11*
%TO.C,J1*%
X45050000Y-109100000D03*
D12*
X42550000Y-109100000D03*
%TD*%
D13*
%TO.C,J2*%
X44880000Y-65185000D03*
X44880000Y-70965000D03*
D14*
X45360000Y-63750000D03*
X45360000Y-72400000D03*
D15*
X41180000Y-63750000D03*
X41180000Y-72400000D03*
%TD*%
D16*
%TO.C,J5*%
X90590000Y-108350000D03*
D17*
X93130000Y-108350000D03*
X95670000Y-108350000D03*
X98210000Y-108350000D03*
X100750000Y-108350000D03*
X103290000Y-108350000D03*
%TD*%
D18*
%TO.C,S1*%
X41300000Y-77290000D03*
X41300000Y-80290000D03*
%TD*%
D16*
%TO.C,J10*%
X85460000Y-104690000D03*
D17*
X82920000Y-104690000D03*
X80380000Y-104690000D03*
%TD*%
D10*
%TO.C,REF\u002A\u002A*%
X105850000Y-75350000D03*
%TD*%
D16*
%TO.C,J6*%
X67710000Y-108350000D03*
D17*
X70250000Y-108350000D03*
X72790000Y-108350000D03*
X75330000Y-108350000D03*
X77870000Y-108350000D03*
X80410000Y-108350000D03*
X82950000Y-108350000D03*
X85490000Y-108350000D03*
%TD*%
D16*
%TO.C,J7*%
X85480000Y-60100000D03*
D17*
X88020000Y-60100000D03*
X90560000Y-60100000D03*
X93100000Y-60100000D03*
X95640000Y-60100000D03*
X98180000Y-60100000D03*
X100720000Y-60100000D03*
X103260000Y-60100000D03*
%TD*%
D16*
%TO.C,J9*%
X58540000Y-60100000D03*
D17*
X61080000Y-60100000D03*
X63620000Y-60100000D03*
X66160000Y-60100000D03*
X68700000Y-60100000D03*
X71240000Y-60100000D03*
X73780000Y-60100000D03*
X76320000Y-60100000D03*
X78860000Y-60100000D03*
X81400000Y-60100000D03*
%TD*%
D16*
%TO.C,J11*%
X90580000Y-104760000D03*
D17*
X93120000Y-104760000D03*
X95660000Y-104760000D03*
X98200000Y-104760000D03*
X100740000Y-104760000D03*
%TD*%
D19*
%TO.C,C14*%
X55687500Y-97315000D03*
X57412500Y-97315000D03*
%TD*%
D20*
%TO.C,R19*%
X57575000Y-89565000D03*
X55750000Y-89565000D03*
%TD*%
%TO.C,R10*%
X42962500Y-70600000D03*
X41137500Y-70600000D03*
%TD*%
%TO.C,R26*%
X57575000Y-87990000D03*
X55750000Y-87990000D03*
%TD*%
D21*
%TO.C,R17*%
X55787500Y-95065000D03*
X57612500Y-95065000D03*
%TD*%
D22*
%TO.C,R34*%
X73240000Y-78057500D03*
X73240000Y-79882500D03*
%TD*%
%TO.C,R35*%
X67080000Y-78067500D03*
X67080000Y-79892500D03*
%TD*%
D23*
%TO.C,R36*%
X65460000Y-79892500D03*
X65460000Y-78067500D03*
%TD*%
D20*
%TO.C,R32*%
X57562500Y-91190000D03*
X55737500Y-91190000D03*
%TD*%
D22*
%TO.C,R33*%
X70190000Y-78067500D03*
X70190000Y-79892500D03*
%TD*%
D20*
%TO.C,R12*%
X46462500Y-104900000D03*
X44637500Y-104900000D03*
%TD*%
D21*
%TO.C,R18*%
X55787500Y-93515000D03*
X57612500Y-93515000D03*
%TD*%
D24*
%TO.C,J3*%
X60900000Y-109690000D03*
X62150000Y-109690000D03*
D25*
X59050000Y-106490000D03*
X64000000Y-106490000D03*
%TD*%
D20*
%TO.C,R13*%
X42987500Y-104925000D03*
X41162500Y-104925000D03*
%TD*%
D21*
%TO.C,R11*%
X41112500Y-65575000D03*
X42937500Y-65575000D03*
%TD*%
D23*
%TO.C,R9*%
X71720000Y-79892500D03*
X71720000Y-78067500D03*
%TD*%
D18*
%TO.C,P1*%
X43080000Y-98320000D03*
X43080000Y-90320000D03*
D26*
X53580000Y-91120000D03*
X53580000Y-92220000D03*
X53580000Y-93320000D03*
X53580000Y-94420000D03*
X53580000Y-95520000D03*
X53580000Y-96620000D03*
X53580000Y-97720000D03*
X53580000Y-98820000D03*
X53580000Y-99920000D03*
D27*
X52980000Y-101220000D03*
D28*
X43480000Y-101220000D03*
X43480000Y-85520000D03*
D29*
X53080000Y-86420000D03*
%TD*%
D22*
%TO.C,R14*%
X68640000Y-78070000D03*
X68640000Y-79895000D03*
%TD*%
D20*
%TO.C,R31*%
X57462500Y-98840000D03*
X55637500Y-98840000D03*
%TD*%
D30*
%TO.C,Q3*%
X47025000Y-106612500D03*
X48925000Y-106612500D03*
X47975000Y-108487500D03*
%TD*%
M02*
